<svg width="18" height="23" viewBox="0 0 18 23" fill="none" xmlns="http://www.w3.org/2000/svg">
<path d="M1.02377 22.7832V19.4232L9.66377 11.2632C10.3464 10.6445 10.8478 10.0899 11.1678 9.5992C11.4878 9.10854 11.7011 8.66054 11.8078 8.2552C11.9358 7.84987 11.9998 7.47654 11.9998 7.1352C11.9998 6.2392 11.6904 5.55654 11.0718 5.0872C10.4744 4.59654 9.58911 4.3512 8.41577 4.3512C7.47711 4.3512 6.60244 4.53254 5.79177 4.8952C5.00244 5.25787 4.33044 5.8232 3.77577 6.5912L-0.000226561 4.1592C0.853107 2.8792 2.04777 1.86587 3.58377 1.1192C5.11977 0.372536 6.89044 -0.000797272 8.89577 -0.000797272C10.5598 -0.000797272 12.0104 0.276536 13.2478 0.831202C14.5064 1.36454 15.4771 2.12187 16.1598 3.1032C16.8638 4.08454 17.2158 5.25787 17.2158 6.6232C17.2158 7.34854 17.1198 8.07387 16.9278 8.7992C16.7571 9.5032 16.3944 10.2499 15.8398 11.0392C15.3064 11.8285 14.5171 12.7139 13.4718 13.6952L6.30377 20.4472L5.31177 18.5592H17.9518V22.7832H1.02377Z" fill="white"/>
</svg>
