<svg width="26" height="32" viewBox="0 0 26 32" fill="none" xmlns="http://www.w3.org/2000/svg">
<circle cx="13" cy="13" r="13" fill="#57A7B3"/>
<path d="M12.512 27.384C10.9547 27.384 9.408 27.1813 7.872 26.776C6.336 26.3493 5.03467 25.752 3.968 24.984L5.984 21.016C6.83733 21.6347 7.82933 22.1253 8.96 22.488C10.0907 22.8507 11.232 23.032 12.384 23.032C13.6853 23.032 14.7093 22.776 15.456 22.264C16.2027 21.752 16.576 21.048 16.576 20.152C16.576 19.2987 16.2453 18.6267 15.584 18.136C14.9227 17.6453 13.856 17.4 12.384 17.4H10.016V13.976L16.256 6.904L16.832 8.76H5.088V4.6H20.768V7.96L14.56 15.032L11.936 13.528H13.44C16.192 13.528 18.272 14.1467 19.68 15.384C21.088 16.6213 21.792 18.2107 21.792 20.152C21.792 21.4107 21.4613 22.5947 20.8 23.704C20.1387 24.792 19.1253 25.6773 17.76 26.36C16.3947 27.0427 14.6453 27.384 12.512 27.384Z" fill="white"/>
</svg>
