<svg width="40" height="40" viewBox="0 0 40 40" fill="none" xmlns="http://www.w3.org/2000/svg">
<mask id="mask0_5144_3383" style="mask-type:alpha" maskUnits="userSpaceOnUse" x="0" y="0" width="40" height="40">
<circle cx="20" cy="20" r="20" fill="#D9D9D9"/>
</mask>
<g mask="url(#mask0_5144_3383)">
<circle cx="23.0511" cy="19.1526" r="23.7288" fill="black"/>
</g>
<g clip-path="url(#clip0_5144_3383)">
<path fill-rule="evenodd" clip-rule="evenodd" d="M29.3372 11.5158C29.8879 11.5158 30.3386 11.9669 30.3386 12.5186V27.6404C30.3386 28.1922 29.8879 28.6436 29.3372 28.6436C28.7865 28.6436 28.3363 28.1922 28.3363 27.6404V12.5186C28.3363 11.9669 28.7865 11.5158 29.3372 11.5158ZM14.7713 13.3245L24.1469 13.3314L24.1607 26.5212L21.7953 25.481C21.2187 25.1522 19.2565 25.2935 18.4177 25.2935L11.4443 25.2797L11.4423 20.3893C13.5062 20.2959 16.1787 20.3824 18.3629 20.3824C19.0389 20.3824 20.1768 20.5403 20.1719 19.4011C20.1691 18.7414 19.8044 18.5409 19.2221 18.5348L11.2903 18.4483C10.2509 18.4483 9.52509 18.4203 9.50726 19.5059C9.47768 21.3413 9.50726 23.2072 9.50807 25.0458C9.49429 26.5252 10.1257 27.2316 11.5071 27.2304L19.898 27.2276C20.5695 27.2276 20.777 27.1813 21.211 27.3611L23.52 28.3732C24.0703 28.6148 24.6693 28.5904 25.2759 28.1706C26.0005 27.6693 26.0937 27.0177 26.0933 26.1988L26.0937 13.633C26.1046 12.191 25.686 11.3786 24.121 11.3555L15.0761 11.3563C13.2638 11.3563 12.8144 11.5641 12.8144 13.0829V15.6844C12.8144 16.2499 13.0191 16.7416 13.4802 16.8865C13.8891 17.0152 14.2542 16.9092 14.5411 16.619C14.666 16.4927 14.7385 16.3498 14.7636 16.1168C14.8451 15.36 14.7713 14.1315 14.7713 13.3245Z" fill="white"/>
</g>
<defs>
<clipPath id="clip0_5144_3383">
<rect width="20.8475" height="17.2881" fill="white" transform="translate(9.49219 11.3555)"/>
</clipPath>
</defs>
</svg>
