<svg width="153" height="531" viewBox="0 0 153 531" fill="none" xmlns="http://www.w3.org/2000/svg">
<path d="M34.9258 412.153C57.8867 389.042 95.1142 389.042 118.075 412.153C141.036 435.264 141.036 472.735 118.075 495.846C95.1142 518.957 57.8867 518.957 34.9258 495.846C11.965 472.735 11.965 435.264 34.9258 412.153ZM77.0039 402.777C73.6777 402.778 70.9814 405.492 70.9814 408.84C70.9815 412.188 73.6777 414.902 77.0039 414.902C80.3303 414.902 83.0273 412.188 83.0273 408.84C83.0273 405.492 80.3303 402.777 77.0039 402.777Z" fill="#D7B56D"/>
<path d="M57.524 460.216C56.552 460.216 55.646 460.06 54.806 459.748C53.978 459.424 53.258 458.968 52.646 458.38C52.034 457.792 51.554 457.102 51.206 456.31C50.87 455.518 50.702 454.648 50.702 453.7C50.702 452.752 50.87 451.882 51.206 451.09C51.554 450.298 52.034 449.608 52.646 449.02C53.27 448.432 53.996 447.982 54.824 447.67C55.652 447.346 56.558 447.184 57.542 447.184C58.634 447.184 59.618 447.376 60.494 447.76C61.382 448.132 62.126 448.684 62.726 449.416L60.854 451.144C60.422 450.652 59.942 450.286 59.414 450.046C58.886 449.794 58.31 449.668 57.686 449.668C57.098 449.668 56.558 449.764 56.066 449.956C55.574 450.148 55.148 450.424 54.788 450.784C54.428 451.144 54.146 451.57 53.942 452.062C53.75 452.554 53.654 453.1 53.654 453.7C53.654 454.3 53.75 454.846 53.942 455.338C54.146 455.83 54.428 456.256 54.788 456.616C55.148 456.976 55.574 457.252 56.066 457.444C56.558 457.636 57.098 457.732 57.686 457.732C58.31 457.732 58.886 457.612 59.414 457.372C59.942 457.12 60.422 456.742 60.854 456.238L62.726 457.966C62.126 458.698 61.382 459.256 60.494 459.64C59.618 460.024 58.628 460.216 57.524 460.216ZM64.6107 460L70.2267 447.4H73.1067L78.7407 460H75.6807L71.0727 448.876H72.2247L67.5987 460H64.6107ZM67.4187 457.3L68.1927 455.086H74.6727L75.4647 457.3H67.4187ZM81.8479 460V447.4H84.7639V460H81.8479ZM92.2362 452.476H98.3022V454.744H92.2362V452.476ZM92.4522 457.66H99.3102V460H89.5542V447.4H99.0762V449.74H92.4522V457.66Z" fill="#464646"/>
<line x1="77.5" y1="404" x2="77.5" y2="-2.18557e-08" stroke="#787878"/>
</svg>
