<svg width="136" height="513" viewBox="0 0 136 513" fill="none" xmlns="http://www.w3.org/2000/svg">
<path d="M31.0445 408.045C51.4542 387.636 84.5449 387.636 104.955 408.045C125.364 428.455 125.364 461.546 104.955 481.956C84.5449 502.365 51.4543 502.365 31.0445 481.956C10.635 461.546 10.6348 428.455 31.0445 408.045ZM68.4478 399.765C65.491 399.765 63.0943 402.163 63.0943 405.12C63.0945 408.076 65.4911 410.473 68.4478 410.473C71.4045 410.473 73.8012 408.076 73.8014 405.12C73.8014 402.163 71.4046 399.765 68.4478 399.765Z" fill="#E3CB13"/>
<path d="M48.524 451.216C47.552 451.216 46.646 451.06 45.806 450.748C44.978 450.424 44.258 449.968 43.646 449.38C43.034 448.792 42.554 448.102 42.206 447.31C41.87 446.518 41.702 445.648 41.702 444.7C41.702 443.752 41.87 442.882 42.206 442.09C42.554 441.298 43.034 440.608 43.646 440.02C44.27 439.432 44.996 438.982 45.824 438.67C46.652 438.346 47.558 438.184 48.542 438.184C49.634 438.184 50.618 438.376 51.494 438.76C52.382 439.132 53.126 439.684 53.726 440.416L51.854 442.144C51.422 441.652 50.942 441.286 50.414 441.046C49.886 440.794 49.31 440.668 48.686 440.668C48.098 440.668 47.558 440.764 47.066 440.956C46.574 441.148 46.148 441.424 45.788 441.784C45.428 442.144 45.146 442.57 44.942 443.062C44.75 443.554 44.654 444.1 44.654 444.7C44.654 445.3 44.75 445.846 44.942 446.338C45.146 446.83 45.428 447.256 45.788 447.616C46.148 447.976 46.574 448.252 47.066 448.444C47.558 448.636 48.098 448.732 48.686 448.732C49.31 448.732 49.886 448.612 50.414 448.372C50.942 448.12 51.422 447.742 51.854 447.238L53.726 448.966C53.126 449.698 52.382 450.256 51.494 450.64C50.618 451.024 49.628 451.216 48.524 451.216ZM57.4952 451V438.4H63.6512C65.2352 438.4 66.4232 438.7 67.2152 439.3C68.0192 439.9 68.4212 440.692 68.4212 441.676C68.4212 442.336 68.2592 442.912 67.9352 443.404C67.6112 443.884 67.1672 444.256 66.6032 444.52C66.0392 444.784 65.3912 444.916 64.6592 444.916L65.0012 444.178C65.7932 444.178 66.4952 444.31 67.1072 444.574C67.7192 444.826 68.1932 445.204 68.5292 445.708C68.8772 446.212 69.0512 446.83 69.0512 447.562C69.0512 448.642 68.6252 449.488 67.7732 450.1C66.9212 450.7 65.6672 451 64.0112 451H57.4952ZM60.3932 448.804H63.7952C64.5512 448.804 65.1212 448.684 65.5052 448.444C65.9012 448.192 66.0992 447.796 66.0992 447.256C66.0992 446.728 65.9012 446.338 65.5052 446.086C65.1212 445.822 64.5512 445.69 63.7952 445.69H60.1772V443.566H63.2912C63.9992 443.566 64.5392 443.446 64.9112 443.206C65.2952 442.954 65.4872 442.576 65.4872 442.072C65.4872 441.58 65.2952 441.214 64.9112 440.974C64.5392 440.722 63.9992 440.596 63.2912 440.596H60.3932V448.804ZM77.1988 451.216C76.1908 451.216 75.2248 451.084 74.3008 450.82C73.3768 450.544 72.6328 450.19 72.0688 449.758L73.0588 447.562C73.5988 447.946 74.2348 448.264 74.9668 448.516C75.7108 448.756 76.4608 448.876 77.2168 448.876C77.7928 448.876 78.2548 448.822 78.6028 448.714C78.9628 448.594 79.2268 448.432 79.3948 448.228C79.5628 448.024 79.6468 447.79 79.6468 447.526C79.6468 447.19 79.5148 446.926 79.2508 446.734C78.9868 446.53 78.6388 446.368 78.2068 446.248C77.7748 446.116 77.2948 445.996 76.7668 445.888C76.2508 445.768 75.7288 445.624 75.2008 445.456C74.6848 445.288 74.2108 445.072 73.7788 444.808C73.3468 444.544 72.9928 444.196 72.7168 443.764C72.4528 443.332 72.3208 442.78 72.3208 442.108C72.3208 441.388 72.5128 440.734 72.8968 440.146C73.2928 439.546 73.8808 439.072 74.6608 438.724C75.4528 438.364 76.4428 438.184 77.6308 438.184C78.4228 438.184 79.2028 438.28 79.9708 438.472C80.7388 438.652 81.4168 438.928 82.0048 439.3L81.1048 441.514C80.5168 441.178 79.9288 440.932 79.3408 440.776C78.7528 440.608 78.1768 440.524 77.6128 440.524C77.0488 440.524 76.5868 440.59 76.2268 440.722C75.8668 440.854 75.6088 441.028 75.4528 441.244C75.2968 441.448 75.2188 441.688 75.2188 441.964C75.2188 442.288 75.3508 442.552 75.6148 442.756C75.8788 442.948 76.2268 443.104 76.6588 443.224C77.0908 443.344 77.5648 443.464 78.0808 443.584C78.6088 443.704 79.1308 443.842 79.6468 443.998C80.1748 444.154 80.6548 444.364 81.0868 444.628C81.5188 444.892 81.8668 445.24 82.1308 445.672C82.4068 446.104 82.5448 446.65 82.5448 447.31C82.5448 448.018 82.3468 448.666 81.9508 449.254C81.5548 449.842 80.9608 450.316 80.1688 450.676C79.3888 451.036 78.3988 451.216 77.1988 451.216ZM92.3674 451.216C91.3954 451.216 90.4894 451.06 89.6494 450.748C88.8214 450.424 88.1014 449.968 87.4894 449.38C86.8774 448.792 86.3974 448.102 86.0494 447.31C85.7134 446.518 85.5454 445.648 85.5454 444.7C85.5454 443.752 85.7134 442.882 86.0494 442.09C86.3974 441.298 86.8774 440.608 87.4894 440.02C88.1134 439.432 88.8394 438.982 89.6674 438.67C90.4954 438.346 91.4014 438.184 92.3854 438.184C93.4774 438.184 94.4614 438.376 95.3374 438.76C96.2254 439.132 96.9694 439.684 97.5694 440.416L95.6974 442.144C95.2654 441.652 94.7854 441.286 94.2574 441.046C93.7294 440.794 93.1534 440.668 92.5294 440.668C91.9414 440.668 91.4014 440.764 90.9094 440.956C90.4174 441.148 89.9914 441.424 89.6314 441.784C89.2714 442.144 88.9894 442.57 88.7854 443.062C88.5934 443.554 88.4974 444.1 88.4974 444.7C88.4974 445.3 88.5934 445.846 88.7854 446.338C88.9894 446.83 89.2714 447.256 89.6314 447.616C89.9914 447.976 90.4174 448.252 90.9094 448.444C91.4014 448.636 91.9414 448.732 92.5294 448.732C93.1534 448.732 93.7294 448.612 94.2574 448.372C94.7854 448.12 95.2654 447.742 95.6974 447.238L97.5694 448.966C96.9694 449.698 96.2254 450.256 95.3374 450.64C94.4614 451.024 93.4714 451.216 92.3674 451.216Z" fill="#464646"/>
<line x1="68.5" y1="404" x2="68.5" y2="-2.18557e-08" stroke="#787878"/>
</svg>
