<svg width="92" height="83" viewBox="0 0 92 83" fill="none" xmlns="http://www.w3.org/2000/svg">
<path fill-rule="evenodd" clip-rule="evenodd" d="M25.5117 35.1392C26.1143 37.2556 29.3068 40.194 30.9498 41.6371C35.0218 45.2115 40.3476 46.8369 45.6884 46.7588C53.8998 46.6361 62.1411 42.4852 65.9175 35.1987C62.2422 28.1318 53.4881 23.6312 45.6884 23.594C37.0429 23.5531 29.5875 28.0685 25.5117 35.1392Z" fill="#FECC00"/>
<path fill-rule="evenodd" clip-rule="evenodd" d="M47.4315 68.5569C47.0834 68.7766 47.1994 69.202 47.3944 69.1646C50.4441 68.585 61.9418 54.7306 63.3947 51.6923C62.5824 49.9956 61.1213 48.7898 59.5292 48.0326C58.7561 48.8011 55.6636 50.7224 47.3944 50.7224C44.9574 50.7318 39.0418 49.5697 37.8821 49.1854C36.7225 48.8011 35.9118 48.6649 34.7897 48.0326C33.6676 47.4004 32.3224 46.1113 32.3224 46.1113C32.3224 46.1113 27.6435 50.1031 27.0586 51.6923C29.1613 55.8758 34.9172 59.3768 39.6611 60.6294C42.307 61.3259 47.5893 60.9613 48.968 62.0691C50.1238 62.9993 50.3141 64.1351 49.6782 65.7524C49.3718 66.5423 48.0675 68.1456 47.4315 68.5569Z" fill="#FECC00"/>
<path d="M51.5444 31.5977H39.5567C37.5578 31.5977 35.9375 33.2071 35.9375 35.1925C35.9375 37.1779 37.5578 38.7874 39.5567 38.7874H51.5444C53.5432 38.7874 55.1635 37.1779 55.1635 35.1925C55.1635 33.2071 53.5432 31.5977 51.5444 31.5977Z" fill="#464646"/>
<path d="M40.2933 36.5193C41.0292 36.5193 41.6257 35.9265 41.6257 35.1952C41.6257 34.4639 41.0292 33.8711 40.2933 33.8711C39.5575 33.8711 38.9609 34.4639 38.9609 35.1952C38.9609 35.9265 39.5575 36.5193 40.2933 36.5193Z" fill="#57A7B3"/>
<path d="M50.7464 36.5193C51.4823 36.5193 52.0788 35.9265 52.0788 35.1952C52.0788 34.4639 51.4823 33.8711 50.7464 33.8711C50.0106 33.8711 49.4141 34.4639 49.4141 35.1952C49.4141 35.9265 50.0106 36.5193 50.7464 36.5193Z" fill="#57A7B3"/>
<path d="M45.376 54.1079C46.054 54.1079 46.6036 53.5617 46.6036 52.888C46.6036 52.2142 46.054 51.668 45.376 51.668C44.698 51.668 44.1484 52.2142 44.1484 52.888C44.1484 53.5617 44.698 54.1079 45.376 54.1079Z" fill="#5B5B5B"/>
<path d="M40.2081 54.1079C40.886 54.1079 41.4357 53.5617 41.4357 52.888C41.4357 52.2142 40.886 51.668 40.2081 51.668C39.5301 51.668 38.9805 52.2142 38.9805 52.888C38.9805 53.5617 39.5301 54.1079 40.2081 54.1079Z" fill="#5B5B5B"/>
<path d="M50.5479 54.1079C51.2259 54.1079 51.7755 53.5617 51.7755 52.888C51.7755 52.2142 51.2259 51.668 50.5479 51.668C49.8699 51.668 49.3203 52.2142 49.3203 52.888C49.3203 53.5617 49.8699 54.1079 50.5479 54.1079Z" fill="#5B5B5B"/>
<g clip-path="url(#clip0_6551_4382)">
<path fill-rule="evenodd" clip-rule="evenodd" d="M54.8896 49.9531C53.7738 55.8898 50.1561 60.5808 47.9316 61.8652L49.8644 63.0179C51.7972 61.0966 54.0125 57.1684 54.8896 49.9531Z" fill="#4A1D03"/>
<path fill-rule="evenodd" clip-rule="evenodd" d="M50.1206 47.6484L50.8606 47.8698C50.8982 47.8801 50.8418 47.9006 50.8794 47.9135L51.5405 48.1323C51.578 48.1451 51.5067 48.1812 51.5442 48.1966C52.7537 48.7062 53.8806 49.3238 54.8797 50.0495C53.1218 59.0208 46.2443 72.676 31.7455 62.4616L31.6028 60.5752C31.1145 60.2587 30.9642 59.8006 30.9492 59.4841L31.8357 59.3734C31.6065 58.7172 31.0168 57.94 31.2572 56.6481C39.2053 55.5492 47.0782 52.1135 50.1206 47.6484Z" fill="#EC691F"/>
<path fill-rule="evenodd" clip-rule="evenodd" d="M50.8638 47.9141C46.7545 53.1718 39.1258 57.1093 30.9336 58.2468L30.9486 59.4846C38.5361 58.6431 47.6335 54.3041 50.8638 47.9141Z" fill="#893D10"/>
<path fill-rule="evenodd" clip-rule="evenodd" d="M51.5334 48.1797C47.2176 54.6701 39.8179 59.2355 31.2051 60.6433L31.746 62.4627C39.7203 61.423 48.1416 56.0701 51.5334 48.1797Z" fill="#893D10"/>
<path fill-rule="evenodd" clip-rule="evenodd" d="M45.3799 57.2578C47.089 57.2578 48.4788 58.21 48.4788 59.3835C48.4788 60.5571 47.089 61.5067 45.3799 61.5067C43.6671 61.5067 42.2773 60.5571 42.2773 59.3835C42.2773 58.21 43.6671 57.2578 45.3799 57.2578Z" fill="#F8AF28" fill-opacity="0.239216"/>
<path d="M45.7121 59.3764V58.8128C45.7121 58.7819 45.6933 58.7639 45.6595 58.7639H44.9759C44.9345 58.7639 44.9158 58.7793 44.9158 58.8128V59.3764C44.9158 59.4073 44.9345 59.4253 44.9759 59.4253H45.6482C45.6895 59.4253 45.7121 59.4073 45.7121 59.3764ZM45.6482 59.7804H44.9759C44.9345 59.7804 44.9158 59.7984 44.9158 59.8293V60.0249C44.9158 60.0789 44.8744 60.1073 44.7918 60.1073H44.4387C44.3561 60.1073 44.3148 60.0789 44.3148 60.0249V58.8128C44.3148 58.7819 44.2997 58.7639 44.2659 58.7639H44.0068C43.9241 58.7639 43.8828 58.7356 43.8828 58.679V58.4756C43.8828 58.4242 43.9241 58.3984 44.0068 58.3984H46.6473C46.7262 58.3984 46.7675 58.4267 46.7675 58.4782V58.679C46.7675 58.7356 46.7262 58.7639 46.6473 58.7639H46.3694C46.3281 58.7639 46.3093 58.7793 46.3093 58.8128V60.4984C46.3093 60.5525 46.268 60.5782 46.1853 60.5782H45.8323C45.7534 60.5782 45.7121 60.5525 45.7121 60.4984V59.8293C45.7121 59.7984 45.6895 59.7804 45.6482 59.7804Z" fill="#A34E1C"/>
<path d="M44.5235 59.418H44.0502C44.0149 59.418 43.9863 59.4445 43.9863 59.4772V59.7397C43.9863 59.7723 44.0149 59.7989 44.0502 59.7989H44.5235C44.5587 59.7989 44.5873 59.7723 44.5873 59.7397V59.4772C44.5873 59.4445 44.5587 59.418 44.5235 59.418Z" fill="#A34E1C"/>
</g>
<rect x="44.0664" y="26.1289" width="3.09244" height="0.768519" rx="0.384259" fill="#EF7F1A"/>
<rect x="44.0664" y="27.666" width="3.09244" height="0.768519" rx="0.384259" fill="#EF7F1A"/>
<rect x="44.0664" y="29.2031" width="3.09244" height="0.768519" rx="0.384259" fill="#EF7F1A"/>
<defs>
<clipPath id="clip0_6551_4382">
<rect width="23.9664" height="18.4444" fill="white" transform="translate(30.9238 47.6484)"/>
</clipPath>
</defs>
</svg>
