<svg width="119" height="108" viewBox="0 0 119 108" fill="none" xmlns="http://www.w3.org/2000/svg">
<g clip-path="url(#clip0_6431_16023)">
<g filter="url(#filter0_d_6431_16023)">
<path d="M59.0755 98.7139C83.312 98.7139 102.96 79.0715 102.96 54.8413C102.96 30.6112 83.312 10.9688 59.0755 10.9688C34.839 10.9688 15.1914 30.6112 15.1914 54.8413C15.1914 79.0715 34.839 98.7139 59.0755 98.7139Z" fill="#FECC00"/>
</g>
<g filter="url(#filter1_d_6431_16023)">
<path fill-rule="evenodd" clip-rule="evenodd" d="M33 45.7242C33.7794 48.478 37.9088 52.3015 40.034 54.1793C45.3011 58.8303 52.1899 60.9453 59.0981 60.8437C69.7193 60.684 80.3793 55.2828 85.264 45.8016C80.51 36.6061 69.1868 30.7499 59.0981 30.7015C47.9153 30.6483 38.2719 36.5238 33 45.7242Z" fill="white"/>
</g>
<g filter="url(#filter2_d_6431_16023)">
<path fill-rule="evenodd" clip-rule="evenodd" d="M61.3519 89.2063C60.9016 89.4922 61.0517 90.0456 61.3039 89.997C65.2486 89.2428 80.1207 71.2154 82 67.262C80.9493 65.0542 79.0594 63.4853 77 62.5C76 63.5 72 66 61.3039 66C58.1518 66.0122 50.5 64.5 49 64C47.5 63.5 46.4514 63.3227 45 62.5C43.5486 61.6773 41.8086 60 41.8086 60C41.8086 60 35.7565 65.1941 35 67.262C37.7199 72.7055 45.1649 77.261 51.3011 78.891C54.7234 79.7973 61.5561 79.3229 63.3393 80.7643C64.8343 81.9747 65.0805 83.4526 64.2579 85.557C63.8617 86.5849 62.1745 88.6711 61.3519 89.2063Z" fill="white"/>
</g>
<path d="M66.6715 41.1152H51.1657C48.5803 41.1152 46.4844 43.2095 46.4844 45.7929C46.4844 48.3763 48.5803 50.4705 51.1657 50.4705H66.6715C69.257 50.4705 71.3528 48.3763 71.3528 45.7929C71.3528 43.2095 69.257 41.1152 66.6715 41.1152Z" fill="#464646"/>
<path d="M52.1179 47.5182C53.0698 47.5182 53.8414 46.7468 53.8414 45.7952C53.8414 44.8437 53.0698 44.0723 52.1179 44.0723C51.1661 44.0723 50.3945 44.8437 50.3945 45.7952C50.3945 46.7468 51.1661 47.5182 52.1179 47.5182Z" fill="#57A7B3"/>
<path d="M65.6394 47.5182C66.5912 47.5182 67.3628 46.7468 67.3628 45.7952C67.3628 44.8437 66.5912 44.0723 65.6394 44.0723C64.6876 44.0723 63.916 44.8437 63.916 45.7952C63.916 46.7468 64.6876 47.5182 65.6394 47.5182Z" fill="#57A7B3"/>
<path d="M58.6933 70.4054C59.5703 70.4054 60.2812 69.6946 60.2812 68.8179C60.2812 67.9412 59.5703 67.2305 58.6933 67.2305C57.8164 67.2305 57.1055 67.9412 57.1055 68.8179C57.1055 69.6946 57.8164 70.4054 58.6933 70.4054Z" fill="#5B5B5B"/>
<path d="M52.0078 70.4054C52.8847 70.4054 53.5956 69.6946 53.5956 68.8179C53.5956 67.9412 52.8847 67.2305 52.0078 67.2305C51.1308 67.2305 50.4199 67.9412 50.4199 68.8179C50.4199 69.6946 51.1308 70.4054 52.0078 70.4054Z" fill="#5B5B5B"/>
<path d="M65.3847 70.4054C66.2617 70.4054 66.9726 69.6946 66.9726 68.8179C66.9726 67.9412 66.2617 67.2305 65.3847 67.2305C64.5078 67.2305 63.7969 67.9412 63.7969 68.8179C63.7969 69.6946 64.5078 70.4054 65.3847 70.4054Z" fill="#5B5B5B"/>
<g clip-path="url(#clip1_6431_16023)">
<path fill-rule="evenodd" clip-rule="evenodd" d="M71 65C69.5567 72.7249 64.8773 78.8287 62 80.5L64.5 82C67 79.5 69.8654 74.3886 71 65Z" fill="#4A1D03"/>
<path fill-rule="evenodd" clip-rule="evenodd" d="M64.831 62L65.7882 62.288C65.8367 62.3014 65.7639 62.3282 65.8124 62.3449L66.6675 62.6296C66.7161 62.6463 66.6238 62.6932 66.6724 62.7133C68.2368 63.3763 69.6944 64.18 70.9868 65.1243C68.713 76.7978 59.8171 94.5659 41.0632 81.275L40.8786 78.8204C40.247 78.4085 40.0526 77.8125 40.0332 77.4006L41.1798 77.2566C40.8834 76.4027 40.1207 75.3914 40.4316 73.7103C50.7122 72.2805 60.8956 67.81 64.831 62Z" fill="#EC691F"/>
<path fill-rule="evenodd" clip-rule="evenodd" d="M65.7929 62.3457C60.4777 69.1871 50.6101 74.3105 40.0137 75.7907L40.0331 77.4014C49.8473 76.3064 61.6146 70.6605 65.7929 62.3457Z" fill="#893D10"/>
<path fill-rule="evenodd" clip-rule="evenodd" d="M66.6575 62.6895C61.0751 71.1348 51.5038 77.0754 40.3633 78.9071L41.0629 81.2746C51.3775 79.9218 62.2703 72.9565 66.6575 62.6895Z" fill="#893D10"/>
<path fill-rule="evenodd" clip-rule="evenodd" d="M58.7006 74.5039C60.9112 74.5039 62.7089 75.7429 62.7089 77.2699C62.7089 78.7969 60.9112 80.0326 58.7006 80.0326C56.4851 80.0326 54.6875 78.7969 54.6875 77.2699C54.6875 75.7429 56.4851 74.5039 58.7006 74.5039Z" fill="#F8AF28" fill-opacity="0.239216"/>
<path d="M59.1278 77.2608V76.5274C59.1278 76.4872 59.1035 76.4638 59.0598 76.4638H58.1755C58.1221 76.4638 58.0978 76.4839 58.0978 76.5274V77.2608C58.0978 77.301 58.1221 77.3244 58.1755 77.3244H59.0452C59.0987 77.3244 59.1278 77.301 59.1278 77.2608ZM59.0452 77.7865H58.1755C58.1221 77.7865 58.0978 77.81 58.0978 77.8501V78.1046C58.0978 78.175 58.0444 78.2118 57.9375 78.2118H57.4808C57.3739 78.2118 57.3204 78.175 57.3204 78.1046V76.5274C57.3204 76.4872 57.301 76.4638 57.2573 76.4638H56.922C56.8152 76.4638 56.7617 76.427 56.7617 76.3533V76.0887C56.7617 76.0218 56.8152 75.9883 56.922 75.9883H60.3376C60.4396 75.9883 60.4931 76.0251 60.4931 76.0921V76.3533C60.4931 76.427 60.4396 76.4638 60.3376 76.4638H59.9781C59.9246 76.4638 59.9003 76.4839 59.9003 76.5274V78.7208C59.9003 78.7911 59.8469 78.8246 59.74 78.8246H59.2833C59.1813 78.8246 59.1278 78.7911 59.1278 78.7208V77.8501C59.1278 77.81 59.0987 77.7865 59.0452 77.7865Z" fill="#A34E1C"/>
<path d="M57.5913 77.3145H56.9791C56.9335 77.3145 56.8965 77.3489 56.8965 77.3915V77.733C56.8965 77.7756 56.9335 77.8101 56.9791 77.8101H57.5913C57.6369 77.8101 57.6738 77.7756 57.6738 77.733V77.3915C57.6738 77.3489 57.6369 77.3145 57.5913 77.3145Z" fill="#A34E1C"/>
</g>
<rect x="57" y="34" width="4" height="1" rx="0.5" fill="#EF7F1A"/>
<rect x="57" y="36" width="4" height="1" rx="0.5" fill="#EF7F1A"/>
<rect x="57" y="38" width="4" height="1" rx="0.5" fill="#EF7F1A"/>
</g>
<defs>
<filter id="filter0_d_6431_16023" x="3.19141" y="-1.03125" width="111.768" height="111.746" filterUnits="userSpaceOnUse" color-interpolation-filters="sRGB">
<feFlood flood-opacity="0" result="BackgroundImageFix"/>
<feColorMatrix in="SourceAlpha" type="matrix" values="0 0 0 0 0 0 0 0 0 0 0 0 0 0 0 0 0 0 127 0" result="hardAlpha"/>
<feOffset/>
<feGaussianBlur stdDeviation="6"/>
<feComposite in2="hardAlpha" operator="out"/>
<feColorMatrix type="matrix" values="0 0 0 0 0 0 0 0 0 0 0 0 0 0 0 0 0 0 0.35 0"/>
<feBlend mode="normal" in2="BackgroundImageFix" result="effect1_dropShadow_6431_16023"/>
<feBlend mode="normal" in="SourceGraphic" in2="effect1_dropShadow_6431_16023" result="shape"/>
</filter>
<filter id="filter1_d_6431_16023" x="15" y="16.7012" width="88.2637" height="66.1465" filterUnits="userSpaceOnUse" color-interpolation-filters="sRGB">
<feFlood flood-opacity="0" result="BackgroundImageFix"/>
<feColorMatrix in="SourceAlpha" type="matrix" values="0 0 0 0 0 0 0 0 0 0 0 0 0 0 0 0 0 0 127 0" result="hardAlpha"/>
<feOffset dy="4"/>
<feGaussianBlur stdDeviation="9"/>
<feComposite in2="hardAlpha" operator="out"/>
<feColorMatrix type="matrix" values="0 0 0 0 0 0 0 0 0 0 0 0 0 0 0 0 0 0 0.35 0"/>
<feBlend mode="normal" in2="BackgroundImageFix" result="effect1_dropShadow_6431_16023"/>
<feBlend mode="normal" in="SourceGraphic" in2="effect1_dropShadow_6431_16023" result="shape"/>
</filter>
<filter id="filter2_d_6431_16023" x="17" y="46" width="83" height="66" filterUnits="userSpaceOnUse" color-interpolation-filters="sRGB">
<feFlood flood-opacity="0" result="BackgroundImageFix"/>
<feColorMatrix in="SourceAlpha" type="matrix" values="0 0 0 0 0 0 0 0 0 0 0 0 0 0 0 0 0 0 127 0" result="hardAlpha"/>
<feOffset dy="4"/>
<feGaussianBlur stdDeviation="9"/>
<feComposite in2="hardAlpha" operator="out"/>
<feColorMatrix type="matrix" values="0 0 0 0 0 0 0 0 0 0 0 0 0 0 0 0 0 0 0.35 0"/>
<feBlend mode="normal" in2="BackgroundImageFix" result="effect1_dropShadow_6431_16023"/>
<feBlend mode="normal" in="SourceGraphic" in2="effect1_dropShadow_6431_16023" result="shape"/>
</filter>
<clipPath id="clip0_6431_16023">
<rect width="119" height="108" fill="white"/>
</clipPath>
<clipPath id="clip1_6431_16023">
<rect width="31" height="24" fill="white" transform="translate(40 62)"/>
</clipPath>
</defs>
</svg>
