<svg width="499" height="512" viewBox="0 0 499 512" fill="none" xmlns="http://www.w3.org/2000/svg">
<path d="M426.262 274H314.262V386H426.262V274Z" fill="white" fill-opacity="0.4"/>
<path fill-rule="evenodd" clip-rule="evenodd" d="M339.829 299.567C356.637 282.759 383.888 282.759 400.696 299.567C417.504 316.375 417.504 343.626 400.696 360.434C383.888 377.242 356.637 377.242 339.829 360.434C323.021 343.626 323.021 316.375 339.829 299.567ZM370.632 292.749C368.197 292.749 366.223 294.722 366.222 297.157C366.222 299.592 368.197 301.566 370.632 301.566C373.067 301.566 375.041 299.592 375.041 297.157C375.041 294.722 373.066 292.749 370.632 292.749Z" fill="#D4D4D4"/>
<path d="M342.128 336V323.4H348.284C349.868 323.4 351.056 323.7 351.848 324.3C352.652 324.9 353.054 325.692 353.054 326.676C353.054 327.336 352.892 327.912 352.568 328.404C352.244 328.884 351.8 329.256 351.236 329.52C350.672 329.784 350.024 329.916 349.292 329.916L349.634 329.178C350.426 329.178 351.128 329.31 351.74 329.574C352.352 329.826 352.826 330.204 353.162 330.708C353.51 331.212 353.684 331.83 353.684 332.562C353.684 333.642 353.258 334.488 352.406 335.1C351.554 335.7 350.3 336 348.644 336H342.128ZM345.026 333.804H348.428C349.184 333.804 349.754 333.684 350.138 333.444C350.534 333.192 350.732 332.796 350.732 332.256C350.732 331.728 350.534 331.338 350.138 331.086C349.754 330.822 349.184 330.69 348.428 330.69H344.81V328.566H347.924C348.632 328.566 349.172 328.446 349.544 328.206C349.928 327.954 350.12 327.576 350.12 327.072C350.12 326.58 349.928 326.214 349.544 325.974C349.172 325.722 348.632 325.596 347.924 325.596H345.026V333.804ZM361.832 336.216C360.824 336.216 359.858 336.084 358.934 335.82C358.01 335.544 357.266 335.19 356.702 334.758L357.692 332.562C358.232 332.946 358.868 333.264 359.6 333.516C360.344 333.756 361.094 333.876 361.85 333.876C362.426 333.876 362.888 333.822 363.236 333.714C363.596 333.594 363.86 333.432 364.028 333.228C364.196 333.024 364.28 332.79 364.28 332.526C364.28 332.19 364.148 331.926 363.884 331.734C363.62 331.53 363.272 331.368 362.84 331.248C362.408 331.116 361.928 330.996 361.4 330.888C360.884 330.768 360.362 330.624 359.834 330.456C359.318 330.288 358.844 330.072 358.412 329.808C357.98 329.544 357.626 329.196 357.35 328.764C357.086 328.332 356.954 327.78 356.954 327.108C356.954 326.388 357.146 325.734 357.53 325.146C357.926 324.546 358.514 324.072 359.294 323.724C360.086 323.364 361.076 323.184 362.264 323.184C363.056 323.184 363.836 323.28 364.604 323.472C365.372 323.652 366.05 323.928 366.638 324.3L365.738 326.514C365.15 326.178 364.562 325.932 363.974 325.776C363.386 325.608 362.81 325.524 362.246 325.524C361.682 325.524 361.22 325.59 360.86 325.722C360.5 325.854 360.242 326.028 360.086 326.244C359.93 326.448 359.852 326.688 359.852 326.964C359.852 327.288 359.984 327.552 360.248 327.756C360.512 327.948 360.86 328.104 361.292 328.224C361.724 328.344 362.198 328.464 362.714 328.584C363.242 328.704 363.764 328.842 364.28 328.998C364.808 329.154 365.288 329.364 365.72 329.628C366.152 329.892 366.5 330.24 366.764 330.672C367.04 331.104 367.178 331.65 367.178 332.31C367.178 333.018 366.98 333.666 366.584 334.254C366.188 334.842 365.594 335.316 364.802 335.676C364.022 336.036 363.032 336.216 361.832 336.216ZM373.652 328.476H379.718V330.744H373.652V328.476ZM373.868 333.66H380.726V336H370.97V323.4H380.492V325.74H373.868V333.66ZM393.487 323.4H396.403V336H393.487V323.4ZM387.763 336H384.847V323.4H387.763V336ZM393.703 330.834H387.547V328.368H393.703V330.834Z" fill="#E4E4E4"/>
<path d="M370.762 301V30" stroke="#BFBFBF"/>
<path fill-rule="evenodd" clip-rule="evenodd" d="M185.307 275.045C205.717 254.636 238.808 254.636 259.218 275.045C279.627 295.455 279.627 328.546 259.218 348.956C238.808 369.365 205.717 369.365 185.307 348.956C164.898 328.546 164.898 295.455 185.307 275.045ZM222.711 266.765C219.754 266.765 217.357 269.163 217.357 272.12C217.357 275.076 219.754 277.473 222.711 277.473C225.667 277.473 228.064 275.076 228.064 272.12C228.064 269.163 225.668 266.765 222.711 266.765Z" fill="#D4D4D4"/>
<path d="M194.128 318V305.4H200.284C201.868 305.4 203.056 305.7 203.848 306.3C204.652 306.9 205.054 307.692 205.054 308.676C205.054 309.336 204.892 309.912 204.568 310.404C204.244 310.884 203.8 311.256 203.236 311.52C202.672 311.784 202.024 311.916 201.292 311.916L201.634 311.178C202.426 311.178 203.128 311.31 203.74 311.574C204.352 311.826 204.826 312.204 205.162 312.708C205.51 313.212 205.684 313.83 205.684 314.562C205.684 315.642 205.258 316.488 204.406 317.1C203.554 317.7 202.3 318 200.644 318H194.128ZM197.026 315.804H200.428C201.184 315.804 201.754 315.684 202.138 315.444C202.534 315.192 202.732 314.796 202.732 314.256C202.732 313.728 202.534 313.338 202.138 313.086C201.754 312.822 201.184 312.69 200.428 312.69H196.81V310.566H199.924C200.632 310.566 201.172 310.446 201.544 310.206C201.928 309.954 202.12 309.576 202.12 309.072C202.12 308.58 201.928 308.214 201.544 307.974C201.172 307.722 200.632 307.596 199.924 307.596H197.026V315.804ZM213.832 318.216C212.824 318.216 211.858 318.084 210.934 317.82C210.01 317.544 209.266 317.19 208.702 316.758L209.692 314.562C210.232 314.946 210.868 315.264 211.6 315.516C212.344 315.756 213.094 315.876 213.85 315.876C214.426 315.876 214.888 315.822 215.236 315.714C215.596 315.594 215.86 315.432 216.028 315.228C216.196 315.024 216.28 314.79 216.28 314.526C216.28 314.19 216.148 313.926 215.884 313.734C215.62 313.53 215.272 313.368 214.84 313.248C214.408 313.116 213.928 312.996 213.4 312.888C212.884 312.768 212.362 312.624 211.834 312.456C211.318 312.288 210.844 312.072 210.412 311.808C209.98 311.544 209.626 311.196 209.35 310.764C209.086 310.332 208.954 309.78 208.954 309.108C208.954 308.388 209.146 307.734 209.53 307.146C209.926 306.546 210.514 306.072 211.294 305.724C212.086 305.364 213.076 305.184 214.264 305.184C215.056 305.184 215.836 305.28 216.604 305.472C217.372 305.652 218.05 305.928 218.638 306.3L217.738 308.514C217.15 308.178 216.562 307.932 215.974 307.776C215.386 307.608 214.81 307.524 214.246 307.524C213.682 307.524 213.22 307.59 212.86 307.722C212.5 307.854 212.242 308.028 212.086 308.244C211.93 308.448 211.852 308.688 211.852 308.964C211.852 309.288 211.984 309.552 212.248 309.756C212.512 309.948 212.86 310.104 213.292 310.224C213.724 310.344 214.198 310.464 214.714 310.584C215.242 310.704 215.764 310.842 216.28 310.998C216.808 311.154 217.288 311.364 217.72 311.628C218.152 311.892 218.5 312.24 218.764 312.672C219.04 313.104 219.178 313.65 219.178 314.31C219.178 315.018 218.98 315.666 218.584 316.254C218.188 316.842 217.594 317.316 216.802 317.676C216.022 318.036 215.032 318.216 213.832 318.216ZM225.652 310.476H231.718V312.744H225.652V310.476ZM225.868 315.66H232.726V318H222.97V305.4H232.492V307.74H225.868V315.66ZM245.487 305.4H248.403V318H245.487V305.4ZM239.763 318H236.847V305.4H239.763V318ZM245.703 312.834H239.547V310.368H245.703V312.834Z" fill="#B7B7B7"/>
<path d="M222.762 271V0" stroke="url(#paint0_linear_4_26)"/>
<path fill-rule="evenodd" clip-rule="evenodd" d="M15.3072 303.045C35.7169 282.636 68.8076 282.636 89.2177 303.045C109.627 323.455 109.627 356.546 89.2177 376.956C68.8076 397.365 35.7169 397.365 15.3072 376.956C-5.10236 356.546 -5.10246 323.455 15.3072 303.045ZM52.7105 294.765C49.7537 294.765 47.357 297.163 47.357 300.12C47.3572 303.076 49.7538 305.473 52.7105 305.473C55.6672 305.473 58.0639 303.076 58.064 300.12C58.064 297.163 55.6673 294.765 52.7105 294.765Z" fill="#E3CB13"/>
<path d="M30.2634 346.216C29.2914 346.216 28.3854 346.06 27.5454 345.748C26.7174 345.424 25.9974 344.968 25.3854 344.38C24.7734 343.792 24.2934 343.102 23.9454 342.31C23.6094 341.518 23.4414 340.648 23.4414 339.7C23.4414 338.752 23.6094 337.882 23.9454 337.09C24.2934 336.298 24.7734 335.608 25.3854 335.02C26.0094 334.432 26.7354 333.982 27.5634 333.67C28.3914 333.346 29.2974 333.184 30.2814 333.184C31.3734 333.184 32.3574 333.376 33.2334 333.76C34.1214 334.132 34.8654 334.684 35.4654 335.416L33.5934 337.144C33.1614 336.652 32.6814 336.286 32.1534 336.046C31.6254 335.794 31.0494 335.668 30.4254 335.668C29.8374 335.668 29.2974 335.764 28.8054 335.956C28.3134 336.148 27.8874 336.424 27.5274 336.784C27.1674 337.144 26.8854 337.57 26.6814 338.062C26.4894 338.554 26.3934 339.1 26.3934 339.7C26.3934 340.3 26.4894 340.846 26.6814 341.338C26.8854 341.83 27.1674 342.256 27.5274 342.616C27.8874 342.976 28.3134 343.252 28.8054 343.444C29.2974 343.636 29.8374 343.732 30.4254 343.732C31.0494 343.732 31.6254 343.612 32.1534 343.372C32.6814 343.12 33.1614 342.742 33.5934 342.238L35.4654 343.966C34.8654 344.698 34.1214 345.256 33.2334 345.64C32.3574 346.024 31.3674 346.216 30.2634 346.216ZM39.2346 346V333.4H45.3906C46.9746 333.4 48.1626 333.7 48.9546 334.3C49.7586 334.9 50.1606 335.692 50.1606 336.676C50.1606 337.336 49.9986 337.912 49.6746 338.404C49.3506 338.884 48.9066 339.256 48.3426 339.52C47.7786 339.784 47.1306 339.916 46.3986 339.916L46.7406 339.178C47.5326 339.178 48.2346 339.31 48.8466 339.574C49.4586 339.826 49.9326 340.204 50.2686 340.708C50.6166 341.212 50.7906 341.83 50.7906 342.562C50.7906 343.642 50.3646 344.488 49.5126 345.1C48.6606 345.7 47.4066 346 45.7506 346H39.2346ZM42.1326 343.804H45.5346C46.2906 343.804 46.8606 343.684 47.2446 343.444C47.6406 343.192 47.8386 342.796 47.8386 342.256C47.8386 341.728 47.6406 341.338 47.2446 341.086C46.8606 340.822 46.2906 340.69 45.5346 340.69H41.9166V338.566H45.0306C45.7386 338.566 46.2786 338.446 46.6506 338.206C47.0346 337.954 47.2266 337.576 47.2266 337.072C47.2266 336.58 47.0346 336.214 46.6506 335.974C46.2786 335.722 45.7386 335.596 45.0306 335.596H42.1326V343.804ZM58.9383 346.216C57.9303 346.216 56.9643 346.084 56.0403 345.82C55.1163 345.544 54.3723 345.19 53.8083 344.758L54.7983 342.562C55.3383 342.946 55.9743 343.264 56.7063 343.516C57.4503 343.756 58.2003 343.876 58.9563 343.876C59.5323 343.876 59.9943 343.822 60.3423 343.714C60.7023 343.594 60.9663 343.432 61.1343 343.228C61.3023 343.024 61.3863 342.79 61.3863 342.526C61.3863 342.19 61.2543 341.926 60.9903 341.734C60.7263 341.53 60.3783 341.368 59.9463 341.248C59.5143 341.116 59.0343 340.996 58.5063 340.888C57.9903 340.768 57.4683 340.624 56.9403 340.456C56.4243 340.288 55.9503 340.072 55.5183 339.808C55.0863 339.544 54.7323 339.196 54.4563 338.764C54.1923 338.332 54.0603 337.78 54.0603 337.108C54.0603 336.388 54.2523 335.734 54.6363 335.146C55.0323 334.546 55.6203 334.072 56.4003 333.724C57.1923 333.364 58.1823 333.184 59.3703 333.184C60.1623 333.184 60.9423 333.28 61.7103 333.472C62.4783 333.652 63.1563 333.928 63.7443 334.3L62.8443 336.514C62.2563 336.178 61.6683 335.932 61.0803 335.776C60.4923 335.608 59.9163 335.524 59.3523 335.524C58.7883 335.524 58.3263 335.59 57.9663 335.722C57.6063 335.854 57.3483 336.028 57.1923 336.244C57.0363 336.448 56.9583 336.688 56.9583 336.964C56.9583 337.288 57.0903 337.552 57.3543 337.756C57.6183 337.948 57.9663 338.104 58.3983 338.224C58.8303 338.344 59.3043 338.464 59.8203 338.584C60.3483 338.704 60.8703 338.842 61.3863 338.998C61.9143 339.154 62.3943 339.364 62.8263 339.628C63.2583 339.892 63.6063 340.24 63.8703 340.672C64.1463 341.104 64.2843 341.65 64.2843 342.31C64.2843 343.018 64.0863 343.666 63.6903 344.254C63.2943 344.842 62.7003 345.316 61.9083 345.676C61.1283 346.036 60.1383 346.216 58.9383 346.216ZM74.1068 346.216C73.1348 346.216 72.2288 346.06 71.3888 345.748C70.5608 345.424 69.8408 344.968 69.2288 344.38C68.6168 343.792 68.1368 343.102 67.7888 342.31C67.4528 341.518 67.2848 340.648 67.2848 339.7C67.2848 338.752 67.4528 337.882 67.7888 337.09C68.1368 336.298 68.6168 335.608 69.2288 335.02C69.8528 334.432 70.5788 333.982 71.4068 333.67C72.2348 333.346 73.1408 333.184 74.1248 333.184C75.2168 333.184 76.2008 333.376 77.0768 333.76C77.9648 334.132 78.7088 334.684 79.3088 335.416L77.4368 337.144C77.0048 336.652 76.5248 336.286 75.9968 336.046C75.4688 335.794 74.8928 335.668 74.2688 335.668C73.6808 335.668 73.1408 335.764 72.6488 335.956C72.1568 336.148 71.7308 336.424 71.3708 336.784C71.0108 337.144 70.7288 337.57 70.5248 338.062C70.3328 338.554 70.2368 339.1 70.2368 339.7C70.2368 340.3 70.3328 340.846 70.5248 341.338C70.7288 341.83 71.0108 342.256 71.3708 342.616C71.7308 342.976 72.1568 343.252 72.6488 343.444C73.1408 343.636 73.6808 343.732 74.2688 343.732C74.8928 343.732 75.4688 343.612 75.9968 343.372C76.5248 343.12 77.0048 342.742 77.4368 342.238L79.3088 343.966C78.7088 344.698 77.9648 345.256 77.0768 345.64C76.2008 346.024 75.2108 346.216 74.1068 346.216Z" fill="#464646"/>
<path d="M52.7617 299V28" stroke="url(#paint1_linear_4_26)"/>
<path fill-rule="evenodd" clip-rule="evenodd" d="M268.307 276.045C288.717 255.636 321.808 255.636 342.218 276.045C362.627 296.455 362.627 329.546 342.218 349.956C321.808 370.365 288.717 370.365 268.307 349.956C247.898 329.546 247.898 296.455 268.307 276.045ZM305.711 267.765C302.754 267.765 300.357 270.163 300.357 273.12C300.357 276.076 302.754 278.473 305.711 278.473C308.667 278.473 311.064 276.076 311.064 273.12C311.064 270.163 308.668 267.765 305.711 267.765Z" fill="#B0CB1F"/>
<path d="M266.294 319.216C265.442 319.216 264.656 319.06 263.936 318.748C263.228 318.424 262.646 317.968 262.19 317.38L263.81 315.436C264.158 315.892 264.524 316.24 264.908 316.48C265.292 316.708 265.706 316.822 266.15 316.822C267.338 316.822 267.932 316.126 267.932 314.734V308.74H263.504V306.4H270.83V314.572C270.83 316.132 270.446 317.296 269.678 318.064C268.91 318.832 267.782 319.216 266.294 319.216ZM278.12 316.12L277.958 312.754L283.988 306.4H287.228L281.792 312.25L280.172 313.978L278.12 316.12ZM275.51 319V306.4H278.408V319H275.51ZM284.132 319L279.65 313.51L281.558 311.44L287.534 319H284.132ZM290.634 319V306.4H296.79C298.374 306.4 299.562 306.7 300.354 307.3C301.158 307.9 301.56 308.692 301.56 309.676C301.56 310.336 301.398 310.912 301.074 311.404C300.75 311.884 300.306 312.256 299.742 312.52C299.178 312.784 298.53 312.916 297.798 312.916L298.14 312.178C298.932 312.178 299.634 312.31 300.246 312.574C300.858 312.826 301.332 313.204 301.668 313.708C302.016 314.212 302.19 314.83 302.19 315.562C302.19 316.642 301.764 317.488 300.912 318.1C300.06 318.7 298.806 319 297.15 319H290.634ZM293.532 316.804H296.934C297.69 316.804 298.26 316.684 298.644 316.444C299.04 316.192 299.238 315.796 299.238 315.256C299.238 314.728 299.04 314.338 298.644 314.086C298.26 313.822 297.69 313.69 296.934 313.69H293.316V311.566H296.43C297.138 311.566 297.678 311.446 298.05 311.206C298.434 310.954 298.626 310.576 298.626 310.072C298.626 309.58 298.434 309.214 298.05 308.974C297.678 308.722 297.138 308.596 296.43 308.596H293.532V316.804ZM312.318 319.216C311.322 319.216 310.398 319.054 309.546 318.73C308.706 318.406 307.974 317.95 307.35 317.362C306.738 316.774 306.258 316.084 305.91 315.292C305.574 314.5 305.406 313.636 305.406 312.7C305.406 311.764 305.574 310.9 305.91 310.108C306.258 309.316 306.744 308.626 307.368 308.038C307.992 307.45 308.724 306.994 309.564 306.67C310.404 306.346 311.316 306.184 312.3 306.184C313.296 306.184 314.208 306.346 315.036 306.67C315.876 306.994 316.602 307.45 317.214 308.038C317.838 308.626 318.324 309.316 318.672 310.108C319.02 310.888 319.194 311.752 319.194 312.7C319.194 313.636 319.02 314.506 318.672 315.31C318.324 316.102 317.838 316.792 317.214 317.38C316.602 317.956 315.876 318.406 315.036 318.73C314.208 319.054 313.302 319.216 312.318 319.216ZM312.3 316.732C312.864 316.732 313.38 316.636 313.848 316.444C314.328 316.252 314.748 315.976 315.108 315.616C315.468 315.256 315.744 314.83 315.936 314.338C316.14 313.846 316.242 313.3 316.242 312.7C316.242 312.1 316.14 311.554 315.936 311.062C315.744 310.57 315.468 310.144 315.108 309.784C314.76 309.424 314.346 309.148 313.866 308.956C313.386 308.764 312.864 308.668 312.3 308.668C311.736 308.668 311.214 308.764 310.734 308.956C310.266 309.148 309.852 309.424 309.492 309.784C309.132 310.144 308.85 310.57 308.646 311.062C308.454 311.554 308.358 312.1 308.358 312.7C308.358 313.288 308.454 313.834 308.646 314.338C308.85 314.83 309.126 315.256 309.474 315.616C309.834 315.976 310.254 316.252 310.734 316.444C311.214 316.636 311.736 316.732 312.3 316.732ZM327.325 319.216C326.317 319.216 325.351 319.084 324.427 318.82C323.503 318.544 322.759 318.19 322.195 317.758L323.185 315.562C323.725 315.946 324.361 316.264 325.093 316.516C325.837 316.756 326.587 316.876 327.343 316.876C327.919 316.876 328.381 316.822 328.729 316.714C329.089 316.594 329.353 316.432 329.521 316.228C329.689 316.024 329.773 315.79 329.773 315.526C329.773 315.19 329.641 314.926 329.377 314.734C329.113 314.53 328.765 314.368 328.333 314.248C327.901 314.116 327.421 313.996 326.893 313.888C326.377 313.768 325.855 313.624 325.327 313.456C324.811 313.288 324.337 313.072 323.905 312.808C323.473 312.544 323.119 312.196 322.843 311.764C322.579 311.332 322.447 310.78 322.447 310.108C322.447 309.388 322.639 308.734 323.023 308.146C323.419 307.546 324.007 307.072 324.787 306.724C325.579 306.364 326.569 306.184 327.757 306.184C328.549 306.184 329.329 306.28 330.097 306.472C330.865 306.652 331.543 306.928 332.131 307.3L331.231 309.514C330.643 309.178 330.055 308.932 329.467 308.776C328.879 308.608 328.303 308.524 327.739 308.524C327.175 308.524 326.713 308.59 326.353 308.722C325.993 308.854 325.735 309.028 325.579 309.244C325.423 309.448 325.345 309.688 325.345 309.964C325.345 310.288 325.477 310.552 325.741 310.756C326.005 310.948 326.353 311.104 326.785 311.224C327.217 311.344 327.691 311.464 328.207 311.584C328.735 311.704 329.257 311.842 329.773 311.998C330.301 312.154 330.781 312.364 331.213 312.628C331.645 312.892 331.993 313.24 332.257 313.672C332.533 314.104 332.671 314.65 332.671 315.31C332.671 316.018 332.473 316.666 332.077 317.254C331.681 317.842 331.087 318.316 330.295 318.676C329.515 319.036 328.525 319.216 327.325 319.216ZM339.146 311.476H345.212V313.744H339.146V311.476ZM339.362 316.66H346.22V319H336.464V306.4H345.986V308.74H339.362V316.66Z" fill="#464646"/>
<path d="M305.762 272V1" stroke="url(#paint2_linear_4_26)"/>
<path fill-rule="evenodd" clip-rule="evenodd" d="M397.416 310.926C420.527 287.965 457.997 287.965 481.108 310.926C504.219 333.886 504.219 371.114 481.108 394.075C457.997 417.036 420.527 417.036 397.416 394.075C374.305 371.114 374.305 333.887 397.416 310.926ZM439.769 301.611C436.421 301.611 433.707 304.307 433.707 307.634C433.707 310.96 436.421 313.657 439.769 313.657C443.117 313.657 445.831 310.96 445.831 307.634C445.83 304.307 443.117 301.611 439.769 301.611Z" fill="#464646"/>
<path d="M403.803 359L399.681 346.4H402.705L406.287 357.56H404.775L408.519 346.4H411.219L414.819 357.56H413.361L417.033 346.4H419.823L415.701 359H412.569L409.383 349.208H410.211L406.935 359H403.803ZM423.251 359V346.4H429.407C430.991 346.4 432.179 346.7 432.971 347.3C433.775 347.9 434.177 348.692 434.177 349.676C434.177 350.336 434.015 350.912 433.691 351.404C433.367 351.884 432.923 352.256 432.359 352.52C431.795 352.784 431.147 352.916 430.415 352.916L430.757 352.178C431.549 352.178 432.251 352.31 432.863 352.574C433.475 352.826 433.949 353.204 434.285 353.708C434.633 354.212 434.807 354.83 434.807 355.562C434.807 356.642 434.381 357.488 433.529 358.1C432.677 358.7 431.423 359 429.767 359H423.251ZM426.149 356.804H429.551C430.307 356.804 430.877 356.684 431.261 356.444C431.657 356.192 431.855 355.796 431.855 355.256C431.855 354.728 431.657 354.338 431.261 354.086C430.877 353.822 430.307 353.69 429.551 353.69H425.933V351.566H429.047C429.755 351.566 430.295 351.446 430.667 351.206C431.051 350.954 431.243 350.576 431.243 350.072C431.243 349.58 431.051 349.214 430.667 348.974C430.295 348.722 429.755 348.596 429.047 348.596H426.149V356.804ZM438.815 359V346.4H444.971C446.555 346.4 447.743 346.7 448.535 347.3C449.339 347.9 449.741 348.692 449.741 349.676C449.741 350.336 449.579 350.912 449.255 351.404C448.931 351.884 448.487 352.256 447.923 352.52C447.359 352.784 446.711 352.916 445.979 352.916L446.321 352.178C447.113 352.178 447.815 352.31 448.427 352.574C449.039 352.826 449.513 353.204 449.849 353.708C450.197 354.212 450.371 354.83 450.371 355.562C450.371 356.642 449.945 357.488 449.093 358.1C448.241 358.7 446.987 359 445.331 359H438.815ZM441.713 356.804H445.115C445.871 356.804 446.441 356.684 446.825 356.444C447.221 356.192 447.419 355.796 447.419 355.256C447.419 354.728 447.221 354.338 446.825 354.086C446.441 353.822 445.871 353.69 445.115 353.69H441.497V351.566H444.611C445.319 351.566 445.859 351.446 446.231 351.206C446.615 350.954 446.807 350.576 446.807 350.072C446.807 349.58 446.615 349.214 446.231 348.974C445.859 348.722 445.319 348.596 444.611 348.596H441.713V356.804ZM458.518 359.216C457.51 359.216 456.544 359.084 455.62 358.82C454.696 358.544 453.952 358.19 453.388 357.758L454.378 355.562C454.918 355.946 455.554 356.264 456.286 356.516C457.03 356.756 457.78 356.876 458.536 356.876C459.112 356.876 459.574 356.822 459.922 356.714C460.282 356.594 460.546 356.432 460.714 356.228C460.882 356.024 460.966 355.79 460.966 355.526C460.966 355.19 460.834 354.926 460.57 354.734C460.306 354.53 459.958 354.368 459.526 354.248C459.094 354.116 458.614 353.996 458.086 353.888C457.57 353.768 457.048 353.624 456.52 353.456C456.004 353.288 455.53 353.072 455.098 352.808C454.666 352.544 454.312 352.196 454.036 351.764C453.772 351.332 453.64 350.78 453.64 350.108C453.64 349.388 453.832 348.734 454.216 348.146C454.612 347.546 455.2 347.072 455.98 346.724C456.772 346.364 457.762 346.184 458.95 346.184C459.742 346.184 460.522 346.28 461.29 346.472C462.058 346.652 462.736 346.928 463.324 347.3L462.424 349.514C461.836 349.178 461.248 348.932 460.66 348.776C460.072 348.608 459.496 348.524 458.932 348.524C458.368 348.524 457.906 348.59 457.546 348.722C457.186 348.854 456.928 349.028 456.772 349.244C456.616 349.448 456.538 349.688 456.538 349.964C456.538 350.288 456.67 350.552 456.934 350.756C457.198 350.948 457.546 351.104 457.978 351.224C458.41 351.344 458.884 351.464 459.4 351.584C459.928 351.704 460.45 351.842 460.966 351.998C461.494 352.154 461.974 352.364 462.406 352.628C462.838 352.892 463.186 353.24 463.45 353.672C463.726 354.104 463.864 354.65 463.864 355.31C463.864 356.018 463.666 356.666 463.27 357.254C462.874 357.842 462.28 358.316 461.488 358.676C460.708 359.036 459.718 359.216 458.518 359.216ZM470.339 351.476H476.405V353.744H470.339V351.476ZM470.555 356.66H477.413V359H467.657V346.4H477.179V348.74H470.555V356.66Z" fill="white"/>
<path d="M439.762 303V32" stroke="url(#paint3_linear_4_26)"/>
<path fill-rule="evenodd" clip-rule="evenodd" d="M311.188 410.154C334.149 387.043 371.376 387.043 394.337 410.154C417.298 433.265 417.298 470.735 394.337 493.846C371.376 516.957 334.149 516.957 311.188 493.846C288.227 470.735 288.227 433.265 311.188 410.154ZM353.267 400.778C349.94 400.778 347.243 403.492 347.243 406.84C347.243 410.188 349.94 412.902 353.267 412.902C356.593 412.901 359.289 410.188 359.289 406.84C359.289 403.492 356.593 400.778 353.267 400.778Z" fill="#D7B56D"/>
<path d="M335.218 458.216C334.246 458.216 333.34 458.06 332.5 457.748C331.672 457.424 330.952 456.968 330.34 456.38C329.728 455.792 329.248 455.102 328.9 454.31C328.564 453.518 328.396 452.648 328.396 451.7C328.396 450.752 328.564 449.882 328.9 449.09C329.248 448.298 329.728 447.608 330.34 447.02C330.964 446.432 331.69 445.982 332.518 445.67C333.346 445.346 334.252 445.184 335.236 445.184C336.328 445.184 337.312 445.376 338.188 445.76C339.076 446.132 339.82 446.684 340.42 447.416L338.548 449.144C338.116 448.652 337.636 448.286 337.108 448.046C336.58 447.794 336.004 447.668 335.38 447.668C334.792 447.668 334.252 447.764 333.76 447.956C333.268 448.148 332.842 448.424 332.482 448.784C332.122 449.144 331.84 449.57 331.636 450.062C331.444 450.554 331.348 451.1 331.348 451.7C331.348 452.3 331.444 452.846 331.636 453.338C331.84 453.83 332.122 454.256 332.482 454.616C332.842 454.976 333.268 455.252 333.76 455.444C334.252 455.636 334.792 455.732 335.38 455.732C336.004 455.732 336.58 455.612 337.108 455.372C337.636 455.12 338.116 454.742 338.548 454.238L340.42 455.966C339.82 456.698 339.076 457.256 338.188 457.64C337.312 458.024 336.322 458.216 335.218 458.216ZM342.304 458L347.92 445.4H350.8L356.434 458H353.374L348.766 446.876H349.918L345.292 458H342.304ZM345.112 455.3L345.886 453.086H352.366L353.158 455.3H345.112ZM359.542 458V445.4H362.458V458H359.542ZM369.93 450.476H375.996V452.744H369.93V450.476ZM370.146 455.66H377.004V458H367.248V445.4H376.77V447.74H370.146V455.66Z" fill="#464646"/>
<path d="M353.762 402V131" stroke="url(#paint4_linear_4_26)"/>
<path fill-rule="evenodd" clip-rule="evenodd" d="M126.547 327.285C155.661 298.171 202.863 298.171 231.977 327.285C261.091 356.399 261.091 403.601 231.977 432.715C202.863 461.829 155.661 461.829 126.547 432.715C97.4327 403.601 97.4327 356.399 126.547 327.285ZM179.901 315.473C175.683 315.473 172.264 318.892 172.263 323.11C172.263 327.328 175.683 330.748 179.901 330.748C184.119 330.747 187.538 327.327 187.538 323.11C187.538 318.892 184.119 315.473 179.901 315.473Z" fill="#EF7F1A"/>
<path d="M155.76 386V373.4H158.676V386H155.76ZM169.496 386.216C168.524 386.216 167.618 386.06 166.778 385.748C165.95 385.424 165.23 384.968 164.618 384.38C164.006 383.792 163.526 383.102 163.178 382.31C162.842 381.518 162.674 380.648 162.674 379.7C162.674 378.752 162.842 377.882 163.178 377.09C163.526 376.298 164.006 375.608 164.618 375.02C165.242 374.432 165.968 373.982 166.796 373.67C167.624 373.346 168.53 373.184 169.514 373.184C170.606 373.184 171.59 373.376 172.466 373.76C173.354 374.132 174.098 374.684 174.698 375.416L172.826 377.144C172.394 376.652 171.914 376.286 171.386 376.046C170.858 375.794 170.282 375.668 169.658 375.668C169.07 375.668 168.53 375.764 168.038 375.956C167.546 376.148 167.12 376.424 166.76 376.784C166.4 377.144 166.118 377.57 165.914 378.062C165.722 378.554 165.626 379.1 165.626 379.7C165.626 380.3 165.722 380.846 165.914 381.338C166.118 381.83 166.4 382.256 166.76 382.616C167.12 382.976 167.546 383.252 168.038 383.444C168.53 383.636 169.07 383.732 169.658 383.732C170.282 383.732 170.858 383.612 171.386 383.372C171.914 383.12 172.394 382.742 172.826 382.238L174.698 383.966C174.098 384.698 173.354 385.256 172.466 385.64C171.59 386.024 170.6 386.216 169.496 386.216ZM182.537 386.216C181.529 386.216 180.563 386.084 179.639 385.82C178.715 385.544 177.971 385.19 177.407 384.758L178.397 382.562C178.937 382.946 179.573 383.264 180.305 383.516C181.049 383.756 181.799 383.876 182.555 383.876C183.131 383.876 183.593 383.822 183.941 383.714C184.301 383.594 184.565 383.432 184.733 383.228C184.901 383.024 184.985 382.79 184.985 382.526C184.985 382.19 184.853 381.926 184.589 381.734C184.325 381.53 183.977 381.368 183.545 381.248C183.113 381.116 182.633 380.996 182.105 380.888C181.589 380.768 181.067 380.624 180.539 380.456C180.023 380.288 179.549 380.072 179.117 379.808C178.685 379.544 178.331 379.196 178.055 378.764C177.791 378.332 177.659 377.78 177.659 377.108C177.659 376.388 177.851 375.734 178.235 375.146C178.631 374.546 179.219 374.072 179.999 373.724C180.791 373.364 181.781 373.184 182.969 373.184C183.761 373.184 184.541 373.28 185.309 373.472C186.077 373.652 186.755 373.928 187.343 374.3L186.443 376.514C185.855 376.178 185.267 375.932 184.679 375.776C184.091 375.608 183.515 375.524 182.951 375.524C182.387 375.524 181.925 375.59 181.565 375.722C181.205 375.854 180.947 376.028 180.791 376.244C180.635 376.448 180.557 376.688 180.557 376.964C180.557 377.288 180.689 377.552 180.953 377.756C181.217 377.948 181.565 378.104 181.997 378.224C182.429 378.344 182.903 378.464 183.419 378.584C183.947 378.704 184.469 378.842 184.985 378.998C185.513 379.154 185.993 379.364 186.425 379.628C186.857 379.892 187.205 380.24 187.469 380.672C187.745 381.104 187.883 381.65 187.883 382.31C187.883 383.018 187.685 383.666 187.289 384.254C186.893 384.842 186.299 385.316 185.507 385.676C184.727 386.036 183.737 386.216 182.537 386.216ZM194.358 378.476H200.424V380.744H194.358V378.476ZM194.574 383.66H201.432V386H191.676V373.4H201.198V375.74H194.574V383.66Z" fill="white"/>
<path d="M179.762 310V39" stroke="url(#paint5_linear_4_26)"/>
<defs>
<linearGradient id="paint0_linear_4_26" x1="-nan" y1="-nan" x2="-nan" y2="-nan" gradientUnits="userSpaceOnUse">
<stop stop-color="#787878" stop-opacity="0"/>
<stop offset="0.570674" stop-color="#888888"/>
<stop offset="1" stop-color="#979797"/>
</linearGradient>
<linearGradient id="paint1_linear_4_26" x1="-nan" y1="-nan" x2="-nan" y2="-nan" gradientUnits="userSpaceOnUse">
<stop stop-color="#787878" stop-opacity="0"/>
<stop offset="0.570674" stop-color="#888888"/>
<stop offset="1" stop-color="#979797"/>
</linearGradient>
<linearGradient id="paint2_linear_4_26" x1="-nan" y1="-nan" x2="-nan" y2="-nan" gradientUnits="userSpaceOnUse">
<stop stop-color="#787878" stop-opacity="0"/>
<stop offset="0.570674" stop-color="#888888"/>
<stop offset="1" stop-color="#979797"/>
</linearGradient>
<linearGradient id="paint3_linear_4_26" x1="-nan" y1="-nan" x2="-nan" y2="-nan" gradientUnits="userSpaceOnUse">
<stop stop-color="#787878" stop-opacity="0"/>
<stop offset="0.570674" stop-color="#888888"/>
<stop offset="1" stop-color="#979797"/>
</linearGradient>
<linearGradient id="paint4_linear_4_26" x1="-nan" y1="-nan" x2="-nan" y2="-nan" gradientUnits="userSpaceOnUse">
<stop stop-color="#787878" stop-opacity="0"/>
<stop offset="0.570674" stop-color="#888888"/>
<stop offset="1" stop-color="#979797"/>
</linearGradient>
<linearGradient id="paint5_linear_4_26" x1="-nan" y1="-nan" x2="-nan" y2="-nan" gradientUnits="userSpaceOnUse">
<stop stop-color="#787878" stop-opacity="0"/>
<stop offset="0.570674" stop-color="#888888"/>
<stop offset="1" stop-color="#979797"/>
</linearGradient>
</defs>
</svg>
