<svg width="95" height="61" viewBox="0 0 95 61" fill="none" xmlns="http://www.w3.org/2000/svg">
<path d="M60.8861 32.5245C57.5147 27.377 55.7929 22.9002 55.7317 19.1965C55.6439 13.8923 57.4783 9.41259 61.1871 5.6931C64.9424 1.97284 69.5194 0.0913359 74.8708 0.00283381C80.3898 -0.0884388 85.0274 1.69652 88.8013 5.29226C92.5202 8.93546 94.4486 13.5205 94.5414 19.1318C94.6877 27.9816 88.8036 37.5175 76.8341 47.787C67.5258 55.732 60.8609 59.7144 56.6729 59.7837C54.6068 59.8179 52.734 59.16 51.0723 57.754C49.4022 56.404 48.5857 54.8817 48.6609 53.2329C48.7384 51.1651 49.858 48.5031 52.0847 45.227L54.8287 41.1511L60.8861 32.5245ZM12.23 33.3292C8.85864 28.1816 7.14615 23.7048 7.0849 20.0011C6.99902 14.8085 8.8332 10.3195 12.5319 6.55361C16.2872 2.83335 20.8633 0.896012 26.2147 0.80751C31.7337 0.716238 36.3713 2.5012 40.1453 6.09694C43.8641 9.74013 45.7925 14.3251 45.8853 19.9365C46.0316 28.7863 40.1476 38.3222 28.178 48.5917C18.8697 56.5366 12.2049 60.5191 8.0168 60.5884C5.95068 60.6225 4.08723 59.9646 2.41622 58.5587C0.746143 57.2087 -0.0703333 55.6863 0.00479914 54.0375C0.0823127 51.9698 1.20196 49.3077 3.42858 46.0316L6.1726 41.9558L12.23 33.3292Z" fill="#D2DBE4"/>
</svg>
