<svg width="128" height="24" viewBox="0 0 128 24" fill="none" xmlns="http://www.w3.org/2000/svg">
<path d="M102.141 13.0459V18.1469H100.609V5.52989H104.665C105.7 5.52989 106.579 5.88989 107.302 6.62489C108.039 7.35989 108.393 8.24489 108.393 9.27989C108.393 10.3459 108.025 11.2459 107.302 11.9509C106.593 12.6709 105.714 13.0309 104.665 13.0309H102.141V13.0459ZM102.141 7.08989V11.4999H104.707C105.317 11.4999 105.827 11.2899 106.224 10.8559C106.423 10.6512 106.579 10.4093 106.683 10.1439C106.788 9.87856 106.839 9.5951 106.834 9.30989C106.838 9.02729 106.786 8.74669 106.681 8.48416C106.576 8.22163 106.421 7.98231 106.224 7.77989C105.827 7.32989 105.317 7.10489 104.707 7.10489H102.141V7.08989ZM113.206 8.44089C114.429 8.44089 115.392 8.77289 116.096 9.45289C116.8 10.1329 117.151 11.0499 117.151 12.2349V17.8469H115.576V16.5819H115.5C114.812 17.6249 113.909 18.1469 112.777 18.1469C111.814 18.1469 111.004 17.8469 110.346 17.2619C109.688 16.6619 109.367 15.9179 109.367 15.0329C109.367 14.0999 109.704 13.3419 110.407 12.7879C111.096 12.2349 112.013 11.9509 113.16 11.9509C114.138 11.9509 114.949 12.1409 115.591 12.5039V12.1089C115.591 11.5079 115.362 11.0179 114.903 10.5909C114.466 10.1882 113.891 9.96788 113.297 9.97489C112.38 9.97489 111.646 10.3699 111.111 11.1759L109.658 10.2279C110.453 9.04189 111.646 8.44089 113.206 8.44089ZM111.065 15.0489C111.065 15.4919 111.248 15.8709 111.615 16.1549C111.982 16.4549 112.41 16.5979 112.9 16.5979C113.588 16.5979 114.215 16.3289 114.765 15.8079C115.316 15.2699 115.576 14.6539 115.576 13.9269C115.056 13.4999 114.337 13.2939 113.42 13.2939C112.747 13.2939 112.197 13.4679 111.738 13.7999C111.294 14.1479 111.065 14.5589 111.065 15.0489ZM125.905 9.41189L120.423 22.0289H118.717L120.758 17.6149L117.148 9.41189H118.93L121.535 15.6969H121.565L124.108 9.41189H125.905ZM43.4808 18.1469C39.6228 18.1469 36.3828 14.8829 36.3828 10.8669C36.3828 6.85289 39.6228 3.58789 43.4808 3.58789C45.6158 3.58789 47.1328 4.46189 48.2668 5.59589L46.9118 7.00589C46.0868 6.20889 44.9828 5.58089 43.4658 5.58089C40.6528 5.58089 38.4438 7.94089 38.4438 10.8679C38.4438 13.7949 40.6388 16.1549 43.4658 16.1549C45.2918 16.1549 46.3378 15.3879 47.0008 14.6989C47.5448 14.1319 47.8988 13.3189 48.0458 12.2009H43.4218V10.2089H49.9018C49.9748 10.5609 50.0048 10.9899 50.0048 11.4499C50.0048 12.9369 49.6068 14.7899 48.3548 16.1089C47.1178 17.4419 45.5568 18.1469 43.4808 18.1469ZM60.7058 13.2939C60.7058 16.0849 58.5198 18.1469 55.8418 18.1469C53.1628 18.1469 50.9768 16.0849 50.9768 13.2939C50.9768 10.4869 53.1628 8.44089 55.8418 8.44089C58.5198 8.44089 60.7058 10.4869 60.7058 13.2939ZM58.5828 13.2939C58.5828 11.5499 57.3148 10.3599 55.8568 10.3599C54.3998 10.3599 53.1318 11.5499 53.1318 13.2939C53.1318 15.0229 54.3998 16.2279 55.8568 16.2279C57.3148 16.2279 58.5828 15.0229 58.5828 13.2939ZM70.4288 13.2939C70.4288 16.0849 68.4608 18.1469 66.0508 18.1469C63.6398 18.1469 61.6708 16.0849 61.6708 13.2939C61.6708 10.4869 63.6398 8.44089 66.0508 8.44089C68.4608 8.44089 70.4288 10.4869 70.4288 13.2939ZM68.5028 13.2939C68.5028 11.5499 67.3628 10.3599 66.0508 10.3599C64.7378 10.3599 63.5968 11.5499 63.5968 13.2939C63.5968 15.0229 64.7378 16.2279 66.0508 16.2279C67.3628 16.2279 68.5028 15.0229 68.5028 13.2939ZM80.1788 8.75289V17.7639C80.1788 21.4739 78.1948 22.9999 75.8378 22.9999C73.6288 22.9999 72.3018 21.3589 71.7938 20.0299L73.5398 19.2249C73.8528 20.0449 74.6138 21.0139 75.8378 21.0139C77.3438 21.0139 78.2688 19.9799 78.2688 18.0599V17.3369H78.1948C77.7468 17.9449 76.8818 18.4869 75.7928 18.4869C73.5098 18.4869 71.4218 16.3029 71.4218 13.4799C71.4218 10.6399 73.5098 8.44089 75.7918 8.44089C76.8818 8.44089 77.7468 8.96689 78.1948 9.55689H78.2688V8.73689H80.1788V8.75289ZM78.4188 13.4799C78.4188 11.7079 77.3438 10.4109 75.9868 10.4109C74.5988 10.4109 73.4508 11.7079 73.4508 13.4809C73.4508 15.2359 74.6138 16.5009 75.9868 16.5009C77.3438 16.5009 78.4178 15.2359 78.4178 13.4809L78.4188 13.4799ZM84.0548 4.55889V18.1469H82.1098V4.55889H84.0548ZM92.2738 14.8799L93.7088 15.9899C93.2388 16.7829 92.1218 18.1469 90.1888 18.1469C87.7888 18.1469 86.0078 16.0219 86.0078 13.2939C86.0078 10.4079 87.8158 8.44089 89.9828 8.44089C92.1768 8.44089 93.2398 10.4399 93.5978 11.5339L93.7918 12.0889L88.1468 14.7689C88.5748 15.7359 89.2508 16.2439 90.1888 16.2439C91.1288 16.2119 91.7908 15.6889 92.2738 14.8799ZM87.8438 13.1359L91.6108 11.3279C91.4038 10.7249 90.7828 10.2969 90.0378 10.2969C89.0988 10.2969 87.7888 11.2639 87.8438 13.1359Z" fill="#5F6368"/>
<path d="M25.3199 5.20936C22.7849 3.86936 19.5439 4.66536 18.0799 6.98536L14.3869 12.8394C13.3179 14.5294 14.6939 15.1194 16.2269 15.9614L19.7799 17.8384C20.9839 18.4734 22.5199 18.0964 23.2139 16.9964L27.0099 10.9814C28.2849 8.95936 27.5289 6.37636 25.3199 5.20936Z" fill="#EA4335"/>
<path d="M20.5373 7.3728L16.9943 5.3688C15.0393 4.3048 13.9313 4.2338 13.1283 5.4848L7.90329 14.3548C6.44429 16.8298 7.31329 19.9958 9.83929 21.4228C12.0413 22.6698 14.8563 21.9298 16.1273 19.7708L21.4523 10.7308C21.6172 10.4514 21.7244 10.1417 21.7676 9.82017C21.8108 9.49861 21.7891 9.17165 21.7038 8.85862C21.6185 8.54558 21.4713 8.25282 21.2709 7.99762C21.0706 7.74242 20.8211 7.52996 20.5373 7.3728Z" fill="#FBBC04"/>
<path d="M21.9161 3.20407L19.4871 1.77007C16.8011 0.185075 13.3661 1.12507 11.8151 3.87107L7.19105 12.0581C6.50805 13.2661 6.91405 14.8121 8.09505 15.5081L10.8151 17.1141C12.1581 17.9071 13.8751 17.4371 14.6511 16.0641L19.9341 6.71107C21.0291 4.77307 23.4511 4.11007 25.3461 5.22907L21.9161 3.20407Z" fill="#34A853"/>
<path d="M11.5232 5.75249L8.99018 4.23949C7.86018 3.56549 6.41718 3.96549 5.76618 5.13349L2.72618 10.5765C1.23118 13.2555 2.11818 16.6835 4.71018 18.2295L6.63818 19.3795L8.97718 20.7765L9.99118 21.3825C8.19018 20.1325 7.61718 17.6265 8.71918 15.6535L9.50618 14.2445L12.3872 9.08449C13.0372 7.91849 12.6512 6.42649 11.5232 5.75249Z" fill="#4285F4"/>
</svg>
