<svg width="194" height="571" viewBox="0 0 194 571" fill="none" xmlns="http://www.w3.org/2000/svg">
<path d="M44.2842 421.284C73.398 392.17 120.601 392.171 149.715 421.284C178.829 450.398 178.829 497.601 149.715 526.715C120.601 555.829 73.3981 555.829 44.2842 526.715C15.1705 497.601 15.1704 450.398 44.2842 421.284ZM97.6387 409.473C93.4209 409.473 90.002 412.893 90.002 417.11C90.0021 421.328 93.4209 424.747 97.6387 424.747C101.856 424.747 105.275 421.328 105.275 417.11C105.275 412.893 101.856 409.473 97.6387 409.473Z" fill="#EF7F1A"/>
<path d="M71.494 480V467.4H74.41V480H71.494ZM85.2303 480.216C84.2583 480.216 83.3523 480.06 82.5123 479.748C81.6843 479.424 80.9643 478.968 80.3523 478.38C79.7403 477.792 79.2603 477.102 78.9123 476.31C78.5763 475.518 78.4083 474.648 78.4083 473.7C78.4083 472.752 78.5763 471.882 78.9123 471.09C79.2603 470.298 79.7403 469.608 80.3523 469.02C80.9763 468.432 81.7023 467.982 82.5303 467.67C83.3583 467.346 84.2643 467.184 85.2483 467.184C86.3403 467.184 87.3243 467.376 88.2003 467.76C89.0883 468.132 89.8323 468.684 90.4323 469.416L88.5603 471.144C88.1283 470.652 87.6483 470.286 87.1203 470.046C86.5923 469.794 86.0163 469.668 85.3923 469.668C84.8043 469.668 84.2643 469.764 83.7723 469.956C83.2803 470.148 82.8543 470.424 82.4943 470.784C82.1343 471.144 81.8523 471.57 81.6483 472.062C81.4563 472.554 81.3603 473.1 81.3603 473.7C81.3603 474.3 81.4563 474.846 81.6483 475.338C81.8523 475.83 82.1343 476.256 82.4943 476.616C82.8543 476.976 83.2803 477.252 83.7723 477.444C84.2643 477.636 84.8043 477.732 85.3923 477.732C86.0163 477.732 86.5923 477.612 87.1203 477.372C87.6483 477.12 88.1283 476.742 88.5603 476.238L90.4323 477.966C89.8323 478.698 89.0883 479.256 88.2003 479.64C87.3243 480.024 86.3343 480.216 85.2303 480.216ZM98.2711 480.216C97.2631 480.216 96.2971 480.084 95.3731 479.82C94.4491 479.544 93.7051 479.19 93.1411 478.758L94.1311 476.562C94.6711 476.946 95.3071 477.264 96.0391 477.516C96.7831 477.756 97.5331 477.876 98.2891 477.876C98.8651 477.876 99.3271 477.822 99.6751 477.714C100.035 477.594 100.299 477.432 100.467 477.228C100.635 477.024 100.719 476.79 100.719 476.526C100.719 476.19 100.587 475.926 100.323 475.734C100.059 475.53 99.7111 475.368 99.2791 475.248C98.8471 475.116 98.3671 474.996 97.8391 474.888C97.3231 474.768 96.8011 474.624 96.2731 474.456C95.7571 474.288 95.2831 474.072 94.8511 473.808C94.4191 473.544 94.0651 473.196 93.7891 472.764C93.5251 472.332 93.3931 471.78 93.3931 471.108C93.3931 470.388 93.5851 469.734 93.9691 469.146C94.3651 468.546 94.9531 468.072 95.7331 467.724C96.5251 467.364 97.5151 467.184 98.7031 467.184C99.4951 467.184 100.275 467.28 101.043 467.472C101.811 467.652 102.489 467.928 103.077 468.3L102.177 470.514C101.589 470.178 101.001 469.932 100.413 469.776C99.8251 469.608 99.2491 469.524 98.6851 469.524C98.1211 469.524 97.6591 469.59 97.2991 469.722C96.9391 469.854 96.6811 470.028 96.5251 470.244C96.3691 470.448 96.2911 470.688 96.2911 470.964C96.2911 471.288 96.4231 471.552 96.6871 471.756C96.9511 471.948 97.2991 472.104 97.7311 472.224C98.1631 472.344 98.6371 472.464 99.1531 472.584C99.6811 472.704 100.203 472.842 100.719 472.998C101.247 473.154 101.727 473.364 102.159 473.628C102.591 473.892 102.939 474.24 103.203 474.672C103.479 475.104 103.617 475.65 103.617 476.31C103.617 477.018 103.419 477.666 103.023 478.254C102.627 478.842 102.033 479.316 101.241 479.676C100.461 480.036 99.4711 480.216 98.2711 480.216ZM110.092 472.476H116.158V474.744H110.092V472.476ZM110.308 477.66H117.166V480H107.41V467.4H116.932V469.74H110.308V477.66Z" fill="white"/>
<line x1="97.5" y1="404" x2="97.5" y2="-2.18557e-08" stroke="#787878"/>
</svg>
