<svg width="770" height="465" viewBox="0 0 770 465" fill="none" xmlns="http://www.w3.org/2000/svg">
<path d="M645.371 89.3027H164.392C144.426 89.3027 128.24 105.497 128.24 125.473V428.771C128.24 448.747 144.426 464.941 164.392 464.941H645.371C665.337 464.941 681.523 448.747 681.523 428.771V125.473C681.523 105.497 665.337 89.3027 645.371 89.3027Z" fill="#84DBEE"/>
<path fill-rule="evenodd" clip-rule="evenodd" d="M113.906 449.145L114.333 445.802C111.891 443.598 112.767 444.947 111.82 441.73C111.439 440.439 110.572 437.452 110.329 436.053L110.032 339.71C110.652 334.821 110.074 338.013 111.536 336.853L39.7433 270.626C37.5448 268.263 36.3304 268.099 36.3429 265.191C39.7265 264.111 39.09 264.32 41.6486 266.926L73.3613 295.969C79.9694 302.287 104.81 326.202 109.752 328.997C110.757 322.767 110.204 272.993 109.969 271.422L112.13 271.908C107.993 268.92 97.0674 264.349 91.703 261.861C85.1704 258.827 75.9618 255.819 70.384 252.643C62.817 249.782 18.2944 232.361 11.2257 232.269C3.7341 232.172 -1.35802 238.566 0.321203 246.706C10.0239 293.807 35.786 358.111 61.8203 396.464C73.0096 412.95 97.0841 440.733 113.906 449.145Z" fill="#F56E6D"/>
<path fill-rule="evenodd" clip-rule="evenodd" d="M387.691 252.349C393.139 249.856 400.228 256.2 404.83 259.086C409.713 262.153 414.571 265.421 419.889 268.706C424.483 271.538 433.285 275.058 427.984 283.077L397.594 302.978C379.102 313.113 383.281 292.571 383.281 272.749C383.281 262.631 381.459 255.203 387.691 252.349ZM388.005 212.853C369.495 217.189 358.49 223.386 346.497 238.532C341.744 244.535 336.962 254.021 335.701 261.278C331.359 286.32 333.691 305.739 351.979 325.288C365.814 340.082 390.664 350.313 413.821 344.724C451.819 335.553 474.018 301.021 466.597 265.849C462.385 245.885 453.817 236.34 441.066 224.743C429.717 214.416 404.621 208.956 388.005 212.853Z" fill="#A8E6F3"/>
<path fill-rule="evenodd" clip-rule="evenodd" d="M699.433 238.26C701.799 243.464 698.009 282.998 700.61 291.491C703.629 289.057 710.124 274.711 712.117 270.97C713.947 267.542 715.681 264.031 717.536 260.579C721.548 253.13 720.718 251.504 724.747 250.993C726.966 254.613 716.468 271.426 713.386 277.426C708.884 286.191 704.089 295.37 699.27 303.804C701.581 305.229 699.885 303.105 700.065 305.719C700.086 305.966 699.768 308.208 699.718 308.782L699.789 328.49C699.613 337.486 700.375 348.408 699.906 357.274L704.529 356.49C710.568 355.627 716.878 353.997 723.62 352.765C729.081 351.764 736.606 350.34 742.486 349.565C742.867 342.727 744.709 333.287 745.568 325.457C747.754 305.577 750.429 237.607 747.209 222.39C745.794 215.699 737.8 210.638 730.195 215.121C722.038 219.935 705.237 233.078 699.433 238.26Z" fill="#F56E6D"/>
<path fill-rule="evenodd" clip-rule="evenodd" d="M70.3831 252.644C75.961 255.819 85.1695 258.828 91.7022 261.861C97.0665 264.35 107.992 268.921 112.129 271.908L123.004 277.426C124.244 275.205 123.628 261.517 123.628 258.66C123.628 243.69 122.929 212.095 124.19 200.523C114.566 192.274 93.997 177.409 86.3421 172.025C84.2315 170.538 75.2617 163.159 71.1829 170.877C66.8488 179.089 69.4032 243.179 72.5188 252.522L70.3831 252.644Z" fill="#99CC66"/>
<path fill-rule="evenodd" clip-rule="evenodd" d="M106.453 39.4248C103.224 44.7039 95.6612 40.3466 98.2073 34.8957C100.929 29.0762 109.828 33.9153 106.453 39.4248ZM81.7249 37.6651C81.0716 30.9113 90.879 30.3457 91.1051 36.8398C91.3354 43.4386 82.2525 43.1118 81.7249 37.6651ZM66.0088 39.2991C65.3011 33.5131 66.951 31.9546 72.6838 32.6291C78.4502 38.3858 72.6126 45.3072 66.0088 39.2991ZM48.2031 75.6157C52.6378 74.8615 58.8103 72.6535 63.1989 71.2332C72.353 68.2711 69.5096 70.7807 78.023 72.8881C112.826 81.4938 139.568 38.2852 112.788 10.8509C87.4619 -15.096 42.7551 9.17503 50.6947 44.8379C52.4829 52.8529 55.3262 52.061 52.755 59.833C51.3396 64.1232 48.7726 71.0824 48.2031 75.6157Z" fill="#FFED00"/>
<path fill-rule="evenodd" clip-rule="evenodd" d="M751.611 127.221C756.327 125.05 757.859 128.167 757.219 130.861C756.465 134.029 753.282 133.413 751.251 132.47C750.372 129.064 750.188 130.132 751.611 127.221ZM740.435 127.489C744.92 124.317 747.901 130.279 744.463 132.529C740.937 134.837 736.293 130.417 740.435 127.489ZM733.802 132.202C730.569 134.192 725.204 132.131 727.759 128.092C729.191 125.821 735.992 125.046 733.802 132.202ZM769.467 157.353C769.153 152.682 767.445 149.816 766.75 145.915C765.611 139.53 768.048 138.751 768.559 133.685C772.562 94.1678 713.027 93.6525 715.778 132.81C716.72 146.25 730.602 159.18 747.838 155.933C753.282 154.906 753.219 152.711 759.145 154.483C762.822 155.589 765.066 157.106 769.467 157.353Z" fill="#F6AD71"/>
<path fill-rule="evenodd" clip-rule="evenodd" d="M387.691 252.352C381.46 255.205 383.282 262.633 383.282 272.751C383.282 292.573 379.103 313.115 397.595 302.98L427.985 283.079C433.286 275.06 424.484 271.54 419.89 268.708C414.572 265.424 409.714 262.156 404.831 259.089C400.229 256.202 393.14 249.859 387.691 252.352Z" fill="#FDFFFE"/>
<path fill-rule="evenodd" clip-rule="evenodd" d="M113.905 449.146C120.354 453.47 131.045 459.612 138.767 461.326C137.406 458.347 137.117 459.26 134.918 457.115C131.355 453.634 127.284 447.416 125.764 442.497C122.087 430.607 124.575 367.38 123.674 347.785C119.437 344.37 116.082 339.971 111.535 336.854C110.073 338.014 110.651 334.821 110.031 339.711L110.329 436.054C110.571 437.453 111.438 440.44 111.819 441.731C112.766 444.948 111.891 443.599 114.332 445.803L113.905 449.146Z" fill="#DD6463"/>
<path fill-rule="evenodd" clip-rule="evenodd" d="M686.062 247.508L686.293 319.718C688.043 317.883 700.355 295.958 700.61 291.492C698.01 283 701.8 243.465 699.434 238.262C695.547 241.861 690.413 245.33 686.062 247.508Z" fill="#DD6463"/>
<path fill-rule="evenodd" clip-rule="evenodd" d="M109.752 328.997C110.175 331.921 113.839 333.891 116.096 335.952C118.667 338.302 120.69 340.992 123.956 342.278L123.864 278.117L123.006 277.426L112.131 271.908L109.97 271.422C110.204 272.993 110.757 322.767 109.752 328.997Z" fill="#DD6463"/>
<path fill-rule="evenodd" clip-rule="evenodd" d="M571.749 62.686C572.666 62.8243 574.161 62.6064 575.509 65.4513C578.449 71.652 574.345 72.6953 571.682 76.7132C577.356 77.6936 576.715 82.9894 575.149 87.8453L605.275 76.885C608.089 76.0303 602.297 78.1754 606.845 76.3906L608.507 75.5234C607 74.4298 606.799 75.7328 606.824 70.282C606.87 59.5521 606.493 62.7866 609.387 62.3299C606.874 60.5828 606.28 61.6051 600.195 59.2421L574.764 49.8906C576.271 54.0887 576.539 53.0497 576.058 58.1611C574.466 59.7323 573.084 60.7881 571.749 62.686Z" fill="#E6E6E6"/>
<path fill-rule="evenodd" clip-rule="evenodd" d="M686.151 328.511L686.088 361.015L699.907 357.274C700.376 348.408 699.614 337.486 699.79 328.491L699.719 308.782C699.769 308.208 700.087 305.967 700.066 305.719C699.886 303.105 701.582 305.229 699.27 303.805L686.151 328.511Z" fill="#DD6463"/>
<path fill-rule="evenodd" clip-rule="evenodd" d="M111.536 336.853C116.084 339.97 119.438 344.37 123.676 347.784C124.3 339.388 125.854 282.919 123.865 278.118L123.957 342.279C120.69 340.993 118.668 338.303 116.097 335.952C113.84 333.891 110.175 331.922 109.752 328.998C104.811 326.203 79.9703 302.288 73.3622 295.97L41.6495 266.927C39.0909 264.321 39.7274 264.111 36.3438 265.192C36.3313 268.1 37.5457 268.263 39.7442 270.626L111.536 336.853Z" fill="#F1EEF2"/>
<path fill-rule="evenodd" clip-rule="evenodd" d="M700.61 291.492C700.355 295.958 688.043 317.883 686.293 319.718L686.15 328.512L699.27 303.806C704.09 295.372 708.885 286.192 713.387 277.427C716.469 271.427 726.967 254.614 724.748 250.994C720.719 251.505 721.548 253.131 717.536 260.58C715.681 264.033 713.948 267.544 712.118 270.971C710.124 274.712 703.629 289.058 700.61 291.492Z" fill="#FEE8E7"/>
<path fill-rule="evenodd" clip-rule="evenodd" d="M608.508 75.5228L619.324 71.375C623.73 69.4058 620.953 71.6934 622.142 68.4799C620.815 66.8501 622.444 67.7425 619.358 66.385C616.879 65.2957 611.393 64.0555 609.387 62.3294C606.493 62.7861 606.87 59.5516 606.824 70.2815C606.799 75.7323 607 74.4293 608.508 75.5228Z" fill="#333333"/>
<path fill-rule="evenodd" clip-rule="evenodd" d="M81.7246 37.6658C82.2522 43.1125 91.3351 43.4393 91.1048 36.8404C90.8787 30.3464 81.0713 30.912 81.7246 37.6658Z" fill="#F7F8F7"/>
<path fill-rule="evenodd" clip-rule="evenodd" d="M106.451 39.4247C109.827 33.9152 100.928 29.0761 98.206 34.8956C95.6599 40.3464 103.223 44.7037 106.451 39.4247Z" fill="#FFF5F3"/>
<path fill-rule="evenodd" clip-rule="evenodd" d="M66.0074 39.299C72.6113 45.3071 78.4488 38.3857 72.6825 32.629C66.9497 31.9544 65.2997 33.513 66.0074 39.299Z" fill="#F7F8F7"/>
<path fill-rule="evenodd" clip-rule="evenodd" d="M733.799 132.204C735.989 125.048 729.188 125.823 727.756 128.094C725.202 132.132 730.566 134.194 733.799 132.204Z" fill="#EAFEFF"/>
<path fill-rule="evenodd" clip-rule="evenodd" d="M751.611 127.22C750.188 130.132 750.372 129.064 751.251 132.47C753.282 133.413 756.465 134.029 757.219 130.861C757.859 128.167 756.327 125.05 751.611 127.22Z" fill="#EAFEFF"/>
<path fill-rule="evenodd" clip-rule="evenodd" d="M740.433 127.488C736.291 130.417 740.935 134.837 744.461 132.528C747.899 130.278 744.918 124.316 740.433 127.488Z" fill="#EDFFFF"/>
<path fill-rule="evenodd" clip-rule="evenodd" d="M216.846 76.416H570.162C573.705 76.416 576.603 79.3153 576.603 82.8598C576.603 86.4043 573.705 89.3036 570.162 89.3036H216.846V76.416Z" fill="#E35C5C"/>
<path fill-rule="evenodd" clip-rule="evenodd" d="M216.846 76.4172H570.162C573.705 76.4172 576.603 73.5137 576.603 69.9692C576.603 66.4247 573.705 63.5254 570.162 63.5254H216.846V76.4172Z" fill="#F56E6D"/>
<path fill-rule="evenodd" clip-rule="evenodd" d="M216.846 50.6348H570.162C573.705 50.6348 576.603 53.5341 576.603 57.0786C576.603 60.6231 573.705 63.5224 570.162 63.5224H216.846V50.6348Z" fill="#FA8887"/>
<path fill-rule="evenodd" clip-rule="evenodd" d="M207.1 50.6348H188.696C178.574 50.6348 170.291 58.922 170.291 69.0486V70.8879C170.291 81.0145 178.574 89.3017 188.696 89.3017H207.1V50.6348Z" fill="#E6E6E6"/>
<path d="M216.845 50.7363H207.201V89.2985H216.845V50.7363Z" fill="#CDCFD0"/>
<path d="M216.845 53.1543H207.201V63.5951H216.845V53.1543Z" fill="white"/>
<path fill-rule="evenodd" clip-rule="evenodd" d="M686.057 360.984L685.868 434.853C684.926 444.217 680.127 451.654 673.146 457.997C717.753 433.894 748.615 402.19 764.541 362.224C767.271 357.163 768.712 348.922 760.81 348.059C747.991 346.655 699.608 355.374 686.057 360.984Z" fill="#669966"/>
<path fill-rule="evenodd" clip-rule="evenodd" d="M167.33 405.221H646.027C647.564 405.221 648.82 406.478 648.82 408.011C648.82 409.549 647.564 410.806 646.027 410.806H167.33C165.797 410.806 164.541 409.549 164.541 408.011C164.541 406.478 165.797 405.221 167.33 405.221Z" fill="#FEFEFE"/>
<path d="M263.759 427.318C274.416 427.318 283.056 418.674 283.056 408.011C283.056 397.349 274.416 388.705 263.759 388.705C253.102 388.705 244.463 397.349 244.463 408.011C244.463 418.674 253.102 427.318 263.759 427.318Z" fill="#84DBEE"/>
<path d="M263.758 422.935C271.996 422.935 278.674 416.254 278.674 408.012C278.674 399.77 271.996 393.088 263.758 393.088C255.52 393.088 248.842 399.77 248.842 408.012C248.842 416.254 255.52 422.935 263.758 422.935Z" fill="#FEFEFE"/>
<path fill-rule="evenodd" clip-rule="evenodd" d="M177.426 427.574C178.679 427.574 179.705 428.601 179.705 429.853V442.444C179.705 443.696 178.679 444.723 177.426 444.723C176.174 444.723 175.148 443.696 175.148 442.444V429.853C175.148 428.601 176.174 427.574 177.426 427.574Z" fill="#FEFEFE"/>
<path fill-rule="evenodd" clip-rule="evenodd" d="M167.989 427.574C169.245 427.574 170.267 428.601 170.267 429.853V442.444C170.267 443.696 169.245 444.723 167.989 444.723C166.737 444.723 165.715 443.696 165.715 442.444V429.853C165.715 428.601 166.737 427.574 167.989 427.574Z" fill="#FEFEFE"/>
</svg>
