<svg width="507" height="432" viewBox="0 0 507 432" fill="none" xmlns="http://www.w3.org/2000/svg">
<path fill-rule="evenodd" clip-rule="evenodd" d="M203.017 427.406C235.568 422.151 413.395 367.178 385.037 246.259C356.679 125.348 246.191 75.1678 160.432 58.757C83.8638 44.106 20.631 67.5954 13.2471 116.27C5.87115 164.945 72.7004 228.486 59.9138 278.61C47.1193 328.727 -34.3505 327.349 16.581 379.942C67.5126 432.542 145.489 436.699 203.017 427.406Z" fill="#E6E6E6"/>
<path fill-rule="evenodd" clip-rule="evenodd" d="M145.123 412.166C181.39 423.68 401.444 462.059 474.893 334.858C548.343 207.648 482.206 105.051 412.011 46.4629C349.335 -5.85088 267.786 -15.812 219.822 25.9117C171.858 67.6353 184.08 160.685 129.616 201.032C75.1432 241.378 -3.43826 198.977 2.38612 273.785C8.21051 348.593 81.0392 391.814 145.123 412.166Z" fill="#D1EFFD"/>
<path fill-rule="evenodd" clip-rule="evenodd" d="M431.243 243.001C417.692 213.516 314.11 52.7524 184.637 79.7294C55.1561 106.706 24.5621 207.464 26.1853 285.441C27.6334 355.058 68.9134 412.181 125.439 418.376C181.972 424.571 237.836 363.275 297.266 374.367C356.695 385.451 374.232 459.383 421.511 412.627C468.791 365.879 455.193 295.092 431.243 243.001Z" fill="white"/>
<path d="M338.84 116.828H113.05C105.557 116.828 99.4834 122.906 99.4834 130.404V263.426C99.4834 270.924 105.557 277.002 113.05 277.002H338.84C346.333 277.002 352.407 270.924 352.407 263.426V130.404C352.407 122.906 346.333 116.828 338.84 116.828Z" fill="#C6DEF6"/>
<path d="M336.772 121.463H115.111C109.143 121.463 104.306 126.204 104.306 132.053V261.779C104.306 267.627 109.143 272.369 115.111 272.369H336.772C342.739 272.369 347.577 267.627 347.577 261.779V132.053C347.577 126.204 342.739 121.463 336.772 121.463Z" fill="#E1F3FC"/>
<path fill-rule="evenodd" clip-rule="evenodd" d="M176.648 145.469L173.784 146.791C174.762 148.312 174.922 149.005 175.574 150.191C182.457 150.733 181.47 148.631 185.297 157.572C186.936 161.394 183.682 162.286 188.058 167.406C189.594 169.198 188.687 168.847 191.002 169.054C192.379 167.271 191.822 167.064 192.498 165.201C193.485 162.501 194.074 163.608 195.776 162.477C197.853 161.108 195.959 161.315 199.238 159.905C202.086 158.679 200.789 159.372 202.834 157.748C202.953 156.474 202.882 155.606 203.152 154.491C203.455 153.257 203.789 153.392 204.131 152.11C205.531 146.871 202.213 147.611 205.905 143.152C207.911 140.732 206.852 143.296 207.258 140.286C205.468 140.58 205.293 140.867 203.081 141.034C202.571 140.15 203.033 137.483 197.034 137.555C194.4 137.594 190.724 137.937 188.886 138.876C184.971 140.883 184.533 139.458 181.223 140.692C181.168 140.716 178.82 142.093 178.375 142.404C177.547 142.985 177.802 142.03 176.927 144.347C176.871 144.498 176.815 144.769 176.776 144.896C176.736 145.031 176.704 145.278 176.648 145.469ZM233.929 190.139L233.189 189.446C230.277 185.863 232.37 186.683 226.561 186.134C225.463 187.44 224.755 188.125 223.951 189.319C223.259 190.354 222.368 191.795 221.859 192.934C225.368 192.52 224.699 191.772 229.235 191.811L229.975 193.276C230.635 194.566 229.418 193.332 230.985 194.925C231.614 195.562 232.951 196.223 233.929 196.987C238.64 196.167 234.168 195.45 238.751 196.231C241.751 196.74 241.735 197.138 244.194 196.008L245.331 192.409L240.629 191.843C239.205 189.271 240.637 190.251 238.624 188.674C238.146 189.391 237.979 190.028 237.955 190.06C236.873 191.652 238.242 190.705 236.611 191.318C235.759 187.655 235.68 186.588 232.513 185.72C233.913 189.072 235.186 187.384 233.929 190.139ZM275.384 151.505L275.058 154.013L271.207 154.348L270.618 158.432C270.387 160.622 270.952 160.288 268.947 160.941C270.069 159.667 270.817 157.357 270.125 155.168C269.106 151.943 270.181 154.746 268.812 153.193C267.356 153.91 267.475 153.615 266.695 154.961L265.454 157.724L261.492 156.864C260.704 158.918 262.446 157.636 260.234 158.544C257.672 159.595 255.962 158.106 254.378 160.742L252.039 158.99C250.67 161.363 252.294 160.144 250.026 161.379C248.029 158.154 244.87 158.202 242.65 155.359C237.82 154.802 234.598 156.784 232.76 160.614C232.036 162.135 231.582 162.661 230.564 163.775C228.081 166.506 227.397 166.22 227.635 170.798L230.914 170.782L231.948 174.684C237.017 169.97 233.07 168.202 236.603 164.46C238.274 162.692 236.658 163.839 238.743 162.931C237.979 164.954 237.685 164.675 236.945 167.143C237.064 170.336 239.595 169.198 236.428 173.505C235.083 175.321 233.436 174.971 231.256 175.09L230.205 172.303C229.115 173.41 229.664 172.375 229.211 173.935C228.001 178.076 231.192 171.125 228.869 175.536L220.586 181.731C222.694 182.79 222.551 183.124 222.941 185.624L218.071 186.222C218.095 189.98 218.358 190.792 219.305 193.324C217.697 196.772 213.711 200.108 213.265 204.026C212.398 211.694 213.711 212.57 217.833 216.71C220.657 216.814 220.888 216.607 223.426 216.193C225.941 215.779 226.665 216.75 228.606 217.475C228.741 220.787 228.702 221.87 229.903 224.195C231.892 228.065 230.516 228.057 230.134 231.791C229.728 235.725 232.99 255.44 241.234 241.553C242.952 238.663 243.096 235.199 244.4 233.901L246.238 232.556C248.236 229.012 244.249 225.214 248.49 220.676C251.394 217.578 253.065 216.097 253.877 212.164L250.066 212.864C246.183 207.275 247.13 208.158 245.053 203.078C244.289 201.223 243.406 201.661 244.663 199.678L250.026 211.144C253.933 210.348 257.076 207.49 259.479 204.735C259.009 201.701 259.264 204.36 258.643 201.462L264.109 202.187C265.892 204.599 267.602 205.937 268.43 209.074C269.337 212.522 269.52 215.42 272.607 216.471C272.472 212.633 270.387 210.929 275.392 206.646C277.087 205.204 276.538 205.483 279.132 205.069C279.761 206.439 279.339 205.387 279.8 206.502L282.227 211.335C283.126 214.003 282.585 216.4 284.24 219.314C284.964 218.597 285.688 220.827 284.749 216.439C284.312 214.393 284.177 215.277 284.208 212.673C288.227 214.019 283.715 213.939 288.569 214.21C290.184 207.076 287.168 210.284 287.455 206.566C290.526 204.663 293.438 206.152 295.984 202.497C298.491 198.898 296.836 198.794 297.027 195.291C297.194 192.217 297.067 193.929 298.364 193.308L297.178 192.416C296.629 191.931 296.526 191.835 296.128 191.31C297.894 190.02 297.146 190.824 300.114 190.832C300.719 192.958 300.639 193.929 302.66 194.925C303.44 191.851 302.708 193.738 302.318 190.633L310.728 184.215C310.665 186.843 310.354 191.365 308.27 193.197C306.002 195.179 302.708 194.113 302.692 197.767C303.615 197.656 308.636 195.562 309.304 194.917C311.429 192.87 309.447 191.469 312.917 187.95C310.959 186.054 312.439 187.862 311.365 185.935C312.749 182.065 312.845 182.654 312.718 177.885L308.859 176.754C309.726 173.657 310.72 173.752 312.718 171.674L319.783 171.841C321.311 169.986 320.961 169.405 323.905 168.983C323.889 173.935 320.937 172.399 320.706 176.73L321.796 179.438C326.96 174.158 324.788 176.308 325.401 172.231C328.846 170.687 334.806 170.623 336.389 167.072C337.272 165.121 338.1 165.288 339.612 165.543C339.795 165.575 339.97 165.67 340.161 165.694L342.452 165.575C343.327 162.334 342.866 163.401 339.978 161.769C338.004 160.662 337.471 159.722 335.315 159.038C333.198 158.377 330.979 158.878 328.488 158.854C324.478 158.807 325.218 158.576 323.141 156.768C321.661 156.235 320.181 156.92 318.439 155.805C313.776 152.835 313.736 154.029 310.951 155.048C308.286 156.02 308.27 154.841 306.726 156.012C305.366 154.802 306.121 155.741 305.071 154.077C304.944 153.87 304.57 153.026 304.363 152.676C301.642 152.277 301.427 152.867 298.968 152.723C297.082 152.612 296.247 152.134 293.924 151.959C294.552 148.901 294.775 150.526 294.878 147.699C287.089 144.88 289.293 146.29 286.086 147.587C284.009 148.431 280.803 148.129 279.028 149.96C277.477 151.553 279.888 151.752 275.384 151.505ZM156.796 162.955C151.131 162.191 154.878 162.246 149.42 163.202C145.831 161.402 145.545 161.434 140.668 161.514C137.238 161.578 134.923 163.194 131.621 162.684C119.168 160.773 120.043 161.355 115.325 165.129L116.431 167.35C116.487 167.454 116.606 167.653 116.686 167.812C114.171 169.532 115.452 167.932 114.848 169.827L118.245 170.934C114.267 176.786 117.235 175.138 121.786 177.885C121.062 180.059 121.444 178.363 120.25 180.895C122.733 179.931 124.571 177.646 125.629 175.241C130.053 174.915 133.658 174.724 136.49 178.092C137.015 178.721 137.588 179.724 137.891 179.955L139.697 180.847C142.203 182.352 145.036 187.082 145.267 189.956C145.808 196.629 147.662 196.971 150.168 199.312C151.72 200.769 152.149 202.115 152.961 203.898C156.08 204.4 156.199 203.285 158.101 206.797C162.676 215.245 165.533 209.194 170.752 214.234C173.847 217.22 172.288 216.248 174.969 217.188L176.545 217.833C176.672 217.897 176.871 218.04 177.022 218.159C177.285 222.794 172.145 224.641 179.338 233.193C181.788 236.099 185.114 233.726 181.892 250.766C180.69 257.112 181.303 260.424 182.616 265.505C184.971 266.205 183.833 266.317 186.491 266.468C186.101 262.033 184.796 264.199 185.671 261.046C185.997 259.851 185.982 260.886 186.3 258.442C187.215 251.443 187.621 253.728 190.493 251.196C191.758 250.081 195.402 244.491 196.373 241.736C197.821 237.644 198.824 240.279 200.455 237.604C201.561 235.78 201.187 233.814 201.839 231.791C203.073 227.977 203.837 230.868 203.534 225.541C200.176 223.128 198.362 223.996 196.031 222.547C192.864 220.58 196.142 219.927 190.413 217.427C189.22 216.901 185.576 212.928 180.261 214.027C177.245 214.648 179.918 214.25 178.383 215.038C176.473 216.025 175.956 215.739 173.585 215.635C173.275 213.86 173.171 213.501 172.749 211.447L170.028 210.969C170.155 208.604 170.657 208.596 169.543 207.004C166.774 208.286 169.766 207.466 167.641 208.907C164.753 210.874 163.742 207.896 163.726 205.419C163.702 201.725 164.061 201.494 167.832 200.793C172.725 199.885 171.349 201.167 173.736 203.333C172.71 191.859 174.126 202.378 176.322 193.356C177.301 189.319 178.208 192.671 179.107 187.48C184.215 186.516 182.218 187.297 185.799 184.749L182.393 185.202L182.242 181.755L185.679 180.544L185.639 183.387L188.655 183.793C188.09 181.556 188.162 182.312 187.891 181.739C186.284 178.235 187.056 178.076 186.578 177.216C184.144 174.381 183.642 175.862 181.637 171.141L178.741 172.693C177.293 169.843 176.855 168.362 172.391 168.728C172.598 178.57 174.858 171.061 172.55 177.463L171.556 180.146C170.482 178.418 170.251 177.447 167.275 176.117C161.427 173.498 160.544 173.283 164.172 167.406C167.609 167.398 166.225 169.978 169.742 167.143L166.798 165.392C168.134 163.536 168.317 164.388 168.843 162.971C169.686 160.702 168.691 160.359 168.198 159.611C165.986 160.264 167.522 159.42 166.392 160.941C163.368 165.009 168.27 160.144 165.517 162.39C163.774 159.635 165.453 160.726 161.825 159.396C160.329 150.987 163.83 154.929 160.154 153.591C160.058 153.75 159.907 153.79 159.883 154.061C159.859 154.34 159.692 154.427 159.66 154.563C158.57 159.109 160.209 150.749 159.414 155.741C159.199 157.103 159.517 156.983 159.016 158.743C158.65 160.049 158.578 159.913 158.069 160.941L156.796 162.955ZM291.131 223.526C291.791 227.038 291.998 226.114 294.847 227.006C295.014 227.061 295.189 227.149 295.348 227.205L296.239 227.603C296.796 227.778 296.167 227.874 297.655 227.802C299.676 225.238 299.66 225.35 299.581 223.646C297.807 223.908 298.992 223.502 297.6 224.211C297.441 224.291 297.027 224.617 296.892 224.697C295.603 225.477 297.035 224.84 296.008 225.214L296.748 219.202C294.226 219.76 292.086 221.671 291.131 223.526ZM144.725 155.805C143.317 153.265 145.68 154.754 142.689 153.989C141.328 153.639 139.864 154.029 139.386 154.427C138.249 155.383 139.251 157.883 140.031 158.902C142.768 158.353 140.588 158.839 143.381 156.808C146.619 159.531 146.325 162.661 151.998 160.351C154.56 159.316 157.536 158.743 158.562 155.733L156.971 153.599C154.234 154.786 156.215 153.432 154.783 156.418C153.47 155.964 154.027 156.418 153.12 155.47L151.433 153.4C148.68 156.585 148.433 154.013 144.725 155.805ZM168.628 136.623C166.654 139.155 165.827 139.02 161.037 140.294C161.403 142.237 160.695 140.636 162.039 141.839L164.697 144.992C163.917 146.863 163.376 148.376 162.207 149.674L168.866 149.546L171.19 146.003C172.32 143.869 170.665 144.514 173.999 142.714C176.791 141.217 177.34 140.795 178.725 138.2C178.797 138.072 178.924 137.825 178.98 137.722L179.6 136.727L168.628 136.623ZM156.008 142.221C156.438 145.024 156.422 144.538 158.292 145.525L156.406 147.349C157.194 148.097 157.226 147.93 158.578 148.583C160.034 144.426 162.74 147.556 162.509 144.514C162.358 142.667 159.223 141.154 157.631 140.533L156.008 142.221ZM163.512 158.504C168.047 159.324 172.781 157.206 175.033 161.777C173.975 165.503 174.158 162.891 172.399 165.519C175.097 165.917 174.134 165.439 176.537 166.355C181.502 168.242 180.436 165.83 181.693 162.541C181.987 161.769 181.916 162.525 182.146 161.1C181.136 160.431 180.189 160.184 179.568 159.754C175.773 157.111 181.406 157.302 170.267 154.945C169.081 154.69 169.503 154.722 168.835 154.403C168.071 154.037 169.28 152.66 165.564 153.559C163.185 154.133 162.978 156.044 163.512 158.504ZM296.366 236.433C298.785 239.053 298.125 237.357 300.146 241.076L311.803 256.953C310.275 255.91 311.317 256.77 310.736 255.074C316.187 245.949 316.505 249.54 312.495 240.255C311.58 238.145 312.089 236.179 311.063 234.491C309.503 235.303 310.911 234.172 310.004 235.78C309.583 236.529 310.108 236.035 309.591 236.768C308.548 238.265 310.275 236.816 308.381 237.811C308.27 237.644 308.111 237.206 308.071 237.301L307.044 233.774C303.002 232.667 304.626 233.909 301.363 234.411C297.807 234.96 300.13 236.099 296.366 236.433ZM308.747 232.54C312.36 232.994 311.079 232.556 313.967 234.339C313.235 227.054 308.66 227.491 306.296 226.297C305.079 225.684 306.265 225.772 304.57 225.493C304.546 228.566 303.949 226.608 306.448 228.853C308.739 230.915 307.275 230.382 308.747 232.54Z" fill="#C5DDF9"/>
<path fill-rule="evenodd" clip-rule="evenodd" d="M345.396 181.507C343.701 185.392 339.548 187.614 338.339 191.778C340.924 191.444 347.354 188.737 349.948 187.662C358.071 184.293 354.141 185.846 362.376 187.224C377.82 189.804 402.63 185.583 409.019 171.601C417.063 153.988 396.423 143.908 379.404 141.567C348.022 137.243 320.078 161.218 343.288 179.317L345.396 181.507Z" fill="#00CCFF"/>
<path fill-rule="evenodd" clip-rule="evenodd" d="M295.102 278.691C288.442 279.997 283.119 279.973 280.962 280.156C280.008 282.123 280.493 281.963 281.392 285.602C282.021 288.166 282.259 289.281 282.705 292.028C284.002 300.126 294.314 323.639 294.823 329.683C297.353 332.183 298.531 338.959 300.019 342.742C301.388 346.197 304.276 353.069 304.849 355.856C306.4 358.093 308.087 362.481 309.392 365.618C310.673 368.675 312.074 372.458 313.291 375.73C314.644 379.353 320.388 394.036 321.98 396.051L325.505 395.692L331.066 394.777C329.364 382.084 327.693 367.314 323.348 355.8C322.537 353.666 316.474 342.232 315.869 339.66C314.293 332.956 314.437 324.093 314.484 316.871C314.58 300.325 315.933 288.803 307.22 276.541L295.102 278.691Z" fill="#FF6600"/>
<path fill-rule="evenodd" clip-rule="evenodd" d="M279.808 217.729C281.885 218.932 281.638 216.662 284.272 215.556C285.903 214.019 286.786 213.653 289.698 213.278L289.555 209.679L288.147 202.481C285.322 200.586 285.314 201.151 283.707 198.006C282.044 194.742 280.644 194.455 279.856 191.35C279.951 190.537 281.407 190.506 281.813 187.329C282.076 185.282 281.59 185.203 282.633 182.957C284.16 179.684 286.086 178.809 290.351 179.032C291.234 179.454 294.393 185.967 297.695 187.321C300.042 188.284 300.098 186.938 301.665 189.072C303.448 191.764 300.679 193.069 299.652 194.543C299 195.474 298.642 196.987 298.172 197.871C297.56 199.033 296.923 199.838 296.382 200.745L299.167 211.431L301.673 211.527L308.588 212.737C315.112 214.337 316.863 218.645 317.961 225.573C319.147 232.994 319.17 239.571 319.314 247.175L318.088 248.154C318.025 248.202 317.826 248.345 317.682 248.401L317.738 257.176C335.816 253.139 346.677 226.791 334.288 213.159C327.501 205.69 323.547 207.904 316.195 195.721C310.394 186.118 310.434 182.877 301.196 175.361C297.337 173.617 295.252 173.545 290.359 173.768C281.861 175.974 278.32 181.365 276.928 190.713C276.259 195.211 276.339 200.212 276.983 204.727C277.572 208.819 279.49 214.242 279.808 217.729Z" fill="#B55643"/>
<path fill-rule="evenodd" clip-rule="evenodd" d="M277.079 279.679C275.265 294.314 277.158 304.172 278.774 318.202C279.553 324.914 281.933 351.063 282.084 355.801C282.155 357.759 282.832 358.134 283.134 361.183L284.709 377.515C285.195 382.419 285.959 396.625 287.065 399.833L296.263 400.526C296.303 386.09 298.682 370.89 297.679 356.509C297.361 351.867 295.507 348.133 294.815 344.04C294.027 339.39 295.578 334.254 294.823 329.684C294.313 323.64 284.001 300.127 282.704 292.029C282.259 289.282 282.02 288.167 281.391 285.603C280.492 281.964 280.628 283.151 280.962 280.515C285.919 280.093 292.786 280.101 297.464 278.27C293.629 279.273 279.418 279.114 277.079 279.679Z" fill="#990000"/>
<path fill-rule="evenodd" clip-rule="evenodd" d="M289.699 213.279C286.787 213.653 285.904 214.02 284.272 215.556C285.585 216.408 280.294 224.944 278.329 228.663C276.164 232.771 276.928 235.184 278.146 237.66C282.705 238.433 296.423 237.079 298.253 237.756C298.539 243.178 298.547 248.943 297.489 253.999C300.218 252.901 302.589 253.291 305.278 252.168L306.408 246.817L307.14 246.14C303.6 236.697 306.87 224.61 306.83 220.923C306.782 215.23 306.233 213.637 308.589 212.738L301.674 211.527C299.438 213.064 300.87 211.886 299.136 214.903C297.934 216.982 294.521 220.031 293.001 220.859C285.999 224.681 289.572 214.736 289.699 213.279Z" fill="#F7CB7B"/>
<path fill-rule="evenodd" clip-rule="evenodd" d="M249.779 234.976C251.259 236.386 252.636 240.112 253.853 241.967C254.474 242.923 255.683 244.46 256.423 245.423C257.346 246.61 258.222 247.868 259.009 248.863L264.022 249.046C265.454 245.861 265.582 248.807 269.942 243.369C270.73 242.389 270.149 242.979 271.112 242.278L271.231 238.042L273.912 237.644C273.109 234.761 270.817 231.616 268.892 230.406L266.6 231.616C263.99 233.296 265.208 233.949 262.184 234.921L257.553 229.474L245.896 213.597C243.875 209.878 244.536 211.574 242.117 208.955C238.799 205.356 234.797 202.195 231.415 200.164C232.346 203.421 233.786 203.54 234.956 206.789C234.383 209.942 233.309 209.568 233.627 213.501C238.417 217.745 240.629 216.272 243.669 221.838L249.779 234.976Z" fill="#F7A795"/>
<path fill-rule="evenodd" clip-rule="evenodd" d="M305.278 252.168C302.588 253.291 300.217 252.901 297.488 254C294.44 254.127 284.709 255.019 282.457 254.262C279.076 253.132 277.437 249.572 272.217 249.652C272.973 252.304 273.411 251.372 273.952 253.442L271.636 253.148L270.769 253.307C270.037 258.968 269.862 258.769 271.413 264.287C271.684 262.074 271.334 263.865 272.241 263.125C281.057 262.878 287.582 262.782 296.955 263.308L297.018 273.229C297.575 270.721 297.4 266.063 298.029 262.735L304.538 262.488C307.609 262.535 310.322 262.209 312.884 261.668C317.674 260.648 316.767 261.031 317.738 257.177L317.682 248.402C317.825 248.346 318.024 248.203 318.088 248.155L319.313 247.176L307.139 246.141L306.407 246.817L308.659 246.65L308.15 252.152L305.278 252.168Z" fill="#EC8A77"/>
<path fill-rule="evenodd" clip-rule="evenodd" d="M288.147 202.48C291.593 203.213 292.619 202.496 295.46 201.78C294.616 204.718 292.842 206.493 289.54 207.218L289.556 209.679L289.699 213.278C289.572 214.735 285.999 224.68 293.001 220.858C294.521 220.03 297.934 216.98 299.136 214.902C300.87 211.884 299.438 213.063 301.674 211.526L299.168 211.43L296.383 200.745C296.924 199.837 297.56 199.033 298.173 197.87C298.642 196.986 299.001 195.473 299.653 194.542C300.679 193.069 303.448 191.763 301.666 189.071C300.099 186.938 300.043 188.283 297.696 187.32C294.394 185.966 291.235 179.453 290.351 179.031C286.087 178.808 284.161 179.684 282.633 182.956C281.591 185.202 282.076 185.281 281.814 187.328C281.408 190.505 279.952 190.537 279.856 191.349C280.644 194.454 282.045 194.741 283.708 198.005C285.315 201.151 285.323 200.585 288.147 202.48Z" fill="#F8A58B"/>
<path fill-rule="evenodd" clip-rule="evenodd" d="M271.111 242.279L271.636 253.148L273.952 253.442C273.411 251.372 272.973 252.304 272.217 249.652C277.437 249.572 279.076 253.132 282.458 254.262C284.71 255.019 294.441 254.127 297.488 254C298.546 248.943 298.538 243.178 298.252 237.756L273.912 237.645L271.231 238.043L271.111 242.279Z" fill="#476AA9"/>
<path fill-rule="evenodd" clip-rule="evenodd" d="M307.14 246.139L319.314 247.174C319.171 239.57 319.147 232.993 317.961 225.572C316.863 218.645 315.113 214.337 308.588 212.736C306.233 213.636 306.782 215.229 306.83 220.922C306.869 224.608 303.599 236.696 307.14 246.139Z" fill="#FCDDB5"/>
<path fill-rule="evenodd" clip-rule="evenodd" d="M271.414 264.287L271.374 272.831L276.856 273.134L297.019 273.229L296.955 263.308C287.582 262.782 281.057 262.878 272.241 263.125C271.334 263.865 271.684 262.074 271.414 264.287Z" fill="#476AA9"/>
<path fill-rule="evenodd" clip-rule="evenodd" d="M297.019 273.228L276.856 273.132L277.079 279.677C282.219 280.721 299.342 278.499 307.22 276.54C307.45 270.958 304.443 268.53 304.538 262.486L298.03 262.733C297.401 266.062 297.576 270.72 297.019 273.228Z" fill="#ECC674"/>
<path fill-rule="evenodd" clip-rule="evenodd" d="M272.957 224.284L266.6 231.617L268.891 230.407C270.817 231.617 273.108 234.762 273.912 237.645L298.252 237.756C296.573 236.156 282.808 238.704 278.145 237.661C277.254 235.24 275.973 233.074 278.034 228.663C280.405 224.929 285.585 216.409 284.272 215.557C279.458 216.767 274.819 222.078 272.957 224.284Z" fill="#FCDDB5"/>
<path fill-rule="evenodd" clip-rule="evenodd" d="M294.218 411.609C289.762 411.896 287.877 413.154 282.848 411.641C280.159 412.175 269.751 414.556 270.26 418.099C274.239 418.497 294.306 418.6 294.895 417.526C295.531 414.922 295.825 413.926 294.218 411.609Z" fill="#5273AC"/>
<path fill-rule="evenodd" clip-rule="evenodd" d="M325.934 412.126C329.706 412.811 331.281 412.254 333.954 410.191C334.114 410.072 334.543 409.682 334.71 409.57C335.689 408.886 334.933 409.355 336.135 408.75C335.371 406.553 333.899 405.406 332.506 402.946C331.273 400.764 330.398 400.238 330.597 394.848L325.504 395.692L321.979 396.05C323.666 399.697 324.916 410.677 325.934 412.126Z" fill="#FBA391"/>
<path fill-rule="evenodd" clip-rule="evenodd" d="M325.934 412.126C326.499 414.666 327.652 416.92 329.713 417.716C332.148 418.655 335.323 418.225 336.795 416.298C338.052 413.774 337.431 411.123 336.134 408.75C334.933 409.355 335.689 408.885 334.71 409.57C334.543 409.682 334.113 410.072 333.954 410.191C331.281 412.254 329.705 412.811 325.934 412.126Z" fill="#476AA9"/>
<path fill-rule="evenodd" clip-rule="evenodd" d="M282.848 411.64C287.876 413.153 289.762 411.895 294.218 411.609L293.963 400.27L287.065 399.832C286.89 401.624 286.492 405.103 285.903 407.181C285.314 409.299 284.073 409.419 282.848 411.64Z" fill="#FBA391"/>
<path fill-rule="evenodd" clip-rule="evenodd" d="M264.022 249.045L270.245 249.404L270.77 253.305L271.637 253.146L271.112 242.277C270.149 242.978 270.73 242.389 269.942 243.368C265.582 248.807 265.455 245.86 264.022 249.045Z" fill="#B5CDE5"/>
<path fill-rule="evenodd" clip-rule="evenodd" d="M288.147 202.482L289.556 209.68L289.54 207.22C292.842 206.495 294.616 204.719 295.46 201.781C292.619 202.498 291.593 203.215 288.147 202.482Z" fill="#E2775E"/>
<path fill-rule="evenodd" clip-rule="evenodd" d="M305.278 252.166L308.151 252.151L308.66 246.648L306.408 246.816L305.278 252.166Z" fill="#AD4F39"/>
<path fill-rule="evenodd" clip-rule="evenodd" d="M379.841 386.303H412.4C414.024 386.303 415.631 387.656 415.352 389.257L410.745 415.422C410.467 417.022 409.417 418.376 407.793 418.376H384.44C382.817 418.376 381.767 417.022 381.488 415.422L376.881 389.257C376.603 387.656 378.21 386.303 379.841 386.303Z" fill="#EF7F1A"/>
<path d="M396.487 378.961C406.756 378.961 415.082 370.63 415.082 360.353C415.082 350.075 406.756 341.744 396.487 341.744C386.217 341.744 377.892 350.075 377.892 360.353C377.892 370.63 386.217 378.961 396.487 378.961Z" fill="#FFED00"/>
<path d="M395.922 336.14C402.211 336.14 407.309 331.039 407.309 324.746C407.309 318.453 402.211 313.352 395.922 313.352C389.634 313.352 384.536 318.453 384.536 324.746C384.536 331.039 389.634 336.14 395.922 336.14Z" fill="#B0CB1F"/>
<path d="M395.922 294.432V386.303" stroke="#5B5B5B" stroke-width="2.36664" stroke-miterlimit="22.9256" stroke-linecap="round" stroke-linejoin="round"/>
<path d="M395.922 327.668L390.654 322.404" stroke="#5B5B5B" stroke-width="2.36664" stroke-miterlimit="22.9256" stroke-linecap="round" stroke-linejoin="round"/>
<path d="M395.922 363.203L405.971 353.146" stroke="#5B5B5B" stroke-width="2.36664" stroke-miterlimit="22.9256" stroke-linecap="round" stroke-linejoin="round"/>
<path fill-rule="evenodd" clip-rule="evenodd" d="M188.878 161.498C186.849 156.968 185.146 153.281 183.372 149.905H178.256C177.937 138.718 178.248 127.196 178.232 115.977H176.744L176.903 149.905C145.068 149.905 113.232 149.905 81.3973 149.905V115.977H79.6706V149.905H73.703L67.4092 161.498H188.878Z" fill="#71A5CC"/>
<path fill-rule="evenodd" clip-rule="evenodd" d="M36.9268 431.969H439.788C443.528 431.969 446.583 428.911 446.583 425.177C446.583 421.435 443.52 418.377 439.788 418.377H36.9268C33.1951 418.377 30.1396 421.435 30.1396 425.177C30.1396 428.911 33.1951 431.969 36.9268 431.969Z" fill="#D9DADA"/>
<path fill-rule="evenodd" clip-rule="evenodd" d="M142.982 375.037L141.797 388.98L153.119 389.242L156.318 374.305L142.982 375.037Z" fill="#E9A798"/>
<path fill-rule="evenodd" clip-rule="evenodd" d="M136.235 375.037L137.42 388.98L126.106 389.242L122.907 374.305L136.235 375.037Z" fill="#E9A798"/>
<path fill-rule="evenodd" clip-rule="evenodd" d="M123.106 293.955C123.814 296.726 123.202 296.399 125.398 297.323L127.944 296.272C128.628 294.496 128.827 295.165 131.023 295.046C133.784 294.894 133.251 295.316 135.089 294.305L135.041 294.066C135.224 290.682 135.702 288.23 133.442 286.183C133.434 286.183 126.321 282.449 131.493 280.251L135.543 278.985C137.102 278.372 138.638 277.409 139.776 276.493C144.017 273.045 142.871 270.887 145.138 267.941C152.339 272.129 154.201 282.09 149.913 288.699C148.472 290.905 146.961 291.247 144.343 292.657L145.186 295.014L149.578 295.245L153.31 296.304L157.949 292.904C161.784 287.242 159.779 290.547 160.416 283.715C160.941 278.061 159.079 277.639 155.801 275.235C150.143 271.086 152.586 264.605 140.412 263.187C123.361 261.213 124.125 278.826 123.472 280.323C122.589 282.345 121.308 282.52 120.417 284.001C117.743 288.413 122.342 289.774 123.106 293.955Z" fill="#0B2C35"/>
<path fill-rule="evenodd" clip-rule="evenodd" d="M127.944 296.271L126.464 299.433C124.761 302.976 123.536 308.597 123.703 312.571C125.23 313.646 135.073 316.91 137.086 316.855C141.542 316.727 141.128 313.9 142.99 309.927C144.502 306.686 142.441 308.207 145.751 307.921C145.075 310.532 143.714 312.762 143.245 315.334C147.303 316.074 145.982 316.448 150.127 315.095C152.53 314.315 154.83 314.163 155.832 312.539C155.387 305.269 153.875 298.477 149.578 295.244L145.186 295.013L145.266 295.515C145.138 298.366 145.91 298.127 143.165 298.764C142.879 298.827 139.25 299.401 139.059 299.401C135.885 299.385 134.986 297.45 135.089 294.305C133.251 295.316 133.784 294.894 131.023 295.045C128.827 295.165 128.628 294.496 127.944 296.271Z" fill="#345384"/>
<path fill-rule="evenodd" clip-rule="evenodd" d="M135.042 294.066C136.752 296.169 138.089 297.379 141.781 297.912C143.142 296.869 142.155 297.403 143.142 296.67C144.271 295.826 143.611 296.105 145.266 295.516L145.186 295.014L144.343 292.657C146.961 291.248 148.473 290.905 149.913 288.7C154.202 282.091 152.34 272.13 145.139 267.941C142.871 270.888 144.017 273.045 139.776 276.493C138.638 277.409 137.102 278.372 135.543 278.985L131.493 280.251C126.321 282.449 133.434 286.184 133.442 286.184C135.702 288.23 135.225 290.682 135.042 294.066Z" fill="#F79A87"/>
<path fill-rule="evenodd" clip-rule="evenodd" d="M123.703 312.571L122.335 312.603C116.725 312.093 111.426 310.812 110.933 318.161C111.116 318.32 111.418 318.272 111.513 318.591L112.938 319.714C123.52 319.443 163.217 319.929 169.105 319.093L168.198 314.02C166.248 311.178 163.591 311.982 159.167 312.404C159.135 312.428 158.077 313.184 157.194 313.16C156.064 313.137 156.613 313.081 155.833 312.539C154.83 314.164 152.531 314.315 150.128 315.095C145.982 316.449 147.303 316.075 143.245 315.334C143.715 312.762 145.075 310.533 145.752 307.921C142.442 308.208 144.502 306.687 142.991 309.928C141.129 313.901 141.542 316.728 137.087 316.855C135.074 316.911 125.231 313.646 123.703 312.571Z" fill="#EA9886"/>
<path fill-rule="evenodd" clip-rule="evenodd" d="M121.396 331.266L157.718 331.338C158.236 328.264 157.79 326.99 157.074 324.283L122.056 324.379L121.396 331.266Z" fill="#345384"/>
<path fill-rule="evenodd" clip-rule="evenodd" d="M129.129 410.375C131.588 412.437 133.633 412.357 137.086 411.362C138.009 408.161 137.858 396.52 137.277 391.965L134.715 391.838L127.339 391.918C124.92 394.577 130.506 406.529 129.129 410.375Z" fill="#EBF5F5"/>
<path fill-rule="evenodd" clip-rule="evenodd" d="M142.02 411.443C145.115 412.47 147.828 412.39 149.587 410.224C148.513 406.434 152.515 394.475 152.69 392.508L150.311 391.95L143.54 391.887C141.741 393.153 142.648 391.72 141.845 393.543C141.28 394.849 142.052 404.897 141.089 410.081C141.216 410.216 141.304 410.519 141.343 410.583L142.02 411.443Z" fill="#EBF5F5"/>
<path fill-rule="evenodd" clip-rule="evenodd" d="M112.285 311.814C113.702 307.315 118.054 303.796 121.547 300.603L124.96 297.696C125.064 297.617 125.255 297.449 125.398 297.322C123.202 296.398 123.815 296.725 123.107 293.954C118.515 294.233 114.251 291.701 110.813 293.285C108.951 295.61 110.002 298.516 110.352 302.02C110.654 304.95 110.224 309.592 112.285 311.814Z" fill="#71A5CC"/>
<path fill-rule="evenodd" clip-rule="evenodd" d="M155.833 312.539C156.613 313.08 156.064 313.136 157.194 313.16C158.077 313.184 159.135 312.427 159.167 312.403C161.292 308.143 166.71 311.082 168.946 311.981C168.588 309.831 168.516 310.891 167.172 308.812C166.026 307.021 166.718 308.064 166.28 305.826L164.013 305.285C162.716 303.175 161.085 301.996 159.024 300.197C156.374 297.888 155.618 297.904 153.311 296.303L149.579 295.244C153.876 298.477 155.388 305.269 155.833 312.539Z" fill="#CBDDF3"/>
<path fill-rule="evenodd" clip-rule="evenodd" d="M157.949 292.903L153.311 296.303C155.618 297.904 156.374 297.888 159.024 300.197C161.084 301.997 162.715 303.175 164.012 305.285L166.28 305.827C165.739 301.16 167.696 296.869 165.978 293.174C162.731 291.9 161.8 293.031 158.355 293.349L157.949 292.903Z" fill="#71A5CC"/>
<path fill-rule="evenodd" clip-rule="evenodd" d="M125.398 297.323C125.255 297.45 125.064 297.617 124.96 297.697L121.547 300.603C118.054 303.796 113.701 307.316 112.285 311.814C116.192 309.919 119.932 308.812 122.335 312.603L123.703 312.571C123.536 308.597 124.761 302.976 126.464 299.433L127.944 296.271L125.398 297.323Z" fill="#CBDDF3"/>
<path fill-rule="evenodd" clip-rule="evenodd" d="M137.086 411.362C133.633 412.358 131.588 412.437 129.129 410.375C117.878 417.175 139.179 422.43 138.606 414.101C138.327 410.176 138.678 412.095 137.086 411.362Z" fill="#031536"/>
<path fill-rule="evenodd" clip-rule="evenodd" d="M142.02 411.441C140.357 411.839 140.492 410.597 140.388 414.077C140.181 421.187 152.244 417.429 152.92 416.011C153.103 412.619 151.607 411.329 149.586 410.223C147.828 412.388 145.115 412.468 142.02 411.441Z" fill="#04132B"/>
<path fill-rule="evenodd" clip-rule="evenodd" d="M113.534 331.275L121.395 331.267L122.056 324.38C119.239 324.292 115.356 323.798 113.001 324.778L113.534 331.275Z" fill="#73A4C4"/>
<path fill-rule="evenodd" clip-rule="evenodd" d="M157.719 331.338L163.082 331.195L163.782 324.299L157.074 324.283C157.79 326.99 158.236 328.264 157.719 331.338Z" fill="#7CAABF"/>
<path fill-rule="evenodd" clip-rule="evenodd" d="M143.54 391.885L150.311 391.949L152.953 391.049L153.12 389.241L141.797 388.979L141.718 391.112L143.54 391.885Z" fill="#79A8C6"/>
<path fill-rule="evenodd" clip-rule="evenodd" d="M126.154 391.089L127.34 391.917L134.716 391.838L137.453 391.105L137.477 389.059L126.266 389.266L126.154 391.089Z" fill="#7CAABF"/>
<path fill-rule="evenodd" clip-rule="evenodd" d="M145.266 295.516C143.611 296.105 144.272 295.826 143.142 296.67C142.155 297.403 143.142 296.869 141.781 297.912C138.089 297.379 136.753 296.169 135.042 294.066L135.09 294.305C134.986 297.45 135.885 299.385 139.06 299.401C139.251 299.401 142.879 298.828 143.166 298.764C145.911 298.127 145.139 298.366 145.266 295.516Z" fill="#F8E9E7"/>
<path fill-rule="evenodd" clip-rule="evenodd" d="M71.4352 323.822L70.011 324.228C68.0854 325.001 68.6185 324.332 68.4992 327.485C68.4514 328.791 68.6583 330.129 68.8333 331.411L71.3557 331.347L71.4352 323.822Z" fill="#04132B"/>
<path d="M218.373 319.539H63.3428V324.253H218.373V319.539Z" fill="#FAC18A"/>
<path d="M71.8089 324.252H68.833V418.122H71.8089V324.252Z" fill="#04132B"/>
<path d="M212.079 324.252H209.104V418.122H212.079V324.252Z" fill="#04132B"/>
<path d="M212.079 331.371H68.833V376.017H212.079V331.371Z" fill="#FAC18A"/>
<path d="M71.3477 382.246L71.3477 385.219L209.108 385.219L209.108 382.246L71.3477 382.246Z" fill="#04132B"/>
<path fill-rule="evenodd" clip-rule="evenodd" d="M178.255 316.592C178.645 316.337 178.883 316.082 179.273 315.764C180.077 315.78 180.459 315.827 180.594 316.584L178.255 316.592Z" fill="#163757"/>
<path fill-rule="evenodd" clip-rule="evenodd" d="M209.986 312.1H181.35V319.473H209.986C212.007 319.473 213.662 317.809 213.662 315.786C213.662 313.756 212.007 312.1 209.986 312.1Z" fill="#506854"/>
<path d="M194.614 312.1H163.161C162.699 312.1 162.325 312.474 162.325 312.936V312.944C162.325 313.405 162.699 313.78 163.161 313.78H194.614C195.075 313.78 195.449 313.405 195.449 312.944V312.936C195.449 312.474 195.075 312.1 194.614 312.1Z" fill="#506854"/>
<path d="M194.614 317.793H163.161C162.699 317.793 162.325 318.167 162.325 318.629V318.637C162.325 319.099 162.699 319.473 163.161 319.473H194.614C195.075 319.473 195.449 319.099 195.449 318.637V318.629C195.449 318.167 195.075 317.793 194.614 317.793Z" fill="#506854"/>
<path fill-rule="evenodd" clip-rule="evenodd" d="M163.622 313.779H190.906C192.004 313.779 192.911 314.679 192.911 315.786C192.911 316.885 192.004 317.792 190.906 317.792H163.622C164.728 317.792 165.627 316.885 165.627 315.786C165.627 314.679 164.728 313.779 163.622 313.779Z" fill="#FCD5A6"/>
<path fill-rule="evenodd" clip-rule="evenodd" d="M201.624 312.1H183.339V306.256H201.624C203.231 306.256 204.544 307.578 204.544 309.178C204.544 310.787 203.231 312.1 201.624 312.1Z" fill="#738C6D"/>
<path d="M193.85 310.771H168.921C168.552 310.771 168.253 311.069 168.253 311.436C168.253 311.804 168.552 312.101 168.921 312.101H193.85C194.219 312.101 194.518 311.804 194.518 311.436C194.518 311.069 194.219 310.771 193.85 310.771Z" fill="#738C6D"/>
<path d="M193.85 306.256H168.921C168.552 306.256 168.253 306.554 168.253 306.921C168.253 307.288 168.552 307.586 168.921 307.586H193.85C194.219 307.586 194.518 307.288 194.518 306.921C194.518 306.554 194.219 306.256 193.85 306.256Z" fill="#738C6D"/>
<path fill-rule="evenodd" clip-rule="evenodd" d="M169.287 310.771H190.914C191.781 310.771 192.497 310.054 192.497 309.178C192.497 308.302 191.781 307.594 190.914 307.594H169.287C170.154 307.594 170.871 308.302 170.871 309.178C170.871 310.054 170.154 310.771 169.287 310.771Z" fill="#FCD5A6"/>
<path fill-rule="evenodd" clip-rule="evenodd" d="M185.424 315.908H182.886L183.912 315.231C184.413 315.199 185.44 315.231 185.424 315.908Z" fill="#2B2A29"/>
<path fill-rule="evenodd" clip-rule="evenodd" d="M179.154 321.035H176.751L180.411 316.528C180.411 316.528 181.302 315.365 182.209 315.23C183.116 315.095 184.254 315.246 184.254 315.246C184.254 315.246 183.896 315.278 183.379 315.843C182.87 316.401 182.631 316.751 182.631 316.751L179.154 321.035Z" fill="#375289"/>
<path fill-rule="evenodd" clip-rule="evenodd" d="M102.085 319.506H83.792V313.67H102.085C103.684 313.67 105.005 314.984 105.005 316.592C105.005 318.193 103.684 319.506 102.085 319.506Z" fill="#CC6633"/>
<path d="M94.3109 318.176H69.3822C69.0131 318.176 68.7139 318.473 68.7139 318.841C68.7139 319.208 69.0131 319.506 69.3822 319.506H94.3109C94.6801 319.506 94.9793 319.208 94.9793 318.841C94.9793 318.473 94.6801 318.176 94.3109 318.176Z" fill="#CC6633"/>
<path d="M94.3109 313.67H69.3822C69.0131 313.67 68.7139 313.968 68.7139 314.335C68.7139 314.702 69.0131 315 69.3822 315H94.3109C94.6801 315 94.9793 314.702 94.9793 314.335C94.9793 313.968 94.6801 313.67 94.3109 313.67Z" fill="#CC6633"/>
<path fill-rule="evenodd" clip-rule="evenodd" d="M69.7402 318.177H91.3668C92.2421 318.177 92.9582 317.46 92.9582 316.593C92.9582 315.717 92.2421 315 91.3668 315H69.7402C70.6155 315 71.3316 315.717 71.3316 316.593C71.3316 317.46 70.6155 318.177 69.7402 318.177Z" fill="#FCD5A6"/>
</svg>
