<svg width="56" height="71" viewBox="0 0 56 71" fill="none" xmlns="http://www.w3.org/2000/svg">
<path fill-rule="evenodd" clip-rule="evenodd" d="M27.2453 6.82812H29.648C32.147 6.82812 34.1902 8.8811 34.1902 11.3923V14.855C34.1902 17.3662 32.147 22.644 29.648 22.644H27.2453C24.7462 22.644 22.7031 17.3662 22.7031 14.855V11.3923C22.7031 8.8811 24.7462 6.82812 27.2453 6.82812Z" fill="#EEA300"/>
<path fill-rule="evenodd" clip-rule="evenodd" d="M21.644 32.8396L21.6615 46.3117C21.6615 48.8317 19.9691 53.3077 13.0506 55.3254C6.14086 57.3431 -2.79446 64.7356 4.3082 69.6082C10.3411 73.7405 20.4514 67.7754 26.7824 63.3875C29.6761 65.837 39.5672 69.3086 46.4507 69.0442C53.3341 68.7799 58.6743 60.4182 47.1083 57.4753C35.5424 54.5236 34.7357 50.3736 34.7269 46.3381L34.7094 32.8396C34.7006 29.4738 33.4291 27.0155 28.5888 26.8745C23.7485 26.7423 21.679 29.0684 21.644 32.8396Z" fill="#EEA300"/>
<path d="M33.2698 35.5174C33.2698 35.1561 33.5591 34.8654 33.9099 34.8654C34.2694 34.8654 34.5588 35.1561 34.5588 35.5174V44.1963C34.5588 45.2008 34.5851 46.9982 35.6198 48.8221C36.672 50.6724 38.7765 52.5756 42.968 53.8092C47.1331 55.0339 50.6757 56.5054 52.8065 58.294C55.1477 60.2412 55.8668 62.5321 54.0779 65.2019C52.2277 67.9597 48.3081 69.2109 43.7747 69.2638C38.9431 69.3166 33.375 68.0038 28.9556 65.6777C28.6399 65.5191 28.5171 65.1226 28.6837 64.8054C28.8416 64.4882 29.2362 64.3648 29.5518 64.5322C33.7871 66.7614 39.1273 68.0214 43.7659 67.9685C47.8872 67.9245 51.421 66.8407 53.0082 64.4706C54.3322 62.4969 53.7623 60.7787 51.9822 59.2896C50.0005 57.6332 46.6158 56.2322 42.6085 55.0515C38.0224 53.7034 35.6899 51.5623 34.4974 49.4653C33.2961 47.3507 33.2698 45.3241 33.2698 44.1963V35.5174ZM21.3969 24.4066C21.7564 24.4066 22.0458 24.6798 22.0458 25.0234C22.0458 25.3671 21.7564 25.6402 21.3969 25.6402H19.0995C18.6611 25.6578 18.1788 25.8781 17.7316 26.4068C17.2931 26.9354 16.8898 27.7372 16.6004 28.9267L12.3651 46.4167C12.0144 47.8617 11.2164 49.0336 10.1729 49.9059C9.03301 50.8663 7.59494 51.4654 6.12179 51.6681C4.81525 51.8619 3.68409 51.6593 2.71076 51.2363C1.75497 50.8134 0.957012 50.1702 0.28182 49.4653C0.0450649 49.2186 0.0626024 48.8221 0.325664 48.593C0.588726 48.3639 1.00086 48.3815 1.23761 48.6371C1.81635 49.2362 2.474 49.7737 3.24565 50.1173C4.00853 50.4433 4.89417 50.6019 5.93765 50.4521C7.17404 50.2759 8.37535 49.7737 9.32238 48.9807C10.1729 48.267 10.8218 47.3154 11.1024 46.1435L15.3465 28.6536C15.6797 27.2702 16.1707 26.2922 16.7232 25.6314C17.4422 24.7767 18.284 24.4331 19.0732 24.4066H19.1433H21.3969ZM26.6669 4.49364H29.1835C30.6742 4.49364 32.0334 5.11042 33.0067 6.09726C33.9888 7.0841 34.6026 8.441 34.6026 9.93888V13.569C34.6026 15.1462 33.8836 17.6838 32.7699 19.5958C31.8405 21.1906 30.5953 22.3977 29.1835 22.3977H26.6669C25.2551 22.3977 24.01 21.1906 23.0805 19.5958C21.9669 17.6838 21.2478 15.1462 21.2478 13.569V9.93888C21.2478 8.441 21.8617 7.0841 22.8437 6.09726C23.8258 5.11042 25.1762 4.49364 26.6669 4.49364ZM29.1835 5.79768H26.6669C25.5357 5.79768 24.501 6.26467 23.7557 7.01361C23.0104 7.76255 22.5456 8.80225 22.5456 9.93888V13.569C22.5456 14.9612 23.1857 17.2168 24.1941 18.9438C24.9132 20.1685 25.79 21.0937 26.6669 21.0937H29.1835C30.0692 21.0937 30.9461 20.1685 31.6563 18.9438C32.6647 17.2168 33.3048 14.9612 33.3048 13.569V9.93888C33.3048 8.80225 32.8401 7.76255 32.0948 7.01361C31.3494 6.26467 30.3147 5.79768 29.1835 5.79768ZM27.7718 0C28.3944 0 28.8942 0.511042 28.8942 1.13663C28.8942 1.76221 28.3944 2.26444 27.7718 2.26444C27.1492 2.26444 26.6406 1.76221 26.6406 1.13663C26.6406 0.511042 27.1492 0 27.7718 0ZM27.7718 9.34854C28.3944 9.34854 28.8942 9.85077 28.8942 10.4764C28.8942 11.1019 28.3944 11.613 27.7718 11.613C27.1492 11.613 26.6406 11.1019 26.6406 10.4764C26.6406 9.85077 27.1492 9.34854 27.7718 9.34854ZM27.7718 28.4245C28.3944 28.4245 28.8942 28.9267 28.8942 29.5523C28.8942 30.1779 28.3944 30.6889 27.7718 30.6889C27.1492 30.6889 26.6406 30.1779 26.6406 29.5523C26.6406 28.9267 27.1492 28.4245 27.7718 28.4245ZM27.7718 34.4424C28.3944 34.4424 28.8942 34.9447 28.8942 35.5703C28.8942 36.1959 28.3944 36.7069 27.7718 36.7069C27.1492 36.7069 26.6406 36.1959 26.6406 35.5703C26.6406 34.9447 27.1492 34.4424 27.7718 34.4424ZM27.7718 40.4604C28.3944 40.4604 28.8942 40.9626 28.8942 41.5882C28.8942 42.2138 28.3944 42.7248 27.7718 42.7248C27.1492 42.7248 26.6406 42.2138 26.6406 41.5882C26.6406 40.9626 27.1492 40.4604 27.7718 40.4604ZM27.7718 46.4784C28.3944 46.4784 28.8942 46.9806 28.8942 47.6062C28.8942 48.2318 28.3944 48.7428 27.7718 48.7428C27.1492 48.7428 26.6406 48.2318 26.6406 47.6062C26.6406 46.9806 27.1492 46.4784 27.7718 46.4784ZM27.7718 52.4963C28.3944 52.4963 28.8942 52.9985 28.8942 53.6241C28.8942 54.2497 28.3944 54.7608 27.7718 54.7608C27.1492 54.7608 26.6406 54.2497 26.6406 53.6241C26.6406 52.9985 27.1492 52.4963 27.7718 52.4963ZM33.3311 25.6402C32.9804 25.6402 32.691 25.3671 32.691 25.0234C32.691 24.6798 32.9804 24.4066 33.3311 24.4066H35.5935L35.6724 24.4155C36.4528 24.4507 37.2069 24.7415 37.8733 25.4464C38.4872 26.0984 39.022 27.1205 39.3903 28.6536L43.6344 46.1435C43.915 47.3154 44.5639 48.267 45.4144 48.9807C46.3615 49.7737 47.5628 50.2759 48.7992 50.4521C49.8427 50.6019 50.7283 50.4433 51.4824 50.1173C52.2628 49.7737 52.9205 49.2362 53.4992 48.6371C53.736 48.3815 54.1481 48.3639 54.4112 48.593C54.6742 48.8221 54.6918 49.2186 54.4462 49.4653C53.7798 50.1702 52.9819 50.8134 52.0261 51.2363C51.044 51.6593 49.9216 51.8619 48.6063 51.6681C47.1419 51.4654 45.7038 50.8663 44.5639 49.9059C43.5204 49.0336 42.7225 47.8617 42.3717 46.4167L38.1276 28.9267C37.812 27.6227 37.3911 26.7768 36.9088 26.2746C36.5054 25.8428 36.067 25.6666 35.6198 25.6402H33.3311ZM20.8971 35.5174C20.8971 35.1561 21.1865 34.8654 21.546 34.8654C21.9055 34.8654 22.1949 35.1561 22.1949 35.5174V44.1963C22.1949 45.6325 22.0195 47.7031 20.8182 49.7296C19.6256 51.7474 17.4334 53.7034 13.4261 54.8753C10.208 55.8181 6.69176 57.6508 4.25405 59.7831C3.02643 60.858 2.08818 62.0035 1.61467 63.1225C1.185 64.1622 1.16746 65.1842 1.72866 66.1358C2.10572 66.7791 2.74583 67.3958 3.69285 67.9774C10.778 72.3388 25.7725 60.5144 25.8163 60.4791L25.8339 60.4615C26.3951 60.0122 34.1291 53.9501 37.9523 58.9989C38.1627 59.2808 38.1101 59.6861 37.8207 59.9064C37.5401 60.1179 37.1368 60.065 36.9263 59.7831C33.8923 55.774 27.1667 61.0607 26.6494 61.4748L26.6055 61.51C26.5617 61.5453 10.8744 73.916 3.01766 69.0875C1.87773 68.3827 1.09731 67.6161 0.615032 66.7967C-0.174153 65.4574 -0.165384 64.0388 0.42212 62.629C0.97455 61.3074 2.03557 60.0122 3.40349 58.8139C5.98149 56.5582 9.68189 54.6198 13.0666 53.6329C16.6969 52.5668 18.6611 50.8398 19.7045 49.0688C20.748 47.3066 20.8971 45.4739 20.8971 44.1963V35.5174Z" fill="black"/>
</svg>
