<svg width="41" height="24" viewBox="0 0 41 24" fill="none" xmlns="http://www.w3.org/2000/svg">
<path d="M25 21H15V3H25V21Z" fill="#FF5F00"/>
<path d="M15.515 11.5C15.515 7.83204 17.269 4.56504 20 2.45904C17.92 0.858404 15.3676 -0.00648932 12.743 3.66615e-05C6.257 3.66615e-05 1 5.14904 1 11.5C1 17.851 6.257 23 12.743 23C15.376 23.004 17.933 22.137 20 20.541C17.269 18.436 15.515 15.168 15.515 11.5Z" fill="#EB001B"/>
<path d="M39 11.5C39 17.851 33.743 23 27.258 23C24.6331 23.0066 22.0804 22.1417 20 20.541C22.732 18.436 24.486 15.168 24.486 11.5C24.486 7.83204 22.732 4.56504 20 2.45904C22.0804 0.858397 24.6331 -0.00648394 27.258 3.66011e-05C33.743 3.66011e-05 39 5.14904 39 11.5Z" fill="#F79E1B"/>
</svg>
