<svg width="26" height="19" viewBox="0 0 26 19" fill="none" xmlns="http://www.w3.org/2000/svg">
<path d="M15.6699 1.75C17.8713 -0.451206 21.4461 -0.451224 23.6475 1.75C25.8497 3.95139 25.8496 7.52607 23.6475 9.72754C22.8621 10.5129 21.9001 11.016 20.8896 11.2412V16.3545C20.8894 17.5997 19.88 18.6102 18.6338 18.6104H2.35547C1.75711 18.6103 1.18297 18.3724 0.759766 17.9492C0.336473 17.5268 0.0997299 16.9527 0.0996094 16.3545V5.73828C0.0998306 4.4921 1.10925 3.48248 2.35547 3.48242H14.4893C14.7633 2.85384 15.1564 2.26354 15.6699 1.75ZM1.16211 16.3545C1.16223 16.6709 1.28746 16.9738 1.51074 17.1973C1.73524 17.4218 2.0388 17.5478 2.35547 17.5479H18.6338C19.2933 17.5477 19.8269 17.0132 19.8271 16.3545V11.375C18.3283 11.4193 16.8138 10.8714 15.6699 9.72754C15.6182 9.67577 15.5685 9.62246 15.5195 9.56934L11.792 12.1611C11.0114 12.7035 9.9755 12.699 9.2002 12.1494L1.16211 6.45605V16.3545ZM2.35547 4.54492C1.87701 4.54497 1.46567 4.82747 1.27539 5.23438L9.81445 11.2822L9.97363 11.3779C10.3588 11.5691 10.824 11.5398 11.1855 11.2891L14.873 8.72461C14.0846 7.46193 13.8435 5.95677 14.1484 4.54492H2.35547ZM22.8965 2.50195C21.1104 0.71503 18.2079 0.714989 16.4209 2.50195C14.6352 4.28888 14.6351 7.18969 16.4209 8.97656C18.2079 10.7635 21.1104 10.7635 22.8965 8.97656C24.6831 7.1897 24.6831 4.28887 22.8965 2.50195Z" fill="#464646" stroke="#464646" stroke-width="0.2"/>
<path d="M18.7969 3.31836C20.0432 3.31846 21.0527 4.32793 21.0527 5.57422V6.39453L21.4043 6.0459L21.4883 5.97852C21.6952 5.84284 21.9759 5.8666 22.1562 6.04883C22.3633 6.25727 22.3605 6.59475 22.1523 6.80078L20.9531 7.99023L20.9521 7.98926C20.8613 8.11218 20.7227 8.19274 20.5674 8.2041H20.5635L20.5205 8.20605H20.5166C20.3427 8.20605 20.1824 8.12102 20.084 7.9834L18.8906 6.7998C18.6829 6.59367 18.6806 6.25707 18.8867 6.04883C19.0936 5.84093 19.4311 5.83844 19.6396 6.0459H19.6387L19.9902 6.39355V5.57422C19.9902 4.91455 19.4558 4.38096 18.7969 4.38086H17.875C17.5818 4.38086 17.3439 4.14273 17.3438 3.84961C17.3438 3.75355 17.3786 3.62328 17.4629 3.51562C17.5503 3.40398 17.6897 3.31836 17.8867 3.31836H18.7969Z" fill="#464646" stroke="#464646" stroke-width="0.2"/>
</svg>
