<svg width="136" height="513" viewBox="0 0 136 513" fill="none" xmlns="http://www.w3.org/2000/svg">
<path d="M31.0449 408.046C51.4547 387.636 84.5453 387.636 104.955 408.046C125.365 428.456 125.365 461.546 104.955 481.956C84.5454 502.366 51.4547 502.366 31.0449 481.956C10.6352 461.546 10.6352 428.456 31.0449 408.046ZM68.4473 399.766C65.4907 399.766 63.0939 402.163 63.0938 405.119C63.0938 408.076 65.4906 410.473 68.4473 410.474C71.4041 410.474 73.8018 408.076 73.8018 405.119C73.8016 402.162 71.404 399.766 68.4473 399.766Z" fill="#B0CB1F"/>
<path d="M42.494 451V438.4H44.906L52.34 447.472H51.17V438.4H54.05V451H51.656L44.204 441.928H45.374V451H42.494ZM58.8311 451V438.4H61.7471V451H58.8311ZM72.6574 451.216C71.6614 451.216 70.7374 451.054 69.8854 450.73C69.0454 450.406 68.3134 449.95 67.6894 449.362C67.0774 448.774 66.5974 448.084 66.2494 447.292C65.9134 446.5 65.7454 445.636 65.7454 444.7C65.7454 443.764 65.9134 442.9 66.2494 442.108C66.5974 441.316 67.0834 440.626 67.7074 440.038C68.3314 439.45 69.0634 438.994 69.9034 438.67C70.7434 438.346 71.6554 438.184 72.6394 438.184C73.6354 438.184 74.5474 438.346 75.3754 438.67C76.2154 438.994 76.9414 439.45 77.5534 440.038C78.1774 440.626 78.6634 441.316 79.0114 442.108C79.3594 442.888 79.5334 443.752 79.5334 444.7C79.5334 445.636 79.3594 446.506 79.0114 447.31C78.6634 448.102 78.1774 448.792 77.5534 449.38C76.9414 449.956 76.2154 450.406 75.3754 450.73C74.5474 451.054 73.6414 451.216 72.6574 451.216ZM72.6394 448.732C73.2034 448.732 73.7194 448.636 74.1874 448.444C74.6674 448.252 75.0874 447.976 75.4474 447.616C75.8074 447.256 76.0834 446.83 76.2754 446.338C76.4794 445.846 76.5814 445.3 76.5814 444.7C76.5814 444.1 76.4794 443.554 76.2754 443.062C76.0834 442.57 75.8074 442.144 75.4474 441.784C75.0994 441.424 74.6854 441.148 74.2054 440.956C73.7254 440.764 73.2034 440.668 72.6394 440.668C72.0754 440.668 71.5534 440.764 71.0734 440.956C70.6054 441.148 70.1914 441.424 69.8314 441.784C69.4714 442.144 69.1894 442.57 68.9854 443.062C68.7934 443.554 68.6974 444.1 68.6974 444.7C68.6974 445.288 68.7934 445.834 68.9854 446.338C69.1894 446.83 69.4654 447.256 69.8134 447.616C70.1734 447.976 70.5934 448.252 71.0734 448.444C71.5534 448.636 72.0754 448.732 72.6394 448.732ZM87.6649 451.216C86.6569 451.216 85.6909 451.084 84.7669 450.82C83.8429 450.544 83.0989 450.19 82.5349 449.758L83.5249 447.562C84.0649 447.946 84.7009 448.264 85.4329 448.516C86.1769 448.756 86.9269 448.876 87.6829 448.876C88.2589 448.876 88.7209 448.822 89.0689 448.714C89.4289 448.594 89.6929 448.432 89.8609 448.228C90.0289 448.024 90.1129 447.79 90.1129 447.526C90.1129 447.19 89.9809 446.926 89.7169 446.734C89.4529 446.53 89.1049 446.368 88.6729 446.248C88.2409 446.116 87.7609 445.996 87.2329 445.888C86.7169 445.768 86.1949 445.624 85.6669 445.456C85.1509 445.288 84.6769 445.072 84.2449 444.808C83.8129 444.544 83.4589 444.196 83.1829 443.764C82.9189 443.332 82.7869 442.78 82.7869 442.108C82.7869 441.388 82.9789 440.734 83.3629 440.146C83.7589 439.546 84.3469 439.072 85.1269 438.724C85.9189 438.364 86.9089 438.184 88.0969 438.184C88.8889 438.184 89.6689 438.28 90.4369 438.472C91.2049 438.652 91.8829 438.928 92.4709 439.3L91.5709 441.514C90.9829 441.178 90.3949 440.932 89.8069 440.776C89.2189 440.608 88.6429 440.524 88.0789 440.524C87.5149 440.524 87.0529 440.59 86.6929 440.722C86.3329 440.854 86.0749 441.028 85.9189 441.244C85.7629 441.448 85.6849 441.688 85.6849 441.964C85.6849 442.288 85.8169 442.552 86.0809 442.756C86.3449 442.948 86.6929 443.104 87.1249 443.224C87.5569 443.344 88.0309 443.464 88.5469 443.584C89.0749 443.704 89.5969 443.842 90.1129 443.998C90.6409 444.154 91.1209 444.364 91.5529 444.628C91.9849 444.892 92.3329 445.24 92.5969 445.672C92.8729 446.104 93.0109 446.65 93.0109 447.31C93.0109 448.018 92.8129 448.666 92.4169 449.254C92.0209 449.842 91.4269 450.316 90.6349 450.676C89.8549 451.036 88.8649 451.216 87.6649 451.216Z" fill="#464646"/>
<line x1="68.5" y1="404" x2="68.5" y2="-2.18557e-08" stroke="#787878"/>
</svg>
