<svg width="643" height="42" viewBox="0 0 643 42" fill="none" xmlns="http://www.w3.org/2000/svg">
<path d="M608 27H598V9H608V27Z" fill="#FF5F00"/>
<path d="M598.515 17.5C598.515 13.832 600.269 10.565 603 8.45904C600.92 6.8584 598.368 5.99351 595.743 6.00004C589.257 6.00004 584 11.149 584 17.5C584 23.851 589.257 29 595.743 29C598.376 29.004 600.933 28.137 603 26.541C600.269 24.436 598.515 21.168 598.515 17.5Z" fill="#EB001B"/>
<path d="M622 17.5C622 23.851 616.743 29 610.258 29C607.633 29.0066 605.08 28.1417 603 26.541C605.732 24.436 607.486 21.168 607.486 17.5C607.486 13.832 605.732 10.565 603 8.45904C605.08 6.8584 607.633 5.99352 610.258 6.00004C616.743 6.00004 622 11.149 622 17.5Z" fill="#F79E1B"/>
<path d="M537.375 24.75H533.54L535.937 10.259H539.772L537.375 24.75ZM530.313 10.259L526.657 20.226L526.225 18.08L524.935 11.564C524.935 11.564 524.779 10.259 523.115 10.259H517.071L517 10.504C517 10.504 518.848 10.883 521.012 12.161L524.344 24.751H528.339L534.441 10.259H530.314H530.313ZM560.478 24.75H564L560.93 10.259H557.847C556.423 10.259 556.077 11.339 556.077 11.339L550.357 24.75H554.355L555.154 22.598H560.029L560.478 24.75ZM556.258 19.624L558.274 14.201L559.407 19.624H556.26H556.258ZM550.656 13.744L551.204 10.632C551.204 10.632 549.515 10 547.754 10C545.851 10 541.332 10.818 541.332 14.797C541.332 18.541 546.636 18.587 546.636 20.554C546.636 22.52 541.878 22.168 540.308 20.928L539.738 24.182C539.738 24.182 541.45 25 544.067 25C546.684 25 550.632 23.667 550.632 20.039C550.632 16.271 545.28 15.92 545.28 14.282C545.28 12.644 549.015 12.854 550.657 13.744H550.656Z" fill="url(#paint0_linear_5144_3181)"/>
<path d="M436 25.1073C436.807 26.0072 437.79 26.7442 438.894 27.2782C441.135 28.3563 443.704 28.5373 446.074 27.7843C447.24 27.4146 448.324 26.8235 449.266 26.0432C450.195 25.2736 450.963 24.3269 451.523 23.2582C452.077 22.2038 452.41 21.0471 452.501 19.8592C452.591 18.6713 452.437 17.4775 452.049 16.3512C451.657 15.2171 451.042 14.1731 450.239 13.2812L436 25.1073Z" fill="#00D1C1"/>
<path d="M452.529 11.1344C451.767 10.2375 450.835 9.49999 449.787 8.96438C448.744 8.43076 447.605 8.1111 446.437 8.0242C445.269 7.93731 444.095 8.08493 442.985 8.45838C441.872 8.83261 440.844 9.42403 439.961 10.1984C439.073 10.978 438.347 11.9242 437.824 12.9834C436.763 15.1324 436.584 17.6113 437.326 19.8904C437.692 21.0156 438.274 22.0584 439.04 22.9604L452.529 11.1344Z" fill="#00D1C1"/>
<path fill-rule="evenodd" clip-rule="evenodd" d="M440.012 11.2986C441.407 9.86602 443.287 9.00754 445.283 8.89223C447.279 8.77692 449.246 9.41315 450.796 10.6756L449.875 11.8036C448.608 10.7717 446.999 10.2518 445.367 10.3462C443.735 10.4405 442.198 11.1424 441.057 12.3136C439.918 13.4838 439.26 15.0388 439.212 16.6712C439.164 18.3036 439.73 19.8945 440.798 21.1296L439.695 22.0806C438.389 20.5702 437.697 18.6246 437.755 16.6284C437.814 14.6322 438.62 12.7307 440.012 11.2996V11.2986ZM448.683 24.2236C447.382 25.5612 445.627 26.3628 443.764 26.4705C441.9 26.5782 440.064 25.9842 438.617 24.8056L439.477 23.7526C440.661 24.7159 442.162 25.2012 443.685 25.1131C445.208 25.025 446.643 24.3698 447.707 23.2766C448.771 22.1845 449.385 20.7332 449.43 19.2097C449.475 17.6862 448.947 16.2013 447.949 15.0486L448.979 14.1606C450.199 15.5704 450.845 17.3864 450.79 19.2497C450.736 21.113 449.984 22.8879 448.683 24.2236Z" fill="white"/>
<path d="M460.628 14.7845C460.628 14.0215 461.324 13.6245 462.066 13.6245C462.824 13.6245 463.457 13.9755 463.921 14.6015L465.838 13.5785C465.065 12.2215 463.612 11.5195 462.066 11.5195C460.164 11.5195 458.324 12.7395 458.324 14.7845C458.324 18.5675 463.55 17.7445 463.55 19.9405C463.55 20.7035 462.885 21.1765 462.02 21.1765C461.107 21.1765 460.334 20.7485 459.886 19.9705L457.969 21.1005C458.742 22.5185 460.334 23.2805 461.958 23.2805C464.122 23.2805 465.947 22.0305 465.947 19.7425C465.947 16.1425 460.628 16.6605 460.628 14.7845ZM466.86 15.3025V23.1285H469.072V15.3025H466.86ZM466.753 13.2285C466.753 13.8985 467.293 14.4025 467.974 14.4025C468.639 14.4025 469.195 13.8995 469.195 13.2285C469.195 12.5725 468.639 12.0535 467.974 12.0535C467.294 12.0535 466.753 12.5725 466.753 13.2285ZM480.999 15.4555C480.597 15.2575 480.149 15.1805 479.669 15.1805C478.587 15.1805 477.737 15.5625 477.087 16.3855C476.592 15.6075 475.773 15.1805 474.814 15.1805C473.949 15.1805 472.696 15.4155 472.294 16.4925V15.3025H470.47V23.1285H472.696V19.0555C472.696 18.0945 473.083 17.0115 474.242 17.0115C475.108 17.0115 475.372 17.5915 475.372 18.7045V23.1285H477.582V19.0555C477.582 18.0945 477.953 17.0115 479.128 17.0115C479.994 17.0115 480.257 17.5915 480.257 18.7045V23.1285H482.483V18.5525C482.483 17.0725 482.22 16.0655 480.999 15.4555ZM488.3 23.2815C490.526 23.2815 491.872 21.5875 491.872 19.1615C491.872 16.8895 490.526 15.1815 488.346 15.1815C487.434 15.1815 486.236 15.3025 485.703 16.2985V15.3025H483.878V26.9995L486.105 24.8585V22.3815C486.677 23.0065 487.496 23.2815 488.3 23.2815ZM487.836 17.0115C488.965 17.0115 489.63 18.0185 489.63 19.2235C489.63 20.5815 488.857 21.4505 487.836 21.4505C486.785 21.4505 486.058 20.4745 486.058 19.2235C486.058 17.8355 486.862 17.0115 487.836 17.0115ZM496.37 21.2825C496.18 21.3449 495.982 21.381 495.782 21.3895C495.226 21.3895 495.195 20.9475 495.195 20.1845V11.6875H492.968V20.4135C492.968 21.4965 493.108 22.2595 493.602 22.7475C493.942 23.0825 494.452 23.2815 495.164 23.2815C495.643 23.2815 496.184 23.2055 496.664 23.0375L496.37 21.2825Z" fill="#00D1C1"/>
<path d="M414.399 14.3099C413.869 12.8189 412.419 11.7489 410.719 11.7489H410.683C410.16 11.7472 409.641 11.8504 409.158 12.0524C408.675 12.2543 408.237 12.551 407.87 12.9249C407.504 12.5513 407.066 12.2548 406.583 12.0529C406.1 11.8509 405.582 11.7476 405.058 11.7489H405.023C404.05 11.7489 403.162 12.0979 402.479 12.6749V12.3819C402.468 12.2387 402.402 12.1052 402.296 12.0082C402.19 11.9112 402.051 11.8579 401.907 11.8589H399.297C399.222 11.8581 399.148 11.8722 399.078 11.9003C399.008 11.9283 398.945 11.9699 398.891 12.0226C398.838 12.0753 398.795 12.138 398.766 12.2072C398.736 12.2764 398.721 12.3507 398.72 12.4259V26.3259C398.72 26.6399 398.978 26.8919 399.297 26.8919H401.907C402.198 26.8919 402.437 26.6789 402.476 26.4029L402.474 16.4249C402.474 16.3899 402.476 16.3579 402.479 16.3249C402.521 15.8799 402.854 15.5149 403.379 15.4679H403.86C404.08 15.4879 404.266 15.5629 404.412 15.6779C404.639 15.8549 404.765 16.1269 404.765 16.4249L404.775 26.3549C404.775 26.6689 405.034 26.9229 405.352 26.9229H407.962C408.269 26.9229 408.52 26.6819 408.535 26.3829L408.534 16.4129C408.531 16.2545 408.569 16.098 408.643 15.9581C408.717 15.8181 408.826 15.6994 408.958 15.6129C409.092 15.5289 409.253 15.4729 409.438 15.4549H409.919C410.484 15.5029 410.825 15.9229 410.824 16.4119L410.834 26.3279C410.834 26.6419 411.093 26.8949 411.411 26.8949H414.021C414.173 26.896 414.319 26.8369 414.427 26.7306C414.535 26.6242 414.596 26.4794 414.597 26.3279V15.6639C414.597 14.9359 414.514 14.6269 414.4 14.3089L414.399 14.3099ZM396.733 11.8939H395.241V9.5159C395.241 9.43892 395.223 9.36306 395.189 9.29379C395.156 9.22451 395.107 9.16353 395.047 9.11524C394.987 9.06695 394.917 9.03255 394.843 9.01451C394.768 8.99647 394.69 8.99524 394.614 9.0109C392.96 9.4559 393.291 11.7039 390.27 11.8949H389.977C389.935 11.8954 389.892 11.9005 389.85 11.9099C389.724 11.9363 389.61 12.0063 389.528 12.1063C389.445 12.2063 389.4 12.3314 389.398 12.4609V15.0209C389.398 15.3329 389.658 15.5869 389.976 15.5869H391.551L391.549 26.4399C391.549 26.7499 391.804 26.9999 392.119 26.9999H394.699C395.013 26.9999 395.269 26.7499 395.269 26.4399V15.5869H396.732C396.884 15.5882 397.03 15.5294 397.138 15.4233C397.246 15.3171 397.308 15.1724 397.309 15.0209V12.4599C397.308 12.3084 397.246 12.1637 397.138 12.0575C397.03 11.9514 396.885 11.8926 396.733 11.8939Z" fill="#54C1F0"/>
<path d="M387.93 11.6992H385.352C385.277 11.6996 385.202 11.7148 385.133 11.744C385.064 11.7731 385.001 11.8157 384.948 11.8692C384.895 11.9227 384.853 11.986 384.824 12.0557C384.796 12.1254 384.782 12.2 384.782 12.2752V17.6572C384.78 17.8164 384.716 17.9685 384.603 18.0808C384.491 18.1931 384.338 18.2564 384.179 18.2572H383.099C383.019 18.2571 382.94 18.2412 382.866 18.2104C382.793 18.1797 382.726 18.1346 382.67 18.078C382.614 18.0213 382.569 17.954 382.539 17.8801C382.509 17.8062 382.493 17.7271 382.494 17.6472L382.484 12.2752C382.484 12.1235 382.424 11.9778 382.318 11.8701C382.211 11.7624 382.066 11.7013 381.914 11.7002H379.335C379.183 11.701 379.038 11.762 378.931 11.8698C378.824 11.9776 378.764 12.1234 378.765 12.2752V18.1742C378.765 20.4142 380.348 22.0112 382.569 22.0112C382.569 22.0112 384.235 22.0112 384.287 22.0212C384.587 22.0562 384.821 22.3112 384.821 22.6242C384.821 22.9342 384.592 23.1872 384.295 23.2242L384.251 23.2342L380.48 23.2472C380.328 23.248 380.183 23.309 380.076 23.4168C379.969 23.5246 379.909 23.6704 379.91 23.8222V26.4242C379.91 26.7422 380.165 26.9992 380.48 26.9992H384.696C386.918 26.9992 388.5 25.4032 388.5 23.1612V12.2752C388.5 12.2 388.486 12.1255 388.458 12.0559C388.429 11.9862 388.387 11.9229 388.334 11.8695C388.281 11.8161 388.218 11.7737 388.149 11.7446C388.08 11.7156 388.005 11.7005 387.93 11.7002V11.6992ZM363.196 11.6992H357.559C357.25 11.6992 357 11.9522 357 12.2642V14.8142L357.001 14.8282L357 14.8642V26.4062C357 26.7192 357.233 26.9762 357.522 26.9822H360.149C360.463 26.9822 360.719 26.7252 360.719 26.4072L360.729 22.4522H363.196C365.261 22.4522 366.699 21.0062 366.699 18.9142V15.2412C366.7 13.1502 365.26 11.6992 363.196 11.6992ZM362.969 18.0752C362.969 18.4112 362.699 18.6852 362.365 18.6852L360.729 18.6872V15.4682H362.365C362.699 15.4682 362.969 15.7402 362.969 16.0782V18.0752ZM373.259 11.7142H369.681C369.364 11.7142 369.108 11.9562 369.108 12.2542V13.2662L369.109 13.2862V14.6952C369.109 15.0092 369.38 15.2662 369.715 15.2662H373.122C373.392 15.3092 373.605 15.5072 373.635 15.8172V16.1532C373.605 16.4482 373.394 16.6632 373.137 16.6882H371.449C369.205 16.6882 367.607 18.1922 367.607 20.3052V23.3322C367.607 25.4322 368.981 26.9272 371.209 26.9272H375.885C376.725 26.9272 377.405 26.2862 377.405 25.4962V15.6212C377.405 13.2262 376.182 11.7142 373.259 11.7142ZM373.669 22.9862C373.667 23.0476 373.655 23.1083 373.635 23.1662C373.592 23.283 373.513 23.3835 373.41 23.4538C373.308 23.5242 373.186 23.561 373.061 23.5592H371.988C371.653 23.5592 371.38 23.3012 371.38 22.9862V22.4952L371.379 22.4762L371.38 21.1702V20.7612L371.381 20.7572C371.383 20.4432 371.653 20.1882 371.988 20.1882H373.061C373.397 20.1882 373.669 20.4442 373.669 20.7612V22.9862Z" fill="#233266"/>
<path d="M331.197 10L335 17.994L327 26L331.197 10Z" fill="#018C45"/>
<path d="M328.197 10L332 17.994L324 26L328.197 10Z" fill="#F47920"/>
<path d="M269.594 15.973H271.56C272.255 15.973 272.759 15.882 273.07 15.688C273.382 15.494 273.622 15.162 273.754 14.683C273.898 14.192 273.862 13.86 273.658 13.666C273.454 13.472 272.963 13.381 272.195 13.381H270.337L269.594 15.973ZM263 23.888L267.052 10H273.526C275.552 10 276.895 10.308 277.59 10.937C278.273 11.565 278.405 12.581 277.998 14.009C277.746 14.854 277.374 15.562 276.847 16.122C276.331 16.682 275.648 17.127 274.821 17.447C275.528 17.607 275.984 17.927 276.187 18.417C276.391 18.897 276.367 19.605 276.116 20.531L275.624 22.472V22.529C275.48 23.077 275.528 23.363 275.756 23.386L275.612 23.9H271.236C271.248 23.569 271.284 23.283 271.308 23.032C271.334 22.8359 271.37 22.6413 271.416 22.449L271.824 21.067C272.027 20.347 272.039 19.845 271.848 19.548C271.656 19.251 271.224 19.103 270.541 19.103H268.707L267.28 23.888H263ZM289.986 13.643L287.001 23.888H283.381L283.824 22.392C283.189 22.986 282.529 23.442 281.87 23.728C281.223 24.0242 280.52 24.1764 279.808 24.174C279.208 24.174 278.693 24.071 278.285 23.866C277.877 23.6692 277.544 23.3439 277.338 22.94C277.146 22.586 277.075 22.14 277.098 21.604C277.135 21.079 277.326 20.199 277.686 18.966L279.233 13.643H283.2L281.653 18.931C281.426 19.708 281.377 20.256 281.485 20.541C281.605 20.839 281.905 20.999 282.397 20.999C282.9 20.999 283.32 20.827 283.667 20.473C284.015 20.119 284.291 19.605 284.495 18.909L286.029 13.632H289.985L289.986 13.643ZM295.106 16.248H296.508C297.408 16.248 298.043 16.145 298.414 15.939C298.774 15.733 299.026 15.357 299.181 14.831C299.337 14.294 299.301 13.929 299.061 13.723C298.834 13.518 298.258 13.415 297.323 13.415H295.933L295.106 16.248ZM288.548 23.888L292.588 10H298.151C299.373 10 300.332 10.069 301.004 10.217C301.675 10.365 302.214 10.594 302.598 10.925C303.09 11.359 303.389 11.895 303.521 12.547C303.641 13.187 303.569 13.94 303.318 14.831C302.862 16.384 302.071 17.572 300.944 18.406C299.804 19.228 298.402 19.64 296.736 19.64H294.134L292.887 23.888H288.548ZM308.94 19.308C308.52 19.468 307.97 19.628 307.298 19.788C306.231 20.062 305.631 20.428 305.499 20.873C305.404 21.159 305.452 21.387 305.595 21.558C305.739 21.718 305.991 21.798 306.351 21.798C307.011 21.798 307.538 21.638 307.933 21.33C308.329 21.01 308.629 20.519 308.833 19.834C308.868 19.685 308.904 19.582 308.916 19.502L308.94 19.308ZM307.981 23.888L308.017 22.918C307.382 23.374 306.734 23.717 306.075 23.934C305.406 24.156 304.706 24.2678 304.001 24.265C302.874 24.265 302.095 23.98 301.639 23.409C301.196 22.849 301.124 22.039 301.423 20.999C301.711 19.982 302.239 19.229 302.982 18.749C303.725 18.269 304.972 17.915 306.722 17.698C306.938 17.664 307.238 17.641 307.609 17.595C308.904 17.458 309.624 17.127 309.779 16.59C309.863 16.293 309.815 16.076 309.624 15.95C309.444 15.813 309.096 15.745 308.604 15.745C308.197 15.745 307.861 15.825 307.586 15.996C307.31 16.167 307.106 16.419 306.974 16.773H303.114C303.462 15.619 304.181 14.751 305.248 14.169C306.315 13.575 307.718 13.289 309.468 13.289C310.283 13.289 311.026 13.358 311.674 13.518C312.321 13.666 312.801 13.883 313.1 14.146C313.484 14.477 313.7 14.843 313.772 15.254C313.844 15.665 313.76 16.259 313.544 17.024L311.878 22.734C311.83 22.917 311.818 23.089 311.842 23.237C311.877 23.386 311.937 23.511 312.057 23.591L311.973 23.877H307.981V23.888ZM311.997 27.931L312.873 24.893H314.011C314.395 24.893 314.683 24.825 314.899 24.688C315.114 24.551 315.259 24.322 315.342 24.014C315.39 23.877 315.414 23.74 315.426 23.58C315.438 23.3935 315.438 23.2065 315.426 23.02L314.815 13.632H318.831L318.771 19.845L322.271 13.632H326L319.802 23.832C319.095 24.973 318.592 25.75 318.267 26.184C317.944 26.607 317.644 26.938 317.344 27.154C316.971 27.4583 316.538 27.6804 316.074 27.806C315.606 27.931 314.911 28 313.964 28C313.688 28 313.376 28 313.04 27.977C312.717 27.977 312.357 27.954 311.997 27.931Z" fill="#29387E"/>
<path d="M206.293 22.572V18.457C206.293 17.444 205.91 16.938 204.953 16.938C204.569 16.938 204.123 17.001 203.867 17.065V23.079C203.867 23.269 203.676 23.459 203.484 23.459H202.016C201.824 23.459 201.633 23.269 201.633 23.079V16.052C201.633 15.798 201.824 15.609 202.016 15.545C202.973 15.229 203.931 15.039 204.952 15.039C207.25 15.039 208.527 16.242 208.527 18.458V23.142C208.527 23.332 208.335 23.522 208.144 23.522H207.25C207.124 23.5248 206.999 23.5023 206.882 23.4556C206.765 23.409 206.659 23.3392 206.569 23.2505C206.48 23.1618 206.41 23.056 206.362 22.9394C206.315 22.8228 206.291 22.6979 206.293 22.572ZM212.038 20.103L211.974 20.673C211.974 21.433 212.484 21.876 213.314 21.876C213.953 21.876 214.527 21.686 215.166 21.37C215.23 21.37 215.293 21.306 215.357 21.306C215.485 21.306 215.549 21.37 215.613 21.433C215.677 21.496 215.804 21.686 215.804 21.686C215.932 21.876 216.06 22.129 216.06 22.319C216.06 22.635 215.868 22.952 215.613 23.079C214.911 23.459 214.081 23.649 213.188 23.649C212.166 23.649 211.336 23.395 210.698 22.889C210.372 22.6066 210.111 22.2561 209.935 21.8622C209.758 21.4683 209.67 21.0405 209.677 20.609V18.141C209.677 16.178 210.954 14.976 213.124 14.976C215.23 14.976 216.444 16.116 216.444 18.141V19.66C216.444 19.85 216.252 20.04 216.06 20.04H212.04L212.038 20.103ZM211.974 18.711H214.4V18.078C214.4 17.318 213.953 16.812 213.187 16.812C212.421 16.812 211.974 17.255 211.974 18.078V18.711ZM228.252 20.103L228.188 20.673C228.188 21.433 228.698 21.876 229.528 21.876C230.167 21.876 230.741 21.686 231.38 21.37C231.444 21.37 231.508 21.306 231.572 21.306C231.699 21.306 231.763 21.37 231.827 21.433C231.891 21.496 232.019 21.686 232.019 21.686C232.146 21.876 232.274 22.129 232.274 22.319C232.274 22.635 232.082 22.952 231.827 23.079C231.125 23.459 230.296 23.649 229.402 23.649C228.38 23.649 227.55 23.395 226.912 22.889C226.586 22.6066 226.325 22.2561 226.149 21.8622C225.972 21.4683 225.884 21.0405 225.891 20.609V18.141C225.891 16.178 227.168 14.976 229.338 14.976C231.445 14.976 232.658 16.116 232.658 18.141V19.66C232.658 19.85 232.466 20.04 232.274 20.04H228.253L228.252 20.103ZM228.188 18.711H230.614V18.078C230.614 17.318 230.167 16.812 229.401 16.812C228.635 16.812 228.188 17.255 228.188 18.078V18.711ZM190.653 23.521H191.547C191.738 23.521 191.93 23.331 191.93 23.141V18.457C191.93 16.305 190.78 15.039 188.866 15.039C188.291 15.039 187.653 15.165 187.27 15.292V12.95C187.27 12.443 186.823 12 186.312 12H185.419C185.227 12 185.035 12.19 185.035 12.38V23.142C185.035 23.332 185.227 23.522 185.419 23.522H186.887C187.078 23.522 187.27 23.332 187.27 23.142V17.192C187.618 17.0678 187.985 17.0035 188.355 17.002C189.313 17.002 189.695 17.444 189.695 18.52V22.635C189.759 23.079 190.142 23.521 190.653 23.521ZM200.293 18.204V20.546C200.293 22.509 198.952 23.712 196.718 23.712C194.547 23.712 193.143 22.509 193.143 20.546V18.204C193.143 16.241 194.483 15.039 196.718 15.039C198.952 15.039 200.293 16.242 200.293 18.204ZM198.058 18.204C198.058 17.444 197.611 16.938 196.782 16.938C195.952 16.938 195.505 17.381 195.505 18.204V20.546C195.505 21.306 195.951 21.749 196.781 21.749C197.611 21.749 198.058 21.306 198.058 20.546V18.204ZM183.823 17.128C183.823 19.154 182.291 20.547 180.248 20.547C179.738 20.547 179.291 20.483 178.844 20.293V23.143C178.844 23.332 178.652 23.522 178.461 23.522H176.992C176.801 23.522 176.609 23.332 176.609 23.142V13.077C176.609 12.823 176.801 12.634 176.992 12.57C177.95 12.254 178.907 12.064 179.929 12.064C182.227 12.064 183.823 13.456 183.823 15.609V17.128ZM181.525 15.482C181.525 14.469 180.823 13.962 179.865 13.962C179.29 13.962 178.907 14.152 178.907 14.152V18.331C179.291 18.521 179.482 18.584 179.929 18.584C180.886 18.584 181.589 18.014 181.589 17.065V15.482H181.525ZM225.061 17.128C225.061 19.154 223.529 20.547 221.486 20.547C220.975 20.547 220.528 20.483 220.081 20.293V23.143C220.081 23.332 219.89 23.522 219.698 23.522H218.23C218.038 23.522 217.847 23.332 217.847 23.142V13.077C217.847 12.823 218.038 12.634 218.23 12.57C219.188 12.254 220.145 12.064 221.166 12.064C223.464 12.064 225.06 13.456 225.06 15.609V17.129L225.061 17.128ZM222.762 15.482C222.762 14.469 222.06 13.962 221.102 13.962C220.528 13.962 220.145 14.152 220.145 14.152V18.331C220.528 18.521 220.72 18.584 221.166 18.584C222.124 18.584 222.826 18.014 222.826 17.065V15.482H222.762ZM160.293 28.75C166.53 28.75 171.587 23.881 171.587 17.875C171.587 11.869 166.53 7 160.293 7C154.056 7 149 11.869 149 17.875C149 23.881 154.056 28.75 160.293 28.75Z" fill="#5F259F"/>
<path d="M165.734 14.8401C165.731 14.6202 165.643 14.4101 165.488 14.2541C165.333 14.098 165.123 14.008 164.903 14.0031H163.368L159.849 9.94514C159.529 9.55814 159.018 9.42914 158.506 9.55814L157.291 9.94514C157.099 10.0091 157.035 10.2671 157.163 10.3951L161.001 14.0671H155.179C154.987 14.0671 154.859 14.1961 154.859 14.3891V15.0331C154.859 15.4831 155.243 15.8701 155.691 15.8701H156.586V18.9621C156.586 21.2821 157.802 22.6341 159.849 22.6341C160.489 22.6341 161.001 22.5701 161.64 22.3121V24.3731C161.64 24.9531 162.088 25.4041 162.664 25.4041H163.559C163.751 25.4041 163.943 25.2111 163.943 25.0171V15.8071H165.415C165.607 15.8071 165.735 15.6771 165.735 15.4841V14.8401H165.734ZM161.64 20.3801C161.256 20.5731 160.745 20.6371 160.36 20.6371C159.337 20.6371 158.826 20.1221 158.826 18.9621V15.8701H161.64V20.3801Z" fill="white"/>
<path d="M102.141 19.0459V24.1469H100.609V11.5299H104.665C105.7 11.5299 106.579 11.8899 107.302 12.6249C108.039 13.3599 108.393 14.2449 108.393 15.2799C108.393 16.3459 108.025 17.2459 107.302 17.9509C106.593 18.6709 105.714 19.0309 104.665 19.0309H102.141V19.0459ZM102.141 13.0899V17.4999H104.707C105.317 17.4999 105.827 17.2899 106.224 16.8559C106.423 16.6512 106.579 16.4093 106.683 16.1439C106.788 15.8786 106.839 15.5951 106.834 15.3099C106.838 15.0273 106.786 14.7467 106.681 14.4842C106.576 14.2216 106.421 13.9823 106.224 13.7799C105.827 13.3299 105.317 13.1049 104.707 13.1049H102.141V13.0899ZM113.206 14.4409C114.429 14.4409 115.392 14.7729 116.096 15.4529C116.8 16.1329 117.151 17.0499 117.151 18.2349V23.8469H115.576V22.5819H115.5C114.812 23.6249 113.909 24.1469 112.777 24.1469C111.814 24.1469 111.004 23.8469 110.346 23.2619C109.688 22.6619 109.367 21.9179 109.367 21.0329C109.367 20.0999 109.704 19.3419 110.407 18.7879C111.096 18.2349 112.013 17.9509 113.16 17.9509C114.138 17.9509 114.949 18.1409 115.591 18.5039V18.1089C115.591 17.5079 115.362 17.0179 114.903 16.5909C114.466 16.1882 113.891 15.9679 113.297 15.9749C112.38 15.9749 111.646 16.3699 111.111 17.1759L109.658 16.2279C110.453 15.0419 111.646 14.4409 113.206 14.4409ZM111.065 21.0489C111.065 21.4919 111.248 21.8709 111.615 22.1549C111.982 22.4549 112.41 22.5979 112.9 22.5979C113.588 22.5979 114.215 22.3289 114.765 21.8079C115.316 21.2699 115.576 20.6539 115.576 19.9269C115.056 19.4999 114.337 19.2939 113.42 19.2939C112.747 19.2939 112.197 19.4679 111.738 19.7999C111.294 20.1479 111.065 20.5589 111.065 21.0489ZM125.905 15.4119L120.423 28.0289H118.717L120.758 23.6149L117.148 15.4119H118.93L121.535 21.6969H121.565L124.108 15.4119H125.905ZM43.4808 24.1469C39.6228 24.1469 36.3828 20.8829 36.3828 16.8669C36.3828 12.8529 39.6228 9.58789 43.4808 9.58789C45.6158 9.58789 47.1328 10.4619 48.2668 11.5959L46.9118 13.0059C46.0868 12.2089 44.9828 11.5809 43.4658 11.5809C40.6528 11.5809 38.4438 13.9409 38.4438 16.8679C38.4438 19.7949 40.6388 22.1549 43.4658 22.1549C45.2918 22.1549 46.3378 21.3879 47.0008 20.6989C47.5448 20.1319 47.8988 19.3189 48.0458 18.2009H43.4218V16.2089H49.9018C49.9748 16.5609 50.0048 16.9899 50.0048 17.4499C50.0048 18.9369 49.6068 20.7899 48.3548 22.1089C47.1178 23.4419 45.5568 24.1469 43.4808 24.1469ZM60.7058 19.2939C60.7058 22.0849 58.5198 24.1469 55.8418 24.1469C53.1628 24.1469 50.9768 22.0849 50.9768 19.2939C50.9768 16.4869 53.1628 14.4409 55.8418 14.4409C58.5198 14.4409 60.7058 16.4869 60.7058 19.2939ZM58.5828 19.2939C58.5828 17.5499 57.3148 16.3599 55.8568 16.3599C54.3998 16.3599 53.1318 17.5499 53.1318 19.2939C53.1318 21.0229 54.3998 22.2279 55.8568 22.2279C57.3148 22.2279 58.5828 21.0229 58.5828 19.2939ZM70.4288 19.2939C70.4288 22.0849 68.4608 24.1469 66.0508 24.1469C63.6398 24.1469 61.6708 22.0849 61.6708 19.2939C61.6708 16.4869 63.6398 14.4409 66.0508 14.4409C68.4608 14.4409 70.4288 16.4869 70.4288 19.2939ZM68.5028 19.2939C68.5028 17.5499 67.3628 16.3599 66.0508 16.3599C64.7378 16.3599 63.5968 17.5499 63.5968 19.2939C63.5968 21.0229 64.7378 22.2279 66.0508 22.2279C67.3628 22.2279 68.5028 21.0229 68.5028 19.2939ZM80.1788 14.7529V23.7639C80.1788 27.4739 78.1948 28.9999 75.8378 28.9999C73.6288 28.9999 72.3018 27.3589 71.7938 26.0299L73.5398 25.2249C73.8528 26.0449 74.6138 27.0139 75.8378 27.0139C77.3438 27.0139 78.2688 25.9799 78.2688 24.0599V23.3369H78.1948C77.7468 23.9449 76.8818 24.4869 75.7928 24.4869C73.5098 24.4869 71.4218 22.3029 71.4218 19.4799C71.4218 16.6399 73.5098 14.4409 75.7918 14.4409C76.8818 14.4409 77.7468 14.9669 78.1948 15.5569H78.2688V14.7369H80.1788V14.7529ZM78.4188 19.4799C78.4188 17.7079 77.3438 16.4109 75.9868 16.4109C74.5988 16.4109 73.4508 17.7079 73.4508 19.4809C73.4508 21.2359 74.6138 22.5009 75.9868 22.5009C77.3438 22.5009 78.4178 21.2359 78.4178 19.4809L78.4188 19.4799ZM84.0548 10.5589V24.1469H82.1098V10.5589H84.0548ZM92.2738 20.8799L93.7088 21.9899C93.2388 22.7829 92.1218 24.1469 90.1888 24.1469C87.7888 24.1469 86.0078 22.0219 86.0078 19.2939C86.0078 16.4079 87.8158 14.4409 89.9828 14.4409C92.1768 14.4409 93.2398 16.4399 93.5978 17.5339L93.7918 18.0889L88.1468 20.7689C88.5748 21.7359 89.2508 22.2439 90.1888 22.2439C91.1288 22.2119 91.7908 21.6889 92.2738 20.8799ZM87.8438 19.1359L91.6108 17.3279C91.4038 16.7249 90.7828 16.2969 90.0378 16.2969C89.0988 16.2969 87.7888 17.2639 87.8438 19.1359Z" fill="#5F6368"/>
<path d="M25.3199 11.2094C22.7849 9.86936 19.5439 10.6654 18.0799 12.9854L14.3869 18.8394C13.3179 20.5294 14.6939 21.1194 16.2269 21.9614L19.7799 23.8384C20.9839 24.4734 22.5199 24.0964 23.2139 22.9964L27.0099 16.9814C28.2849 14.9594 27.5289 12.3764 25.3199 11.2094Z" fill="#EA4335"/>
<path d="M20.5373 13.3728L16.9943 11.3688C15.0393 10.3048 13.9313 10.2338 13.1283 11.4848L7.90329 20.3548C6.44429 22.8298 7.31329 25.9958 9.83929 27.4228C12.0413 28.6698 14.8563 27.9298 16.1273 25.7708L21.4523 16.7308C21.6172 16.4514 21.7244 16.1417 21.7676 15.8202C21.8108 15.4986 21.7891 15.1717 21.7038 14.8586C21.6185 14.5456 21.4713 14.2528 21.2709 13.9976C21.0706 13.7424 20.8211 13.53 20.5373 13.3728Z" fill="#FBBC04"/>
<path d="M21.9161 9.20407L19.4871 7.77007C16.8011 6.18507 13.3661 7.12507 11.8151 9.87107L7.19105 18.0581C6.50805 19.2661 6.91405 20.8121 8.09505 21.5081L10.8151 23.1141C12.1581 23.9071 13.8751 23.4371 14.6511 22.0641L19.9341 12.7111C21.0291 10.7731 23.4511 10.1101 25.3461 11.2291L21.9161 9.20407Z" fill="#34A853"/>
<path d="M11.5232 11.7525L8.99018 10.2395C7.86018 9.56549 6.41718 9.96549 5.76618 11.1335L2.72618 16.5765C1.23118 19.2555 2.11818 22.6835 4.71018 24.2295L6.63818 25.3795L8.97718 26.7765L9.99118 27.3825C8.19018 26.1325 7.61718 23.6265 8.71918 21.6535L9.50618 20.2445L12.3872 15.0845C13.0372 13.9185 12.6512 12.4265 11.5232 11.7525Z" fill="#4285F4"/>
<defs>
<linearGradient id="paint0_linear_5144_3181" x1="523" y1="14.5" x2="562.5" y2="21.5" gradientUnits="userSpaceOnUse">
<stop stop-color="#0F1961"/>
<stop offset="1" stop-color="#002897"/>
</linearGradient>
</defs>
</svg>
