<svg width="62" height="24" viewBox="0 0 62 24" fill="none" xmlns="http://www.w3.org/2000/svg">
<path d="M59.3994 8.3099C58.8694 6.8189 57.4194 5.7489 55.7194 5.7489H55.6834C55.1598 5.74721 54.6411 5.85039 54.158 6.05237C53.6749 6.25434 53.2371 6.55102 52.8704 6.9249C52.5038 6.55132 52.0661 6.25483 51.5832 6.05287C51.1003 5.85092 50.5819 5.74757 50.0584 5.7489H50.0234C49.0504 5.7489 48.1624 6.0979 47.4794 6.6749V6.3819C47.4676 6.23867 47.4021 6.1052 47.296 6.00822C47.1899 5.91124 47.0512 5.85791 46.9074 5.8589H44.2974C44.2223 5.85811 44.1477 5.87216 44.078 5.90025C44.0083 5.92835 43.9448 5.96992 43.8912 6.0226C43.8376 6.07528 43.7949 6.13802 43.7656 6.20723C43.7363 6.27643 43.721 6.35075 43.7204 6.4259V20.3259C43.7204 20.6399 43.9784 20.8919 44.2974 20.8919H46.9074C47.1984 20.8919 47.4374 20.6789 47.4764 20.4029L47.4744 10.4249C47.4744 10.3899 47.4764 10.3579 47.4794 10.3249C47.5214 9.8799 47.8544 9.5149 48.3794 9.4679H48.8604C49.0804 9.4879 49.2664 9.5629 49.4124 9.6779C49.6394 9.8549 49.7654 10.1269 49.7654 10.4249L49.7754 20.3549C49.7754 20.6689 50.0344 20.9229 50.3524 20.9229H52.9624C53.2694 20.9229 53.5204 20.6819 53.5354 20.3829L53.5344 10.4129C53.5315 10.2545 53.5688 10.098 53.643 9.95809C53.7172 9.81814 53.8257 9.69936 53.9584 9.6129C54.0924 9.5289 54.2534 9.4729 54.4384 9.4549H54.9194C55.4844 9.5029 55.8254 9.9229 55.8244 10.4119L55.8344 20.3279C55.8344 20.6419 56.0934 20.8949 56.4114 20.8949H59.0214C59.173 20.896 59.3187 20.8369 59.4267 20.7306C59.5347 20.6242 59.5961 20.4794 59.5974 20.3279V9.6639C59.5974 8.9359 59.5144 8.6269 59.4004 8.3089L59.3994 8.3099ZM41.7334 5.8939H40.2414V3.5159C40.2407 3.43892 40.2229 3.36306 40.1893 3.29379C40.1557 3.22451 40.1072 3.16353 40.0473 3.11524C39.9873 3.06695 39.9174 3.03255 39.8426 3.01451C39.7677 2.99647 39.6898 2.99524 39.6144 3.0109C37.9604 3.4559 38.2914 5.7039 35.2704 5.8949H34.9774C34.9347 5.89544 34.8921 5.90047 34.8504 5.9099C34.7237 5.93634 34.6098 6.00628 34.5276 6.1063C34.4454 6.20633 34.3998 6.33144 34.3984 6.4609V9.0209C34.3984 9.3329 34.6584 9.5869 34.9764 9.5869H36.5514L36.5494 20.4399C36.5494 20.7499 36.8044 20.9999 37.1194 20.9999H39.6994C40.0134 20.9999 40.2694 20.7499 40.2694 20.4399V9.5869H41.7324C41.884 9.58823 42.0298 9.52938 42.138 9.42326C42.2462 9.31714 42.3079 9.17243 42.3094 9.0209V6.4599C42.3079 6.30837 42.2462 6.16366 42.138 6.05754C42.0298 5.95142 41.885 5.89257 41.7334 5.8939Z" fill="#54C1F0"/>
<path d="M32.93 5.69922H30.352C30.2768 5.69961 30.2023 5.71482 30.1329 5.74398C30.0636 5.77314 30.0006 5.81568 29.9477 5.86917C29.8948 5.92265 29.8529 5.98604 29.8245 6.05571C29.796 6.12538 29.7816 6.19997 29.782 6.27522V11.6572C29.7804 11.8164 29.7163 11.9685 29.6035 12.0808C29.4906 12.1931 29.3382 12.2564 29.179 12.2572H28.099C28.0192 12.2571 27.9401 12.2412 27.8665 12.2104C27.7928 12.1797 27.7259 12.1346 27.6697 12.078C27.6135 12.0213 27.569 11.954 27.5389 11.8801C27.5087 11.8062 27.4935 11.7271 27.494 11.6472L27.484 6.27522C27.4843 6.1235 27.4245 5.97785 27.3176 5.8701C27.2108 5.76235 27.0657 5.70128 26.914 5.70022H24.335C24.1832 5.70101 24.0379 5.76201 23.9311 5.86981C23.8242 5.97762 23.7645 6.12342 23.765 6.27522V12.1742C23.765 14.4142 25.348 16.0112 27.569 16.0112C27.569 16.0112 29.235 16.0112 29.287 16.0212C29.587 16.0562 29.821 16.3112 29.821 16.6242C29.821 16.9342 29.592 17.1872 29.295 17.2242L29.251 17.2342L25.48 17.2472C25.3282 17.248 25.1829 17.309 25.0761 17.4168C24.9692 17.5246 24.9095 17.6704 24.91 17.8222V20.4242C24.91 20.7422 25.165 20.9992 25.48 20.9992H29.696C31.918 20.9992 33.5 19.4032 33.5 17.1612V6.27522C33.5004 6.20002 33.486 6.12548 33.4575 6.05586C33.4291 5.98625 33.3872 5.92293 33.3342 5.86952C33.2813 5.81611 33.2183 5.77367 33.149 5.74462C33.0796 5.71557 33.0052 5.70048 32.93 5.70022V5.69922ZM8.196 5.69922H2.559C2.25 5.69922 2 5.95222 2 6.26422V8.81422L2.001 8.82822L2 8.86422V20.4062C2 20.7192 2.233 20.9762 2.522 20.9822H5.149C5.463 20.9822 5.719 20.7252 5.719 20.4072L5.729 16.4522H8.196C10.261 16.4522 11.699 15.0062 11.699 12.9142V9.24122C11.7 7.15022 10.26 5.69922 8.196 5.69922ZM7.969 12.0752C7.969 12.4112 7.699 12.6852 7.365 12.6852L5.729 12.6872V9.46822H7.365C7.699 9.46822 7.969 9.74022 7.969 10.0782V12.0752ZM18.259 5.71422H14.681C14.364 5.71422 14.108 5.95622 14.108 6.25422V7.26622L14.109 7.28622V8.69522C14.109 9.00922 14.38 9.26622 14.715 9.26622H18.122C18.392 9.30922 18.605 9.50722 18.635 9.81722V10.1532C18.605 10.4482 18.394 10.6632 18.137 10.6882H16.449C14.205 10.6882 12.607 12.1922 12.607 14.3052V17.3322C12.607 19.4322 13.981 20.9272 16.209 20.9272H20.885C21.725 20.9272 22.405 20.2862 22.405 19.4962V9.62122C22.405 7.22622 21.182 5.71422 18.259 5.71422ZM18.669 16.9862C18.6668 17.0476 18.6553 17.1083 18.635 17.1662C18.5916 17.283 18.5132 17.3835 18.4104 17.4538C18.3076 17.5242 18.1856 17.561 18.061 17.5592H16.988C16.653 17.5592 16.38 17.3012 16.38 16.9862V16.4952L16.379 16.4762L16.38 15.1702V14.7612L16.381 14.7572C16.383 14.4432 16.653 14.1882 16.988 14.1882H18.061C18.397 14.1882 18.669 14.4442 18.669 14.7612V16.9862Z" fill="#233266"/>
</svg>
