<svg width="97" height="24" viewBox="0 0 97 24" fill="none" xmlns="http://www.w3.org/2000/svg">
<path d="M60.293 16.572V12.457C60.293 11.444 59.91 10.938 58.953 10.938C58.569 10.938 58.123 11.001 57.867 11.065V17.079C57.867 17.269 57.676 17.459 57.484 17.459H56.016C55.824 17.459 55.633 17.269 55.633 17.079V10.052C55.633 9.798 55.824 9.609 56.016 9.545C56.973 9.229 57.931 9.039 58.952 9.039C61.25 9.039 62.527 10.242 62.527 12.458V17.142C62.527 17.332 62.335 17.522 62.144 17.522H61.25C61.1241 17.5248 60.999 17.5023 60.8821 17.4556C60.7651 17.409 60.6588 17.3392 60.5695 17.2505C60.4801 17.1618 60.4096 17.056 60.3621 16.9394C60.3146 16.8228 60.2911 16.6979 60.293 16.572ZM66.038 14.103L65.974 14.673C65.974 15.433 66.484 15.876 67.314 15.876C67.953 15.876 68.527 15.686 69.166 15.37C69.23 15.37 69.293 15.306 69.357 15.306C69.485 15.306 69.549 15.37 69.613 15.433C69.677 15.496 69.804 15.686 69.804 15.686C69.932 15.876 70.06 16.129 70.06 16.319C70.06 16.635 69.868 16.952 69.613 17.079C68.911 17.459 68.081 17.649 67.188 17.649C66.166 17.649 65.336 17.395 64.698 16.889C64.3716 16.6066 64.1111 16.2561 63.9347 15.8622C63.7583 15.4683 63.6704 15.0405 63.677 14.609V12.141C63.677 10.178 64.954 8.976 67.124 8.976C69.23 8.976 70.444 10.116 70.444 12.141V13.66C70.444 13.85 70.252 14.04 70.06 14.04H66.04L66.038 14.103ZM65.974 12.711H68.4V12.078C68.4 11.318 67.953 10.812 67.187 10.812C66.421 10.812 65.974 11.255 65.974 12.078V12.711ZM82.252 14.103L82.188 14.673C82.188 15.433 82.698 15.876 83.528 15.876C84.167 15.876 84.741 15.686 85.38 15.37C85.444 15.37 85.508 15.306 85.572 15.306C85.699 15.306 85.763 15.37 85.827 15.433C85.891 15.496 86.019 15.686 86.019 15.686C86.146 15.876 86.274 16.129 86.274 16.319C86.274 16.635 86.082 16.952 85.827 17.079C85.125 17.459 84.296 17.649 83.402 17.649C82.38 17.649 81.55 17.395 80.912 16.889C80.5856 16.6066 80.3251 16.2561 80.1487 15.8622C79.9723 15.4683 79.8844 15.0405 79.891 14.609V12.141C79.891 10.178 81.168 8.976 83.338 8.976C85.445 8.976 86.658 10.116 86.658 12.141V13.66C86.658 13.85 86.466 14.04 86.274 14.04H82.253L82.252 14.103ZM82.188 12.711H84.614V12.078C84.614 11.318 84.167 10.812 83.401 10.812C82.635 10.812 82.188 11.255 82.188 12.078V12.711ZM44.653 17.521H45.547C45.738 17.521 45.93 17.331 45.93 17.141V12.457C45.93 10.305 44.78 9.039 42.866 9.039C42.291 9.039 41.653 9.165 41.27 9.292V6.95C41.27 6.443 40.823 6 40.312 6H39.419C39.227 6 39.035 6.19 39.035 6.38V17.142C39.035 17.332 39.227 17.522 39.419 17.522H40.887C41.078 17.522 41.27 17.332 41.27 17.142V11.192C41.6183 11.0678 41.9852 11.0035 42.355 11.002C43.313 11.002 43.695 11.444 43.695 12.52V16.635C43.759 17.079 44.142 17.521 44.653 17.521ZM54.293 12.204V14.546C54.293 16.509 52.952 17.712 50.718 17.712C48.547 17.712 47.143 16.509 47.143 14.546V12.204C47.143 10.241 48.483 9.039 50.718 9.039C52.952 9.039 54.293 10.242 54.293 12.204ZM52.058 12.204C52.058 11.444 51.611 10.938 50.782 10.938C49.952 10.938 49.505 11.381 49.505 12.204V14.546C49.505 15.306 49.951 15.749 50.781 15.749C51.611 15.749 52.058 15.306 52.058 14.546V12.204ZM37.823 11.128C37.823 13.154 36.291 14.547 34.248 14.547C33.738 14.547 33.291 14.483 32.844 14.293V17.143C32.844 17.332 32.652 17.522 32.461 17.522H30.992C30.801 17.522 30.609 17.332 30.609 17.142V7.077C30.609 6.823 30.801 6.634 30.992 6.57C31.95 6.254 32.907 6.064 33.929 6.064C36.227 6.064 37.823 7.456 37.823 9.609V11.128ZM35.525 9.482C35.525 8.469 34.823 7.962 33.865 7.962C33.29 7.962 32.907 8.152 32.907 8.152V12.331C33.291 12.521 33.482 12.584 33.929 12.584C34.886 12.584 35.589 12.014 35.589 11.065V9.482H35.525ZM79.061 11.128C79.061 13.154 77.529 14.547 75.486 14.547C74.975 14.547 74.528 14.483 74.081 14.293V17.143C74.081 17.332 73.89 17.522 73.698 17.522H72.23C72.038 17.522 71.847 17.332 71.847 17.142V7.077C71.847 6.823 72.038 6.634 72.23 6.57C73.188 6.254 74.145 6.064 75.166 6.064C77.464 6.064 79.06 7.456 79.06 9.609V11.129L79.061 11.128ZM76.762 9.482C76.762 8.469 76.06 7.962 75.102 7.962C74.528 7.962 74.145 8.152 74.145 8.152V12.331C74.528 12.521 74.72 12.584 75.166 12.584C76.124 12.584 76.826 12.014 76.826 11.065V9.482H76.762ZM14.293 22.75C20.53 22.75 25.587 17.881 25.587 11.875C25.587 5.869 20.53 1 14.293 1C8.056 1 3 5.869 3 11.875C3 17.881 8.056 22.75 14.293 22.75Z" fill="#5F259F"/>
<path d="M19.7344 8.84014C19.7311 8.62022 19.6426 8.41014 19.4877 8.25406C19.3327 8.09797 19.1233 8.00803 18.9034 8.00314H17.3684L13.8494 3.94514C13.5294 3.55814 13.0184 3.42914 12.5064 3.55814L11.2914 3.94514C11.0994 4.00914 11.0354 4.26714 11.1634 4.39514L15.0014 8.06714H9.17937C8.98737 8.06714 8.85938 8.19614 8.85938 8.38914V9.03314C8.85938 9.48314 9.24337 9.87014 9.69137 9.87014H10.5864V12.9621C10.5864 15.2821 11.8024 16.6341 13.8494 16.6341C14.4894 16.6341 15.0014 16.5701 15.6404 16.3121V18.3731C15.6404 18.9531 16.0884 19.4041 16.6644 19.4041H17.5594C17.7514 19.4041 17.9434 19.2111 17.9434 19.0171V9.80714H19.4154C19.6074 9.80714 19.7354 9.67714 19.7354 9.48414V8.84014H19.7344ZM15.6404 14.3801C15.2564 14.5731 14.7454 14.6371 14.3604 14.6371C13.3374 14.6371 12.8264 14.1221 12.8264 12.9621V9.87014H15.6404V14.3801Z" fill="white"/>
</svg>
