<svg width="76" height="24" viewBox="0 0 76 24" fill="none" xmlns="http://www.w3.org/2000/svg">
<path d="M70.197 4L74 11.994L66 20L70.197 4Z" fill="#018C45"/>
<path d="M67.197 4L71 11.994L63 20L67.197 4Z" fill="#F47920"/>
<path d="M8.594 9.973H10.56C11.255 9.973 11.759 9.882 12.07 9.688C12.382 9.494 12.622 9.162 12.754 8.683C12.898 8.192 12.862 7.86 12.658 7.666C12.454 7.472 11.963 7.381 11.195 7.381H9.337L8.594 9.973ZM2 17.888L6.052 4H12.526C14.552 4 15.895 4.308 16.59 4.937C17.273 5.565 17.405 6.581 16.998 8.009C16.746 8.854 16.374 9.562 15.847 10.122C15.331 10.682 14.648 11.127 13.821 11.447C14.528 11.607 14.984 11.927 15.187 12.417C15.391 12.897 15.367 13.605 15.116 14.531L14.624 16.472V16.529C14.48 17.077 14.528 17.363 14.756 17.386L14.612 17.9H10.236C10.248 17.569 10.284 17.283 10.308 17.032C10.3335 16.8359 10.3696 16.6413 10.416 16.449L10.824 15.067C11.027 14.347 11.039 13.845 10.848 13.548C10.656 13.251 10.224 13.103 9.541 13.103H7.707L6.28 17.888H2ZM28.986 7.643L26.001 17.888H22.381L22.824 16.392C22.189 16.986 21.529 17.442 20.87 17.728C20.2231 18.0242 19.5195 18.1764 18.808 18.174C18.208 18.174 17.693 18.071 17.285 17.866C16.8766 17.6692 16.5439 17.3439 16.338 16.94C16.146 16.586 16.075 16.14 16.098 15.604C16.135 15.079 16.326 14.199 16.686 12.966L18.233 7.643H22.2L20.653 12.931C20.426 13.708 20.377 14.256 20.485 14.541C20.605 14.839 20.905 14.999 21.397 14.999C21.9 14.999 22.32 14.827 22.667 14.473C23.015 14.119 23.291 13.605 23.495 12.909L25.029 7.632H28.985L28.986 7.643ZM34.106 10.248H35.508C36.408 10.248 37.043 10.145 37.414 9.939C37.774 9.733 38.026 9.357 38.181 8.831C38.337 8.294 38.301 7.929 38.061 7.723C37.834 7.518 37.258 7.415 36.323 7.415H34.933L34.106 10.248ZM27.548 17.888L31.588 4H37.151C38.373 4 39.332 4.069 40.004 4.217C40.675 4.365 41.214 4.594 41.598 4.925C42.09 5.359 42.389 5.895 42.521 6.547C42.641 7.187 42.569 7.94 42.318 8.831C41.862 10.384 41.071 11.572 39.944 12.406C38.804 13.228 37.402 13.64 35.736 13.64H33.134L31.887 17.888H27.548ZM47.94 13.308C47.52 13.468 46.97 13.628 46.298 13.788C45.231 14.062 44.631 14.428 44.499 14.873C44.404 15.159 44.452 15.387 44.595 15.558C44.739 15.718 44.991 15.798 45.351 15.798C46.011 15.798 46.538 15.638 46.933 15.33C47.329 15.01 47.629 14.519 47.833 13.834C47.868 13.685 47.904 13.582 47.916 13.502L47.94 13.308ZM46.981 17.888L47.017 16.918C46.382 17.374 45.734 17.717 45.075 17.934C44.4062 18.156 43.7057 18.2678 43.001 18.265C41.874 18.265 41.095 17.98 40.639 17.409C40.196 16.849 40.124 16.039 40.423 14.999C40.711 13.982 41.239 13.229 41.982 12.749C42.725 12.269 43.972 11.915 45.722 11.698C45.938 11.664 46.238 11.641 46.609 11.595C47.904 11.458 48.624 11.127 48.779 10.59C48.863 10.293 48.815 10.076 48.624 9.95C48.444 9.813 48.096 9.745 47.604 9.745C47.197 9.745 46.861 9.825 46.586 9.996C46.31 10.167 46.106 10.419 45.974 10.773H42.114C42.462 9.619 43.181 8.751 44.248 8.169C45.315 7.575 46.718 7.289 48.468 7.289C49.283 7.289 50.026 7.358 50.674 7.518C51.321 7.666 51.801 7.883 52.1 8.146C52.484 8.477 52.7 8.843 52.772 9.254C52.844 9.665 52.76 10.259 52.544 11.024L50.878 16.734C50.83 16.917 50.818 17.089 50.842 17.237C50.877 17.386 50.937 17.511 51.057 17.591L50.973 17.877H46.981V17.888ZM50.997 21.931L51.873 18.893H53.011C53.395 18.893 53.683 18.825 53.899 18.688C54.114 18.551 54.259 18.322 54.342 18.014C54.39 17.877 54.414 17.74 54.426 17.58C54.438 17.3935 54.438 17.2065 54.426 17.02L53.815 7.632H57.831L57.771 13.845L61.271 7.632H65L58.802 17.832C58.095 18.973 57.592 19.75 57.267 20.184C56.944 20.607 56.644 20.938 56.344 21.154C55.9712 21.4583 55.5385 21.6804 55.074 21.806C54.606 21.931 53.911 22 52.964 22C52.688 22 52.376 22 52.04 21.977C51.717 21.977 51.357 21.954 50.997 21.931Z" fill="#29387E"/>
</svg>
