<svg width="70" height="70" viewBox="0 0 70 70" fill="none" xmlns="http://www.w3.org/2000/svg">
<path d="M34.563 69.24C53.6516 69.24 69.1259 53.7401 69.1259 34.62C69.1259 15.4999 53.6516 0 34.563 0C15.4744 0 0 15.4999 0 34.62C0 53.7401 15.4744 69.24 34.563 69.24Z" fill="white"/>
<path fill-rule="evenodd" clip-rule="evenodd" d="M19.5256 55.7492C19.2552 54.8824 18.8765 54.0697 16.9293 51.9026C15.4148 49.8979 9.24866 43.2882 8.70777 41.7712C8.27506 40.5251 8.0587 31.7482 8.27506 30.1228C8.43733 29.2018 11.5204 22.6462 12.1154 21.8335C15.1985 23.4047 15.7394 22.9713 14.6576 27.0888C14.0626 29.256 13.7381 30.5021 13.4676 31.2064C13.0349 31.6398 12.6022 31.9649 11.6827 33.3194C10.06 35.8116 12.4399 37.9245 13.7381 39.3873C15.1985 41.0127 15.3607 41.5545 17.0916 43.0715C17.6866 43.5591 17.7407 43.7758 18.7143 43.6133C19.2011 42.2046 18.0111 41.5545 17.1457 40.5793L14.6576 37.9787C12.494 35.8657 13.089 34.2946 14.0626 33.3735C14.8198 32.6692 15.7935 32.2358 16.2803 32.4525C16.9834 32.6692 21.7973 37.8703 22.8791 38.8997C27.3685 43.1798 27.7472 42.4213 27.8012 46.864C27.8553 49.7896 27.9094 52.7694 27.9635 55.7492H19.5256ZM49.6533 55.7492C49.9237 54.8824 50.2482 54.0697 52.2495 51.9026C53.764 49.8979 59.9302 43.2882 60.4711 41.7712C60.9038 40.5251 61.0661 31.7482 60.8497 30.1228C60.7415 29.2018 57.6584 22.6462 57.0635 21.8335C53.9804 23.4047 53.4395 22.9713 54.5213 27.0888C55.1163 29.256 55.4408 30.5021 55.6571 31.2064C56.1439 31.6398 56.5767 31.9649 57.4962 33.3194C59.1188 35.8116 56.7389 37.9245 55.4408 39.3873C53.9804 41.0127 53.8181 41.5545 52.0332 43.0715C51.4923 43.5591 51.4382 43.7758 50.4646 43.6133C49.9778 42.2046 51.1677 41.5545 52.0332 40.5793L54.5213 37.9787C56.6307 35.8657 56.0899 34.2946 55.1163 33.3735C54.359 32.6692 53.3854 32.2358 52.8445 32.4525C52.1954 32.6692 47.3815 37.8703 46.2997 38.8997C41.8103 43.1798 41.4317 42.4213 41.3776 46.864C41.3235 49.7896 41.2694 52.7694 41.2153 55.7492H49.6533ZM52.0332 55.7492H55.2785V61.2212H53.6558V57.808L38.9977 57.6455V66.1515H37.4291V55.7492H39.4304C39.5386 52.4443 39.5386 49.2478 39.5927 46.0513C39.6468 42.313 40.8367 41.2836 42.9462 39.6582L47.9224 34.8905C50.4646 32.2358 51.925 30.4479 53.5477 30.5563C52.7904 26.9263 50.735 23.2422 53.9263 21.4001C57.4421 19.3413 58.0912 19.6122 59.227 22.1044C59.7138 23.1338 60.1465 24.0007 60.6333 25.0301C61.661 27.3055 62.7428 28.7684 62.6887 31.694C62.6346 34.4571 62.7428 37.7078 62.5265 40.3625C62.256 43.6133 59.4975 46.2138 57.6044 48.381L53.6558 53.0945C52.8986 54.0155 52.3036 54.6657 52.0332 55.7492ZM38.0241 13.3275C37.375 10.6186 39.0518 8.39727 41.1072 7.85549C43.7034 7.15117 45.9752 8.88488 46.5161 10.9437C48.0306 16.9033 39.3222 19.0162 38.0241 13.3275ZM50.8432 22.3753C52.2495 21.8877 51.6545 20.9667 49.8155 19.233C48.8419 18.3119 47.706 17.6618 46.2997 17.12C47.2192 15.8739 48.4633 14.7361 48.4633 12.2439C48.4633 10.131 47.3274 8.12638 46.2997 7.3137C42.7839 4.65896 38.4568 6.12178 36.8341 9.26413C34.7246 13.2192 37.375 17.4451 40.7826 18.2577C43.8116 19.0162 45.4884 17.4451 48.7878 20.8041C49.4369 21.4543 49.9237 22.6462 50.8432 22.3753ZM25.5295 6.77192C31.0466 4.76732 33.697 13.2192 28.3962 15.1696C23.0414 17.12 19.796 8.77652 25.5295 6.77192ZM23.0414 16.0364C20.7697 16.6866 16.4425 20.2623 17.6866 21.6168C18.552 22.5378 19.147 21.2376 19.796 20.3707C21.8514 17.6076 24.3395 17.3909 27.3685 17.1742C31.2089 16.9033 34.4001 12.8399 32.6152 8.55981C31.2629 5.25492 27.044 3.25032 23.2037 5.90507C22.0137 6.71774 20.7697 8.55981 20.7697 10.8895C20.7156 13.8151 22.176 14.6278 23.0414 16.0364ZM33.3724 21.075C38.9436 19.3413 40.8367 27.5223 36.131 29.1476C30.6139 31.098 27.5849 22.9171 33.3724 21.075ZM31.0466 30.1228C29.6403 30.6104 28.7208 31.0439 27.3685 32.8317C26.5572 33.9153 24.7722 36.841 26.3949 37.2744C28.6126 37.9245 27.1522 31.694 34.1297 31.4773C40.6745 31.2606 40.9449 37.0577 42.243 37.3286C44.5689 37.8703 42.7839 34.132 42.0267 33.2652C40.6745 31.6398 40.1336 31.3689 38.0241 30.2854C38.8895 29.256 39.4304 29.2018 40.1336 27.739C40.7826 26.3845 40.8908 24.9759 40.4581 23.4589C38.9436 17.7701 30.668 17.6618 28.8289 23.188C27.6931 26.547 29.478 28.7684 31.0466 30.1228ZM17.0916 55.7492H13.9003V61.2212H15.523V57.808L30.1812 57.6455V66.1515H31.7497V55.7492H29.6944C29.6403 52.4443 29.6403 49.2478 29.5862 46.0513C29.478 42.313 28.288 41.2836 26.1786 39.6582L21.2565 34.8905C18.7143 32.2358 17.2539 30.4479 15.5771 30.5563C16.3884 26.9263 18.3897 23.2422 15.2526 21.4001C11.7368 19.3413 11.0877 19.6122 9.95182 22.1044C9.46502 23.1338 9.03231 24.0007 8.54551 25.0301C7.51781 27.3055 6.43603 28.7684 6.49012 31.694C6.49012 34.4571 6.38194 37.7078 6.65239 40.3625C6.92283 43.6133 9.62729 46.2138 11.5745 48.381L15.523 53.0945C16.2803 54.0155 16.8752 54.6657 17.0916 55.7492Z" fill="#030303"/>
</svg>
