<svg width="72" height="72" viewBox="0 0 72 72" fill="none" xmlns="http://www.w3.org/2000/svg">
<path d="M35.9152 71.949C55.7506 71.949 71.8304 55.8426 71.8304 35.9745C71.8304 16.1063 55.7506 0 35.9152 0C16.0798 0 0 16.1063 0 35.9745C0 55.8426 16.0798 71.949 35.9152 71.949Z" fill="white"/>
<path fill-rule="evenodd" clip-rule="evenodd" d="M31.8043 47.5139C32.832 47.3514 34.2924 49.6811 37.5918 48.5975C38.5654 48.3266 39.3227 47.4056 40.134 47.5139C42.0271 47.6765 43.6498 49.2476 44.353 51.0355C45.0561 52.7692 43.5416 53.8528 41.8649 55.4782C39.9717 57.2119 37.105 60.2459 34.4005 58.8372C32.3993 57.8078 29.5866 55.2615 28.0721 53.5277C27.423 52.7692 26.9903 52.3358 27.4771 51.0355C28.1803 49.2476 29.5866 47.839 31.8043 47.5139ZM34.5087 34.3486C37.6459 33.4275 40.5667 35.6489 40.7831 38.412C41.0535 41.3918 38.8899 44.3716 37.105 45.1301C32.3993 47.0805 27.6935 36.299 34.5087 34.3486ZM18.3902 39.6581C19.5801 48.7059 24.9349 57.862 32.7238 62.0338C40.2963 66.0971 49.5455 53.0943 51.9254 46.2137C52.7368 43.9923 53.4399 41.1751 53.6022 38.5745C53.7104 37.5451 53.8186 34.782 53.4399 33.9693C52.9531 32.8316 51.5468 32.9941 50.1405 32.7774C40.1881 30.9353 39.3767 20.8582 32.3993 26.1676C29.3703 28.4431 27.6394 32.0731 20.6619 32.9399C18.9851 33.1025 18.282 33.3192 18.1738 35.1071C18.1197 36.5157 18.1738 38.2494 18.3902 39.6581Z" fill="#434242"/>
<path fill-rule="evenodd" clip-rule="evenodd" d="M22.824 28.8767C24.2304 28.5516 26.8266 27.143 27.043 26.0594C27.4757 23.8381 26.6103 21.9419 27.5298 19.3955C30.3965 11.3771 41.3766 11.3771 44.2433 19.2329C46.0283 24.0548 42.7829 25.3551 46.5151 27.7389C47.2182 28.1724 48.1918 28.66 49.0573 28.8767C49.0032 23.0796 49.7063 19.0704 46.7314 14.8445C44.6761 11.8647 41.1603 9.10156 35.9136 9.10156C30.7751 9.15574 27.1512 11.8647 25.204 14.6819C22.175 19.0162 22.824 22.9171 22.824 28.8767Z" fill="#434242"/>
<path fill-rule="evenodd" clip-rule="evenodd" d="M31.8055 47.5147C29.5878 47.8397 28.1815 49.2484 27.4784 51.0363C26.9916 52.3366 27.4243 52.77 28.0734 53.5285C29.5878 55.2622 32.4005 57.8086 34.4018 58.838C37.1062 60.2466 39.973 57.2126 41.8661 55.4789C43.5428 53.8536 45.0573 52.77 44.3542 51.0363C43.651 49.2484 42.0284 47.6772 40.1352 47.5147C39.3239 47.4063 38.5666 48.3274 37.593 48.5982C34.2936 49.6818 32.8332 47.3521 31.8055 47.5147Z" fill="#D9DADA"/>
<path fill-rule="evenodd" clip-rule="evenodd" d="M34.5085 34.3482C27.6932 36.2986 32.399 47.0802 37.1048 45.1297C38.8897 44.3712 41.0533 41.3914 40.7828 38.4116C40.5665 35.6485 37.6456 33.4272 34.5085 34.3482Z" fill="#D9DADA"/>
</svg>
