<svg width="74" height="74" viewBox="0 0 74 74" fill="none" xmlns="http://www.w3.org/2000/svg">
<path fill-rule="evenodd" clip-rule="evenodd" d="M58.7569 73.6905C66.7281 73.6905 73.1966 67.1955 73.1966 59.1915C73.1966 51.122 66.7281 44.627 58.7569 44.627C58.1036 44.627 57.5155 44.6926 56.9275 44.7582C53.9873 50.0067 49.6096 54.4023 44.3826 57.3546C44.3173 57.945 44.252 58.5355 44.252 59.1915C44.252 67.1955 50.7204 73.6905 58.7569 73.6905Z" fill="white"/>
<path d="M30.013 60.2727C46.5888 60.2727 60.0261 46.7802 60.0261 30.1364C60.0261 13.4925 46.5888 0 30.013 0C13.4373 0 0 13.4925 0 30.1364C0 46.7802 13.4373 60.2727 30.013 60.2727Z" fill="white"/>
<path d="M18.4434 18.8438L60.2595 60.8317" stroke="black" stroke-width="4.20266" stroke-miterlimit="22.9256" stroke-linecap="round" stroke-linejoin="round"/>
<path d="M25.5653 17.4004H17.1367V25.8636" stroke="black" stroke-width="4.20266" stroke-miterlimit="22.9256" stroke-linecap="round" stroke-linejoin="round"/>
</svg>
