<svg width="634" height="532" viewBox="0 0 634 532" fill="none" xmlns="http://www.w3.org/2000/svg">
<path fill-rule="evenodd" clip-rule="evenodd" d="M105.375 423.322C132.734 436.897 299.592 490.493 358.912 380.42C418.226 270.352 370.433 171.028 318.404 111.578C271.95 58.5003 210.005 42.5281 172.338 76.6216C134.676 110.719 141.593 196.779 99.002 229.071C56.4109 261.353 -2.43341 216.003 0.0768468 284.853C2.58182 353.709 57.0227 399.336 105.375 423.322Z" fill="#E6E6E6"/>
<path fill-rule="evenodd" clip-rule="evenodd" d="M73.0081 379.932C91.9806 408.653 227.957 558.279 366.114 498.61C504.276 438.935 523.745 322.676 511.078 238.664C499.769 163.651 446.554 111.538 383.727 118.138C320.901 124.738 268.211 204.225 201.529 206.214C134.842 208.199 105.297 132.303 60.0023 194.033C14.7072 255.763 39.4885 329.175 73.0081 379.932Z" fill="#D1EFFD"/>
<path fill-rule="evenodd" clip-rule="evenodd" d="M394.961 402.976C404.558 372.53 435.103 190.386 322.261 141.148C209.414 91.9064 120.212 154.161 69.7361 216.089C24.671 271.376 17.1 338.528 54.4558 374.094C91.8174 409.665 173.407 392.036 209.649 433.014C245.895 473.986 209.772 541.394 275.43 530.483C341.084 519.577 378.013 456.771 394.961 402.976Z" fill="#EFEFEF"/>
<path fill-rule="evenodd" clip-rule="evenodd" d="M522.714 423.475H568.302C570.575 423.475 572.825 425.369 572.436 427.61L565.985 464.235C565.595 466.476 564.125 468.371 561.852 468.371H529.153C526.881 468.371 525.41 466.476 525.02 464.235L518.57 427.61C518.18 425.369 520.43 423.475 522.714 423.475Z" fill="#EF7F1A"/>
<path d="M546.02 413.196C560.4 413.196 572.057 401.534 572.057 387.148C572.057 372.762 560.4 361.1 546.02 361.1C531.641 361.1 519.984 372.762 519.984 387.148C519.984 401.534 531.641 413.196 546.02 413.196Z" fill="#FFED00"/>
<path d="M545.23 353.251C554.034 353.251 561.172 346.11 561.172 337.301C561.172 328.493 554.034 321.352 545.23 321.352C536.425 321.352 529.287 328.493 529.287 337.301C529.287 346.11 536.425 353.251 545.23 353.251Z" fill="#B0CB1F"/>
<path d="M545.23 294.871V423.473" stroke="#5B5B5B" stroke-width="2.36664" stroke-miterlimit="22.9256" stroke-linecap="round" stroke-linejoin="round"/>
<path d="M545.231 341.395L537.855 334.027" stroke="#5B5B5B" stroke-width="2.36664" stroke-miterlimit="22.9256" stroke-linecap="round" stroke-linejoin="round"/>
<path d="M545.23 391.138L559.301 377.061" stroke="#5B5B5B" stroke-width="2.36664" stroke-miterlimit="22.9256" stroke-linecap="round" stroke-linejoin="round"/>
<path d="M169.767 133.549H58.0172C52.3047 133.549 47.6738 138.177 47.6738 143.885V199.85C47.6738 205.559 52.3047 210.186 58.0172 210.186H169.767C175.479 210.186 180.11 205.559 180.11 199.85V143.885C180.11 138.177 175.479 133.549 169.767 133.549Z" fill="#927FFC"/>
<path fill-rule="evenodd" clip-rule="evenodd" d="M439.755 207.706C467.287 203.343 498.453 154.693 498.702 112.809C479.735 113.599 459.807 111.921 440.767 98.9961C419.812 110.501 399.148 112.987 381.604 112.616C382.005 153.384 413.012 202.807 439.755 207.706Z" fill="#AB94FB"/>
<path fill-rule="evenodd" clip-rule="evenodd" d="M439.769 199.591C466.344 195.228 496.425 146.578 496.666 104.693C478.358 105.484 459.124 103.806 440.745 90.8809C420.519 102.387 400.572 104.871 383.639 104.501C384.026 145.268 413.956 194.691 439.769 199.591Z" fill="#7272EC"/>
<path fill-rule="evenodd" clip-rule="evenodd" d="M198.365 453.749C202.472 465.606 185.303 462.673 192.568 452.9C195.23 452.479 196.629 452.852 198.365 453.749ZM282.067 454.329C281.991 449.658 281.804 454.139 282.714 452.014C284.359 451.301 280.791 451.797 284.975 451.391L286.936 456.366L282.575 456.613C282.056 454.973 282.105 456.629 282.067 454.329ZM162.574 446.711C162.176 451.707 163.611 445.465 161.684 448.111C156.879 447.07 158.049 443.639 162.218 444.488C162.406 445.015 162.687 445.301 162.574 446.711ZM213.763 425.66C220.583 432.264 213.882 439.851 207.53 436.418C202.079 433.471 203.674 423.983 213.763 425.66ZM224.212 408.406C219.965 409.208 219.308 408.543 220.776 405.015C223.15 403.849 222.544 404.539 224.646 404.909L224.212 408.406ZM252.027 402.839C244.031 404.627 245.022 397.809 248.032 396.799C251.013 395.799 253.665 397.444 252.027 402.839ZM404.561 353.203C407.999 352.971 411.094 352.767 410.386 356.98C409.816 360.384 406.966 359.824 404.267 359.321C403.661 356.731 403.819 355.64 404.561 353.203ZM379.869 332.41C387.008 330.07 387.916 335.58 385.505 337.963C383.074 340.368 377.368 339.42 379.869 332.41ZM412.126 315.202C412.626 319.216 413.13 316.746 411.452 320.695L407.556 319.882C406.829 316.492 406.594 317.948 408.271 315.163L412.126 315.202ZM281.639 401.794C278.328 399.826 274.784 396.973 272.253 394.777L254.6 379.053C251.802 376.294 249.399 373.568 246.714 371.206C247.648 375.834 245.176 376.103 243.108 378.212C232.485 389.048 210.338 404.863 196.143 404.255C196.054 411.729 197.713 419.681 193.204 424.284L149.791 424.419L149.809 464.676L333.201 464.436C332.133 459.215 330.019 453.333 330.699 447.558C315.487 447.558 300.175 447.88 284.98 447.631C277.27 447.504 269.544 447.671 261.804 447.671C256.009 447.671 243.57 449.978 246.045 443.297C249.679 441.337 320.081 441.734 329.469 442.448L328.638 434.18C315.295 433.346 247.139 435.569 241.266 433.142C237.652 430.343 234.925 429.479 234.512 423.769C234.19 419.331 235.95 415.874 239.702 413.795C245.007 410.852 261.895 412.651 269.22 412.651C289.772 412.651 310.415 412.842 330.956 412.619C330.951 407.887 333.273 403.532 335.485 399.183C338.912 392.446 345.019 384.563 350.578 382.094L351.035 439.212C357.59 441.723 417.91 439.608 429.974 439.778L429.993 438.809L351.729 438.611L351.953 372.92L430.812 372.809L430.803 302.005L373.221 301.959C364.407 322.164 350.765 343.969 336.585 360.483C327.155 371.466 311.871 386.928 300.422 395.681C295.991 399.069 291.865 402.726 286.834 405.238C285.424 404.322 283.532 403.539 281.639 401.794Z" fill="#9E9EF4"/>
<path fill-rule="evenodd" clip-rule="evenodd" d="M294.149 169.905C302.81 171.32 305.45 172.496 312.49 176.621C312.589 191.862 326.14 201.162 337.959 208.64L349.846 215.358C351.581 216.224 351.823 216.248 353.361 217.329C361.597 223.12 354.527 259.733 352.543 268.088C350.072 278.497 348.183 284.175 343.81 292.817L337.655 305.09C337.548 305.261 337.406 305.496 337.297 305.667C327.595 320.78 302.399 354.121 285.75 359.575C282.213 358.158 283.8 358.525 281.642 355.568C280.141 353.513 280.44 354.361 278.14 352.937L248.448 323.965C246.517 322.093 246.959 323.473 245.698 320.755L237.788 306.902C229.531 295.719 233.644 301.05 227.554 286.639L223.973 277.198C220.872 268.342 221.418 264.739 220.305 261.274C219.372 258.372 220.096 262.354 219.277 258.783C217.726 252.016 216.012 222.356 217.682 219.277L234.25 209.277C242.09 204.877 251.318 199.066 256.489 191.443C264.485 179.654 259.143 178.583 262.109 175.5L272.211 171.156C273.793 170.755 274.94 171.028 276.517 170.771C281.496 169.962 287.852 166.324 294.149 169.905ZM288.653 383.018C296.727 382.515 323.808 352.233 330.911 344.605C336.879 338.196 348.588 320.441 352.681 312.682C364.364 290.537 363.208 290.366 370.078 267.88C375.554 249.949 375.453 228.018 374.387 206.997C371.913 204.378 362.139 200.467 357.496 197.554C345.101 189.781 333.588 182.374 326.365 173.051C320.544 165.54 320.177 163.172 318.951 152.509C314.609 149.743 302.483 144.694 296.186 145.319C284.167 145.753 289.704 143.693 272.907 145.838C268.327 146.423 267.026 147.094 263.427 148.451C248.353 154.141 257.939 155.414 250.571 168.94C249.358 171.164 250.617 169.161 249.056 171.155C244.743 176.664 239.1 182.038 233.586 186.202L217.182 197.466C211.836 200.145 203.15 203.569 199.247 206.997C198.95 218.425 198.723 228.957 199.14 240.404C199.286 244.43 200.635 251.043 201.2 254.408L205.486 275.543L219.962 310.901L248.93 351.338C249.054 351.503 249.2 351.747 249.327 351.908C249.453 352.067 249.629 352.283 249.759 352.436C249.938 352.644 250.521 353.161 250.706 353.355C251.928 354.627 253.151 355.967 254.673 357.705L279.225 379.615C285.447 384.675 282.772 379.483 285.755 384.44L288.653 383.018Z" fill="#FEA62A"/>
<path fill-rule="evenodd" clip-rule="evenodd" d="M181.663 405.672C175.072 406.912 86.7316 407.124 83.1805 405.025C83.9204 399.712 94.8148 401.747 106.05 401.747L172.799 401.744C178.077 401.703 182.203 400.08 181.663 405.672ZM88.9003 387.27C115.952 387.254 156.163 386.248 181.686 388.01C182.197 393.583 177.347 391.888 171.871 391.877L100.488 391.875C96.569 391.875 90.1604 392.272 86.5511 391.9C81.6211 391.391 81.2185 387.27 88.9003 387.27ZM180.255 371.518C184.052 371.647 182.62 371.2 185.163 372.82C184.609 378.088 180.415 376.099 174.651 376.092L147.763 376.098C141.681 376.119 139.349 377.837 139.282 371.989C146.192 371.122 165.608 371.611 174.651 371.588C176.413 371.583 178.557 371.46 180.255 371.518ZM142.159 362.49C138.622 362.046 139.433 362.268 139.32 358.924C143.415 356.879 179.45 357.148 185.336 358.549C185.845 363.838 181.692 362.437 176.508 362.411L142.159 362.49ZM101.699 357.999C87.3492 337.653 116.844 329.215 121.41 344.522C123.85 352.699 119.631 354.239 117.892 359.168C125.008 361.652 134.555 368.189 134.73 375.46C118.966 375.249 98.7282 375.992 84.2387 375.147C84.361 368.166 94.031 362.707 99.3921 359.773C102.271 358.197 100.488 359.24 101.699 357.999ZM185.249 347.204C180.104 349.008 144.41 348.845 139.303 347.457L139.546 344.102C144.103 342.947 169.279 343.664 177.44 343.604C182.524 343.568 185.862 342.179 185.249 347.204ZM72.6887 326.23C71.7172 345.381 72.4013 379.444 72.2659 401.538C72.2148 409.849 71.045 419.548 75.0142 424.129L137.21 424.353L148.746 424.504L149.779 424.417L193.191 424.283C197.701 419.679 196.042 411.727 196.131 404.254L196.151 340.396C196.153 330.526 197.464 327.792 193.191 323.183L148.819 323.212L138.138 323.048L138.239 304.264L137.579 323.152H85.6556C79.108 323.144 75.8574 321.853 72.6887 326.23Z" fill="#58DBE2"/>
<path fill-rule="evenodd" clip-rule="evenodd" d="M429.981 438.816L441.168 438.993C441.316 439.035 441.579 439.177 441.783 439.274C446.054 439.139 450.346 439.172 454.623 439.207C460.035 439.249 462.694 440.671 462.634 435.438L462.417 383.817C460.985 381.834 459.847 382.071 458.049 379.781C456.59 377.921 455.915 376.631 454.692 374.718L452.761 372.921L441.639 372.977L430.8 372.816L351.941 372.927L351.717 438.618L429.981 438.816Z" fill="#FEE1BD"/>
<path fill-rule="evenodd" clip-rule="evenodd" d="M72.6938 326.232C75.8625 321.854 79.1131 323.146 85.6607 323.154H137.584L138.244 304.265C140.721 293.91 147.108 289.106 158.895 288.999C169.9 288.899 183.999 288.347 194.7 289.185C195.7 286.675 192.478 279.478 191.383 275.625C189.994 270.741 188.632 265.372 187.63 259.774C185.402 247.338 184.142 237.644 183.859 224.068C180.497 225.342 171.197 225.425 157.416 232.414C152.98 234.663 149.364 236.814 146.353 238.911C144.514 240.191 143.434 241.012 141.559 242.536L138.01 245.378C126.498 255.103 120.319 264.158 114.146 277.27C113.351 278.957 112.324 280.913 111.606 282.809C111.203 283.874 110.871 285.22 110.501 286.232C107.059 295.634 98.7701 285.111 75.2473 302.166C66.423 308.565 59.1343 318.486 55.2281 328.659C47.4846 348.822 50.8231 370.21 63.8256 387.358L70.885 396.463C74.3815 386.227 69.6024 332.368 72.6938 326.232Z" fill="#DFCCFF"/>
<path fill-rule="evenodd" clip-rule="evenodd" d="M439.782 190.593C465.01 186.23 493.567 137.579 493.796 95.6942C476.417 96.4859 458.157 94.8077 440.709 81.8828C421.507 93.3882 402.572 95.8734 386.496 95.5031C386.864 136.269 415.277 185.692 439.782 190.593Z" fill="#58DBE2"/>
<path fill-rule="evenodd" clip-rule="evenodd" d="M280.231 279.259C277.084 276.076 273.798 274.07 275.594 267.28C279.254 253.444 305.269 263.056 289.382 279.259C290.471 283.634 292.651 285.292 294.352 289.883L275.343 289.871C276.634 285.133 279.098 283.97 280.231 279.259ZM282.904 235.825L271.874 235.572C273.227 220.809 267.586 193.524 281.22 193.412C282.285 192.276 280.76 192.021 284.946 191.828C285.992 191.781 287.441 192.138 288.285 192.396C289.58 192.791 292.495 194.347 293.398 195.008C300.856 200.472 298.664 226.884 297.496 235.668L282.904 235.825ZM252.527 311.877C267.586 311.894 310.146 313.99 322.05 311.101C327.437 307.785 325.931 295.934 325.931 290.375C325.931 283.232 326.8 244.683 325.111 241.003C323.883 238.325 321.256 236.178 318.316 235.865C314.133 235.423 310.023 236.104 305.615 235.435C305.137 226.052 307.033 207.93 304.902 200.046C302.418 190.867 293.512 183.981 282.226 184.955C280.424 185.805 278.674 185.659 275.98 187.038C256.446 197.037 269.339 220.994 264.173 235.281C256.792 236.878 247.899 233.22 246.229 243.13L246.021 294.081C246.016 302.883 244.719 308.869 252.527 311.877Z" fill="#FDFDFD"/>
<path fill-rule="evenodd" clip-rule="evenodd" d="M296.201 145.314C302.498 144.689 314.624 149.738 318.966 152.504C320.192 163.167 320.559 165.535 326.379 173.046C333.603 182.369 345.116 189.776 357.51 197.549C362.154 200.461 371.927 204.373 374.401 206.991C375.468 228.013 375.569 249.944 370.092 267.875C363.223 290.361 364.379 290.532 352.696 312.677C348.603 320.436 336.894 338.191 330.926 344.6C323.822 352.228 296.741 382.509 288.668 383.013C288.484 383.238 288.233 383.5 288.049 383.63L286.683 384.577C286.444 384.707 286.14 384.766 285.911 384.876L283.615 385.788C283.615 388.954 283.361 391.375 283.204 394.309C282.877 400.45 284.766 399.923 281.64 401.79C283.533 403.536 285.425 404.318 286.835 405.234C291.866 402.723 295.992 399.065 300.423 395.678C311.872 386.924 327.156 371.462 336.586 360.479C350.766 343.965 364.408 322.16 373.222 301.955L378.059 290.457C378.178 290.287 378.565 290.25 378.658 289.845C378.755 289.422 379.09 289.436 379.307 289.235C379.06 287.029 385.039 264.286 385.956 262.717C388.261 238.259 393.001 224.195 388.198 195.47C382.446 193.504 376.924 189.822 372.119 186.673C365.387 182.259 363.121 180.432 357.284 175.478L351.249 169.479C349.551 167.518 347.382 164.319 345.994 161.879C341.445 153.881 340.728 150.96 340.902 140.777C325.658 133.314 305.605 123.939 287.785 123.61C283.827 123.538 281.113 123.169 278.467 124.795L283.35 124.942L283.611 143.292C286.425 143.949 287.728 143.834 290.567 143.935C294.507 144.075 294.371 143.936 296.201 145.314Z" fill="#FDCD81"/>
<path fill-rule="evenodd" clip-rule="evenodd" d="M183.862 224.064C184.144 237.639 185.404 247.334 187.632 259.769C188.635 265.368 189.997 270.737 191.385 275.621C192.48 279.474 195.703 286.671 194.703 289.181C196.092 290.529 195.182 288.827 196.668 291.619C196.851 291.963 197.514 293.842 197.705 294.358C198.456 296.384 199.185 298.11 199.956 300.171C202.035 306.472 206.572 314.415 209.415 319.618C217.661 334.711 223.314 342.313 233.101 355.179C237.938 361.537 242.348 364.985 246.709 371.202C249.394 373.564 251.797 376.29 254.595 379.049L272.248 394.773C274.779 396.969 278.323 399.822 281.635 401.79C284.76 399.923 282.871 400.45 283.199 394.309C283.355 391.375 283.61 388.954 283.61 385.787L285.905 384.876C286.135 384.765 286.439 384.707 286.677 384.577L288.043 383.63C288.227 383.5 288.478 383.238 288.662 383.012L285.764 384.434C282.781 379.478 285.456 384.669 279.234 379.61L254.682 357.699C253.16 355.962 251.937 354.622 250.715 353.349C250.53 353.156 249.947 352.638 249.768 352.431C249.638 352.278 249.462 352.062 249.336 351.903C249.209 351.741 249.063 351.498 248.939 351.333L219.971 310.896L205.495 275.538L201.209 254.402C200.644 251.038 199.295 244.425 199.149 240.399C198.732 228.952 198.959 218.419 199.256 206.991C203.159 203.564 211.845 200.139 217.191 197.461L233.595 186.196C239.109 182.033 244.752 176.659 249.065 171.149C250.626 169.155 249.367 171.159 250.58 168.935C257.948 155.408 248.362 154.136 263.436 148.446C267.035 147.088 268.336 146.418 272.916 145.833C289.713 143.688 284.176 145.747 296.195 145.314C294.365 143.936 294.502 144.075 290.561 143.935C287.722 143.834 286.42 143.949 283.605 143.292L283.345 124.942L278.461 124.794C268.254 123.38 245.912 133.857 236.544 137.936C237.241 165.204 211.267 181.678 189.98 193.557C188.066 194.625 186.731 194.907 185.284 195.875C183.714 204.305 183.654 215.389 183.862 224.064Z" fill="#FEBD45"/>
<path fill-rule="evenodd" clip-rule="evenodd" d="M282.224 184.942C293.51 183.967 302.417 190.853 304.9 200.032C307.032 207.917 305.135 226.039 305.614 235.421C310.021 236.09 314.132 235.409 318.315 235.852C321.254 236.164 323.881 238.311 325.109 240.99C326.798 244.669 325.93 283.218 325.93 290.362C325.93 295.921 327.436 307.772 322.049 311.088C310.145 313.976 267.585 311.88 252.525 311.864C255.813 314.468 263.43 313.335 270.135 313.333C273.856 313.332 284.165 314.124 285.279 313.817C282.673 316.475 283.75 319.574 283.757 324.639C283.767 332.185 282.394 354.064 285.751 359.563C302.4 354.11 327.596 320.769 337.298 305.655C337.408 305.484 337.549 305.249 337.656 305.079L343.811 292.805C348.184 284.164 350.073 278.486 352.544 268.076C354.528 259.722 361.598 223.108 353.363 217.318C351.825 216.237 351.582 216.213 349.847 215.346L337.96 208.629C326.141 201.15 312.59 191.85 312.492 176.61C305.451 172.484 302.811 171.308 294.151 169.893L283.624 169.822C283.769 172.813 283.646 175.428 283.667 178.356C283.698 182.352 281.922 182.116 285.678 182.904C278.99 184.047 284.554 182.81 282.224 184.942Z" fill="#FDCD81"/>
<path fill-rule="evenodd" clip-rule="evenodd" d="M285.764 359.577C282.406 354.077 283.779 332.198 283.77 324.652C283.763 319.587 282.685 316.488 285.291 313.831C284.177 314.137 273.868 313.345 270.147 313.346C263.443 313.349 255.825 314.481 252.538 311.877C244.73 308.868 246.027 302.883 246.032 294.08L246.24 243.13C247.909 233.219 256.803 236.877 264.184 235.281C269.35 220.994 256.457 197.037 275.99 187.038C278.685 185.659 280.435 185.805 282.236 184.955C284.567 182.823 279.002 184.06 285.69 182.917C281.935 182.129 283.71 182.365 283.679 178.369C283.658 175.441 283.782 172.826 283.637 169.835L294.163 169.907C287.866 166.326 281.51 169.964 276.531 170.773C274.954 171.029 273.806 170.756 272.224 171.158L262.122 175.501C259.157 178.585 264.499 179.655 256.502 191.444C251.331 199.068 242.103 204.878 234.263 209.278L217.695 219.279C216.025 222.357 217.739 252.018 219.29 258.784C220.11 262.355 219.385 258.374 220.319 261.275C221.432 264.741 220.885 268.343 223.986 277.199L227.567 286.641C233.658 301.052 229.545 295.72 237.801 306.904L245.711 320.757C246.972 323.475 246.531 322.095 248.462 323.966L278.153 352.939C280.454 354.363 280.154 353.514 281.656 355.57C283.814 358.526 282.227 358.16 285.764 359.577Z" fill="#FEBD45"/>
<path fill-rule="evenodd" clip-rule="evenodd" d="M385.949 262.715C385.032 264.284 379.053 287.028 379.3 289.233C388.464 287.994 405.586 289.022 415.686 289C427.902 288.975 436.41 290.307 440.312 300.844C443.261 308.81 441.643 360.293 441.645 372.964L452.767 372.908L454.698 374.705C453.812 370.394 452.851 369.722 453.429 364.454C453.768 361.364 455.09 357.504 456.56 355.279C459.843 350.313 464.901 347.107 471.013 346.961C477.583 336.517 478.482 319.054 475.287 306.03C469.588 282.805 448.592 262.586 424.954 259.797C412.967 258.382 394.612 259.952 386.281 266.589L385.949 262.715Z" fill="#DFCCFF"/>
<path fill-rule="evenodd" clip-rule="evenodd" d="M203.955 391.716C203.029 385.438 208.48 384.441 208.138 391.483L203.955 391.716ZM220.078 370.579C208.892 372.895 212.195 358.474 221.006 363.853C222.394 367.262 221.802 368.136 220.078 370.579ZM148.822 323.204L193.194 323.176C197.468 327.784 196.156 330.519 196.154 340.389L196.134 404.246C210.329 404.854 232.476 389.039 243.099 378.203C245.166 376.094 247.639 375.824 246.704 371.197C242.343 364.98 237.934 361.532 233.096 355.174C223.31 342.308 217.657 334.706 209.411 319.613C206.568 314.409 202.031 306.467 199.951 300.166C199.28 302.464 200.842 300.344 198.756 301.88L148.961 302.028L148.822 323.204Z" fill="#7272EC"/>
<path fill-rule="evenodd" clip-rule="evenodd" d="M346.156 456.195C343.958 451.614 346.41 450.757 350.932 451.691L350.791 456.167C347.954 457.592 348.721 457.511 346.156 456.195ZM386.668 447.536C393.927 442.101 397.957 457.727 386.353 453.705L386.668 447.536ZM344.985 398.964C345.443 402.896 344.93 404.995 340.762 403.387C338.613 399.454 340.3 397.883 344.985 398.964ZM330.948 412.613C345.461 413.251 343.911 426.442 339.256 430.799C334.608 435.15 316.166 433.172 308.148 433.172C285.852 433.172 263.559 433.136 241.258 433.136C247.131 435.563 315.287 433.34 328.63 434.174L329.461 442.442L332.165 443.222C332.487 447.03 333.165 445.691 330.691 447.551C330.01 453.326 332.125 459.208 333.193 464.429L429.992 464.58L429.966 439.771C417.902 439.602 357.582 441.717 351.027 439.205L350.57 382.088C345.011 384.557 338.904 392.44 335.477 399.176C333.265 403.526 330.943 407.881 330.948 412.613Z" fill="#7272EC"/>
<path fill-rule="evenodd" clip-rule="evenodd" d="M262.724 417.494L264.301 421.178C264.392 421.369 264.556 421.577 264.642 421.774C264.98 422.529 265.205 421.229 265.533 424.635C265.614 425.478 265.434 427.678 265.408 428.614L258.085 428.704C257 424.832 258.433 420.118 259.504 418.594C261.132 416.28 259.817 417.496 262.724 417.494ZM294.228 423.765C296.941 426.345 295.727 423.955 296.171 427.471L295.108 426.905C293.07 424.267 293.405 425.686 292.548 422.673L294.228 423.765ZM287.209 421.996L291.347 422.616L291.353 427.323C290.874 427.487 288.834 428.16 288.697 428.227L285.481 430.699L285.417 422.127C287.931 424.927 285.889 421.117 287.099 424.68C287.109 424.714 287.28 427.064 287.324 427.443C288.779 426.938 290.46 428.046 290.014 424.849C289.543 421.477 290.331 424.963 289.262 423.533C289.106 423.323 288.819 423.148 288.642 422.969L287.209 421.996ZM278.483 428.1L276.708 420.194L278.929 421.191C282.73 422.294 274.822 421.394 280.464 421.634C283.236 421.751 279.959 421.945 282.786 420.396C285.034 424.572 281.693 423.113 284.36 428.404C279.392 426.973 283.437 426.513 280.337 422.64C275.663 426.252 282.682 426.858 278.483 428.1ZM271.067 427.986C269.475 425.811 270.105 422.2 270.124 418.879L275.693 422.838L275.62 428.364C273.335 425.013 275.471 425.522 272.921 423.016C270.761 425.807 272.534 424.906 271.067 427.986ZM241.258 433.133C263.559 433.133 285.853 433.17 308.149 433.17C316.167 433.17 334.609 435.147 339.257 430.796C343.911 426.439 345.461 413.249 330.948 412.61C310.408 412.833 289.765 412.642 269.212 412.642C261.888 412.642 245 410.843 239.694 413.786C235.942 415.866 234.182 419.322 234.504 423.761C234.917 429.47 237.644 430.335 241.258 433.133Z" fill="#30130D"/>
<path fill-rule="evenodd" clip-rule="evenodd" d="M114.951 141.148C121.6 139.247 152.022 140.291 163.205 140.234C169.226 140.203 167.766 140.952 168.933 141.79L168.464 146.568C164.431 149.014 131.618 147.757 125.791 147.736C118.317 147.708 117.285 148.899 114.252 144.897L114.951 141.148ZM100.64 155.327C105.596 156.979 162.771 156.866 170.464 156.007L170.376 168L137.635 167.872C135.542 169.436 137.068 167.409 136.539 170.857L137.29 171.497L170.35 171.618L170.415 185.691L159.102 185.859C163.061 187.676 173.603 189.096 178.534 188.262C177.946 178.797 178.639 166.691 178.823 156.966C179.048 145.12 180.014 136.84 168.486 134.699L88.1836 134.594C89.2228 143.165 96.1065 151.239 100.64 155.327Z" fill="#30130D"/>
<path fill-rule="evenodd" clip-rule="evenodd" d="M462.426 383.807L462.642 435.428C471.946 435.368 480.576 429.643 486.653 423.359L489.825 419.956C491.317 418.232 491.325 418.364 492.651 416.342L495.324 411.543C498.373 405.713 500.31 397.265 499.938 388.537C499.704 383.052 496.649 370.894 492.693 368.67C491.667 375.739 488.622 380.356 483.001 383.648C475.794 387.87 469.732 386.101 462.426 383.807Z" fill="#DFCCFF"/>
<path fill-rule="evenodd" clip-rule="evenodd" d="M373.203 301.962L430.786 302.008L430.794 372.813L441.634 372.973C441.631 360.302 443.249 308.819 440.3 300.852C436.399 290.316 427.89 288.984 415.674 289.009C405.574 289.03 388.453 288.002 379.289 289.241C379.071 289.443 378.736 289.429 378.639 289.851C378.546 290.257 378.159 290.294 378.04 290.464L373.203 301.962Z" fill="#30130D"/>
<path fill-rule="evenodd" clip-rule="evenodd" d="M165.005 178.209C165.204 173.92 164.725 174.911 168.17 174.528C169.041 176.154 169.283 176.557 169.186 179.232C169.015 183.944 169.135 182.054 167.244 183.257C165.042 182.083 164.787 182.927 165.005 178.209ZM159.239 174.811C162.168 174.519 162.352 174.119 162.558 178.24C162.756 182.203 162.765 181.726 160.755 183.35C160.65 183.296 155.768 183.503 159.239 174.811ZM153.338 183.363C151.189 181.744 151.172 182.133 151.299 178.226C151.454 173.412 151.901 174.84 154.826 174.354C158.548 183.299 153.359 183.352 153.338 183.363ZM160.347 185.862L171.858 185.695L171.792 171.621L138.155 171.5L57.123 171.838L57.1801 185.686L160.347 185.862Z" fill="#FEFEFA"/>
<path fill-rule="evenodd" clip-rule="evenodd" d="M129.487 211.852L96.311 211.672C92.6518 219.375 88.7135 225.565 93.9499 235.633C100.671 248.559 116.425 249.455 124.233 243.658C130.87 238.729 134.481 232.664 133.512 223.88C132.916 218.468 130.59 216.349 129.487 211.852Z" fill="#DFCCFF"/>
<path fill-rule="evenodd" clip-rule="evenodd" d="M454.698 374.71C455.921 376.624 456.596 377.914 458.056 379.774C459.854 382.064 460.991 381.827 462.424 383.81C469.73 386.104 475.792 387.873 482.999 383.651C488.62 380.359 491.665 375.742 492.691 368.673C492.902 360.673 491.517 357.525 486.991 352.586C483.031 348.266 478.077 346.495 471.013 346.966C464.901 347.112 459.843 350.318 456.56 355.284C455.09 357.509 453.768 361.369 453.43 364.46C452.851 369.727 453.812 370.399 454.698 374.71Z" fill="#58DBE2"/>
<path fill-rule="evenodd" clip-rule="evenodd" d="M101.7 358.005C100.49 359.246 102.272 358.203 99.3936 359.779C94.0325 362.713 84.3626 368.172 84.2402 375.153C98.7297 375.999 118.967 375.256 134.731 375.466C134.557 368.195 125.009 361.658 117.894 359.174C119.633 354.245 123.851 352.705 121.412 344.528C116.845 329.221 87.3507 337.66 101.7 358.005Z" fill="#FCFCFE"/>
<path fill-rule="evenodd" clip-rule="evenodd" d="M136.151 167.653L135.055 163.933C134.85 163.327 134.245 161.657 133.865 160.854C127.526 159.534 109.303 165.115 105.165 157.031L170.87 156.961L170.711 167.117L136.151 167.653ZM136.151 167.653C133.564 170.26 137.339 170.821 137.384 170.859C137.922 167.411 136.37 169.438 138.499 167.874L171.812 168.002L171.901 156.009C164.074 156.868 105.9 156.981 100.857 155.329L55.9983 155.131C56.11 159.93 54.9639 164.248 55.8831 167.843L63.2169 169.308C76.9119 168.234 125.336 169.867 133.132 169.067C138.434 168.523 135.167 169.483 136.151 167.653Z" fill="#8588E9"/>
<path fill-rule="evenodd" clip-rule="evenodd" d="M138.244 304.254L138.143 323.038L148.823 323.202L148.962 302.026L198.757 301.878C200.843 300.342 199.281 302.462 199.952 300.164C199.181 298.102 198.452 296.377 197.701 294.351C197.51 293.834 196.847 291.956 196.665 291.611C195.179 288.82 196.089 290.522 194.699 289.174C183.998 288.336 169.899 288.888 158.895 288.987C147.107 289.094 140.72 293.898 138.244 304.254Z" fill="#2D120B"/>
<path fill-rule="evenodd" clip-rule="evenodd" d="M282.907 235.825L297.5 235.669C298.667 226.885 300.859 200.472 293.401 195.008C292.498 194.347 289.583 192.791 288.288 192.396C287.444 192.138 285.995 191.781 284.95 191.829C280.763 192.021 282.288 192.276 281.223 193.412L283.705 194.03C283.771 201.425 283.761 208.853 283.759 216.263L282.907 235.825Z" fill="#FDCD81"/>
<path fill-rule="evenodd" clip-rule="evenodd" d="M136.154 167.653L170.714 167.117L170.873 156.961L105.168 157.031C109.306 165.115 127.529 159.534 133.868 160.854C134.248 161.657 134.852 163.327 135.058 163.933L136.154 167.653Z" fill="#30130D"/>
<path fill-rule="evenodd" clip-rule="evenodd" d="M330.689 447.557C333.162 445.697 332.484 447.035 332.162 443.227L329.458 442.447C320.071 441.733 249.669 441.336 246.035 443.296C243.559 449.977 255.999 447.67 261.794 447.67C269.534 447.67 277.259 447.503 284.97 447.63C300.165 447.879 315.477 447.557 330.689 447.557Z" fill="#D5D4FB"/>
<path fill-rule="evenodd" clip-rule="evenodd" d="M282.905 235.827L283.757 216.266C283.759 208.855 283.769 201.428 283.703 194.032L281.221 193.414C267.587 193.527 273.228 220.811 271.875 235.575L282.905 235.827Z" fill="#FEBD45"/>
<path fill-rule="evenodd" clip-rule="evenodd" d="M181.693 388.005C156.17 386.243 115.958 387.249 88.907 387.265C81.2252 387.265 81.6278 391.386 86.5578 391.895C90.1671 392.267 96.5757 391.87 100.495 391.87L171.878 391.872C177.353 391.883 182.204 393.578 181.693 388.005Z" fill="#F4FDFE"/>
<path fill-rule="evenodd" clip-rule="evenodd" d="M106.051 401.742C94.816 401.742 83.9216 399.707 83.1816 405.02C86.7327 407.119 175.073 406.908 181.664 405.667C182.204 400.075 178.078 401.698 172.8 401.739L106.051 401.742Z" fill="#F8F7F9"/>
<path fill-rule="evenodd" clip-rule="evenodd" d="M280.235 279.255C279.102 283.965 276.638 285.128 275.347 289.866L294.355 289.878C292.655 285.287 290.475 283.629 289.386 279.255C305.272 263.052 279.258 253.439 275.597 267.276C273.802 274.066 277.088 276.071 280.235 279.255Z" fill="#30130D"/>
<path fill-rule="evenodd" clip-rule="evenodd" d="M148.747 424.499L138.28 424.471L138.252 464.426L148.42 464.495L148.747 424.499Z" fill="#2D120B"/>
<path fill-rule="evenodd" clip-rule="evenodd" d="M441.613 464.548L441.794 439.266L431.141 439.345L431.139 464.47L441.613 464.548Z" fill="#30130D"/>
<path fill-rule="evenodd" clip-rule="evenodd" d="M139.327 358.922C139.44 362.265 138.629 362.043 142.166 362.487L176.515 362.409C181.699 362.435 185.853 363.835 185.343 358.547C179.457 357.145 143.422 356.877 139.327 358.922Z" fill="#F8F7F9"/>
<path fill-rule="evenodd" clip-rule="evenodd" d="M139.553 344.105L139.311 347.46C144.417 348.848 180.111 349.011 185.256 347.207C185.869 342.182 182.531 343.571 177.448 343.607C169.286 343.667 144.11 342.95 139.553 344.105Z" fill="#F4FDFE"/>
<path fill-rule="evenodd" clip-rule="evenodd" d="M185.166 372.82C182.623 371.2 184.055 371.647 180.258 371.518C178.56 371.46 176.416 371.583 174.654 371.588C165.611 371.61 146.195 371.121 139.285 371.989C139.352 377.837 141.684 376.119 147.766 376.098L174.654 376.092C180.419 376.099 184.612 378.088 185.166 372.82Z" fill="#F4FDFE"/>
<path fill-rule="evenodd" clip-rule="evenodd" d="M213.756 425.656C203.667 423.979 202.072 433.467 207.523 436.414C213.875 439.847 220.576 432.26 213.756 425.656Z" fill="#F8F7F9"/>
<path fill-rule="evenodd" clip-rule="evenodd" d="M469.855 370.566C466.296 368.449 463.927 364.791 462.386 366.627C459.75 369.769 468.857 375.716 470.377 375.139C472.447 374.352 485.205 358.629 483.546 357.105C481.926 355.964 482.127 355.86 476.683 362.404C474.361 365.195 472.202 367.996 469.855 370.566Z" fill="#EAFDFD"/>
<path fill-rule="evenodd" clip-rule="evenodd" d="M262.437 419.996C262.596 422.455 262.191 420.922 261.79 421.574C260.296 420.472 261.081 423.355 260.69 420.017C260.268 416.42 260.619 419.489 261.79 418.242C262.322 419.193 262.319 418.192 262.437 419.996ZM259.498 418.601C258.426 420.125 256.993 424.839 258.078 428.711L265.401 428.621C265.428 427.685 265.607 425.485 265.526 424.642C265.198 421.236 264.973 422.536 264.635 421.781C264.549 421.584 264.385 421.376 264.294 421.185L262.717 417.501C259.81 417.503 261.125 416.287 259.498 418.601Z" fill="#F8F7F9"/>
<path fill-rule="evenodd" clip-rule="evenodd" d="M198.358 453.747C196.621 452.849 195.222 452.477 192.561 452.897C185.296 462.671 202.465 465.603 198.358 453.747Z" fill="#F8F7F9"/>
<path fill-rule="evenodd" clip-rule="evenodd" d="M220.081 370.581C221.804 368.139 222.397 367.265 221.008 363.855C212.197 358.477 208.894 372.898 220.081 370.581Z" fill="#F8F7F9"/>
<path fill-rule="evenodd" clip-rule="evenodd" d="M386.664 447.534L386.35 453.704C397.953 457.726 393.923 442.1 386.664 447.534Z" fill="#F8F7F9"/>
<path fill-rule="evenodd" clip-rule="evenodd" d="M123.215 194.934C122.627 197.188 123.308 198.7 123.668 201.32L128.291 200.508C129.323 197.285 129.612 196.099 127.905 192.348L124.517 192.573C123.858 193.539 124.093 191.561 123.215 194.934Z" fill="#BFB4FA"/>
<path fill-rule="evenodd" clip-rule="evenodd" d="M132.935 201.136C134.061 199.806 133.839 200.889 134.57 198.671C136.214 193.685 132.936 192.161 132.935 192.16C129.367 192.549 129.179 192.661 129.173 196.636C129.163 203.351 128.325 200.543 132.935 201.136Z" fill="#B2B1F1"/>
<path fill-rule="evenodd" clip-rule="evenodd" d="M98.5395 192.381C97.7509 193.472 97.663 192.686 97.0489 194.909C95.3708 200.995 99.5608 201.177 99.5668 201.18C104.363 199.396 103.76 195.845 101.41 192.402L98.5395 192.381Z" fill="#BFB4FA"/>
<path fill-rule="evenodd" clip-rule="evenodd" d="M119.957 201.157C121.298 200.163 121.551 203.201 122.968 198.534C124.526 193.399 119.204 188.421 117.43 194.912C116.016 200.088 119.948 201.15 119.957 201.157Z" fill="#BFB4FA"/>
<path fill-rule="evenodd" clip-rule="evenodd" d="M379.869 332.411C377.368 339.42 383.073 340.369 385.504 337.964C387.915 335.581 387.008 330.07 379.869 332.411Z" fill="#F8F7F9"/>
<path fill-rule="evenodd" clip-rule="evenodd" d="M106.77 192.215C101.842 192.541 102.956 196.323 103.28 201.031C106.181 200.797 108.006 201.763 108.778 197.797C109.555 193.806 106.943 192.417 106.77 192.215Z" fill="#BFB4FA"/>
<path fill-rule="evenodd" clip-rule="evenodd" d="M70.5826 200.997C71.2275 196.883 72.6587 192.305 67.2382 192.193C63.0849 196.763 66.5683 200.202 66.5707 200.198C66.6432 200.062 66.9401 200.664 67.1158 200.933L70.5826 200.997Z" fill="#BFB4FA"/>
<path fill-rule="evenodd" clip-rule="evenodd" d="M89.3922 192.357C84.7508 192.097 85.1047 197.188 85.9646 200.936C93.2082 200.531 91.9635 195.755 89.3922 192.357Z" fill="#BFB4FA"/>
<path fill-rule="evenodd" clip-rule="evenodd" d="M404.26 359.318C406.958 359.821 409.809 360.381 410.379 356.977C411.087 352.764 407.992 352.968 404.553 353.2C403.811 355.638 403.653 356.728 404.26 359.318Z" fill="#F8F7F9"/>
<path fill-rule="evenodd" clip-rule="evenodd" d="M252.019 402.834C253.656 397.439 251.004 395.794 248.023 396.794C245.014 397.804 244.022 404.622 252.019 402.834Z" fill="#F8F7F9"/>
<path fill-rule="evenodd" clip-rule="evenodd" d="M153.336 183.352C153.358 183.341 158.547 183.288 154.824 174.344C151.899 174.829 151.453 173.401 151.297 178.215C151.17 182.122 151.188 181.733 153.336 183.352Z" fill="#2D120B"/>
<path fill-rule="evenodd" clip-rule="evenodd" d="M159.235 174.812C155.763 183.503 160.646 183.297 160.75 183.35C162.761 181.726 162.751 182.203 162.553 178.241C162.348 174.12 162.163 174.52 159.235 174.812Z" fill="#30130D"/>
<path fill-rule="evenodd" clip-rule="evenodd" d="M167.24 183.263C169.13 182.059 169.01 183.95 169.181 179.238C169.279 176.563 169.037 176.159 168.166 174.533C164.721 174.917 165.199 173.926 165.001 178.215C164.782 182.933 165.038 182.089 167.24 183.263Z" fill="#280B07"/>
<path fill-rule="evenodd" clip-rule="evenodd" d="M278.485 428.111C282.683 426.869 275.664 426.263 280.338 422.651C283.438 426.524 279.393 426.984 284.361 428.415C281.695 423.124 285.036 424.583 282.787 420.407C279.961 421.956 283.238 421.762 280.466 421.645C274.823 421.405 282.732 422.305 278.93 421.202L276.709 420.205L278.485 428.111Z" fill="#D2CBCD"/>
<path fill-rule="evenodd" clip-rule="evenodd" d="M346.155 456.2C348.72 457.516 347.953 457.597 350.79 456.172L350.931 451.696C346.409 450.762 343.957 451.619 346.155 456.2Z" fill="#F8F7F9"/>
<path fill-rule="evenodd" clip-rule="evenodd" d="M271.068 427.991C272.535 424.912 270.762 425.812 272.922 423.022C275.472 425.528 273.335 425.018 275.621 428.37L275.694 422.844L270.125 418.885C270.106 422.206 269.476 425.817 271.068 427.991Z" fill="#D0B7B1"/>
<path fill-rule="evenodd" clip-rule="evenodd" d="M407.543 319.881L411.439 320.694C413.117 316.745 412.613 319.215 412.113 315.201L408.258 315.162C406.581 317.948 406.816 316.491 407.543 319.881Z" fill="#F8F7F9"/>
<path fill-rule="evenodd" clip-rule="evenodd" d="M288.64 422.965C288.817 423.145 289.103 423.319 289.26 423.529C290.329 424.959 289.54 421.474 290.011 424.845C290.457 428.043 288.776 426.934 287.321 427.44C287.278 427.06 287.106 424.71 287.096 424.677C285.887 421.114 287.928 424.924 285.414 422.124L285.478 430.695L288.694 428.223C288.831 428.157 290.871 427.484 291.35 427.32L291.344 422.613L287.206 421.992L288.64 422.965Z" fill="#DCD0DC"/>
<path fill-rule="evenodd" clip-rule="evenodd" d="M340.772 403.395C344.94 405.003 345.453 402.904 344.994 398.972C340.31 397.89 338.623 399.462 340.772 403.395Z" fill="#F8F7F9"/>
<path fill-rule="evenodd" clip-rule="evenodd" d="M282.706 452.018C281.796 454.142 281.983 449.662 282.059 454.332C282.097 456.632 282.048 454.976 282.567 456.617L286.928 456.37L284.968 451.395C280.783 451.8 284.351 451.304 282.706 452.018Z" fill="#F8F7F9"/>
<path fill-rule="evenodd" clip-rule="evenodd" d="M203.954 391.732L208.137 391.498C208.479 384.457 203.028 385.453 203.954 391.732Z" fill="#F8F7F9"/>
<path fill-rule="evenodd" clip-rule="evenodd" d="M220.77 405.017C219.302 408.546 219.958 409.21 224.205 408.408L224.639 404.911C222.537 404.541 223.144 403.852 220.77 405.017Z" fill="#EDE9F4"/>
<path fill-rule="evenodd" clip-rule="evenodd" d="M161.675 448.108C163.602 445.462 162.167 451.704 162.565 446.708C162.678 445.298 162.398 445.012 162.209 444.485C158.04 443.636 156.87 447.067 161.675 448.108Z" fill="#F8F7F9"/>
<path fill-rule="evenodd" clip-rule="evenodd" d="M292.547 422.684C293.404 425.696 293.069 424.278 295.107 426.915L296.17 427.481C295.726 423.965 296.94 426.356 294.227 423.775L292.547 422.684Z" fill="#D2CBCD"/>
<path fill-rule="evenodd" clip-rule="evenodd" d="M261.787 421.576C262.189 420.924 262.594 422.457 262.434 419.998C262.317 418.194 262.319 419.195 261.787 418.244C260.616 419.491 260.266 416.422 260.687 420.019C261.078 423.357 260.293 420.474 261.787 421.576Z" fill="#38262B"/>
<path d="M431.668 129.591H426.35V127.963C426.35 127.202 426.28 126.716 426.145 126.507C426.01 126.298 425.788 126.196 425.472 126.196C425.129 126.196 424.869 126.335 424.692 126.618C424.516 126.896 424.428 127.319 424.428 127.89C424.428 128.622 424.53 129.174 424.73 129.545C424.925 129.912 425.463 130.362 426.35 130.89C428.888 132.407 430.49 133.655 431.149 134.624C431.813 135.593 432.142 137.156 432.142 139.309C432.142 140.876 431.957 142.032 431.59 142.779C431.223 143.52 430.517 144.142 429.464 144.643C428.415 145.149 427.194 145.399 425.797 145.399C424.265 145.399 422.961 145.107 421.875 144.527C420.794 143.948 420.087 143.209 419.749 142.315C419.415 141.415 419.248 140.139 419.248 138.493V137.05H424.567V139.726C424.567 140.552 424.641 141.08 424.789 141.318C424.939 141.554 425.202 141.67 425.584 141.67C425.964 141.67 426.248 141.522 426.433 141.22C426.618 140.924 426.712 140.477 426.712 139.893C426.712 138.599 426.535 137.75 426.182 137.356C425.815 136.957 424.925 136.289 423.504 135.352C422.084 134.411 421.147 133.724 420.682 133.297C420.223 132.871 419.838 132.282 419.535 131.531C419.233 130.778 419.08 129.818 419.08 128.65C419.08 126.966 419.294 125.732 419.726 124.953C420.157 124.173 420.849 123.566 421.809 123.126C422.771 122.685 423.927 122.467 425.287 122.467C426.771 122.467 428.034 122.708 429.084 123.186C430.128 123.668 430.819 124.271 431.157 125.004C431.497 125.732 431.668 126.971 431.668 128.719V129.591Z" fill="#FEFEFE"/>
<path d="M447.916 129.591H442.597V127.963C442.597 127.202 442.527 126.716 442.392 126.507C442.258 126.298 442.035 126.196 441.72 126.196C441.376 126.196 441.116 126.335 440.94 126.618C440.763 126.896 440.675 127.319 440.675 127.89C440.675 128.622 440.777 129.174 440.977 129.545C441.171 129.912 441.711 130.362 442.597 130.89C445.136 132.407 446.737 133.655 447.396 134.624C448.06 135.593 448.39 137.156 448.39 139.309C448.39 140.876 448.204 142.032 447.837 142.779C447.471 143.52 446.765 144.142 445.711 144.643C444.662 145.149 443.441 145.399 442.044 145.399C440.512 145.399 439.208 145.107 438.123 144.527C437.041 143.948 436.335 143.209 435.997 142.315C435.662 141.415 435.496 140.139 435.496 138.493V137.05H440.814V139.726C440.814 140.552 440.889 141.08 441.037 141.318C441.186 141.554 441.451 141.67 441.831 141.67C442.212 141.67 442.494 141.522 442.68 141.22C442.866 140.924 442.959 140.477 442.959 139.893C442.959 138.599 442.783 137.75 442.429 137.356C442.063 136.957 441.171 136.289 439.751 135.352C438.332 134.411 437.393 133.724 436.929 133.297C436.469 132.871 436.085 132.282 435.783 131.531C435.481 130.778 435.328 129.818 435.328 128.65C435.328 126.966 435.542 125.732 435.973 124.953C436.405 124.173 437.097 123.566 438.057 123.126C439.018 122.685 440.174 122.467 441.534 122.467C443.019 122.467 444.282 122.708 445.331 123.186C446.375 123.668 447.067 124.271 447.405 125.004C447.744 125.732 447.916 126.971 447.916 128.719V129.591Z" fill="#FEFEFE"/>
<path d="M457.783 122.91V140.527H461.235V144.924H452.045V122.91H457.783Z" fill="#FEFEFE"/>
<path d="M449.898 465.801H121.225C115.689 465.801 111.201 470.286 111.201 475.818V475.819C111.201 481.351 115.689 485.836 121.225 485.836H449.898C455.434 485.836 459.922 481.351 459.922 475.819V475.818C459.922 470.286 455.434 465.801 449.898 465.801Z" fill="#9082AD"/>
<path d="M387.755 480.598C390.393 480.598 392.532 478.461 392.532 475.824C392.532 473.188 390.393 471.051 387.755 471.051C385.117 471.051 382.979 473.188 382.979 475.824C382.979 478.461 385.117 480.598 387.755 480.598Z" fill="#30130D"/>
<path d="M408.365 480.598C411.003 480.598 413.141 478.461 413.141 475.824C413.141 473.188 411.003 471.051 408.365 471.051C405.727 471.051 403.588 473.188 403.588 475.824C403.588 478.461 405.727 480.598 408.365 480.598Z" fill="#30130D"/>
<path d="M428.98 480.598C431.618 480.598 433.757 478.461 433.757 475.824C433.757 473.188 431.618 471.051 428.98 471.051C426.342 471.051 424.203 473.188 424.203 475.824C424.203 478.461 426.342 480.598 428.98 480.598Z" fill="#30130D"/>
<path d="M166.193 139.379H118.163C115.467 139.379 113.281 141.563 113.281 144.257V144.258C113.281 146.952 115.467 149.136 118.163 149.136H166.193C168.889 149.136 171.074 146.952 171.074 144.258V144.257C171.074 141.563 168.889 139.379 166.193 139.379Z" fill="#927FFC"/>
<path d="M76.5865 246.133C80.3266 246.133 83.3585 243.103 83.3585 239.365C83.3585 235.628 80.3266 232.598 76.5865 232.598C72.8464 232.598 69.8145 235.628 69.8145 239.365C69.8145 243.103 72.8464 246.133 76.5865 246.133Z" fill="#DFCCFF"/>
<path d="M54.748 305.131C57.7154 305.131 60.121 302.727 60.121 299.762C60.121 296.797 57.7154 294.393 54.748 294.393C51.7806 294.393 49.375 296.797 49.375 299.762C49.375 302.727 51.7806 305.131 54.748 305.131Z" fill="#DFCCFF"/>
<path d="M469.062 237.957C476.202 237.957 481.991 232.173 481.991 225.037C481.991 217.902 476.202 212.117 469.062 212.117C461.921 212.117 456.133 217.902 456.133 225.037C456.133 232.173 461.921 237.957 469.062 237.957Z" fill="#DFCCFF"/>
<path d="M427.234 248.709C429.768 248.709 431.822 246.656 431.822 244.124C431.822 241.592 429.768 239.539 427.234 239.539C424.701 239.539 422.646 241.592 422.646 244.124C422.646 246.656 424.701 248.709 427.234 248.709Z" fill="#DFCCFF"/>
<path d="M493.248 338.831C497.113 338.831 500.245 335.701 500.245 331.839C500.245 327.978 497.113 324.848 493.248 324.848C489.384 324.848 486.252 327.978 486.252 331.839C486.252 335.701 489.384 338.831 493.248 338.831Z" fill="#DFCCFF"/>
</svg>
