<svg width="63" height="24" viewBox="0 0 63 24" fill="none" xmlns="http://www.w3.org/2000/svg">
<path d="M1 19.1073C1.807 20.0072 2.79 20.7442 3.894 21.2782C6.13525 22.3563 8.7037 22.5373 11.074 21.7843C12.2401 21.4146 13.3239 20.8235 14.266 20.0432C15.1954 19.2736 15.9626 18.3269 16.523 17.2582C17.0775 16.2038 17.4102 15.0471 17.5006 13.8592C17.5911 12.6713 17.4374 11.4775 17.049 10.3512C16.6572 9.2171 16.0417 8.17314 15.239 7.28125L1 19.1073Z" fill="#00D1C1"/>
<path d="M17.5291 5.13438C16.767 4.23745 15.8352 3.49999 14.7871 2.96438C13.7443 2.43076 12.6054 2.1111 11.4372 2.0242C10.2691 1.93731 9.09536 2.08493 7.98511 2.45838C6.87193 2.83261 5.84408 3.42403 4.96111 4.19838C4.07346 4.97798 3.34741 5.92419 2.82411 6.98338C1.76269 9.13239 1.58396 11.6113 2.32611 13.8904C2.69211 15.0156 3.27434 16.0584 4.04011 16.9604L17.5291 5.13438Z" fill="#00D1C1"/>
<path fill-rule="evenodd" clip-rule="evenodd" d="M5.01243 5.2986C6.40701 3.86602 8.28746 3.00754 10.2834 2.89223C12.2794 2.77692 14.2462 3.41315 15.7964 4.6756L14.8754 5.8036C13.6076 4.7717 11.9994 4.25176 10.3674 4.34615C8.73541 4.44054 7.19787 5.14241 6.05743 6.3136C4.91836 7.48384 4.25976 9.03882 4.2118 10.6712C4.16385 12.3036 4.73003 13.8945 5.79843 15.1296L4.69543 16.0806C3.38899 14.5702 2.69671 12.6246 2.7554 10.6284C2.8141 8.63221 3.6195 6.73067 5.01243 5.2996V5.2986ZM13.6834 18.2236C12.3819 19.5612 10.6267 20.3628 8.76352 20.4705C6.90036 20.5782 5.06442 19.9842 3.61743 18.8056L4.47743 17.7526C5.66068 18.7159 7.16168 19.2012 8.68489 19.1131C10.2081 19.025 11.6431 18.3698 12.7074 17.2766C13.7706 16.1845 14.3853 14.7332 14.4301 13.2097C14.4749 11.6862 13.9465 10.2013 12.9494 9.0486L13.9794 8.1606C15.199 9.57038 15.8453 11.3864 15.7905 13.2497C15.7357 15.113 14.9838 16.8879 13.6834 18.2236Z" fill="white"/>
<path d="M25.6278 8.78453C25.6278 8.02153 26.3238 7.62453 27.0658 7.62453C27.8238 7.62453 28.4567 7.97553 28.9207 8.60153L30.8377 7.57853C30.0647 6.22153 28.6118 5.51953 27.0658 5.51953C25.1638 5.51953 23.3237 6.73953 23.3237 8.78453C23.3237 12.5675 28.5497 11.7445 28.5497 13.9405C28.5497 14.7035 27.8848 15.1765 27.0198 15.1765C26.1068 15.1765 25.3337 14.7485 24.8857 13.9705L22.9688 15.1005C23.7418 16.5185 25.3338 17.2805 26.9578 17.2805C29.1218 17.2805 30.9468 16.0305 30.9468 13.7425C30.9468 10.1425 25.6278 10.6605 25.6278 8.78453ZM31.8598 9.30253V17.1285H34.0717V9.30253H31.8598ZM31.7528 7.22853C31.7528 7.89853 32.2927 8.40253 32.9737 8.40253C33.6387 8.40253 34.1947 7.89953 34.1947 7.22853C34.1947 6.57253 33.6387 6.05353 32.9737 6.05353C32.2937 6.05353 31.7528 6.57253 31.7528 7.22853ZM45.9988 9.45553C45.5968 9.25753 45.1487 9.18053 44.6687 9.18053C43.5867 9.18053 42.7368 9.56253 42.0868 10.3855C41.5918 9.60753 40.7727 9.18053 39.8137 9.18053C38.9487 9.18053 37.6957 9.41553 37.2937 10.4925V9.30253H35.4698V17.1285H37.6957V13.0555C37.6957 12.0945 38.0828 11.0115 39.2418 11.0115C40.1077 11.0115 40.3718 11.5915 40.3718 12.7045V17.1285H42.5818V13.0555C42.5818 12.0945 42.9527 11.0115 44.1277 11.0115C44.9937 11.0115 45.2568 11.5915 45.2568 12.7045V17.1285H47.4828V12.5525C47.4828 11.0725 47.2198 10.0655 45.9988 9.45553ZM53.2997 17.2815C55.5257 17.2815 56.8717 15.5875 56.8717 13.1615C56.8717 10.8895 55.5257 9.18153 53.3458 9.18153C52.4338 9.18153 51.2357 9.30253 50.7027 10.2985V9.30253H48.8777V20.9995L51.1047 18.8585V16.3815C51.6768 17.0065 52.4957 17.2815 53.2997 17.2815ZM52.8357 11.0115C53.9647 11.0115 54.6298 12.0185 54.6298 13.2235C54.6298 14.5815 53.8567 15.4505 52.8357 15.4505C51.7847 15.4505 51.0577 14.4745 51.0577 13.2235C51.0577 11.8355 51.8617 11.0115 52.8357 11.0115ZM61.3698 15.2825C61.1796 15.3449 60.9817 15.381 60.7818 15.3895C60.2258 15.3895 60.1947 14.9475 60.1947 14.1845V5.68753H57.9678V14.4135C57.9678 15.4965 58.1078 16.2595 58.6018 16.7475C58.9418 17.0825 59.4517 17.2815 60.1637 17.2815C60.6427 17.2815 61.1838 17.2055 61.6637 17.0375L61.3698 15.2825Z" fill="#00D1C1"/>
</svg>
