<svg width="204" height="128" viewBox="0 0 204 128" fill="none" xmlns="http://www.w3.org/2000/svg">
<path d="M72.6522 58.5114C79.6998 69.7089 83.2336 79.4041 83.2336 87.3765C83.2336 98.7944 79.1408 108.369 71.055 116.242C62.8694 124.114 52.9868 128 41.507 128C29.6678 128 19.7852 123.994 11.8192 116.121C3.97301 108.149 0 98.2135 0 86.1346C0 67.0848 12.9572 46.7731 38.9914 25.0992C59.2358 8.33302 73.6704 0 82.6546 0C87.0868 0 91.0798 1.48232 94.5936 4.56714C98.1274 7.53177 99.8244 10.8369 99.6048 14.3825C99.3652 18.8294 96.8696 24.5183 91.9782 31.4892L85.9488 40.1628L72.6522 58.5114ZM177.029 58.5114C184.076 69.7089 187.59 79.4041 187.59 87.3765C187.59 98.554 183.497 108.149 175.431 116.121C167.246 123.994 157.363 128 145.883 128C134.044 128 124.162 123.994 116.196 116.121C108.349 108.149 104.376 98.2135 104.376 86.1346C104.376 67.0848 117.334 46.7731 143.368 25.0992C163.612 8.33302 178.047 0 187.031 0C191.463 0 195.436 1.48232 198.97 4.56714C202.504 7.53177 204.201 10.8369 203.981 14.3825C203.742 18.8294 201.246 24.5183 196.355 31.4892L190.325 40.1628L177.029 58.5114Z" fill="#FECC00"/>
</svg>
