<svg width="172" height="108" viewBox="0 0 172 108" fill="none" xmlns="http://www.w3.org/2000/svg">
<path d="M61.2558 49.369C67.1978 58.8169 70.1773 66.9972 70.1773 73.7239C70.1773 83.3577 66.7265 91.4366 59.9091 98.0789C53.0075 104.721 44.6751 108 34.9961 108C25.014 108 16.6816 104.62 9.96521 97.9775C3.34979 91.2507 0 82.8676 0 72.6761C0 56.6028 10.9247 39.4648 32.8751 21.1775C49.9439 7.03099 62.1142 0 69.6891 0C73.4261 0 76.7927 1.2507 79.7554 3.85352C82.7348 6.35493 84.1656 9.14366 83.9805 12.1352C83.7785 15.8873 81.6743 20.6873 77.5502 26.569L72.4666 33.8873L61.2558 49.369ZM149.259 49.369C155.201 58.8169 158.164 66.9972 158.164 73.7239C158.164 83.1549 154.713 91.2507 147.913 97.9775C141.011 104.62 132.679 108 123 108C113.018 108 104.685 104.62 97.9688 97.9775C91.3534 91.2507 88.0036 82.8676 88.0036 72.6761C88.0036 56.6028 98.9283 39.4648 120.879 21.1775C137.947 7.03099 150.118 0 157.693 0C161.43 0 164.779 1.2507 167.759 3.85352C170.738 6.35493 172.169 9.14366 171.984 12.1352C171.782 15.8873 169.678 20.6873 165.554 26.569L160.47 33.8873L149.259 49.369Z" fill="#D2DBE4"/>
</svg>
