<svg width="510" height="480" viewBox="0 0 510 480" fill="none" xmlns="http://www.w3.org/2000/svg">
<path fill-rule="evenodd" clip-rule="evenodd" d="M235.796 439.661C269.734 435.74 472.749 365.552 450.221 273.89C412.889 122.163 351.946 200.513 251.185 184.217C171.693 171.344 95.9762 149.43 80.5284 206.745C70.9029 242.351 115.578 276.289 88.223 304.756C56.2743 337.992 -2.79573 351.509 50.2766 390.479C103.378 429.479 175.848 446.536 235.796 439.661Z" fill="#EDEDEF"/>
<path fill-rule="evenodd" clip-rule="evenodd" d="M438.402 378.015C527.109 295.072 505.313 131.495 440.157 186.235C361.924 251.976 278.483 97.6155 210.372 136.323C159.26 165.346 207.915 252.122 144.573 262.479C94.5142 270.642 43.6654 280.004 63.9698 331.994C108.294 445.541 316.02 492.498 438.402 378.015Z" fill="#DADBE0"/>
<path d="M475 242.5C515.5 223 518.3 145.4 419.5 123C296 95 232.5 -41.2771 110 25.5009C23.1611 72.8392 48.6663 165.334 64.4996 193.501" stroke="#5B5B5B" stroke-linecap="round" stroke-dasharray="10 5"/>
<path d="M413.5 176.999C454 157.499 472.423 50.0555 373 69.4999C237.5 95.9997 198.89 -12.4136 88.9997 54.9995C29.4999 91.5002 37.6664 167.833 53.4997 196" stroke="#FECC00" stroke-linecap="round" stroke-dasharray="10 5"/>
<path fill-rule="evenodd" clip-rule="evenodd" d="M295.869 436.121C295.869 443.335 296.248 442.473 292.51 446.353L236.791 447.301C231.884 446.985 229.548 445.548 228.526 441.841L227.504 438.133C226.54 441.668 229.315 439.628 224.701 440.634L167.871 443.709C160.161 444.341 112.122 447.876 109.173 446.295L96.3232 461.47C94.4542 463.769 94.279 464.688 94.1914 468.367L98.6011 471.816L416.858 471.931C423.136 471.931 431.839 473.052 435.84 469.976L436.015 474C443.024 461.556 416.741 443.91 409.323 430L396.065 430.086C392.473 431.696 305.185 436.553 295.869 436.121Z" fill="#A2C2FE"/>
<path fill-rule="evenodd" clip-rule="evenodd" d="M244.529 264.311L220.095 267.149C216.496 268.583 195.603 271.157 190.775 270.923L178.543 273.205L178.485 279.291C177.548 285.552 179.099 306.88 179.714 313.61L179.919 319.286C190.014 319.724 203.153 318.525 213.95 318.262C216.672 318.203 219.188 318.057 221.91 318.203L220.007 326.98C219.949 329.613 221.119 329.321 223.812 330.198C226.474 331.076 226.884 330.813 228.903 332.334C244.002 335.494 251.552 340.965 270.66 339.853C285.876 338.976 298.078 333.329 310.983 329.789L309.198 317.091C314.758 319.315 335.563 330.813 340.303 331.398L340.362 329.672C344.693 324.581 341.474 329.643 345.717 321.919C347.356 318.964 348.789 317.179 350.487 314.429L359.646 298.367C361.109 296.875 361.811 295.763 362.191 292.837C353.764 289.18 317.83 274.083 315.05 271.275C307.559 270.309 298.956 263.346 290.002 262C287.31 271.421 278.912 278.764 267.968 279.671C254.976 280.783 247.953 273.469 244.529 264.311Z" fill="#FA5C3C"/>
<path fill-rule="evenodd" clip-rule="evenodd" d="M130.619 344.519C129.034 346.367 129.416 348.391 129.562 351.236C128.447 352.643 131.147 352.702 127.42 352.262C129.269 353.406 132.204 354.374 133.936 355.547C136.548 357.307 136.108 357.776 139.043 359.419C153.043 350.414 147.114 346.543 157.328 355.342C155.684 362.88 155.303 359.448 147.789 366.927C146.263 368.452 145.94 368.423 144.355 370.007C150.607 372.881 146.116 391.711 143.298 396.58C139.248 403.59 133.642 407.755 124.191 410.336C124.925 411.509 124.896 410.835 125.189 413.24C125.248 413.738 125.219 415.645 125.277 416.525C136.196 416.789 206.196 417.639 210.921 416.114L181.571 416.173L200.149 388.749C201.206 387.283 201.588 386.461 202.879 385.171C204.934 386.139 204.875 382.883 204.347 387.195L209.336 367.925C210.334 362.938 212.682 356.867 213.298 351.91L216.497 341.967L220.284 326.774L222.191 317.975C219.462 317.828 216.938 317.975 214.208 318.034C203.378 318.298 190.2 319.5 180.074 319.06L179.869 313.37C174.468 312.138 172.003 313.37 166.866 311.493C161.877 310.789 162.112 309.851 158.296 309C156.565 311.522 132.703 347.276 130.296 349.124L130.619 344.519Z" fill="#8CB0FC"/>
<path fill-rule="evenodd" clip-rule="evenodd" d="M353.085 361.702C354.58 358.816 356.31 357.679 358.451 355.58C361.383 356.717 360.914 356.833 362.966 358.961L369.066 356.921L369.242 351.353L378.068 351.032L378.185 356.921L384.929 359.34L388.184 355.609L394.43 361.41L391.087 365.025L393.931 371.642L398.916 371.729L398.946 379.862L393.931 380.941L391.908 387.645C394.313 390.356 393.286 388.403 394.489 391.464L389.298 396.478C385.604 395.574 388.067 395.72 384.783 394.642C382.408 395.866 381.264 396.361 378.684 397.323L377.745 401.346L369.945 401.288C367.218 396.449 371.617 398.548 362.087 394.467C360.357 395.516 360.679 395.545 358.597 396.42L353.261 391.173L355.577 387.675L353.173 380.795L348.364 380.504L348.393 372.225L353.818 371.554L356.398 365.287L353.085 361.702ZM338.511 356.163C340.359 353.394 337.514 354.968 341.121 353.831L342.03 354.793C342.147 354.909 342.323 355.143 342.44 355.259C344.728 357.125 344.024 355.405 347.66 356.163L349.742 362.489C349.273 364.004 349.39 363.334 348.862 364.179C345.197 370.184 351.853 367.473 344.669 369.485C344.434 369.572 344.171 369.543 343.965 369.63L341.619 370.913C335.608 374.44 346.077 369.368 340.241 371.613C340.036 371.496 339.801 371.263 339.655 371.175L334.465 369.077C330.594 358.116 331.914 364.267 333.702 359.574C334.465 357.591 333.673 359.457 334.201 357.416L338.511 356.163ZM355.87 333.484C349.918 333.047 344.171 329.782 340.271 330.423L340.212 332.143C335.462 331.56 314.613 320.104 309.042 317.888L310.83 330.54L313.411 342.054L312.062 342.462C314.73 342.899 313.733 343.016 314.291 346.718C314.554 348.642 314.906 350.012 315.112 352.169L317.809 366.395C319.129 370.213 319.393 374.674 320.302 378.784C321.005 381.815 322.472 388.462 322.501 391.697L312.678 394.787C311.094 401.492 309.775 412.219 308.191 417H405.191L405.103 312C404.253 313.982 396.277 317.713 394.283 318.996C389.914 321.736 387.774 323.048 382.759 325.759C376.748 329.024 363.436 337.099 355.87 333.484Z" fill="#9BBDFC"/>
<path fill-rule="evenodd" clip-rule="evenodd" d="M227.084 213.109C223.798 218.083 221.833 222.534 219.633 226.811C215.232 236.265 214.323 251.771 215.936 255.756L218.899 263.087L220.571 266.898L245.067 264.076L255.394 263.349L255.1 255.698C248.852 251.887 246.446 252.556 242.691 247.291C238.877 241.88 237.704 239.843 235.885 232.105L235.768 220.934C244.158 218.141 245.478 217.007 250.172 212.003C249.262 215.32 247.825 216.483 247.707 219.509C256.714 216.803 258.973 209.705 261.408 199.378C266.277 211.479 269.358 218.956 281.327 224.92C281.268 232.367 278.775 239.145 275.43 244.702L276.721 254.709L278.247 262.476L290.656 261.778C299.633 263.116 308.258 270.04 315.768 271C318.643 266.665 316.941 261.662 312.658 255.814C307.524 248.745 301.51 242.607 299.662 230.651C294.264 204.876 292.064 203.538 286.402 197.603C278.511 189.283 248.148 178.374 235.328 198.127C232.687 202.228 228.492 208.949 227.084 213.109Z" fill="#1A1A35"/>
<path fill-rule="evenodd" clip-rule="evenodd" d="M405.646 311.7L405.733 416.862H309.096C305.386 416.745 300.42 417.358 297.002 416.161L297.411 408.279C295.746 412.366 296.096 424.686 296.651 430L396.794 429.942L410.057 429.854L417.068 427.577C418.061 424.686 419.201 424.949 419.902 421.183C420.427 418.322 420.252 415.373 420.252 412.424L429.191 409.446L421.947 412.045C419.96 410.206 420.34 414.556 420.311 409.213L420.486 322.065L420.369 303C414.848 305.306 411.342 309.452 405.646 311.7Z" fill="#38385A"/>
<path fill-rule="evenodd" clip-rule="evenodd" d="M239.799 405.742C244.874 405.365 268.392 404.145 270.546 405.917C272.907 407.862 272.729 422.524 271.166 427.663C266.857 427.808 243.222 428.825 241.333 427.721C237.497 425.486 239.209 410.185 239.799 405.742ZM284.769 409.372L284.887 423.686C282.438 423.482 281.257 423.25 278.956 422.727C275.533 421.943 275.739 422.64 274.234 420.23L274.795 411.114L284.769 409.372ZM227.376 417.53L227.199 429.725L227.258 437.738L228.291 441.483C229.324 445.229 231.684 446.681 236.641 447L292.942 446.042C296.719 442.122 296.336 442.993 296.336 435.706L296.424 429.667C295.864 424.382 295.509 412.13 297.191 408.065L296.808 406.41C295.008 378.421 297.427 387.538 247.235 387.015C222.655 386.783 227.789 384.431 227.376 417.53Z" fill="#E2EEFB"/>
<path fill-rule="evenodd" clip-rule="evenodd" d="M129.01 201.839L166.937 201.78L167.465 206.853H128.864L129.01 201.839ZM163.124 192.786L201.549 192.845L201.52 197.976L162.977 197.828L163.124 192.786ZM145.876 192.815L160.249 192.874L160.161 197.917L145.73 197.681L145.876 192.815ZM128.893 192.697L143.383 193.08L143.354 197.887L129.01 197.681L128.893 192.697ZM186.853 184.351C191.283 182.847 196.856 183.614 201.695 183.702L201.373 189.011L186.971 188.598L186.853 184.351ZM169.987 183.761L184.917 183.82L184.331 188.863L170.281 188.745L169.987 183.761ZM128.893 183.732L167.494 183.791L166.908 188.952L129.04 188.863L128.893 183.732ZM118.451 199.303C118.568 220.713 117.805 215.788 155.057 215.611C162.478 215.582 175.414 213.842 180.371 217.351C184.947 220.595 192.309 227.85 197.384 229L197.501 216.172C212.636 213.842 211.551 223.308 210.847 179.19C208.823 174.914 207.738 175.357 200.493 175.357C183.539 175.386 136.314 174.56 124.493 175.327C116.573 175.858 118.304 184.912 118.451 199.303Z" fill="#A3C4FC"/>
<path fill-rule="evenodd" clip-rule="evenodd" d="M314.514 257.544C317.114 262.481 319.655 267.478 315.799 271.821C318.545 274.676 353.893 289.578 362.306 293.296C361.927 296.271 361.226 297.401 359.765 298.918L359.882 301L404.49 284.819L404.958 284.195L405.191 255.759L374.664 255.819C379.484 249.067 375.131 251.565 374.751 251.03C374.488 254.034 375.131 250.822 374.488 253.588C373.992 255.759 374.284 254.361 373.553 255.7H316.12C312.761 256.295 314.893 254.926 314.514 257.544Z" fill="#95B6FD"/>
<path fill-rule="evenodd" clip-rule="evenodd" d="M79.69 238.656L88.3658 237.342C86.5255 240 85.6199 240.292 81.9685 241.811C79.5147 242.833 77.8204 243.797 75.1914 244.293C76.5644 246.075 75.5712 245.257 77.7036 246.572C78.9597 247.331 79.281 247.214 80.8 248.441C85.8244 250.252 92.251 255.568 96.1361 258.547C98.7651 260.534 100.605 262.345 103.088 264.564C106.126 267.193 108.2 267.544 110.158 271.137L111.881 271.166L118.278 277.212C122.427 280.542 118.366 275.81 124.88 282.908C127.714 284.31 131.57 289.159 134.228 288.954C137.266 294.416 156.049 306.918 157.889 309.517C161.687 310.364 161.453 311.299 166.419 312C166.156 305.691 174.54 282.616 178.133 279.607L178.191 273.532C176.643 275.606 177.286 275.576 177.198 278.848C172.466 278.41 167.062 274.642 162.388 272.334C159.292 270.786 149.622 266.492 148.103 264.769L131.102 256.24L116.701 249.288C116.497 249.171 114.598 248.207 114.393 248.061C111.998 246.046 114.919 250.048 112.933 245.988L111.735 246.981C105.25 241.811 100.489 244.264 97.6551 234.771C96.8956 233.282 95.7271 230.653 94.7047 228.579C91.6083 222.211 93.0981 223.905 90.878 223C88.3366 225.278 89.5051 232.23 89.7388 236.465C85.7076 236.816 82.5527 236.699 79.69 238.656Z" fill="#FEB5A6"/>
<path fill-rule="evenodd" clip-rule="evenodd" d="M436.191 474.626L436.016 470.607C432.013 473.678 423.307 472.559 417.025 472.559L98.6145 472.444L94.2027 469C94.2319 470.722 94.0858 472.645 94.378 474.367L96.6277 478.213C104.253 481.026 246.162 479.735 266.497 479.505L395.287 479.218C405.601 479.218 429.238 481.026 435.695 477.438L436.191 474.626Z" fill="#739AFA"/>
<path fill-rule="evenodd" clip-rule="evenodd" d="M420.024 278.157C417.124 280.907 409.801 282.918 405.231 283.687L404.762 284.308L360.029 300.396C360.556 309.534 359.502 325.888 356.191 333.075C363.749 336.742 377.049 328.55 383.055 325.238C388.064 322.487 390.202 321.156 394.567 318.377C396.559 317.075 404.528 313.29 405.377 311.279C411.09 309.002 414.605 304.802 420.142 302.466C421.811 300.662 426.997 297.557 429.838 295.782C434.76 292.736 436.342 291.731 441.615 289.365L441.908 279.872L451.721 279.724C454.153 279.724 456.731 279.428 458.225 278.955C459.719 276.589 458.693 279.221 459.191 275.909L441.439 271C435.17 272.981 426.967 277.447 420.024 278.157Z" fill="#FEB5A6"/>
<path fill-rule="evenodd" clip-rule="evenodd" d="M108.156 351.824C106.172 354.384 105.816 353.472 102.883 354.178C100.099 354.855 99.9509 355.62 98.144 357.091C94.4412 358.974 89.8202 364.801 89.05 369.156C87.569 371.775 87.8652 370.951 86.9173 374.217C86.0879 379.102 85.6435 383.516 87.4208 388.165C87.8948 399.818 101.077 410.029 112.925 411L124.656 410.588C134.194 407.999 139.852 403.82 143.939 396.787C146.783 391.902 151.315 373.011 145.006 370.127L127.766 385.076C119.472 392.491 119.146 395.846 112.718 388.577L101.758 376.924C101.521 371.157 104.216 368.95 109.845 368.891C113.251 371.716 114.11 375.012 117.606 376.866C122.701 376.836 126.166 371.598 129.839 368.715C131.794 367.155 138.845 360.858 139.644 359.504C136.682 357.856 137.126 357.385 134.49 355.62C132.742 354.443 129.78 353.472 127.914 352.324L124.122 351.471L121.338 351L108.156 351.824Z" fill="#FEFEFC"/>
<path fill-rule="evenodd" clip-rule="evenodd" d="M441.513 271.613L459.167 276.438C458.671 279.693 459.691 277.106 458.205 279.431C460.303 280.652 461.06 281.494 462.692 282.599C466.333 279.199 474.723 272.776 476.5 268.678L471.256 262.866C472.101 259.204 474.985 256.472 479.355 255.978C489.813 268.3 479.501 273.997 472.829 280.739C470.761 282.86 465.08 288.615 461.584 289.428C455.612 290.823 446.64 286.638 450.34 281.756L451.738 280.187L441.979 280.332L441.687 289.661C440.988 294.049 441.367 294.921 443.814 297.101C449.553 298.525 483.55 297.943 491.124 297.479C495.319 293.7 493.834 286.58 493.834 276.699C493.863 249.381 497.825 248.713 478.656 249.12C468.489 249.236 458.001 248.8 447.892 249.12C441.979 249.294 441.309 251.27 441.25 256.763C441.192 261.674 441.076 266.731 441.513 271.613Z" fill="#A3C4FC"/>
<path fill-rule="evenodd" clip-rule="evenodd" d="M275.731 377.324C271.39 382.529 232.641 373.735 225.631 374.118L224.516 373C221.876 370.853 212.197 368.382 209.381 368.265L204.394 387.588L203.191 390.971C206.858 395.5 210.525 395.412 214.426 399.059C218.562 399 223.167 401.735 227.978 401.794L227.743 418C228.154 384.471 223.05 386.853 247.484 387.088C297.379 387.618 294.973 378.382 296.763 406.735L296.792 398.853L304.682 396.618C307.704 396.029 310.608 395.176 313.365 394.647L323.191 391.529C323.162 388.265 321.695 381.559 320.991 378.5C320.082 374.353 319.818 369.853 318.498 366C309.698 369 301.427 372.294 292.392 374.765C287.23 376.147 281.48 377.618 275.731 377.324Z" fill="#F2543A"/>
<path fill-rule="evenodd" clip-rule="evenodd" d="M236.191 232.644C237.985 240.382 239.142 242.419 242.902 247.83C246.604 253.095 248.976 252.426 255.136 256.237L255.425 263.888L245.244 264.616C248.628 273.721 255.57 280.994 268.412 279.889C279.229 278.987 287.53 271.685 290.191 262.317L277.957 263.016L276.453 255.248C273.271 257.081 271.709 256.819 267.573 256.761C263.524 256.703 262.338 256.848 259.677 255.045C267.891 253.357 270.379 250.855 275.18 245.241C278.477 239.684 280.936 232.906 280.994 225.458L278.13 224.033C271.131 223.393 264.102 216.527 261.47 211C256.843 220.746 251.492 229.066 236.452 229.88L236.191 232.644Z" fill="#FEB5A6"/>
<path fill-rule="evenodd" clip-rule="evenodd" d="M112.642 411.402C110.328 413.357 110.68 408.614 110.445 416.433C110.357 419.796 111.119 424.424 113.433 426.493L100.191 425.976L115.045 428.304C117.828 428.994 117.125 429.626 120.963 429.684L227.191 430C225.375 426.206 225.873 420.831 226.4 416.519C222.973 417.295 221.039 417.151 217.553 417.123C211.576 417.065 213.774 417.784 211.606 416.346L210.815 416.663C206.098 418.157 136.226 417.324 125.328 417.065C125.269 416.203 125.298 414.334 125.24 413.846C124.947 411.489 124.976 412.15 124.244 411L112.642 411.402Z" fill="#373756"/>
<path fill-rule="evenodd" clip-rule="evenodd" d="M305.191 242.62C306.918 246.651 309.26 248.015 313.006 255.247L314.47 257.441C314.85 254.832 312.714 256.196 316.08 255.603L374.735 255.722L405.321 255.662L405.087 284C409.653 283.229 416.97 281.214 419.868 278.457C421.097 236.365 420.805 242.383 381.145 242.205L305.191 242.62Z" fill="#38385C"/>
<path fill-rule="evenodd" clip-rule="evenodd" d="M109.191 446.595C112.133 448.183 160.037 444.633 167.725 443.998L224.396 440.91C228.997 439.899 226.23 441.949 227.191 438.399L227.133 430.433L226.929 430.317L121.335 430C119.5 433.637 117.258 435.917 114.928 438.976C114.026 440.13 112.832 441.602 111.871 442.786C109.949 445.152 110.007 444.171 109.191 446.595Z" fill="#739BFB"/>
<path fill-rule="evenodd" clip-rule="evenodd" d="M100.921 425.479L114.191 426C111.872 423.916 111.109 419.257 111.197 415.87C111.432 407.998 111.079 412.774 113.399 410.806C101.655 409.851 88.59 399.808 88.1202 388.347C87.8854 388.549 87.445 388.463 87.2688 388.81C86.0651 391.299 80.5161 384.237 78.5197 382.472C76.6407 380.822 76.1709 381.025 74.0571 379.057L52.3898 359C54.533 364.094 55.2377 368.088 57.9681 373.326C67.0402 390.575 86.4761 399.779 89.9699 403.483C87.0927 403.078 83.775 401.949 80.2519 401.226C76.6701 400.502 73.0001 400.068 69.066 400.01C65.1318 399.924 60.9334 400.039 57.058 400.647C54.4743 401.052 50.2466 401.457 48.1914 402.962C59.3773 414.481 84.9788 422.845 102.771 424.929L100.921 425.479Z" fill="#A6BD39"/>
<path fill-rule="evenodd" clip-rule="evenodd" d="M421.915 412C421.447 408.554 421.447 406.539 421.506 403.093C421.594 397.983 421.068 398.713 420.191 394.391C422.207 391.851 421.185 393.136 424.544 391.062L462.284 368.869C463.628 368.08 470.492 364.985 468.973 363.175C468.827 363.029 468.243 362.795 468.009 362.474C462.167 364.722 457.902 365.715 452.206 368.139C446.686 370.504 442.83 373.308 438.36 375.323C439.383 372.636 442.07 369.249 443.735 366.62C445.692 363.583 447.445 360.4 449.168 357.305C453.2 350.151 455.799 342.85 456.413 333.973C440.668 339.93 426.851 357.655 426.501 357.918C425.566 346.267 424.807 330.848 420.454 322L420.279 409.167C420.308 414.511 419.929 410.16 421.915 412Z" fill="#A2B638"/>
<path fill-rule="evenodd" clip-rule="evenodd" d="M46.7638 210.166C45.337 211.211 45.832 208.397 45.1914 212.661C45.4244 218.288 48.8313 238.42 51.1025 241.726C57.4213 243.003 62.75 239.348 69.0106 240.276C71.9807 238.333 75.6497 237.752 80.396 237.868C83.2497 235.925 86.3945 236.041 90.4129 235.693C90.18 231.487 89.0152 224.583 91.5485 222.32C93.7616 223.22 92.2765 221.537 95.3631 227.861C96.3823 229.92 97.547 232.531 98.3041 234.01L103.982 232.937C105.147 226.556 101.1 213.937 100.372 206.598C100.139 205.67 99.9348 204.568 99.6727 203.814C98.9156 201.493 99.4106 202.508 98.1876 201C95.2466 205.09 78.3286 219.217 74.2229 221.276L52.6458 213.502C44.6964 210.659 47.3171 212.197 46.7638 210.166Z" fill="#A3C4FC"/>
<path fill-rule="evenodd" clip-rule="evenodd" d="M113.191 245.353C115.191 249.545 112.251 245.413 114.662 247.494C114.867 247.645 116.779 248.64 116.984 248.761L131.48 255.94L215.191 256L214.515 244.116C204.812 242.517 147.652 243.452 129.54 243.543C124.247 243.573 119.631 244.659 118.278 243L113.191 245.353Z" fill="#38385A"/>
<path fill-rule="evenodd" clip-rule="evenodd" d="M228.872 332.553C226.395 333.111 228.43 331.203 227.191 333.551L233.974 348.898C241.259 354.445 264.705 354.826 274.732 353.065C289.595 350.424 299.918 345.142 312.835 342.002L314.191 341.591L311.596 330C298.59 333.551 286.292 339.214 270.957 340.095C251.699 341.21 244.09 335.722 228.872 332.553Z" fill="#FEFEFC"/>
<path fill-rule="evenodd" clip-rule="evenodd" d="M121.535 351.329L124.282 351.797C128.051 352.178 124.895 352.119 125.918 350.772L125.743 282.773C119.227 275.656 123.288 280.4 119.139 277.062L112.74 271C111.279 272.581 111.279 268.569 111.191 274.866V351.621L121.535 351.329Z" fill="#38385C"/>
<path fill-rule="evenodd" clip-rule="evenodd" d="M213.191 352.493C216.696 354.937 222.711 356.875 227.646 358.365C230.595 359.289 233.136 360.153 235.764 360.779C238.188 361.346 242.743 361.197 244.116 362.956C249.927 362.568 257.022 363.999 263.68 363.999C270.134 364.029 276.529 363.492 282.749 362.419C294.721 360.332 305.438 356.606 315.191 351.926C314.987 349.72 314.637 348.319 314.374 346.352C313.819 342.566 314.812 342.447 312.154 342C299.364 345.19 289.144 350.555 274.426 353.238C264.498 355.026 241.283 354.639 234.07 349.005C227.237 347.544 222.215 343.55 216.374 342.388L213.191 352.493Z" fill="#FA5C3C"/>
<path fill-rule="evenodd" clip-rule="evenodd" d="M370.424 362.528C387.957 357.21 396.412 385.014 377.816 390.51C369.419 393.022 361.525 387.733 359.751 380.7C357.534 371.866 361.407 365.276 370.424 362.528ZM358.51 396.006C360.609 395.12 360.284 395.09 362.028 394.027C371.637 398.163 367.202 396.036 369.951 400.941L377.816 401L378.762 396.922C381.364 395.947 382.517 395.445 384.911 394.204C388.223 395.297 385.739 395.149 389.464 396.065L394.697 390.983C393.485 387.881 394.52 389.86 392.096 387.112L394.136 380.316L399.191 379.223L399.162 370.979L394.136 370.89L391.268 364.183L394.638 360.519L388.341 354.639L385.059 358.421L378.259 355.969L378.141 350L369.242 350.325L369.064 355.969L362.915 358.037C360.845 355.88 361.318 355.762 358.362 354.61C356.204 356.737 354.459 357.889 352.951 360.815L356.292 364.449L353.691 370.802L348.221 371.481L348.191 379.873L353.04 380.169L355.464 387.142L353.129 390.688L358.51 396.006Z" fill="#E1EDFD"/>
<path fill-rule="evenodd" clip-rule="evenodd" d="M244.418 362.58L243.191 362.809C245.586 364.21 246.404 365.382 249.383 367.069C251.895 368.499 253.705 369.3 256.159 370.844L254.903 372.016C260.832 372.274 260.978 373.103 265.358 375.276C270.528 377.85 270.44 376.448 275.61 376.963C281.334 377.249 287.058 375.819 292.198 374.475C301.194 372.073 309.43 368.871 318.191 365.954L315.504 352C305.75 356.489 295.031 360.064 283.057 362.065C276.836 363.095 270.44 363.609 263.986 363.581C257.327 363.581 250.23 362.208 244.418 362.58Z" fill="#FEFEFC"/>
<path fill-rule="evenodd" clip-rule="evenodd" d="M429.183 408.624L420.341 411.642C420.341 414.631 420.514 417.62 419.994 420.52C419.301 424.337 418.174 424.07 417.191 427L424.242 424.721L453.658 411.672C459.033 408.802 468.338 403.564 472.759 399.51L478.191 393L473.655 393.059L451.087 399.747C447.648 400.782 444.007 402.055 439.991 403.446C430.859 406.582 431.235 405.073 429.183 408.624Z" fill="#99B133"/>
<path fill-rule="evenodd" clip-rule="evenodd" d="M329.898 170.373C326.951 176.971 332.846 174.963 325.737 178.348C323.916 179.179 322.847 180.126 321.778 181.274C319.148 184.085 318.801 186.466 317.847 190.453L317.876 192.432C321.142 195.473 321.835 197.108 325.419 199.747C328.8 202.272 330.823 201.554 335.389 204.738C334.175 205.37 336.632 204.911 333.366 205.513L326.488 205.57C323.454 205.57 320.708 205.685 317.703 205.456C314.091 206.603 313.744 207.033 314.553 212.111L325.563 212.312L338.684 212.426C343.105 211.881 343.828 211.594 348.191 213C345.619 210.619 343.712 210.131 343.51 205.57C343.307 201.296 345.59 199.489 347.209 198.112L345.07 184.888C342.643 180.528 340.88 178.118 335.071 177.401L335.042 172.266C334.58 168.193 335.042 171.119 333.8 170L333.915 176.971L330.332 177.171L329.898 170.373Z" fill="#A3C4FC"/>
<path fill-rule="evenodd" clip-rule="evenodd" d="M421.885 412L429.006 409.408C431.044 405.914 430.671 407.399 439.743 404.312C443.734 402.944 447.352 401.691 450.768 400.672L473.191 394.091C467.162 394.761 460.674 394.644 454.501 395.46C448.644 396.246 441.696 398.022 436.269 398.605C438.997 395.46 466.674 381.278 470.665 362L467.191 362.612C467.421 362.932 467.995 363.165 468.138 363.31C469.631 365.116 462.884 368.203 461.564 368.989L424.469 391.121C421.168 393.188 422.172 391.907 420.191 394.44C421.053 398.75 421.57 398.022 421.483 403.118C421.426 406.554 421.426 408.564 421.885 412Z" fill="#A6BD39"/>
<path fill-rule="evenodd" clip-rule="evenodd" d="M130.526 344.454L130.191 349C132.684 347.176 157.398 311.876 159.191 309.386C157.276 306.809 137.73 294.415 134.569 289C133.201 294.763 129.705 338.199 130.526 344.454Z" fill="#A2C2FE"/>
<path fill-rule="evenodd" clip-rule="evenodd" d="M139.181 360.027C138.4 361.375 131.52 367.644 129.612 369.197C126.027 372.068 122.644 377.283 117.672 377.312C114.261 375.466 113.422 372.185 110.098 369.373C104.605 369.431 101.974 371.629 102.205 377.371L112.902 388.972C119.175 396.208 119.493 392.868 127.588 385.486L144.413 370.603C145.974 369.021 146.293 369.05 147.796 367.527C155.197 360.056 155.572 363.484 157.191 355.955C147.131 347.166 152.971 351.033 139.181 360.027Z" fill="#3775FC"/>
<path fill-rule="evenodd" clip-rule="evenodd" d="M240.073 405.753C239.491 410.148 237.801 425.286 241.588 427.498C243.452 428.589 266.787 427.584 271.04 427.44C272.584 422.356 272.758 407.85 270.428 405.925C268.301 404.173 245.084 405.379 240.073 405.753Z" fill="#6E9AFB"/>
<path fill-rule="evenodd" clip-rule="evenodd" d="M149.016 265.05C157.977 267.684 157.428 266.971 167.285 266.723C174.425 266.537 181.045 266.041 187.81 265.608C196.8 265.081 210.907 265.36 218.191 263.872L215.272 256.062L132.191 256L149.016 265.05Z" fill="#739BFB"/>
<path fill-rule="evenodd" clip-rule="evenodd" d="M209.191 367.997C211.992 368.107 221.621 370.414 224.247 372.419L225.356 373.463C232.329 373.106 270.873 381.319 275.191 376.457C270.027 375.963 270.114 377.308 264.95 374.836C260.573 372.749 260.427 371.952 254.504 371.705L255.759 370.579C253.308 369.096 251.499 368.327 248.99 366.953C246.014 365.333 245.197 364.207 242.804 362.861L244.03 362.641C242.658 361.02 238.107 361.158 235.685 360.636C233.059 360.059 230.52 359.263 227.573 358.411C222.642 357.038 216.632 355.252 213.13 353C212.518 357.642 210.183 363.328 209.191 367.997Z" fill="#F0B2A9"/>
<path fill-rule="evenodd" clip-rule="evenodd" d="M370.415 362.666C361.446 365.387 357.594 371.911 359.799 380.659C361.564 387.622 369.415 392.859 377.766 390.372C396.262 384.93 387.852 357.4 370.415 362.666Z" fill="#A3C4FC"/>
<path fill-rule="evenodd" clip-rule="evenodd" d="M211.603 415.942L212.424 415.622C211.998 410.303 214.492 404.14 215.191 398.618C211.147 395.013 207.345 395.1 203.544 390.624L204.791 387.281C205.338 383.008 205.399 386.235 203.27 385.276C201.932 386.555 201.537 387.368 200.442 388.822L181.191 416L211.603 415.942Z" fill="#A2C5FD"/>
<path fill-rule="evenodd" clip-rule="evenodd" d="M46.1914 210.494C46.7509 212.597 44.1008 211.004 52.1393 213.948L73.9581 222C78.1099 219.867 95.2175 205.236 98.1914 201C92.803 201.09 48.7237 208.751 46.1914 210.494Z" fill="#739BFB"/>
<path fill-rule="evenodd" clip-rule="evenodd" d="M124.191 351.895L127.651 352.755C131.083 353.2 128.597 353.14 129.624 351.717C129.489 348.841 129.137 346.794 130.597 344.926C129.867 338.521 132.975 294.04 134.191 288.138C131.732 288.346 128.164 283.423 125.543 282L125.705 350.857C124.759 352.221 127.678 352.28 124.191 351.895Z" fill="#739AFA"/>
<path fill-rule="evenodd" clip-rule="evenodd" d="M380.501 211C382.931 208.612 385.181 207.191 387.791 204.632L402.401 191.413C405.22 188.627 407.23 185.784 409.66 185.073C410.68 181.207 410.11 184.135 408.97 183.111L377.201 196.331C373.361 197.838 369.671 199.032 366.191 201.022C367.841 203.381 378.401 210.119 380.501 211Z" fill="#A4C4FA"/>
<path fill-rule="evenodd" clip-rule="evenodd" d="M296.191 435.973C305.489 436.4 392.606 431.593 396.191 430L296.279 430.057L296.191 435.973Z" fill="#739AFA"/>
<path fill-rule="evenodd" clip-rule="evenodd" d="M458.09 279.646C456.576 280.115 453.964 280.408 451.5 280.408L450.075 281.99C446.305 286.913 455.448 291.132 461.533 289.726C465.095 288.905 470.884 283.104 472.992 280.965C479.789 274.167 490.298 268.424 479.641 256C475.188 256.498 472.25 259.252 471.389 262.944L476.732 268.805C474.921 272.936 466.372 279.412 462.661 282.84C460.999 281.727 460.227 280.877 458.09 279.646Z" fill="#739BFB"/>
<path fill-rule="evenodd" clip-rule="evenodd" d="M52.301 358.578L74.0653 379.353C76.1886 381.391 76.6605 381.182 78.5479 382.89C80.5533 384.719 86.127 392.034 87.3362 389.456C87.5131 389.096 87.9555 389.186 88.1914 388.976C86.422 384.239 86.8643 379.743 87.6901 374.766C84.623 373.357 82.4407 371.529 79.3736 369.52C72.8266 365.233 54.9551 357.259 53.2742 356C51.8881 356.839 52.183 354.351 52.301 358.578Z" fill="#A2B638"/>
<path fill-rule="evenodd" clip-rule="evenodd" d="M408.843 184.249C408.18 186.955 402.186 196.74 400.473 199.654C397.49 204.77 393.816 209.944 391.191 215.089L392.573 216.428L404.7 223L411.191 183C410.888 183.238 410.473 183.149 410.363 183.506C409.451 186.42 410.832 183.089 408.843 184.249Z" fill="#A4C4FA"/>
<path fill-rule="evenodd" clip-rule="evenodd" d="M236.307 232L236.567 229.213C248.237 229.067 258.058 221.352 261.553 210.176C264.182 215.749 271.201 223.112 278.191 223.787C271.663 220.384 267.359 216.072 261.438 199C259.04 209.413 256.816 216.571 247.948 219.299C248.063 216.248 249.479 215.075 250.374 211.731C245.753 216.776 244.453 217.92 236.191 220.736L236.307 232Z" fill="#FC8574"/>
<path fill-rule="evenodd" clip-rule="evenodd" d="M340.191 329.872C344.177 329.217 350.051 332.553 356.134 333C359.52 325.762 360.599 309.289 360.06 300.085L359.94 298L350.56 314.353C348.822 317.153 347.354 318.97 345.675 321.979C341.33 329.843 344.627 324.689 340.191 329.872Z" fill="#FC8574"/>
<path fill-rule="evenodd" clip-rule="evenodd" d="M296.221 406.375L296.611 408.091L296.191 416.22C299.699 417.455 304.796 416.822 308.604 416.943C310.223 412.005 311.572 400.925 313.191 394C310.373 394.542 307.405 395.415 304.317 396.017L296.251 398.306L296.221 406.375Z" fill="#1A1A35"/>
<path fill-rule="evenodd" clip-rule="evenodd" d="M211.24 416.045C213.509 417.501 211.21 416.773 217.463 416.831C221.111 416.86 223.134 417.006 226.72 416.219C226.168 420.59 225.647 426.038 227.548 429.883L227.762 430L227.946 417.764L228.191 401.71C223.164 401.652 218.352 398.943 214.03 399.001C213.325 404.536 210.811 410.713 211.24 416.045Z" fill="#1A1A35"/>
<path fill-rule="evenodd" clip-rule="evenodd" d="M89.5435 369C90.2759 364.655 94.6703 358.843 98.1914 356.964C97.9942 354.058 90.9801 348.774 88.8675 346.954C87.2337 345.545 86.1632 344.37 83.9097 342.521C82.7266 341.552 82.1069 341.053 81.1492 340.172C79.628 338.734 80.4449 339.116 78.1914 338C79.4027 344.987 82.3886 355.79 85.0928 362.219C86.8111 366.329 86.9238 367.18 89.5435 369Z" fill="#A2B638"/>
<path fill-rule="evenodd" clip-rule="evenodd" d="M381.191 210.923C382.776 215.262 386.204 220.841 389.372 224C390.899 220.458 391.994 220.812 392.224 215.941L390.784 214.613C393.521 209.506 397.352 204.369 400.463 199.292C402.249 196.399 408.5 186.686 409.191 184C406.858 184.738 404.928 187.69 402.22 190.583L388.191 204.31C385.685 206.967 383.525 208.443 381.191 210.923Z" fill="#FCFCFC"/>
<path fill-rule="evenodd" clip-rule="evenodd" d="M167.197 312.09C172.331 314 174.794 312.747 180.191 314C179.575 307.137 178.021 285.385 178.959 279C175.352 282.073 166.933 305.645 167.197 312.09Z" fill="#FC8574"/>
<path fill-rule="evenodd" clip-rule="evenodd" d="M178.778 273.336L191.191 270.909L184.926 270.878C186.173 267.797 187.272 268.046 188.044 264.56C181.095 264.996 174.294 265.494 166.959 265.68C156.833 265.929 157.397 266.645 148.191 264C149.736 265.836 159.565 270.411 162.713 272.06C167.464 274.519 172.958 278.533 177.769 279C177.858 275.515 177.205 275.546 178.778 273.336Z" fill="#A4C4FA"/>
<path fill-rule="evenodd" clip-rule="evenodd" d="M129.336 188.915L166.614 189L167.191 184.056L129.191 184L129.336 188.915Z" fill="#E1EEFA"/>
<path fill-rule="evenodd" clip-rule="evenodd" d="M163.191 197.858L201.163 198L201.191 193.057L163.336 193L163.191 197.858Z" fill="#E1EEFA"/>
<path fill-rule="evenodd" clip-rule="evenodd" d="M129.191 207H167.191L166.672 202L129.336 202.058L129.191 207Z" fill="#E2EEFB"/>
<path fill-rule="evenodd" clip-rule="evenodd" d="M216.191 342.4C222.132 343.559 227.241 347.543 234.191 349L227.36 333.451C228.607 331.073 226.558 333.005 229.053 332.441C227.003 330.895 226.587 331.162 223.884 330.27C221.152 329.378 219.964 329.676 220.023 327L216.191 342.4Z" fill="#F0B2A9"/>
<path fill-rule="evenodd" clip-rule="evenodd" d="M188.221 265.505C187.471 268.514 186.403 268.299 185.191 270.959L191.28 270.986C196.041 271.201 216.642 268.837 220.191 267.52L218.547 264C211.275 265.29 197.195 265.048 188.221 265.505Z" fill="#8BAEFB"/>
<path fill-rule="evenodd" clip-rule="evenodd" d="M352.482 208.239C354.909 209.346 356.079 208.544 353.738 211.256C352.225 210.675 350.513 210.979 352.482 208.239ZM353.738 199.742C354.709 211.173 354.623 205.886 352.882 207.686C351.397 207.077 350.427 208.018 349.77 200.212L353.738 199.742ZM347.858 198.634C346.259 199.963 344.004 201.707 344.204 205.831C344.404 210.232 346.288 210.703 348.828 213C351.455 212.696 354.423 213.471 356.679 212.004C358.848 210.62 360.247 208.045 360.19 205.139C360.047 198.468 353.91 196.946 347.858 198.634Z" fill="#3775FC"/>
<path fill-rule="evenodd" clip-rule="evenodd" d="M337.075 359.483L339.261 357.398L343.913 357.198L345.931 359.54C346.52 364.938 345.567 366.509 340.298 366.737C337.019 364.824 336.598 364.196 337.075 359.483ZM339.457 355.285L335.337 356.513C334.832 358.512 335.589 356.684 334.86 358.626C333.151 363.224 331.889 357.198 335.589 367.937L340.55 369.993C340.69 370.079 340.914 370.307 341.111 370.422C346.688 368.222 336.682 373.192 342.428 369.736L344.67 368.48C344.866 368.394 345.118 368.422 345.343 368.337C352.209 366.366 345.847 369.022 349.351 363.139C349.855 362.311 349.743 362.967 350.191 361.482L348.201 355.285C344.726 354.542 345.399 356.227 343.213 354.399C343.1 354.285 342.932 354.057 342.82 353.942L341.951 353C338.504 354.114 341.223 352.572 339.457 355.285Z" fill="#DBECFE"/>
<path fill-rule="evenodd" clip-rule="evenodd" d="M274.77 410.826L274.191 420.379C275.745 422.905 275.532 422.174 279.067 422.996C281.443 423.544 282.662 423.787 285.191 424L285.07 409L274.77 410.826Z" fill="#739AFA"/>
<path fill-rule="evenodd" clip-rule="evenodd" d="M74.1914 319.879L77.5813 321C81.0286 318.788 94.0136 306.547 95.1914 302.467C91.1408 301.347 90.9397 301.72 83.5567 309.536C81.4308 311.777 80.9137 312.294 78.874 314.277C76.3173 316.719 75.1107 316.633 74.1914 319.879Z" fill="#CCCCCC"/>
<path fill-rule="evenodd" clip-rule="evenodd" d="M318.191 205.858C321.25 206.085 324.044 205.972 327.133 205.972L334.133 205.915C337.456 205.32 334.956 205.773 336.191 205.15C331.544 202.007 329.486 202.715 326.044 200.222C322.397 197.617 321.691 196.002 318.368 193L318.191 205.858Z" fill="#8CB0FC"/>
<path fill-rule="evenodd" clip-rule="evenodd" d="M86.4874 322.98C88.7247 323.968 92.525 324.836 94.7929 322.561C96.693 320.705 96.6318 316.783 94.7623 314.897C90.441 310.526 81.9516 313.909 86.4874 322.98Z" fill="#CCCCCC"/>
<path fill-rule="evenodd" clip-rule="evenodd" d="M78.5796 310C84.1672 308.453 84.2881 307.635 84.1672 301.562C81.2979 299.606 77.6734 297.037 74.5021 301.358C71.3609 305.65 74.3208 308.423 78.5796 310Z" fill="#CCCCCC"/>
<path fill-rule="evenodd" clip-rule="evenodd" d="M108.305 352.559L121.191 351.735L110.94 352.029V274.913C111.027 268.587 111.027 272.618 112.475 271.029L110.767 271C112.186 281.945 111.056 301.599 111.056 313.486C111.085 326.902 106.944 330.021 106.191 353L108.305 352.559Z" fill="#A7BB45"/>
<path fill-rule="evenodd" clip-rule="evenodd" d="M276.191 255.382L274.902 245C270.036 250.825 267.516 253.421 259.191 255.171C261.888 257.042 263.09 256.891 267.193 256.952C271.385 257.012 272.967 257.284 276.191 255.382Z" fill="#FC8574"/>
<path fill-rule="evenodd" clip-rule="evenodd" d="M336.37 359.395C335.85 364.335 336.308 364.994 339.883 367C345.627 366.76 346.666 365.114 346.025 359.455L343.825 357L338.753 357.21L336.37 359.395Z" fill="#93B5FD"/>
<path fill-rule="evenodd" clip-rule="evenodd" d="M186.31 189.482L200.865 190L201.191 183.343C196.3 183.232 190.668 182.271 186.191 184.157L186.31 189.482Z" fill="#DBECFE"/>
<path fill-rule="evenodd" clip-rule="evenodd" d="M170.486 188.884L184.602 189L185.191 184.058L170.191 184L170.486 188.884Z" fill="#E1EEFA"/>
<path fill-rule="evenodd" clip-rule="evenodd" d="M145.191 197.769L160.1 198L160.191 193.058L145.343 193L145.191 197.769Z" fill="#E1EEFA"/>
<path fill-rule="evenodd" clip-rule="evenodd" d="M129.305 197.801L143.163 198L143.191 193.369L129.191 193L129.305 197.801Z" fill="#E1EEFA"/>
<path fill-rule="evenodd" clip-rule="evenodd" d="M80.5577 238.324C75.8193 238.206 72.1565 238.794 69.1914 240.765L76.0809 244C78.6972 243.5 80.3833 242.529 82.8251 241.5C86.4588 239.971 87.36 239.676 89.1914 237L80.5577 238.324Z" fill="#FC8574"/>
<path fill-rule="evenodd" clip-rule="evenodd" d="M339.191 213.113L325.191 213C325.716 216.265 326.98 217.503 329.848 218.854C335.368 219.558 338.205 217.728 339.191 213.113Z" fill="#3775FC"/>
<path fill-rule="evenodd" clip-rule="evenodd" d="M250.191 244.231C251.3 247.978 253.219 249.61 256.111 248.794C258.922 248.009 259.463 244.533 259.084 240L250.191 244.231Z" fill="#FAF7F7"/>
<path fill-rule="evenodd" clip-rule="evenodd" d="M330.191 169.842L330.623 177L334.191 176.789L334.076 169.45C333.357 168.302 335.63 168.815 331.947 168L330.191 169.842Z" fill="#739BF4"/>
<path fill-rule="evenodd" clip-rule="evenodd" d="M352.583 208C354.48 206.188 354.574 211.512 353.516 200L349.191 200.474C349.907 208.334 350.965 207.387 352.583 208Z" fill="#F5FDFF"/>
<path fill-rule="evenodd" clip-rule="evenodd" d="M353.702 212C356.445 209.303 355.073 210.101 352.23 209C349.923 211.725 351.929 211.422 353.702 212Z" fill="#EBF3FD"/>
</svg>
