<svg width="197" height="19" viewBox="0 0 197 19" fill="none" xmlns="http://www.w3.org/2000/svg">
<path d="M5.1603 17.8086V4.77659H0.00029688V1.00859H15.0483V4.77659H9.9123V17.8086H5.1603ZM25.8339 17.8086V15.3846L25.5219 14.7846V10.3206C25.5219 9.60059 25.2979 9.04859 24.8499 8.66459C24.4179 8.26459 23.7219 8.06459 22.7619 8.06459C22.1379 8.06459 21.5059 8.16859 20.8659 8.37659C20.2259 8.56859 19.6819 8.84059 19.2339 9.19259L17.6979 6.09659C18.4339 5.61659 19.3139 5.24859 20.3379 4.99259C21.3779 4.72059 22.4099 4.58459 23.4339 4.58459C25.5459 4.58459 27.1779 5.07259 28.3299 6.04859C29.4979 7.00859 30.0819 8.52059 30.0819 10.5846V17.8086H25.8339ZM21.9939 18.0246C20.9539 18.0246 20.0739 17.8486 19.3539 17.4966C18.6339 17.1446 18.0819 16.6646 17.6979 16.0566C17.3299 15.4486 17.1459 14.7686 17.1459 14.0166C17.1459 13.2166 17.3459 12.5286 17.7459 11.9526C18.1619 11.3606 18.7939 10.9126 19.6419 10.6086C20.4899 10.2886 21.5859 10.1286 22.9299 10.1286H26.0019V12.5046H23.5539C22.8179 12.5046 22.2979 12.6246 21.9939 12.8646C21.7059 13.1046 21.5619 13.4246 21.5619 13.8246C21.5619 14.2246 21.7139 14.5446 22.0179 14.7846C22.3219 15.0246 22.7379 15.1446 23.2659 15.1446C23.7619 15.1446 24.2099 15.0246 24.6099 14.7846C25.0259 14.5286 25.3299 14.1446 25.5219 13.6326L26.1459 15.3126C25.9059 16.2086 25.4339 16.8886 24.7299 17.3526C24.0419 17.8006 23.1299 18.0246 21.9939 18.0246ZM38.6722 15.4086L38.7922 9.96059L44.0962 4.80059H49.4962L43.6162 10.8726L41.2882 12.7446L38.6722 15.4086ZM34.8802 17.8086V0.000592709H39.4402V17.8086H34.8802ZM44.4322 17.8086L40.4482 12.8166L43.2802 9.31259L49.9522 17.8086H44.4322ZM57.536 18.0246C56.432 18.0246 55.352 17.8966 54.296 17.6406C53.256 17.3846 52.416 17.0646 51.776 16.6806L53.144 13.5606C53.752 13.9286 54.464 14.2246 55.28 14.4486C56.096 14.6566 56.896 14.7606 57.68 14.7606C58.448 14.7606 58.976 14.6806 59.264 14.5206C59.568 14.3606 59.72 14.1446 59.72 13.8726C59.72 13.6166 59.576 13.4326 59.288 13.3206C59.016 13.1926 58.648 13.0966 58.184 13.0326C57.736 12.9686 57.24 12.8966 56.696 12.8166C56.152 12.7366 55.6 12.6326 55.04 12.5046C54.496 12.3606 53.992 12.1526 53.528 11.8806C53.08 11.5926 52.72 11.2086 52.448 10.7286C52.176 10.2486 52.04 9.64059 52.04 8.90459C52.04 8.07259 52.28 7.33659 52.76 6.69659C53.256 6.04059 53.976 5.52859 54.92 5.16059C55.864 4.77659 57.016 4.58459 58.376 4.58459C59.288 4.58459 60.208 4.68059 61.136 4.87259C62.08 5.04859 62.872 5.32059 63.512 5.68859L62.144 8.78459C61.504 8.41659 60.864 8.16859 60.224 8.04059C59.584 7.89659 58.976 7.82459 58.4 7.82459C57.632 7.82459 57.088 7.91259 56.768 8.08859C56.464 8.26459 56.312 8.48059 56.312 8.73659C56.312 8.99259 56.448 9.19259 56.72 9.33659C56.992 9.46459 57.352 9.56859 57.8 9.64859C58.264 9.71259 58.768 9.78459 59.312 9.86459C59.856 9.92859 60.4 10.0326 60.944 10.1766C61.504 10.3206 62.008 10.5366 62.456 10.8246C62.92 11.0966 63.288 11.4726 63.56 11.9526C63.832 12.4166 63.968 13.0166 63.968 13.7526C63.968 14.5526 63.72 15.2726 63.224 15.9126C62.744 16.5526 62.024 17.0646 61.064 17.4486C60.12 17.8326 58.944 18.0246 57.536 18.0246ZM76.325 4.58459C77.333 4.58459 78.245 4.79259 79.061 5.20859C79.877 5.60859 80.517 6.23259 80.981 7.08059C81.461 7.92859 81.701 9.02459 81.701 10.3686V17.8086H77.141V11.1126C77.141 10.1846 76.949 9.51259 76.565 9.09659C76.197 8.66459 75.677 8.44859 75.005 8.44859C74.525 8.44859 74.085 8.56059 73.685 8.78459C73.285 8.99259 72.973 9.32059 72.749 9.76859C72.525 10.2166 72.413 10.8006 72.413 11.5206V17.8086H67.853V0.000592709H72.413V8.49659L71.357 7.41659C71.853 6.47259 72.533 5.76859 73.397 5.30459C74.261 4.82459 75.237 4.58459 76.325 4.58459ZM94.4279 17.8086V15.3846L94.1159 14.7846V10.3206C94.1159 9.60059 93.8919 9.04859 93.4439 8.66459C93.0119 8.26459 92.3159 8.06459 91.3559 8.06459C90.7319 8.06459 90.0999 8.16859 89.4599 8.37659C88.8199 8.56859 88.2759 8.84059 87.8279 9.19259L86.2919 6.09659C87.0279 5.61659 87.9079 5.24859 88.9319 4.99259C89.9719 4.72059 91.0039 4.58459 92.0279 4.58459C94.1399 4.58459 95.7719 5.07259 96.9239 6.04859C98.0919 7.00859 98.6759 8.52059 98.6759 10.5846V17.8086H94.4279ZM90.5879 18.0246C89.5479 18.0246 88.6679 17.8486 87.9479 17.4966C87.2279 17.1446 86.6759 16.6646 86.2919 16.0566C85.9239 15.4486 85.7399 14.7686 85.7399 14.0166C85.7399 13.2166 85.9399 12.5286 86.3399 11.9526C86.7559 11.3606 87.3879 10.9126 88.2359 10.6086C89.0839 10.2886 90.1799 10.1286 91.5239 10.1286H94.5959V12.5046H92.1479C91.4119 12.5046 90.8919 12.6246 90.5879 12.8646C90.2999 13.1046 90.1559 13.4246 90.1559 13.8246C90.1559 14.2246 90.3079 14.5446 90.6119 14.7846C90.9159 15.0246 91.3319 15.1446 91.8599 15.1446C92.3559 15.1446 92.8039 15.0246 93.2039 14.7846C93.6199 14.5286 93.9239 14.1446 94.1159 13.6326L94.7399 15.3126C94.4999 16.2086 94.0279 16.8886 93.3239 17.3526C92.6359 17.8006 91.7239 18.0246 90.5879 18.0246ZM169.214 17.8086L176.63 1.00859H181.31L188.75 17.8086H183.806L177.998 3.33659H179.87L174.062 17.8086H169.214ZM173.27 14.5446L174.494 11.0406H182.702L183.926 14.5446H173.27ZM192.017 17.8086V1.00859H196.769V17.8086H192.017Z" fill="#464646"/>
<path d="M103.69 17.8086V1.00859H111.37C112.906 1.00859 114.226 1.25659 115.33 1.75259C116.45 2.24859 117.314 2.96859 117.922 3.91259C118.53 4.84059 118.834 5.94459 118.834 7.22459C118.834 8.48859 118.53 9.58459 117.922 10.5126C117.314 11.4406 116.45 12.1606 115.33 12.6726C114.226 13.1686 112.906 13.4166 111.37 13.4166H106.33L108.442 11.3526V17.8086H103.69ZM108.442 11.8566L106.33 9.67259H111.082C112.074 9.67259 112.81 9.45659 113.29 9.02459C113.786 8.59259 114.034 7.99259 114.034 7.22459C114.034 6.44059 113.786 5.83259 113.29 5.40059C112.81 4.96859 112.074 4.75259 111.082 4.75259H106.33L108.442 2.56859V11.8566ZM130.682 17.8086V15.3846L130.37 14.7846V10.3206C130.37 9.60059 130.146 9.04859 129.698 8.66459C129.266 8.26459 128.57 8.06459 127.61 8.06459C126.986 8.06459 126.354 8.16859 125.714 8.37659C125.074 8.56859 124.53 8.84059 124.082 9.19259L122.546 6.09659C123.282 5.61659 124.162 5.24859 125.186 4.99259C126.226 4.72059 127.258 4.58459 128.282 4.58459C130.394 4.58459 132.026 5.07259 133.178 6.04859C134.346 7.00859 134.93 8.52059 134.93 10.5846V17.8086H130.682ZM126.842 18.0246C125.802 18.0246 124.922 17.8486 124.202 17.4966C123.482 17.1446 122.93 16.6646 122.546 16.0566C122.178 15.4486 121.994 14.7686 121.994 14.0166C121.994 13.2166 122.194 12.5286 122.594 11.9526C123.01 11.3606 123.642 10.9126 124.49 10.6086C125.338 10.2886 126.434 10.1286 127.778 10.1286H130.85V12.5046H128.402C127.666 12.5046 127.146 12.6246 126.842 12.8646C126.554 13.1046 126.41 13.4246 126.41 13.8246C126.41 14.2246 126.562 14.5446 126.866 14.7846C127.17 15.0246 127.586 15.1446 128.114 15.1446C128.61 15.1446 129.058 15.0246 129.458 14.7846C129.874 14.5286 130.178 14.1446 130.37 13.6326L130.994 15.3126C130.754 16.2086 130.282 16.8886 129.578 17.3526C128.89 17.8006 127.978 18.0246 126.842 18.0246ZM145.536 18.0246C143.872 18.0246 142.576 17.6166 141.648 16.8006C140.72 15.9686 140.256 14.7206 140.256 13.0566V1.89659H144.816V13.0086C144.816 13.4726 144.944 13.8406 145.2 14.1126C145.456 14.3686 145.784 14.4966 146.184 14.4966C146.728 14.4966 147.192 14.3606 147.576 14.0886L148.704 17.2806C148.32 17.5366 147.848 17.7206 147.288 17.8326C146.728 17.9606 146.144 18.0246 145.536 18.0246ZM138.36 8.68859V5.28059H147.792V8.68859H138.36ZM160.855 4.58459C161.863 4.58459 162.775 4.79259 163.591 5.20859C164.407 5.60859 165.047 6.23259 165.511 7.08059C165.991 7.92859 166.231 9.02459 166.231 10.3686V17.8086H161.671V11.1126C161.671 10.1846 161.479 9.51259 161.095 9.09659C160.727 8.66459 160.207 8.44859 159.535 8.44859C159.055 8.44859 158.615 8.56059 158.215 8.78459C157.815 8.99259 157.503 9.32059 157.279 9.76859C157.055 10.2166 156.943 10.8006 156.943 11.5206V17.8086H152.383V0.000592709H156.943V8.49659L155.887 7.41659C156.383 6.47259 157.063 5.76859 157.927 5.30459C158.791 4.82459 159.767 4.58459 160.855 4.58459Z" fill="#EA8035"/>
</svg>
