<svg width="47" height="15" viewBox="0 0 47 15" fill="none" xmlns="http://www.w3.org/2000/svg">
<path d="M20.375 14.75H16.54L18.937 0.259H22.772L20.375 14.75ZM13.313 0.259L9.657 10.226L9.225 8.08L7.935 1.564C7.935 1.564 7.779 0.259 6.115 0.259H0.071L0 0.504C0 0.504 1.848 0.883 4.012 2.161L7.344 14.751H11.339L17.441 0.259H13.314H13.313ZM43.478 14.75H47L43.93 0.259H40.847C39.423 0.259 39.077 1.339 39.077 1.339L33.357 14.75H37.355L38.154 12.598H43.029L43.478 14.75ZM39.258 9.624L41.274 4.201L42.407 9.624H39.26H39.258ZM33.656 3.744L34.204 0.632C34.204 0.632 32.515 0 30.754 0C28.851 0 24.332 0.818 24.332 4.797C24.332 8.541 29.636 8.587 29.636 10.554C29.636 12.52 24.878 12.168 23.308 10.928L22.738 14.182C22.738 14.182 24.45 15 27.067 15C29.684 15 33.632 13.667 33.632 10.039C33.632 6.271 28.28 5.92 28.28 4.282C28.28 2.644 32.015 2.854 33.657 3.744H33.656Z" fill="url(#paint0_linear_5144_3187)"/>
<defs>
<linearGradient id="paint0_linear_5144_3187" x1="6" y1="4.5" x2="45.5" y2="11.5" gradientUnits="userSpaceOnUse">
<stop stop-color="#0F1961"/>
<stop offset="1" stop-color="#002897"/>
</linearGradient>
</defs>
</svg>
