<svg width="154" height="530" viewBox="0 0 154 530" fill="none" xmlns="http://www.w3.org/2000/svg">
<path d="M35.1543 411.926C58.2653 388.965 95.7357 388.965 118.847 411.926C141.958 434.887 141.958 472.114 118.847 495.075C95.7357 518.036 58.2653 518.036 35.1543 495.075C12.0433 472.114 12.0433 434.887 35.1543 411.926ZM77.5078 402.611C74.1597 402.611 71.4454 405.307 71.4453 408.634C71.4453 411.96 74.1596 414.657 77.5078 414.657C80.8559 414.657 83.5703 411.96 83.5703 408.634C83.5702 405.307 80.8558 402.611 77.5078 402.611Z" fill="#464646"/>
<path d="M54.518 460L50.396 447.4H53.42L57.002 458.56H55.49L59.234 447.4H61.934L65.534 458.56H64.076L67.748 447.4H70.538L66.416 460H63.284L60.098 450.208H60.926L57.65 460H54.518ZM73.9659 460V447.4H80.1219C81.7059 447.4 82.8939 447.7 83.6859 448.3C84.4899 448.9 84.8919 449.692 84.8919 450.676C84.8919 451.336 84.7299 451.912 84.4059 452.404C84.0819 452.884 83.6379 453.256 83.0739 453.52C82.5099 453.784 81.8619 453.916 81.1299 453.916L81.4719 453.178C82.2639 453.178 82.9659 453.31 83.5779 453.574C84.1899 453.826 84.6639 454.204 84.9999 454.708C85.3479 455.212 85.5219 455.83 85.5219 456.562C85.5219 457.642 85.0959 458.488 84.2439 459.1C83.3919 459.7 82.1379 460 80.4819 460H73.9659ZM76.8639 457.804H80.2659C81.0219 457.804 81.5919 457.684 81.9759 457.444C82.3719 457.192 82.5699 456.796 82.5699 456.256C82.5699 455.728 82.3719 455.338 81.9759 455.086C81.5919 454.822 81.0219 454.69 80.2659 454.69H76.6479V452.566H79.7619C80.4699 452.566 81.0099 452.446 81.3819 452.206C81.7659 451.954 81.9579 451.576 81.9579 451.072C81.9579 450.58 81.7659 450.214 81.3819 449.974C81.0099 449.722 80.4699 449.596 79.7619 449.596H76.8639V457.804ZM93.6695 460.216C92.6615 460.216 91.6955 460.084 90.7715 459.82C89.8475 459.544 89.1035 459.19 88.5395 458.758L89.5295 456.562C90.0695 456.946 90.7055 457.264 91.4375 457.516C92.1815 457.756 92.9315 457.876 93.6875 457.876C94.2635 457.876 94.7255 457.822 95.0735 457.714C95.4335 457.594 95.6975 457.432 95.8655 457.228C96.0335 457.024 96.1175 456.79 96.1175 456.526C96.1175 456.19 95.9855 455.926 95.7215 455.734C95.4575 455.53 95.1095 455.368 94.6775 455.248C94.2455 455.116 93.7655 454.996 93.2375 454.888C92.7215 454.768 92.1995 454.624 91.6715 454.456C91.1555 454.288 90.6815 454.072 90.2495 453.808C89.8175 453.544 89.4635 453.196 89.1875 452.764C88.9235 452.332 88.7915 451.78 88.7915 451.108C88.7915 450.388 88.9835 449.734 89.3675 449.146C89.7635 448.546 90.3515 448.072 91.1315 447.724C91.9235 447.364 92.9135 447.184 94.1015 447.184C94.8935 447.184 95.6735 447.28 96.4415 447.472C97.2095 447.652 97.8875 447.928 98.4755 448.3L97.5755 450.514C96.9875 450.178 96.3995 449.932 95.8115 449.776C95.2235 449.608 94.6475 449.524 94.0835 449.524C93.5195 449.524 93.0575 449.59 92.6975 449.722C92.3375 449.854 92.0795 450.028 91.9235 450.244C91.7675 450.448 91.6895 450.688 91.6895 450.964C91.6895 451.288 91.8215 451.552 92.0855 451.756C92.3495 451.948 92.6975 452.104 93.1295 452.224C93.5615 452.344 94.0355 452.464 94.5515 452.584C95.0795 452.704 95.6015 452.842 96.1175 452.998C96.6455 453.154 97.1255 453.364 97.5575 453.628C97.9895 453.892 98.3375 454.24 98.6015 454.672C98.8775 455.104 99.0155 455.65 99.0155 456.31C99.0155 457.018 98.8175 457.666 98.4215 458.254C98.0255 458.842 97.4315 459.316 96.6395 459.676C95.8595 460.036 94.8695 460.216 93.6695 460.216ZM105.49 452.476H111.556V454.744H105.49V452.476ZM105.706 457.66H112.564V460H102.808V447.4H112.33V449.74H105.706V457.66Z" fill="white"/>
<line x1="77.5" y1="404" x2="77.5" y2="-2.18557e-08" stroke="#787878"/>
</svg>
