<svg width="33" height="32" viewBox="0 0 33 32" fill="none" xmlns="http://www.w3.org/2000/svg">
<circle cx="17.3664" cy="14.8227" r="10.5536" transform="rotate(51.7138 17.3664 14.8227)" fill="#FFED00"/>
<path d="M5.65717 24.0368C5.37237 24.752 5.96857 25.5073 6.73034 25.3964L17.1792 23.8746C17.9409 23.7637 18.2969 22.8697 17.82 22.2655L11.2777 13.9774C10.8007 13.3732 9.84851 13.5118 9.56371 14.227L5.65717 24.0368Z" fill="#FFED00"/>
<path d="M17.4419 21.5567C17.4419 21.2767 17.4859 21.0287 17.5739 20.8127C17.6699 20.5967 17.7859 20.4047 17.9219 20.2367C18.0659 20.0687 18.2179 19.9127 18.3779 19.7687C18.5379 19.6247 18.6859 19.4887 18.8219 19.3607C18.9659 19.2247 19.0819 19.0847 19.1699 18.9407C19.2659 18.7967 19.3139 18.6367 19.3139 18.4607C19.3139 18.1727 19.1939 17.9407 18.9539 17.7647C18.7219 17.5887 18.4099 17.5007 18.0179 17.5007C17.6419 17.5007 17.3059 17.5807 17.0099 17.7407C16.7139 17.8927 16.4699 18.1087 16.2779 18.3887L14.8259 17.5367C15.1459 17.0487 15.5899 16.6607 16.1579 16.3727C16.7259 16.0767 17.4139 15.9287 18.2219 15.9287C18.8219 15.9287 19.3499 16.0167 19.8059 16.1927C20.2619 16.3607 20.6179 16.6087 20.8739 16.9367C21.1379 17.2647 21.2699 17.6687 21.2699 18.1487C21.2699 18.4607 21.2219 18.7367 21.1259 18.9767C21.0299 19.2167 20.9059 19.4247 20.7539 19.6007C20.6019 19.7767 20.4379 19.9407 20.2619 20.0927C20.0939 20.2447 19.9339 20.3927 19.7819 20.5367C19.6299 20.6807 19.5019 20.8327 19.3979 20.9927C19.3019 21.1527 19.2539 21.3407 19.2539 21.5567H17.4419ZM18.3539 24.5687C18.0179 24.5687 17.7419 24.4607 17.5259 24.2447C17.3099 24.0287 17.2019 23.7727 17.2019 23.4767C17.2019 23.1727 17.3099 22.9207 17.5259 22.7207C17.7419 22.5127 18.0179 22.4087 18.3539 22.4087C18.6979 22.4087 18.9739 22.5127 19.1819 22.7207C19.3979 22.9207 19.5059 23.1727 19.5059 23.4767C19.5059 23.7727 19.3979 24.0287 19.1819 24.2447C18.9739 24.4607 18.6979 24.5687 18.3539 24.5687Z" fill="#464646"/>
<circle cx="13.3677" cy="12.147" r="2.20557" fill="#464646"/>
<circle cx="20.7192" cy="12.147" r="2.20557" fill="#464646"/>
</svg>
