<svg width="22" height="22" viewBox="0 0 22 22" fill="none" xmlns="http://www.w3.org/2000/svg">
<path d="M6.125 6.875C7.78186 6.875 9.125 5.53186 9.125 3.875C9.125 2.21814 7.78186 0.875 6.125 0.875C4.46815 0.875 3.125 2.21814 3.125 3.875C3.125 5.53186 4.46815 6.875 6.125 6.875Z" stroke="#EF7F1A" stroke-width="1.75" stroke-linecap="round" stroke-linejoin="round"/>
<path d="M8.65457 15.9118L8.09668 20.375H4.17089L3.42089 14.375H0.875V12.125C0.875 10.7326 1.42812 9.39725 2.41268 8.41269C3.39725 7.42812 4.73261 6.875 6.12501 6.875C7.51738 6.875 8.85274 7.42812 9.83731 8.41269C10.5946 9.16997 11.0966 10.1348 11.2881 11.1735" stroke="#EF7F1A" stroke-width="1.75" stroke-linecap="round" stroke-linejoin="round"/>
<path d="M11.0234 15.0814C11.0234 14.3504 11.616 13.7578 12.347 13.7578H18.9647C19.6957 13.7578 20.2882 14.3504 20.2882 15.0814V19.052C20.2882 19.783 19.6957 20.3755 18.9647 20.3755H12.347C11.616 20.3755 11.0234 19.783 11.0234 19.052V15.0814Z" stroke="#EF7F1A" stroke-width="1.75" stroke-linecap="round" stroke-linejoin="round"/>
<path d="M13.8438 13.7576V12.7812C13.8438 11.9528 14.5153 11.2812 15.3438 11.2812H15.9627C16.791 11.2812 17.4627 11.9528 17.4627 12.7812V13.7576" stroke="#EF7F1A" stroke-width="1.75" stroke-linecap="round" stroke-linejoin="round"/>
</svg>
