<svg width="21" height="21" viewBox="0 0 21 21" fill="none" xmlns="http://www.w3.org/2000/svg">
<g clip-path="url(#clip0_5203_2763)">
<path d="M8.62335 9.75001C8.62335 11.5424 8.67596 14.0012 8.65995 16.0083M8.3421 5.10939C8.32718 4.82877 8.29157 4.44786 8.24937 4.03422C8.10851 2.65381 7.09005 1.37284 5.71547 1.18332C5.45289 1.14711 5.18769 1.125 4.92023 1.125C4.65276 1.125 4.38756 1.14711 4.12499 1.18332C2.7504 1.37284 1.77146 2.65567 1.69304 4.04104C1.47618 7.8717 1.14877 12.2586 1.17756 16.0083" stroke="#EF7F1A" stroke-width="1.71415" stroke-linecap="round" stroke-linejoin="round"/>
<path d="M4.92187 19.8281C6.99294 19.8281 8.67187 18.1492 8.67187 16.0781C8.67187 14.0071 6.99294 12.3281 4.92187 12.3281C2.85081 12.3281 1.17188 14.0071 1.17188 16.0781C1.17188 18.1492 2.85081 19.8281 4.92187 19.8281Z" stroke="#EF7F1A" stroke-width="1.71415"/>
<path d="M12.4224 9.75002C12.4224 11.5524 12.3692 14.0287 12.3861 16.0419M12.7037 5.10939C12.7186 4.82876 12.7542 4.44786 12.7964 4.03422C12.9373 2.6538 13.9557 1.37284 15.3304 1.18332C15.5929 1.14712 15.8581 1.125 16.1255 1.125C16.3931 1.125 16.6582 1.14712 16.9208 1.18332C18.2954 1.37284 19.2743 2.65566 19.3528 4.04102C19.5703 7.88312 19.8991 12.2847 19.868 16.0419" stroke="#EF7F1A" stroke-width="1.71415" stroke-linecap="round" stroke-linejoin="round"/>
<path d="M16.125 19.8281C14.0539 19.8281 12.375 18.1492 12.375 16.0781C12.375 14.0071 14.0539 12.3281 16.125 12.3281C18.1961 12.3281 19.875 14.0071 19.875 16.0781C19.875 18.1492 18.1961 19.8281 16.125 19.8281Z" stroke="#EF7F1A" stroke-width="1.71415"/>
<path d="M14.2662 6.34512C11.7077 4.63496 9.28905 4.63496 6.73047 6.34512" stroke="#EF7F1A" stroke-width="1.71415" stroke-linecap="round"/>
</g>
<defs>
<clipPath id="clip0_5203_2763">
<rect width="21" height="21" fill="white"/>
</clipPath>
</defs>
</svg>
