<svg width="247" height="58" viewBox="0 0 247 58" fill="none" xmlns="http://www.w3.org/2000/svg">
<path fill-rule="evenodd" clip-rule="evenodd" d="M23.4888 5.38672H25.3838C27.355 5.38672 28.9664 7.00596 28.9664 8.98659V11.7178C28.9664 13.6984 27.355 17.8612 25.3838 17.8612H23.4888C21.5177 17.8612 19.9062 13.6984 19.9062 11.7178V8.98659C19.9062 7.00596 21.5177 5.38672 23.4888 5.38672Z" fill="#FECC00"/>
<path fill-rule="evenodd" clip-rule="evenodd" d="M19.0717 25.9005L19.0855 36.5263C19.0855 38.5139 17.7507 42.0443 12.2939 43.6357C6.84393 45.2272 -0.203635 51.0579 5.39845 54.901C10.1568 58.1603 18.1311 53.4554 23.1246 49.9946C25.4069 51.9265 33.2083 54.6647 38.6375 54.4562C44.0667 54.2477 48.2786 47.6526 39.1562 45.3314C30.0338 43.0033 29.3975 39.7301 29.3906 36.5472L29.3768 25.9005C29.3699 23.2457 28.367 21.3068 24.5493 21.1956C20.7316 21.0914 19.0994 22.9261 19.0717 25.9005Z" fill="#FECC00"/>
<path d="M28.2409 28.0136C28.2409 27.7287 28.4691 27.4994 28.7457 27.4994C29.0293 27.4994 29.2575 27.7287 29.2575 28.0136V34.859C29.2575 35.6512 29.2783 37.0689 30.0944 38.5075C30.9243 39.9669 32.5842 41.468 35.8901 42.4409C39.1753 43.4069 41.9694 44.5675 43.6501 45.9782C45.4967 47.5141 46.0638 49.321 44.6529 51.4267C43.1936 53.6019 40.1021 54.5887 36.5264 54.6304C32.7156 54.6721 28.3239 53.6366 24.8381 51.802C24.5891 51.6769 24.4923 51.3641 24.6237 51.114C24.7482 50.8638 25.0594 50.7665 25.3084 50.8985C28.6489 52.6568 32.8609 53.6505 36.5195 53.6088C39.7701 53.5741 42.5573 52.7193 43.8091 50.8499C44.8535 49.2932 44.4039 47.938 43 46.7635C41.4369 45.457 38.7673 44.352 35.6066 43.4208C31.9894 42.3575 30.1497 40.6688 29.2091 39.0148C28.2616 37.3469 28.2409 35.7485 28.2409 34.859V28.0136ZM18.8764 19.2503C19.16 19.2503 19.3882 19.4657 19.3882 19.7367C19.3882 20.0078 19.16 20.2232 18.8764 20.2232H17.0644C16.7185 20.2371 16.3382 20.4108 15.9854 20.8278C15.6396 21.2448 15.3215 21.8772 15.0933 22.8154L11.7527 36.6102C11.4761 37.75 10.8467 38.6743 10.0237 39.3623C9.12461 40.1198 7.99036 40.5923 6.82844 40.7522C5.79793 40.9051 4.90575 40.7452 4.13806 40.4116C3.38419 40.0781 2.75482 39.5707 2.22228 39.0148C2.03554 38.8202 2.04938 38.5075 2.25686 38.3268C2.46435 38.1461 2.78941 38.16 2.97614 38.3615C3.43261 38.8341 3.95132 39.258 4.55994 39.529C5.16165 39.7862 5.86018 39.9113 6.6832 39.7931C7.65838 39.6541 8.60589 39.258 9.35284 38.6326C10.0237 38.0696 10.5355 37.3191 10.7568 36.3948L14.1042 22.5999C14.3671 21.5089 14.7544 20.7375 15.1901 20.2162C15.7572 19.5421 16.4212 19.2711 17.0436 19.2503H17.0989H18.8764ZM23.033 3.54427H25.0179C26.1937 3.54427 27.2657 4.03074 28.0334 4.80909C28.808 5.58744 29.2921 6.65767 29.2921 7.83909V10.7023C29.2921 11.9463 28.725 13.9478 27.8466 15.4558C27.1135 16.7137 26.1314 17.6658 25.0179 17.6658H23.033C21.9195 17.6658 20.9374 16.7137 20.2043 15.4558C19.3259 13.9478 18.7588 11.9463 18.7588 10.7023V7.83909C18.7588 6.65767 19.2429 5.58744 20.0176 4.80909C20.7922 4.03074 21.8573 3.54427 23.033 3.54427ZM25.0179 4.5728H23.033C22.1408 4.5728 21.3247 4.94113 20.7368 5.53184C20.149 6.12256 19.7824 6.9426 19.7824 7.83909V10.7023C19.7824 11.8003 20.2873 13.5794 21.0826 14.9415C21.6498 15.9075 22.3414 16.6372 23.033 16.6372H25.0179C25.7165 16.6372 26.4081 15.9075 26.9683 14.9415C27.7637 13.5794 28.2685 11.8003 28.2685 10.7023V7.83909C28.2685 6.9426 27.902 6.12256 27.3141 5.53184C26.7262 4.94113 25.9101 4.5728 25.0179 4.5728ZM23.9044 0C24.3955 0 24.7897 0.403074 24.7897 0.896492C24.7897 1.38991 24.3955 1.78603 23.9044 1.78603C23.4134 1.78603 23.0123 1.38991 23.0123 0.896492C23.0123 0.403074 23.4134 0 23.9044 0ZM23.9044 7.37347C24.3955 7.37347 24.7897 7.7696 24.7897 8.26302C24.7897 8.75644 24.3955 9.15951 23.9044 9.15951C23.4134 9.15951 23.0123 8.75644 23.0123 8.26302C23.0123 7.7696 23.4134 7.37347 23.9044 7.37347ZM23.9044 22.4193C24.3955 22.4193 24.7897 22.8154 24.7897 23.3088C24.7897 23.8022 24.3955 24.2053 23.9044 24.2053C23.4134 24.2053 23.0123 23.8022 23.0123 23.3088C23.0123 22.8154 23.4134 22.4193 23.9044 22.4193ZM23.9044 27.1658C24.3955 27.1658 24.7897 27.5619 24.7897 28.0553C24.7897 28.5488 24.3955 28.9518 23.9044 28.9518C23.4134 28.9518 23.0123 28.5488 23.0123 28.0553C23.0123 27.5619 23.4134 27.1658 23.9044 27.1658ZM23.9044 31.9123C24.3955 31.9123 24.7897 32.3085 24.7897 32.8019C24.7897 33.2953 24.3955 33.6984 23.9044 33.6984C23.4134 33.6984 23.0123 33.2953 23.0123 32.8019C23.0123 32.3085 23.4134 31.9123 23.9044 31.9123ZM23.9044 36.6589C24.3955 36.6589 24.7897 37.055 24.7897 37.5484C24.7897 38.0418 24.3955 38.4449 23.9044 38.4449C23.4134 38.4449 23.0123 38.0418 23.0123 37.5484C23.0123 37.055 23.4134 36.6589 23.9044 36.6589ZM23.9044 41.4054C24.3955 41.4054 24.7897 41.8016 24.7897 42.295C24.7897 42.7884 24.3955 43.1915 23.9044 43.1915C23.4134 43.1915 23.0123 42.7884 23.0123 42.295C23.0123 41.8016 23.4134 41.4054 23.9044 41.4054ZM28.2893 20.2232C28.0126 20.2232 27.7844 20.0078 27.7844 19.7367C27.7844 19.4657 28.0126 19.2503 28.2893 19.2503H30.0737L30.1359 19.2572C30.7514 19.285 31.3462 19.5143 31.8719 20.0703C32.356 20.5846 32.7779 21.3907 33.0683 22.5999L36.4158 36.3948C36.6371 37.3191 37.1489 38.0696 37.8197 38.6326C38.5667 39.258 39.5142 39.6541 40.4894 39.7931C41.3124 39.9113 42.0109 39.7862 42.6057 39.529C43.2213 39.258 43.74 38.8341 44.1964 38.3615C44.3832 38.16 44.7082 38.1461 44.9157 38.3268C45.1232 38.5075 45.137 38.8202 44.9434 39.0148C44.4178 39.5707 43.7884 40.0781 43.0345 40.4116C42.2599 40.7452 41.3747 40.9051 40.3372 40.7522C39.1822 40.5923 38.048 40.1198 37.1489 39.3623C36.3259 38.6743 35.6965 37.75 35.4198 36.6102L32.0724 22.8154C31.8234 21.7868 31.4915 21.1197 31.1111 20.7236C30.7929 20.383 30.4471 20.244 30.0944 20.2232H28.2893ZM18.4822 28.0136C18.4822 27.7287 18.7104 27.4994 18.994 27.4994C19.2775 27.4994 19.5058 27.7287 19.5058 28.0136V34.859C19.5058 35.9917 19.3674 37.6249 18.4199 39.2233C17.4793 40.8147 15.7503 42.3575 12.5896 43.2818C10.0514 44.0254 7.27799 45.4709 5.3553 47.1527C4.38704 48.0006 3.64701 48.904 3.27354 49.7866C2.93464 50.6066 2.92081 51.4128 3.36345 52.1633C3.66084 52.6707 4.16572 53.1571 4.91267 53.6158C10.5009 57.0558 22.3276 47.7295 22.3621 47.7017L22.376 47.6878C22.8186 47.3334 28.9187 42.5521 31.9341 46.5342C32.1001 46.7566 32.0586 47.0763 31.8304 47.25C31.609 47.4168 31.2909 47.3751 31.1249 47.1527C28.7319 43.9907 23.4272 48.1604 23.0192 48.487L22.9846 48.5148C22.95 48.5426 10.577 58.2998 4.38012 54.4914C3.48102 53.9355 2.86548 53.3309 2.48509 52.6846C1.86264 51.6282 1.86956 50.5093 2.33294 49.3974C2.76866 48.355 3.60551 47.3334 4.68443 46.3883C6.71778 44.6092 9.6364 43.0803 12.306 42.3019C15.1693 41.461 16.7185 40.0989 17.5416 38.7021C18.3646 37.3121 18.4822 35.8666 18.4822 34.859V28.0136Z" fill="black"/>
<path d="M64.68 36V19.2H68.592L75.552 30.624H73.488L80.256 19.2H84.168L84.216 36H79.848L79.8 25.848H80.544L75.48 34.344H73.368L68.16 25.848H69.072V36H64.68ZM96.6504 36.216C95.2264 36.216 93.9624 35.928 92.8584 35.352C91.7544 34.776 90.8824 33.984 90.2424 32.976C89.6184 31.952 89.3064 30.784 89.3064 29.472C89.3064 28.16 89.6184 27 90.2424 25.992C90.8824 24.984 91.7544 24.2 92.8584 23.64C93.9624 23.064 95.2264 22.776 96.6504 22.776C98.0744 22.776 99.3384 23.064 100.442 23.64C101.562 24.2 102.434 24.984 103.058 25.992C103.682 27 103.994 28.16 103.994 29.472C103.994 30.784 103.682 31.952 103.058 32.976C102.434 33.984 101.562 34.776 100.442 35.352C99.3384 35.928 98.0744 36.216 96.6504 36.216ZM96.6504 32.592C97.1784 32.592 97.6424 32.472 98.0424 32.232C98.4584 31.992 98.7864 31.64 99.0264 31.176C99.2664 30.696 99.3864 30.128 99.3864 29.472C99.3864 28.816 99.2664 28.264 99.0264 27.816C98.7864 27.352 98.4584 27 98.0424 26.76C97.6424 26.52 97.1784 26.4 96.6504 26.4C96.1384 26.4 95.6744 26.52 95.2584 26.76C94.8584 27 94.5304 27.352 94.2744 27.816C94.0344 28.264 93.9144 28.816 93.9144 29.472C93.9144 30.128 94.0344 30.696 94.2744 31.176C94.5304 31.64 94.8584 31.992 95.2584 32.232C95.6744 32.472 96.1384 32.592 96.6504 32.592ZM112.659 33.6L112.779 28.152L118.083 22.992H123.483L117.603 29.064L115.275 30.936L112.659 33.6ZM108.867 36V18.192H113.427V36H108.867ZM118.419 36L114.435 31.008L117.267 27.504L123.939 36H118.419ZM132.363 36.216C131.259 36.216 130.179 36.088 129.123 35.832C128.083 35.576 127.243 35.256 126.603 34.872L127.971 31.752C128.579 32.12 129.291 32.416 130.107 32.64C130.923 32.848 131.723 32.952 132.507 32.952C133.275 32.952 133.803 32.872 134.091 32.712C134.395 32.552 134.547 32.336 134.547 32.064C134.547 31.808 134.403 31.624 134.115 31.512C133.843 31.384 133.475 31.288 133.011 31.224C132.563 31.16 132.067 31.088 131.523 31.008C130.979 30.928 130.427 30.824 129.867 30.696C129.323 30.552 128.819 30.344 128.355 30.072C127.907 29.784 127.547 29.4 127.275 28.92C127.003 28.44 126.867 27.832 126.867 27.096C126.867 26.264 127.107 25.528 127.587 24.888C128.083 24.232 128.803 23.72 129.747 23.352C130.691 22.968 131.843 22.776 133.203 22.776C134.115 22.776 135.035 22.872 135.963 23.064C136.907 23.24 137.699 23.512 138.339 23.88L136.971 26.976C136.331 26.608 135.691 26.36 135.051 26.232C134.411 26.088 133.803 26.016 133.227 26.016C132.459 26.016 131.915 26.104 131.595 26.28C131.291 26.456 131.139 26.672 131.139 26.928C131.139 27.184 131.275 27.384 131.547 27.528C131.819 27.656 132.179 27.76 132.627 27.84C133.091 27.904 133.595 27.976 134.139 28.056C134.683 28.12 135.227 28.224 135.771 28.368C136.331 28.512 136.835 28.728 137.283 29.016C137.747 29.288 138.115 29.664 138.387 30.144C138.659 30.608 138.795 31.208 138.795 31.944C138.795 32.744 138.547 33.464 138.051 34.104C137.571 34.744 136.851 35.256 135.891 35.64C134.947 36.024 133.771 36.216 132.363 36.216ZM151.992 22.776C153 22.776 153.912 22.984 154.728 23.4C155.544 23.8 156.184 24.424 156.648 25.272C157.128 26.12 157.368 27.216 157.368 28.56V36H152.808V29.304C152.808 28.376 152.616 27.704 152.232 27.288C151.864 26.856 151.344 26.64 150.672 26.64C150.192 26.64 149.752 26.752 149.352 26.976C148.952 27.184 148.64 27.512 148.416 27.96C148.192 28.408 148.08 28.992 148.08 29.712V36H143.52V18.192H148.08V26.688L147.024 25.608C147.52 24.664 148.2 23.96 149.064 23.496C149.928 23.016 150.904 22.776 151.992 22.776ZM170.935 36V33.576L170.623 32.976V28.512C170.623 27.792 170.399 27.24 169.951 26.856C169.519 26.456 168.823 26.256 167.863 26.256C167.239 26.256 166.607 26.36 165.967 26.568C165.327 26.76 164.783 27.032 164.335 27.384L162.799 24.288C163.535 23.808 164.415 23.44 165.439 23.184C166.479 22.912 167.511 22.776 168.535 22.776C170.647 22.776 172.279 23.264 173.431 24.24C174.599 25.2 175.183 26.712 175.183 28.776V36H170.935ZM167.095 36.216C166.055 36.216 165.175 36.04 164.455 35.688C163.735 35.336 163.183 34.856 162.799 34.248C162.431 33.64 162.247 32.96 162.247 32.208C162.247 31.408 162.447 30.72 162.847 30.144C163.263 29.552 163.895 29.104 164.743 28.8C165.591 28.48 166.687 28.32 168.031 28.32H171.103V30.696H168.655C167.919 30.696 167.399 30.816 167.095 31.056C166.807 31.296 166.663 31.616 166.663 32.016C166.663 32.416 166.815 32.736 167.119 32.976C167.423 33.216 167.839 33.336 168.367 33.336C168.863 33.336 169.311 33.216 169.711 32.976C170.127 32.72 170.431 32.336 170.623 31.824L171.247 33.504C171.007 34.4 170.535 35.08 169.831 35.544C169.143 35.992 168.231 36.216 167.095 36.216Z" fill="#464646"/>
<path d="M181.037 36V19.2H188.717C190.253 19.2 191.573 19.448 192.677 19.944C193.797 20.44 194.661 21.16 195.269 22.104C195.877 23.032 196.181 24.136 196.181 25.416C196.181 26.68 195.877 27.776 195.269 28.704C194.661 29.632 193.797 30.352 192.677 30.864C191.573 31.36 190.253 31.608 188.717 31.608H183.677L185.789 29.544V36H181.037ZM185.789 30.048L183.677 27.864H188.429C189.421 27.864 190.157 27.648 190.637 27.216C191.133 26.784 191.381 26.184 191.381 25.416C191.381 24.632 191.133 24.024 190.637 23.592C190.157 23.16 189.421 22.944 188.429 22.944H183.677L185.789 20.76V30.048ZM208.869 36V33.576L208.557 32.976V28.512C208.557 27.792 208.333 27.24 207.885 26.856C207.453 26.456 206.757 26.256 205.797 26.256C205.173 26.256 204.541 26.36 203.901 26.568C203.261 26.76 202.717 27.032 202.269 27.384L200.733 24.288C201.469 23.808 202.349 23.44 203.373 23.184C204.413 22.912 205.445 22.776 206.469 22.776C208.581 22.776 210.213 23.264 211.365 24.24C212.533 25.2 213.117 26.712 213.117 28.776V36H208.869ZM205.029 36.216C203.989 36.216 203.109 36.04 202.389 35.688C201.669 35.336 201.117 34.856 200.733 34.248C200.365 33.64 200.181 32.96 200.181 32.208C200.181 31.408 200.381 30.72 200.781 30.144C201.197 29.552 201.829 29.104 202.677 28.8C203.525 28.48 204.621 28.32 205.965 28.32H209.037V30.696H206.589C205.853 30.696 205.333 30.816 205.029 31.056C204.741 31.296 204.597 31.616 204.597 32.016C204.597 32.416 204.749 32.736 205.053 32.976C205.357 33.216 205.773 33.336 206.301 33.336C206.797 33.336 207.245 33.216 207.645 32.976C208.061 32.72 208.365 32.336 208.557 31.824L209.181 33.504C208.941 34.4 208.469 35.08 207.765 35.544C207.077 35.992 206.165 36.216 205.029 36.216ZM224.563 36.216C222.899 36.216 221.603 35.808 220.675 34.992C219.747 34.16 219.283 32.912 219.283 31.248V20.088H223.843V31.2C223.843 31.664 223.971 32.032 224.227 32.304C224.483 32.56 224.811 32.688 225.211 32.688C225.755 32.688 226.219 32.552 226.603 32.28L227.731 35.472C227.347 35.728 226.875 35.912 226.315 36.024C225.755 36.152 225.171 36.216 224.563 36.216ZM217.387 26.88V23.472H226.819V26.88H217.387ZM240.721 22.776C241.729 22.776 242.641 22.984 243.457 23.4C244.273 23.8 244.913 24.424 245.377 25.272C245.857 26.12 246.097 27.216 246.097 28.56V36H241.537V29.304C241.537 28.376 241.345 27.704 240.961 27.288C240.593 26.856 240.073 26.64 239.401 26.64C238.921 26.64 238.481 26.752 238.081 26.976C237.681 27.184 237.369 27.512 237.145 27.96C236.921 28.408 236.809 28.992 236.809 29.712V36H232.249V18.192H236.809V26.688L235.753 25.608C236.249 24.664 236.929 23.96 237.793 23.496C238.657 23.016 239.633 22.776 240.721 22.776Z" fill="#EA8035"/>
<path d="M68.052 52.096C67.404 52.096 66.808 51.992 66.264 51.784C65.72 51.568 65.248 51.268 64.848 50.884C64.448 50.492 64.136 50.036 63.912 49.516C63.688 48.996 63.576 48.424 63.576 47.8C63.576 47.176 63.688 46.604 63.912 46.084C64.136 45.564 64.448 45.112 64.848 44.728C65.256 44.336 65.732 44.036 66.276 43.828C66.82 43.612 67.42 43.504 68.076 43.504C68.74 43.504 69.348 43.612 69.9 43.828C70.452 44.044 70.92 44.368 71.304 44.8L70.56 45.544C70.216 45.208 69.84 44.964 69.432 44.812C69.032 44.652 68.596 44.572 68.124 44.572C67.644 44.572 67.196 44.652 66.78 44.812C66.372 44.972 66.016 45.196 65.712 45.484C65.416 45.772 65.184 46.116 65.016 46.516C64.856 46.908 64.776 47.336 64.776 47.8C64.776 48.256 64.856 48.684 65.016 49.084C65.184 49.476 65.416 49.82 65.712 50.116C66.016 50.404 66.372 50.628 66.78 50.788C67.188 50.948 67.632 51.028 68.112 51.028C68.56 51.028 68.988 50.96 69.396 50.824C69.812 50.68 70.196 50.444 70.548 50.116L71.232 51.028C70.816 51.38 70.328 51.648 69.768 51.832C69.216 52.008 68.644 52.096 68.052 52.096ZM70.08 50.872V47.752H71.232V51.028L70.08 50.872ZM76.2175 52.072C75.6735 52.072 75.1935 51.972 74.7775 51.772C74.3695 51.572 74.0495 51.268 73.8175 50.86C73.5935 50.444 73.4815 49.924 73.4815 49.3V45.64H74.6335V49.168C74.6335 49.792 74.7815 50.26 75.0775 50.572C75.3815 50.884 75.8055 51.04 76.3495 51.04C76.7495 51.04 77.0975 50.96 77.3935 50.8C77.6895 50.632 77.9175 50.392 78.0775 50.08C78.2375 49.76 78.3175 49.376 78.3175 48.928V45.64H79.4695V52H78.3775V50.284L78.5575 50.74C78.3495 51.164 78.0375 51.492 77.6215 51.724C77.2055 51.956 76.7375 52.072 76.2175 52.072ZM81.8426 52V45.64H82.9946V52H81.8426ZM82.4186 44.416C82.1946 44.416 82.0066 44.344 81.8546 44.2C81.7106 44.056 81.6386 43.88 81.6386 43.672C81.6386 43.456 81.7106 43.276 81.8546 43.132C82.0066 42.988 82.1946 42.916 82.4186 42.916C82.6426 42.916 82.8266 42.988 82.9706 43.132C83.1226 43.268 83.1986 43.44 83.1986 43.648C83.1986 43.864 83.1266 44.048 82.9826 44.2C82.8386 44.344 82.6506 44.416 82.4186 44.416ZM88.0022 52.072C87.3862 52.072 86.8342 51.936 86.3462 51.664C85.8662 51.392 85.4862 51.012 85.2062 50.524C84.9262 50.036 84.7862 49.468 84.7862 48.82C84.7862 48.172 84.9262 47.608 85.2062 47.128C85.4862 46.64 85.8662 46.26 86.3462 45.988C86.8342 45.716 87.3862 45.58 88.0022 45.58C88.5382 45.58 89.0222 45.7 89.4542 45.94C89.8862 46.18 90.2302 46.54 90.4862 47.02C90.7502 47.5 90.8822 48.1 90.8822 48.82C90.8822 49.54 90.7542 50.14 90.4982 50.62C90.2502 51.1 89.9102 51.464 89.4782 51.712C89.0462 51.952 88.5542 52.072 88.0022 52.072ZM88.0982 51.064C88.4982 51.064 88.8582 50.972 89.1782 50.788C89.5062 50.604 89.7622 50.344 89.9462 50.008C90.1382 49.664 90.2342 49.268 90.2342 48.82C90.2342 48.364 90.1382 47.972 89.9462 47.644C89.7622 47.308 89.5062 47.048 89.1782 46.864C88.8582 46.68 88.4982 46.588 88.0982 46.588C87.6902 46.588 87.3262 46.68 87.0062 46.864C86.6862 47.048 86.4302 47.308 86.2382 47.644C86.0462 47.972 85.9502 48.364 85.9502 48.82C85.9502 49.268 86.0462 49.664 86.2382 50.008C86.4302 50.344 86.6862 50.604 87.0062 50.788C87.3262 50.972 87.6902 51.064 88.0982 51.064ZM90.2702 52V50.284L90.3422 48.808L90.2222 47.332V43.096H91.3742V52H90.2702ZM96.5659 52.072C95.8859 52.072 95.2859 51.932 94.7659 51.652C94.2539 51.372 93.8539 50.988 93.5659 50.5C93.2859 50.012 93.1459 49.452 93.1459 48.82C93.1459 48.188 93.2819 47.628 93.5539 47.14C93.8339 46.652 94.2139 46.272 94.6939 46C95.1819 45.72 95.7299 45.58 96.3379 45.58C96.9539 45.58 97.4979 45.716 97.9699 45.988C98.4419 46.26 98.8099 46.644 99.0739 47.14C99.3459 47.628 99.4819 48.2 99.4819 48.856C99.4819 48.904 99.4779 48.96 99.4699 49.024C99.4699 49.088 99.4659 49.148 99.4579 49.204H94.0459V48.376H98.8579L98.3899 48.664C98.3979 48.256 98.3139 47.892 98.1379 47.572C97.9619 47.252 97.7179 47.004 97.4059 46.828C97.1019 46.644 96.7459 46.552 96.3379 46.552C95.9379 46.552 95.5819 46.644 95.2699 46.828C94.9579 47.004 94.7139 47.256 94.5379 47.584C94.3619 47.904 94.2739 48.272 94.2739 48.688V48.88C94.2739 49.304 94.3699 49.684 94.5619 50.02C94.7619 50.348 95.0379 50.604 95.3899 50.788C95.7419 50.972 96.1459 51.064 96.6019 51.064C96.9779 51.064 97.3179 51 97.6219 50.872C97.9339 50.744 98.2059 50.552 98.4379 50.296L99.0739 51.04C98.7859 51.376 98.4259 51.632 97.9939 51.808C97.5699 51.984 97.0939 52.072 96.5659 52.072ZM103.89 52.072C103.274 52.072 102.722 51.936 102.234 51.664C101.754 51.392 101.374 51.012 101.094 50.524C100.814 50.036 100.674 49.468 100.674 48.82C100.674 48.172 100.814 47.608 101.094 47.128C101.374 46.64 101.754 46.26 102.234 45.988C102.722 45.716 103.274 45.58 103.89 45.58C104.426 45.58 104.91 45.7 105.342 45.94C105.774 46.18 106.118 46.54 106.374 47.02C106.638 47.5 106.77 48.1 106.77 48.82C106.77 49.54 106.642 50.14 106.386 50.62C106.138 51.1 105.798 51.464 105.366 51.712C104.934 51.952 104.442 52.072 103.89 52.072ZM103.986 51.064C104.386 51.064 104.746 50.972 105.066 50.788C105.394 50.604 105.65 50.344 105.834 50.008C106.026 49.664 106.122 49.268 106.122 48.82C106.122 48.364 106.026 47.972 105.834 47.644C105.65 47.308 105.394 47.048 105.066 46.864C104.746 46.68 104.386 46.588 103.986 46.588C103.578 46.588 103.214 46.68 102.894 46.864C102.574 47.048 102.318 47.308 102.126 47.644C101.934 47.972 101.838 48.364 101.838 48.82C101.838 49.268 101.934 49.664 102.126 50.008C102.318 50.344 102.574 50.604 102.894 50.788C103.214 50.972 103.578 51.064 103.986 51.064ZM106.158 52V50.284L106.23 48.808L106.11 47.332V43.096H107.262V52H106.158ZM113.192 52V43.6H116.468C117.204 43.6 117.832 43.716 118.352 43.948C118.872 44.18 119.272 44.516 119.552 44.956C119.832 45.396 119.972 45.92 119.972 46.528C119.972 47.136 119.832 47.66 119.552 48.1C119.272 48.532 118.872 48.868 118.352 49.108C117.832 49.34 117.204 49.456 116.468 49.456H113.852L114.392 48.892V52H113.192ZM114.392 49.012L113.852 48.412H116.432C117.2 48.412 117.78 48.248 118.172 47.92C118.572 47.592 118.772 47.128 118.772 46.528C118.772 45.928 118.572 45.464 118.172 45.136C117.78 44.808 117.2 44.644 116.432 44.644H113.852L114.392 44.044V49.012ZM125.636 52V50.656L125.576 50.404V48.112C125.576 47.624 125.432 47.248 125.144 46.984C124.864 46.712 124.44 46.576 123.872 46.576C123.496 46.576 123.128 46.64 122.768 46.768C122.408 46.888 122.104 47.052 121.856 47.26L121.376 46.396C121.704 46.132 122.096 45.932 122.552 45.796C123.016 45.652 123.5 45.58 124.004 45.58C124.876 45.58 125.548 45.792 126.02 46.216C126.492 46.64 126.728 47.288 126.728 48.16V52H125.636ZM123.548 52.072C123.076 52.072 122.66 51.992 122.3 51.832C121.948 51.672 121.676 51.452 121.484 51.172C121.292 50.884 121.196 50.56 121.196 50.2C121.196 49.856 121.276 49.544 121.436 49.264C121.604 48.984 121.872 48.76 122.24 48.592C122.616 48.424 123.12 48.34 123.752 48.34H125.768V49.168H123.8C123.224 49.168 122.836 49.264 122.636 49.456C122.436 49.648 122.336 49.88 122.336 50.152C122.336 50.464 122.46 50.716 122.708 50.908C122.956 51.092 123.3 51.184 123.74 51.184C124.172 51.184 124.548 51.088 124.868 50.896C125.196 50.704 125.432 50.424 125.576 50.056L125.804 50.848C125.652 51.224 125.384 51.524 125 51.748C124.616 51.964 124.132 52.072 123.548 52.072ZM131.224 52.072C130.584 52.072 130.088 51.9 129.736 51.556C129.384 51.212 129.208 50.72 129.208 50.08V44.248H130.36V50.032C130.36 50.376 130.444 50.64 130.612 50.824C130.788 51.008 131.036 51.1 131.356 51.1C131.716 51.1 132.016 51 132.256 50.8L132.616 51.628C132.44 51.78 132.228 51.892 131.98 51.964C131.74 52.036 131.488 52.072 131.224 52.072ZM128.128 46.588V45.64H132.184V46.588H128.128ZM137.585 45.58C138.105 45.58 138.561 45.68 138.953 45.88C139.353 46.08 139.665 46.384 139.889 46.792C140.113 47.2 140.225 47.716 140.225 48.34V52H139.073V48.472C139.073 47.856 138.921 47.392 138.617 47.08C138.321 46.768 137.901 46.612 137.357 46.612C136.949 46.612 136.593 46.692 136.289 46.852C135.985 47.012 135.749 47.248 135.581 47.56C135.421 47.872 135.341 48.26 135.341 48.724V52H134.189V43.096H135.341V47.356L135.113 46.9C135.321 46.484 135.641 46.16 136.073 45.928C136.505 45.696 137.009 45.58 137.585 45.58ZM148.124 52.072C147.484 52.072 146.988 51.9 146.636 51.556C146.284 51.212 146.108 50.72 146.108 50.08V44.248H147.26V50.032C147.26 50.376 147.344 50.64 147.512 50.824C147.688 51.008 147.936 51.1 148.256 51.1C148.616 51.1 148.916 51 149.156 50.8L149.516 51.628C149.34 51.78 149.128 51.892 148.88 51.964C148.64 52.036 148.388 52.072 148.124 52.072ZM145.028 46.588V45.64H149.084V46.588H145.028ZM153.601 52.072C152.961 52.072 152.393 51.932 151.897 51.652C151.401 51.372 151.009 50.988 150.721 50.5C150.433 50.004 150.289 49.444 150.289 48.82C150.289 48.188 150.433 47.628 150.721 47.14C151.009 46.652 151.401 46.272 151.897 46C152.393 45.72 152.961 45.58 153.601 45.58C154.233 45.58 154.797 45.72 155.293 46C155.797 46.272 156.189 46.652 156.469 47.14C156.757 47.62 156.901 48.18 156.901 48.82C156.901 49.452 156.757 50.012 156.469 50.5C156.189 50.988 155.797 51.372 155.293 51.652C154.797 51.932 154.233 52.072 153.601 52.072ZM153.601 51.064C154.009 51.064 154.373 50.972 154.693 50.788C155.021 50.604 155.277 50.344 155.461 50.008C155.645 49.664 155.737 49.268 155.737 48.82C155.737 48.364 155.645 47.972 155.461 47.644C155.277 47.308 155.021 47.048 154.693 46.864C154.373 46.68 154.009 46.588 153.601 46.588C153.193 46.588 152.829 46.68 152.509 46.864C152.189 47.048 151.933 47.308 151.741 47.644C151.549 47.972 151.453 48.364 151.453 48.82C151.453 49.268 151.549 49.664 151.741 50.008C151.933 50.344 152.189 50.604 152.509 50.788C152.829 50.972 153.193 51.064 153.601 51.064ZM163.913 52V44.644H161.033V43.6H167.981V44.644H165.101V52H163.913ZM169.148 52V45.64H170.252V47.368L170.144 46.936C170.32 46.496 170.616 46.16 171.032 45.928C171.448 45.696 171.96 45.58 172.568 45.58V46.696C172.52 46.688 172.472 46.684 172.424 46.684C172.384 46.684 172.344 46.684 172.304 46.684C171.688 46.684 171.2 46.868 170.84 47.236C170.48 47.604 170.3 48.136 170.3 48.832V52H169.148ZM176.926 52.072C176.382 52.072 175.902 51.972 175.486 51.772C175.078 51.572 174.758 51.268 174.526 50.86C174.302 50.444 174.19 49.924 174.19 49.3V45.64H175.342V49.168C175.342 49.792 175.49 50.26 175.786 50.572C176.09 50.884 176.514 51.04 177.058 51.04C177.458 51.04 177.806 50.96 178.102 50.8C178.398 50.632 178.626 50.392 178.786 50.08C178.946 49.76 179.026 49.376 179.026 48.928V45.64H180.178V52H179.086V50.284L179.266 50.74C179.058 51.164 178.746 51.492 178.33 51.724C177.914 51.956 177.446 52.072 176.926 52.072ZM185.383 52.072C184.703 52.072 184.103 51.932 183.583 51.652C183.071 51.372 182.671 50.988 182.383 50.5C182.103 50.012 181.963 49.452 181.963 48.82C181.963 48.188 182.099 47.628 182.371 47.14C182.651 46.652 183.031 46.272 183.511 46C183.999 45.72 184.547 45.58 185.155 45.58C185.771 45.58 186.315 45.716 186.787 45.988C187.259 46.26 187.627 46.644 187.891 47.14C188.163 47.628 188.299 48.2 188.299 48.856C188.299 48.904 188.295 48.96 188.287 49.024C188.287 49.088 188.283 49.148 188.275 49.204H182.863V48.376H187.675L187.207 48.664C187.215 48.256 187.131 47.892 186.955 47.572C186.779 47.252 186.535 47.004 186.223 46.828C185.919 46.644 185.563 46.552 185.155 46.552C184.755 46.552 184.399 46.644 184.087 46.828C183.775 47.004 183.531 47.256 183.355 47.584C183.179 47.904 183.091 48.272 183.091 48.688V48.88C183.091 49.304 183.187 49.684 183.379 50.02C183.579 50.348 183.855 50.604 184.207 50.788C184.559 50.972 184.963 51.064 185.419 51.064C185.795 51.064 186.135 51 186.439 50.872C186.751 50.744 187.023 50.552 187.255 50.296L187.891 51.04C187.603 51.376 187.243 51.632 186.811 51.808C186.387 51.984 185.911 52.072 185.383 52.072ZM193.649 52V43.6H194.849V50.956H199.397V52H193.649ZM203.536 52.072C202.856 52.072 202.256 51.932 201.736 51.652C201.224 51.372 200.824 50.988 200.536 50.5C200.256 50.012 200.116 49.452 200.116 48.82C200.116 48.188 200.252 47.628 200.524 47.14C200.804 46.652 201.184 46.272 201.664 46C202.152 45.72 202.7 45.58 203.308 45.58C203.924 45.58 204.468 45.716 204.94 45.988C205.412 46.26 205.78 46.644 206.044 47.14C206.316 47.628 206.452 48.2 206.452 48.856C206.452 48.904 206.448 48.96 206.44 49.024C206.44 49.088 206.436 49.148 206.428 49.204H201.016V48.376H205.828L205.36 48.664C205.368 48.256 205.284 47.892 205.108 47.572C204.932 47.252 204.688 47.004 204.376 46.828C204.072 46.644 203.716 46.552 203.308 46.552C202.908 46.552 202.552 46.644 202.24 46.828C201.928 47.004 201.684 47.256 201.508 47.584C201.332 47.904 201.244 48.272 201.244 48.688V48.88C201.244 49.304 201.34 49.684 201.532 50.02C201.732 50.348 202.008 50.604 202.36 50.788C202.712 50.972 203.116 51.064 203.572 51.064C203.948 51.064 204.288 51 204.592 50.872C204.904 50.744 205.176 50.552 205.408 50.296L206.044 51.04C205.756 51.376 205.396 51.632 204.964 51.808C204.54 51.984 204.064 52.072 203.536 52.072ZM212.004 52V50.656L211.944 50.404V48.112C211.944 47.624 211.8 47.248 211.512 46.984C211.232 46.712 210.808 46.576 210.24 46.576C209.864 46.576 209.496 46.64 209.136 46.768C208.776 46.888 208.472 47.052 208.224 47.26L207.744 46.396C208.072 46.132 208.464 45.932 208.92 45.796C209.384 45.652 209.868 45.58 210.372 45.58C211.244 45.58 211.916 45.792 212.388 46.216C212.86 46.64 213.096 47.288 213.096 48.16V52H212.004ZM209.916 52.072C209.444 52.072 209.028 51.992 208.668 51.832C208.316 51.672 208.044 51.452 207.852 51.172C207.66 50.884 207.564 50.56 207.564 50.2C207.564 49.856 207.644 49.544 207.804 49.264C207.972 48.984 208.24 48.76 208.608 48.592C208.984 48.424 209.488 48.34 210.12 48.34H212.136V49.168H210.168C209.592 49.168 209.204 49.264 209.004 49.456C208.804 49.648 208.704 49.88 208.704 50.152C208.704 50.464 208.828 50.716 209.076 50.908C209.324 51.092 209.668 51.184 210.108 51.184C210.54 51.184 210.916 51.088 211.236 50.896C211.564 50.704 211.8 50.424 211.944 50.056L212.172 50.848C212.02 51.224 211.752 51.524 211.368 51.748C210.984 51.964 210.5 52.072 209.916 52.072ZM215.408 52V45.64H216.512V47.368L216.404 46.936C216.58 46.496 216.876 46.16 217.292 45.928C217.708 45.696 218.22 45.58 218.828 45.58V46.696C218.78 46.688 218.732 46.684 218.684 46.684C218.644 46.684 218.604 46.684 218.564 46.684C217.948 46.684 217.46 46.868 217.1 47.236C216.74 47.604 216.56 48.136 216.56 48.832V52H215.408ZM223.824 45.58C224.344 45.58 224.8 45.68 225.192 45.88C225.592 46.08 225.904 46.384 226.128 46.792C226.352 47.2 226.464 47.716 226.464 48.34V52H225.312V48.472C225.312 47.856 225.16 47.392 224.856 47.08C224.56 46.768 224.14 46.612 223.596 46.612C223.188 46.612 222.832 46.692 222.528 46.852C222.224 47.012 221.988 47.248 221.82 47.56C221.66 47.872 221.58 48.26 221.58 48.724V52H220.428V45.64H221.532V47.356L221.352 46.9C221.56 46.484 221.88 46.16 222.312 45.928C222.744 45.696 223.248 45.58 223.824 45.58ZM228.776 52V45.64H229.928V52H228.776ZM229.352 44.416C229.128 44.416 228.94 44.344 228.788 44.2C228.644 44.056 228.572 43.88 228.572 43.672C228.572 43.456 228.644 43.276 228.788 43.132C228.94 42.988 229.128 42.916 229.352 42.916C229.576 42.916 229.76 42.988 229.904 43.132C230.056 43.268 230.132 43.44 230.132 43.648C230.132 43.864 230.06 44.048 229.916 44.2C229.772 44.344 229.584 44.416 229.352 44.416ZM235.703 45.58C236.223 45.58 236.679 45.68 237.071 45.88C237.471 46.08 237.783 46.384 238.007 46.792C238.231 47.2 238.343 47.716 238.343 48.34V52H237.191V48.472C237.191 47.856 237.039 47.392 236.735 47.08C236.439 46.768 236.019 46.612 235.475 46.612C235.067 46.612 234.711 46.692 234.407 46.852C234.103 47.012 233.867 47.248 233.699 47.56C233.539 47.872 233.459 48.26 233.459 48.724V52H232.307V45.64H233.411V47.356L233.231 46.9C233.439 46.484 233.759 46.16 234.191 45.928C234.623 45.696 235.127 45.58 235.703 45.58ZM243.439 54.4C242.855 54.4 242.287 54.316 241.735 54.148C241.191 53.988 240.747 53.756 240.403 53.452L240.955 52.564C241.251 52.82 241.615 53.02 242.047 53.164C242.479 53.316 242.931 53.392 243.403 53.392C244.155 53.392 244.707 53.216 245.059 52.864C245.411 52.512 245.587 51.976 245.587 51.256V49.912L245.707 48.652L245.647 47.38V45.64H246.739V51.136C246.739 52.256 246.459 53.08 245.899 53.608C245.339 54.136 244.519 54.4 243.439 54.4ZM243.295 51.736C242.679 51.736 242.127 51.608 241.639 51.352C241.159 51.088 240.775 50.724 240.487 50.26C240.207 49.796 240.067 49.26 240.067 48.652C240.067 48.036 240.207 47.5 240.487 47.044C240.775 46.58 241.159 46.22 241.639 45.964C242.127 45.708 242.679 45.58 243.295 45.58C243.839 45.58 244.335 45.692 244.783 45.916C245.231 46.132 245.587 46.468 245.851 46.924C246.123 47.38 246.259 47.956 246.259 48.652C246.259 49.34 246.123 49.912 245.851 50.368C245.587 50.824 245.231 51.168 244.783 51.4C244.335 51.624 243.839 51.736 243.295 51.736ZM243.427 50.728C243.851 50.728 244.227 50.64 244.555 50.464C244.883 50.288 245.139 50.044 245.323 49.732C245.515 49.42 245.611 49.06 245.611 48.652C245.611 48.244 245.515 47.884 245.323 47.572C245.139 47.26 244.883 47.02 244.555 46.852C244.227 46.676 243.851 46.588 243.427 46.588C243.003 46.588 242.623 46.676 242.287 46.852C241.959 47.02 241.699 47.26 241.507 47.572C241.323 47.884 241.231 48.244 241.231 48.652C241.231 49.06 241.323 49.42 241.507 49.732C241.699 50.044 241.959 50.288 242.287 50.464C242.623 50.64 243.003 50.728 243.427 50.728Z" fill="#464646"/>
</svg>
