<svg width="44" height="56" viewBox="0 0 44 56" fill="none" xmlns="http://www.w3.org/2000/svg">
<path fill-rule="evenodd" clip-rule="evenodd" d="M21.4888 5.38672H23.3838C25.355 5.38672 26.9664 7.00596 26.9664 8.98659V11.7178C26.9664 13.6984 25.355 17.8612 23.3838 17.8612H21.4888C19.5177 17.8612 17.9062 13.6984 17.9062 11.7178V8.98659C17.9062 7.00596 19.5177 5.38672 21.4888 5.38672Z" fill="#EA8035"/>
<path fill-rule="evenodd" clip-rule="evenodd" d="M17.0717 25.9005L17.0855 36.5263C17.0855 38.5139 15.7507 42.0443 10.2939 43.6357C4.84393 45.2272 -2.20363 51.0579 3.39845 54.901C8.15677 58.1603 16.1311 53.4554 21.1246 49.9946C23.4069 51.9265 31.2083 54.6647 36.6375 54.4562C42.0667 54.2477 46.2786 47.6526 37.1562 45.3314C28.0338 43.0033 27.3975 39.7301 27.3906 36.5472L27.3768 25.9005C27.3699 23.2457 26.367 21.3068 22.5493 21.1956C18.7316 21.0914 17.0994 22.9261 17.0717 25.9005Z" fill="#EA8035"/>
<path d="M26.2409 28.0136C26.2409 27.7287 26.4691 27.4994 26.7457 27.4994C27.0293 27.4994 27.2575 27.7287 27.2575 28.0136V34.859C27.2575 35.6512 27.2783 37.0689 28.0944 38.5075C28.9243 39.9669 30.5842 41.468 33.8901 42.4409C37.1753 43.4069 39.9694 44.5675 41.6501 45.9782C43.4967 47.5141 44.0638 49.321 42.6529 51.4267C41.1936 53.6019 38.1021 54.5887 34.5264 54.6304C30.7156 54.6721 26.3239 53.6366 22.8381 51.802C22.5891 51.6769 22.4923 51.3641 22.6237 51.114C22.7482 50.8638 23.0594 50.7665 23.3084 50.8985C26.6489 52.6568 30.8609 53.6505 34.5195 53.6088C37.7701 53.5741 40.5573 52.7193 41.8091 50.8499C42.8535 49.2932 42.4039 47.938 41 46.7635C39.4369 45.457 36.7673 44.352 33.6066 43.4208C29.9894 42.3575 28.1497 40.6688 27.2091 39.0148C26.2616 37.3469 26.2409 35.7485 26.2409 34.859V28.0136ZM16.8764 19.2503C17.16 19.2503 17.3882 19.4657 17.3882 19.7367C17.3882 20.0078 17.16 20.2232 16.8764 20.2232H15.0644C14.7185 20.2371 14.3382 20.4108 13.9854 20.8278C13.6396 21.2448 13.3215 21.8772 13.0933 22.8154L9.75275 36.6102C9.4761 37.75 8.84673 38.6743 8.02371 39.3623C7.12461 40.1198 5.99036 40.5923 4.82844 40.7522C3.79793 40.9051 2.90575 40.7452 2.13806 40.4116C1.38419 40.0781 0.754825 39.5707 0.22228 39.0148C0.0355441 38.8202 0.0493764 38.5075 0.256861 38.3268C0.464346 38.1461 0.789405 38.16 0.976142 38.3615C1.43261 38.8341 1.95132 39.258 2.55994 39.529C3.16165 39.7862 3.86018 39.9113 4.6832 39.7931C5.65838 39.6541 6.60589 39.258 7.35284 38.6326C8.02371 38.0696 8.5355 37.3191 8.75682 36.3948L12.1042 22.5999C12.3671 21.5089 12.7544 20.7375 13.1901 20.2162C13.7572 19.5421 14.4212 19.2711 15.0436 19.2503H15.0989H16.8764ZM21.033 3.54427H23.0179C24.1937 3.54427 25.2657 4.03074 26.0334 4.80909C26.808 5.58744 27.2921 6.65767 27.2921 7.83909V10.7023C27.2921 11.9463 26.725 13.9478 25.8466 15.4558C25.1135 16.7137 24.1314 17.6658 23.0179 17.6658H21.033C19.9195 17.6658 18.9374 16.7137 18.2043 15.4558C17.3259 13.9478 16.7588 11.9463 16.7588 10.7023V7.83909C16.7588 6.65767 17.2429 5.58744 18.0176 4.80909C18.7922 4.03074 19.8573 3.54427 21.033 3.54427ZM23.0179 4.5728H21.033C20.1408 4.5728 19.3247 4.94113 18.7368 5.53184C18.149 6.12256 17.7824 6.9426 17.7824 7.83909V10.7023C17.7824 11.8003 18.2873 13.5794 19.0826 14.9415C19.6498 15.9075 20.3414 16.6372 21.033 16.6372H23.0179C23.7165 16.6372 24.4081 15.9075 24.9683 14.9415C25.7637 13.5794 26.2685 11.8003 26.2685 10.7023V7.83909C26.2685 6.9426 25.902 6.12256 25.3141 5.53184C24.7262 4.94113 23.9101 4.5728 23.0179 4.5728ZM21.9044 0C22.3955 0 22.7897 0.403074 22.7897 0.896492C22.7897 1.38991 22.3955 1.78603 21.9044 1.78603C21.4134 1.78603 21.0123 1.38991 21.0123 0.896492C21.0123 0.403074 21.4134 0 21.9044 0ZM21.9044 7.37347C22.3955 7.37347 22.7897 7.7696 22.7897 8.26302C22.7897 8.75644 22.3955 9.15951 21.9044 9.15951C21.4134 9.15951 21.0123 8.75644 21.0123 8.26302C21.0123 7.7696 21.4134 7.37347 21.9044 7.37347ZM21.9044 22.4193C22.3955 22.4193 22.7897 22.8154 22.7897 23.3088C22.7897 23.8022 22.3955 24.2053 21.9044 24.2053C21.4134 24.2053 21.0123 23.8022 21.0123 23.3088C21.0123 22.8154 21.4134 22.4193 21.9044 22.4193ZM21.9044 27.1658C22.3955 27.1658 22.7897 27.5619 22.7897 28.0553C22.7897 28.5488 22.3955 28.9518 21.9044 28.9518C21.4134 28.9518 21.0123 28.5488 21.0123 28.0553C21.0123 27.5619 21.4134 27.1658 21.9044 27.1658ZM21.9044 31.9123C22.3955 31.9123 22.7897 32.3085 22.7897 32.8019C22.7897 33.2953 22.3955 33.6984 21.9044 33.6984C21.4134 33.6984 21.0123 33.2953 21.0123 32.8019C21.0123 32.3085 21.4134 31.9123 21.9044 31.9123ZM21.9044 36.6589C22.3955 36.6589 22.7897 37.055 22.7897 37.5484C22.7897 38.0418 22.3955 38.4449 21.9044 38.4449C21.4134 38.4449 21.0123 38.0418 21.0123 37.5484C21.0123 37.055 21.4134 36.6589 21.9044 36.6589ZM21.9044 41.4054C22.3955 41.4054 22.7897 41.8016 22.7897 42.295C22.7897 42.7884 22.3955 43.1915 21.9044 43.1915C21.4134 43.1915 21.0123 42.7884 21.0123 42.295C21.0123 41.8016 21.4134 41.4054 21.9044 41.4054ZM26.2893 20.2232C26.0126 20.2232 25.7844 20.0078 25.7844 19.7367C25.7844 19.4657 26.0126 19.2503 26.2893 19.2503H28.0737L28.1359 19.2572C28.7514 19.285 29.3462 19.5143 29.8719 20.0703C30.356 20.5846 30.7779 21.3907 31.0683 22.5999L34.4158 36.3948C34.6371 37.3191 35.1489 38.0696 35.8197 38.6326C36.5667 39.258 37.5142 39.6541 38.4894 39.7931C39.3124 39.9113 40.0109 39.7862 40.6057 39.529C41.2213 39.258 41.74 38.8341 42.1964 38.3615C42.3832 38.16 42.7082 38.1461 42.9157 38.3268C43.1232 38.5075 43.137 38.8202 42.9434 39.0148C42.4178 39.5707 41.7884 40.0781 41.0345 40.4116C40.2599 40.7452 39.3747 40.9051 38.3372 40.7522C37.1822 40.5923 36.048 40.1198 35.1489 39.3623C34.3259 38.6743 33.6965 37.75 33.4198 36.6102L30.0724 22.8154C29.8234 21.7868 29.4915 21.1197 29.1111 20.7236C28.7929 20.383 28.4471 20.244 28.0944 20.2232H26.2893ZM16.4822 28.0136C16.4822 27.7287 16.7104 27.4994 16.994 27.4994C17.2775 27.4994 17.5058 27.7287 17.5058 28.0136V34.859C17.5058 35.9917 17.3674 37.6249 16.4199 39.2233C15.4793 40.8147 13.7503 42.3575 10.5896 43.2818C8.05137 44.0254 5.27799 45.4709 3.3553 47.1527C2.38704 48.0006 1.64701 48.904 1.27354 49.7866C0.934645 50.6066 0.920812 51.4128 1.36345 52.1633C1.66084 52.6707 2.16572 53.1571 2.91267 53.6158C8.50092 57.0558 20.3276 47.7295 20.3621 47.7017L20.376 47.6878C20.8186 47.3334 26.9187 42.5521 29.9341 46.5342C30.1001 46.7566 30.0586 47.0763 29.8304 47.25C29.609 47.4168 29.2909 47.3751 29.1249 47.1527C26.7319 43.9907 21.4272 48.1604 21.0192 48.487L20.9846 48.5148C20.95 48.5426 8.577 58.2998 2.38012 54.4914C1.48102 53.9355 0.865483 53.3309 0.485094 52.6846C-0.13736 51.6282 -0.130444 50.5093 0.332939 49.3974C0.768657 48.355 1.60551 47.3334 2.68443 46.3883C4.71778 44.6092 7.6364 43.0803 10.306 42.3019C13.1693 41.461 14.7185 40.0989 15.5416 38.7021C16.3646 37.3121 16.4822 35.8666 16.4822 34.859V28.0136Z" fill="black"/>
</svg>
