<svg width="21" height="22" viewBox="0 0 21 22" fill="none" xmlns="http://www.w3.org/2000/svg">
<path fill-rule="evenodd" clip-rule="evenodd" d="M14.2479 2.28913V2.10781C14.4292 2.10781 14.8825 2.01715 15.0638 2.10781C15.4265 2.10781 15.8797 2.37979 16.1517 2.5611C17.2396 3.28637 17.0583 4.73691 17.0583 6.00613H1.37438C1.37438 4.91822 1.19307 3.83032 1.73702 3.0144C2.19031 2.37979 2.91558 2.01715 4.09414 2.10781C4.09414 2.47044 4.27546 2.83308 4.72875 2.83308C5.18204 2.83308 5.36336 2.47044 5.36336 2.10781H8.53641C8.53641 2.37979 8.53641 2.47044 8.71772 2.65176C8.9897 2.92374 9.71497 3.0144 9.80563 2.10781H12.9787C12.9787 2.28913 12.9787 2.37979 13.0693 2.5611C13.5226 3.0144 14.2479 2.83308 14.2479 2.28913ZM1.37438 18.4263C1.28372 18.245 1.28372 17.9731 1.28372 17.7011C1.28372 16.3412 1.28372 7.54732 1.37438 7.366C2.55294 7.27535 4.00348 7.27535 5.2727 7.27535H16.605C16.7863 7.27535 16.9676 7.27535 17.0583 7.366C17.0583 7.8193 16.877 8.9072 17.149 9.26983C17.4209 9.72313 18.2369 9.54181 18.3275 8.9072C18.3275 8.54457 18.3275 5.55283 18.3275 4.82757C18.3275 3.64901 18.2369 2.74242 17.3303 1.83584C16.9676 1.4732 16.605 1.20123 16.0611 1.01991C15.8797 0.92925 15.5171 0.838591 15.2451 0.838591C14.9732 0.747933 14.6105 0.838591 14.2479 0.747933C14.2479 -0.249311 13.0693 -0.249311 12.9787 0.747933H9.80563C9.80563 -0.249311 8.53641 -0.249311 8.53641 0.747933H5.36336C5.36336 -0.249311 4.09414 -0.249311 4.09414 0.747933C3.00624 0.838591 2.55294 0.747933 1.73702 1.29188C1.19307 1.65452 0.739774 2.10781 0.377139 2.74242C0.0145054 3.46769 0.0145054 4.28362 0.0145054 5.1902V16.5225C0.0145054 17.4291 -0.0761532 18.4263 0.195822 19.2423C0.649115 20.5115 1.82768 21.5994 3.45953 21.6901C4.63809 21.6901 6.3606 21.6901 7.62982 21.6901C7.99246 21.6901 8.71772 21.7807 8.9897 21.5994C9.35233 21.3274 9.44299 20.8741 9.17102 20.6021C8.89904 20.3302 8.44575 20.3302 7.9018 20.3302C6.99521 20.3302 5.99797 20.3302 5.09138 20.3302C4.1848 20.3302 3.27821 20.5115 2.55294 20.0582C2.09965 19.8769 1.37438 19.1516 1.37438 18.4263Z" fill="#EF7F1A"/>
<path fill-rule="evenodd" clip-rule="evenodd" d="M11.7093 19.9687L11.9812 18.4275C11.9812 18.1555 11.9812 18.0649 12.0719 17.8836C12.6159 17.4303 15.6076 14.3479 15.9702 14.0759C16.0609 14.0759 17.5114 15.6171 17.6021 15.7078C17.5114 15.8891 14.0664 19.2434 13.7944 19.5154C13.6131 19.7874 13.0691 19.7874 12.7972 19.7874C12.4345 19.878 11.9812 19.9687 11.7093 19.9687ZM16.8768 13.0787C16.9675 12.988 17.6927 12.2627 17.874 12.1721C18.8713 11.5375 20.1405 12.716 19.5059 13.7133C19.4152 13.8946 18.7806 14.6199 18.5993 14.7105C18.418 14.6199 17.1488 13.3506 16.8768 13.0787ZM20.5031 11.7188V11.6281C20.1405 11.1748 19.5966 10.8122 18.7806 10.7215C17.5114 10.5402 16.8768 11.2655 16.1515 11.9908L11.528 16.6143C10.8933 17.249 10.8027 17.1583 10.6214 18.3369C10.44 19.3341 9.98676 20.7846 11.1653 21.2379C11.6186 21.3286 11.9812 21.2379 12.3439 21.2379C13.0691 21.0566 14.0664 21.0566 14.5197 20.694C14.5197 20.6033 14.701 20.422 14.7917 20.3313L16.5142 18.6995C16.6048 18.6088 16.6955 18.5182 16.7861 18.3369L19.2339 15.8891C19.3246 15.7984 19.4152 15.7984 19.4152 15.7078C20.1405 14.8918 21.2284 14.2572 20.9564 12.6254C20.8658 12.4441 20.6845 11.9001 20.5031 11.7188Z" fill="#EF7F1A"/>
<path fill-rule="evenodd" clip-rule="evenodd" d="M4.81978 9.63209C4.5478 9.72275 4.27583 10.0854 4.45715 10.448C4.5478 10.9013 4.91044 10.9013 5.36373 10.9013C6.27032 10.9013 13.251 10.992 13.4323 10.9013C13.795 10.8107 14.067 10.448 13.8856 10.0854C13.795 9.63209 13.4323 9.63209 12.979 9.63209C12.0725 9.63209 5.09176 9.54143 4.81978 9.63209Z" fill="#EF7F1A"/>
<path fill-rule="evenodd" clip-rule="evenodd" d="M4.90896 13.2569C4.18369 13.4382 4.27435 14.3448 4.90896 14.5261H7.26608C7.90069 14.5261 11.527 14.5261 11.8897 14.4354C12.5243 14.2541 12.4336 13.3475 11.799 13.1662C11.527 13.1662 9.80452 13.1662 9.44188 13.1662C8.80727 13.1662 5.18093 13.0756 4.90896 13.2569Z" fill="#EF7F1A"/>
<path fill-rule="evenodd" clip-rule="evenodd" d="M4.91154 16.7932C4.45824 16.9745 4.18627 17.4278 4.5489 17.7905C4.82088 18.1531 5.27417 18.0624 5.81812 18.0624C6.36207 18.0624 8.71919 18.1531 9.08183 18.0624C9.44446 17.9718 9.71644 17.4278 9.3538 17.0652C9.17249 16.7026 8.53788 16.7932 8.08459 16.7932C7.54063 16.7932 5.18351 16.7026 4.91154 16.7932Z" fill="#EF7F1A"/>
<path fill-rule="evenodd" clip-rule="evenodd" d="M14.2461 2.28899C14.3368 2.28899 14.2461 2.37965 14.3368 2.28899C14.3368 2.19833 14.3368 2.19833 14.3368 2.10768H15.062C14.8807 2.01702 14.4274 2.10768 14.2461 2.10768V2.28899Z" fill="#EF7F1A"/>
</svg>
