<svg width="19" height="19" viewBox="0 0 19 19" fill="none" xmlns="http://www.w3.org/2000/svg">
<path fill-rule="evenodd" clip-rule="evenodd" d="M8.56892 12.0787H6.92105L7.03091 10.4308L12.9632 4.49824L14.5013 6.14616L8.56892 12.0787ZM0 6.58561V16.4732C0 18.3408 0.988722 19 2.52673 19H12.414C14.3914 18.8901 14.9407 17.7915 14.9407 14.7154C14.9407 13.6168 15.1604 12.2984 14.0618 12.0787C12.7435 11.859 12.9632 13.397 12.9632 14.3858C12.9632 17.7915 13.2928 17.0225 5.38304 17.0225C1.20844 17.0225 1.97744 17.9014 1.97744 10.3209C1.97744 9.44202 1.86759 7.79409 1.97744 7.02506C2.19716 5.81658 3.4056 6.14616 4.61403 6.14616C5.38304 6.14616 7.03091 6.36589 6.92105 5.04754C6.92105 4.38837 6.37176 4.16865 5.71261 4.16865H2.74645C0.878864 4.16865 0 5.59685 0 6.58561ZM14.3914 3.07003C14.6111 2.74045 15.7097 1.31224 16.6984 2.301C17.3576 2.96017 16.9181 3.7292 16.3688 4.27851C16.1491 4.49824 16.1491 4.49824 15.9294 4.6081L14.3914 3.07003ZM14.3914 0.433347C13.8421 0.762933 12.5238 2.08127 12.0844 2.63058L5.82247 8.78285C5.05347 9.55188 4.94361 9.33216 4.94361 10.8702C4.94361 11.7491 4.72389 13.2872 5.27318 13.7266C5.82247 14.2759 7.25063 14.0562 8.01963 14.0562C9.55764 14.0562 9.44779 14.0562 10.2168 13.1773L18.566 4.71796C20.2139 2.19114 16.8083 -1.21458 14.3914 0.433347Z" fill="#EF7F1A"/>
</svg>
