<svg width="265" height="45" viewBox="0 0 265 45" fill="none" xmlns="http://www.w3.org/2000/svg">
<path d="M13.1552 35.377L-0.000765644 4.57695H9.41523L20.5032 31.241H14.9592L26.3112 4.57695H34.9352L21.7352 35.377H13.1552ZM37.8238 35.377V11.529H46.1838V35.377H37.8238ZM42.0038 8.88895C40.4784 8.88895 39.2464 8.46362 38.3078 7.61295C37.3691 6.76229 36.8998 5.70629 36.8998 4.44495C36.8998 3.18362 37.3691 2.12762 38.3078 1.27695C39.2464 0.426285 40.4784 0.000952244 42.0038 0.000952244C43.5291 0.000952244 44.7611 0.411619 45.6998 1.23295C46.6384 2.02495 47.1078 3.05162 47.1078 4.31295C47.1078 5.63295 46.6384 6.73295 45.6998 7.61295C44.7904 8.46362 43.5584 8.88895 42.0038 8.88895ZM62.8807 35.773C60.7101 35.773 58.7301 35.2743 56.9407 34.277C55.1807 33.2503 53.7727 31.8276 52.7167 30.009C51.6607 28.161 51.1327 25.961 51.1327 23.409C51.1327 20.8863 51.6607 18.7156 52.7167 16.897C53.7727 15.049 55.1807 13.6263 56.9407 12.629C58.7301 11.6316 60.7101 11.133 62.8807 11.133C64.9341 11.133 66.6647 11.573 68.0727 12.453C69.5101 13.333 70.5954 14.6823 71.3287 16.501C72.0621 18.3196 72.4287 20.6223 72.4287 23.409C72.4287 26.2543 72.0767 28.5863 71.3727 30.405C70.6687 32.2236 69.6127 33.573 68.2047 34.453C66.7967 35.333 65.0221 35.773 62.8807 35.773ZM64.6407 29.129C65.5794 29.129 66.4154 28.909 67.1487 28.469C67.9114 28.029 68.5127 27.3836 68.9527 26.533C69.3927 25.653 69.6127 24.6116 69.6127 23.409C69.6127 22.2063 69.3927 21.1943 68.9527 20.373C68.5127 19.5223 67.9114 18.877 67.1487 18.437C66.4154 17.997 65.5794 17.777 64.6407 17.777C63.6727 17.777 62.8074 17.997 62.0447 18.437C61.3114 18.877 60.7247 19.5223 60.2847 20.373C59.8447 21.1943 59.6247 22.2063 59.6247 23.409C59.6247 24.6116 59.8447 25.653 60.2847 26.533C60.7247 27.3836 61.3114 28.029 62.0447 28.469C62.8074 28.909 63.6727 29.129 64.6407 29.129ZM69.8767 35.377V31.285L69.9207 23.409L69.4807 15.533V2.72895H77.8407V35.377H69.8767ZM88.1914 44.309C86.9301 44.309 85.6541 44.1036 84.3634 43.693C83.1021 43.3116 82.0754 42.7983 81.2834 42.153L84.1874 36.301C84.6861 36.741 85.2581 37.0783 85.9034 37.313C86.5781 37.577 87.2381 37.709 87.8834 37.709C88.7927 37.709 89.5114 37.5036 90.0394 37.093C90.5674 36.6823 91.0221 36.037 91.4034 35.157L92.5034 32.385L93.1634 31.549L101.259 11.529H109.223L98.9274 36.345C98.1061 38.3983 97.1527 39.997 96.0674 41.141C95.0114 42.3143 93.8234 43.1356 92.5034 43.605C91.2127 44.0743 89.7754 44.309 88.1914 44.309ZM91.4474 36.389L80.9314 11.529H89.5114L97.2554 30.801L91.4474 36.389ZM126.012 35.377V30.933L125.44 29.833V21.649C125.44 20.329 125.029 19.317 124.208 18.613C123.416 17.8796 122.14 17.513 120.38 17.513C119.236 17.513 118.077 17.7036 116.904 18.085C115.731 18.437 114.733 18.9356 113.912 19.581L111.096 13.905C112.445 13.025 114.059 12.3503 115.936 11.881C117.843 11.3823 119.735 11.133 121.612 11.133C125.484 11.133 128.476 12.0276 130.588 13.817C132.729 15.577 133.8 18.349 133.8 22.133V35.377H126.012ZM118.972 35.773C117.065 35.773 115.452 35.4503 114.132 34.805C112.812 34.1596 111.8 33.2796 111.096 32.165C110.421 31.0503 110.084 29.8036 110.084 28.425C110.084 26.9583 110.451 25.697 111.184 24.641C111.947 23.5556 113.105 22.7343 114.66 22.177C116.215 21.5903 118.224 21.297 120.688 21.297H126.32V25.653H121.832C120.483 25.653 119.529 25.873 118.972 26.313C118.444 26.753 118.18 27.3396 118.18 28.073C118.18 28.8063 118.459 29.393 119.016 29.833C119.573 30.273 120.336 30.493 121.304 30.493C122.213 30.493 123.035 30.273 123.768 29.833C124.531 29.3636 125.088 28.6596 125.44 27.721L126.584 30.801C126.144 32.4436 125.279 33.6903 123.988 34.541C122.727 35.3623 121.055 35.773 118.972 35.773Z" fill="white"/>
<path d="M160.646 28.337L160.25 20.109L174.99 4.57695H182.91L169.622 18.877L165.662 23.101L160.646 28.337ZM154.266 35.377V4.57695H161.35V35.377H154.266ZM175.342 35.377L164.386 21.957L169.05 16.897L183.658 35.377H175.342ZM197.508 35.729C194.985 35.729 192.741 35.201 190.776 34.145C188.84 33.089 187.3 31.6516 186.156 29.833C185.041 27.985 184.484 25.8876 184.484 23.541C184.484 21.165 185.041 19.0676 186.156 17.249C187.3 15.401 188.84 13.9636 190.776 12.937C192.741 11.881 194.985 11.353 197.508 11.353C200.001 11.353 202.231 11.881 204.196 12.937C206.161 13.9636 207.701 15.3863 208.816 17.205C209.931 19.0236 210.488 21.1356 210.488 23.541C210.488 25.8876 209.931 27.985 208.816 29.833C207.701 31.6516 206.161 33.089 204.196 34.145C202.231 35.201 200.001 35.729 197.508 35.729ZM197.508 30.097C198.652 30.097 199.679 29.833 200.588 29.305C201.497 28.777 202.216 28.029 202.744 27.061C203.272 26.0636 203.536 24.8903 203.536 23.541C203.536 22.1623 203.272 20.989 202.744 20.021C202.216 19.053 201.497 18.305 200.588 17.777C199.679 17.249 198.652 16.985 197.508 16.985C196.364 16.985 195.337 17.249 194.428 17.777C193.519 18.305 192.785 19.053 192.228 20.021C191.7 20.989 191.436 22.1623 191.436 23.541C191.436 24.8903 191.7 26.0636 192.228 27.061C192.785 28.029 193.519 28.777 194.428 29.305C195.337 29.833 196.364 30.097 197.508 30.097ZM223.92 35.729C221.896 35.729 219.945 35.4943 218.068 35.025C216.22 34.5263 214.753 33.9103 213.668 33.177L215.956 28.249C217.041 28.9236 218.317 29.481 219.784 29.921C221.28 30.3316 222.747 30.537 224.184 30.537C225.768 30.537 226.883 30.3463 227.528 29.965C228.203 29.5836 228.54 29.0556 228.54 28.381C228.54 27.8236 228.276 27.413 227.748 27.149C227.249 26.8556 226.575 26.6356 225.724 26.489C224.873 26.3423 223.935 26.1956 222.908 26.049C221.911 25.9023 220.899 25.7116 219.872 25.477C218.845 25.213 217.907 24.8316 217.056 24.333C216.205 23.8343 215.516 23.1596 214.988 22.309C214.489 21.4583 214.24 20.3583 214.24 19.009C214.24 17.513 214.665 16.193 215.516 15.049C216.396 13.905 217.657 13.0103 219.3 12.365C220.943 11.6903 222.908 11.353 225.196 11.353C226.809 11.353 228.452 11.529 230.124 11.881C231.796 12.233 233.189 12.7463 234.304 13.421L232.016 18.305C230.872 17.6303 229.713 17.1756 228.54 16.941C227.396 16.677 226.281 16.545 225.196 16.545C223.671 16.545 222.556 16.7503 221.852 17.161C221.148 17.5716 220.796 18.0996 220.796 18.745C220.796 19.3316 221.045 19.7716 221.544 20.065C222.072 20.3583 222.761 20.593 223.612 20.769C224.463 20.945 225.387 21.1063 226.384 21.253C227.411 21.3703 228.437 21.561 229.464 21.825C230.491 22.089 231.415 22.4703 232.236 22.969C233.087 23.4383 233.776 24.0983 234.304 24.949C234.832 25.7703 235.096 26.8556 235.096 28.205C235.096 29.6716 234.656 30.977 233.776 32.121C232.896 33.2356 231.62 34.1156 229.948 34.761C228.305 35.4063 226.296 35.729 223.92 35.729ZM254.599 11.353C256.476 11.353 258.148 11.7343 259.615 12.497C261.111 13.2303 262.284 14.3743 263.135 15.929C263.986 17.4543 264.411 19.4196 264.411 21.825V35.377H257.547V22.881C257.547 20.9743 257.122 19.5663 256.271 18.657C255.45 17.7476 254.276 17.293 252.751 17.293C251.666 17.293 250.683 17.5276 249.803 17.997C248.952 18.437 248.278 19.1263 247.779 20.065C247.31 21.0036 247.075 22.2063 247.075 23.673V35.377H240.211V2.72895H247.075V18.261L245.535 16.281C246.386 14.697 247.603 13.4796 249.187 12.629C250.771 11.7783 252.575 11.353 254.599 11.353Z" fill="#EA4335"/>
</svg>
