<svg width="20" height="25" viewBox="0 0 20 25" fill="none" xmlns="http://www.w3.org/2000/svg">
<g clip-path="url(#clip0_5217_3781)">
<path fill-rule="evenodd" clip-rule="evenodd" d="M1.91017 0.00195312H14.1482C15.1987 0.00195312 16.0584 0.863686 16.0584 1.9167V12.5939C13.6916 11.0592 10.5128 11.3183 8.45565 13.3804C7.19763 14.6415 6.61193 16.3234 6.69734 17.9824H2.63712C2.01959 17.9824 1.51408 18.4889 1.51408 19.1081C1.51408 19.7273 2.01959 20.2338 2.63712 20.2338H7.24999C7.38758 20.5336 7.5504 20.8246 7.73845 21.1038H1.91017C0.859673 21.1038 0 20.242 0 19.189V1.9167C0 0.863686 0.859673 0.00195312 1.91017 0.00195312ZM11.6532 3.67975H4.40517C4.12928 3.67975 3.90314 3.90643 3.90314 4.18298C3.90314 4.4597 4.12911 4.68621 4.40517 4.68621H11.6532C11.9293 4.68621 12.1553 4.45988 12.1553 4.18298C12.1553 3.90625 11.929 3.67975 11.6532 3.67975ZM11.6532 5.80461H4.40517C4.12928 5.80461 3.90314 6.03129 3.90314 6.30784V6.30802C3.90314 6.58456 4.12911 6.81124 4.40517 6.81124H11.6532C11.9293 6.81124 12.1553 6.58474 12.1553 6.30802V6.30784C12.1553 6.03112 11.929 5.80461 11.6532 5.80461ZM8.02912 7.92947H4.40517C4.12928 7.92947 3.90314 8.15615 3.90314 8.4327V8.43288C3.90314 8.70943 4.12911 8.93611 4.40517 8.93611H8.02912C8.30536 8.93611 8.53115 8.7096 8.53115 8.43288V8.4327C8.53115 8.15598 8.30484 7.92947 8.02912 7.92947Z" fill="#B0CB1F"/>
<path fill-rule="evenodd" clip-rule="evenodd" d="M9.40641 14.3784C11.2381 12.5423 14.2209 12.5552 16.0684 14.4074C17.8485 16.1917 17.9254 19.032 16.2906 20.8793C16.5691 20.76 16.9055 20.8137 17.132 21.0407L19.7776 23.6927C20.0744 23.9902 20.0744 24.4769 19.7776 24.7745C19.4809 25.072 18.9952 25.072 18.6984 24.7745L16.0528 22.1225C15.8263 21.8955 15.7727 21.5583 15.8919 21.2789C14.0489 22.9178 11.2153 22.8409 9.43529 21.0564C7.58757 19.2043 7.57469 16.2145 9.40641 14.3784ZM10.3193 15.2935C11.6513 13.9584 13.8199 13.968 15.1634 15.3146C16.5068 16.6613 16.5162 18.8351 15.1844 20.1703C13.8525 21.5053 11.6838 21.4958 10.3404 20.1492C8.99693 18.8025 8.98753 16.6285 10.3193 15.2935Z" fill="#464646"/>
</g>
<defs>
<clipPath id="clip0_5217_3781">
<rect width="20" height="25" fill="white"/>
</clipPath>
</defs>
</svg>
